<?xml version="1.0" encoding="utf-8"?>
<!-- Generator: Adobe Illustrator 16.0.0, SVG Export Plug-In . SVG Version: 6.00 Build 0)  -->
<!DOCTYPE svg PUBLIC "-//W3C//DTD SVG 1.1//EN" "http://www.w3.org/Graphics/SVG/1.1/DTD/svg11.dtd">
<svg version="1.1" id="圖層_1" xmlns="http://www.w3.org/2000/svg" xmlns:xlink="http://www.w3.org/1999/xlink" x="0px" y="0px"
	 width="366.427px" height="196.141px" viewBox="0 0 366.427 196.141" enable-background="new 0 0 366.427 196.141"
	 xml:space="preserve">
<g>
	<path fill="none" stroke="#FFFFFF" stroke-width="5" stroke-miterlimit="10" d="M6.836,54.006c0-27.76,17.862-44.029,39.137-44.029
		c10.694,0,19.227,5.12,24.688,10.808L61.787,31.48c-4.209-4.096-9.102-7.054-15.473-7.054c-12.742,0-22.299,10.922-22.299,29.011
		c0,18.317,8.646,29.353,21.958,29.353c7.167,0,12.856-3.413,17.407-8.305l8.874,10.467c-6.94,8.078-15.928,12.401-26.85,12.401
		C24.129,97.353,6.836,82.107,6.836,54.006z"/>
	<path fill="none" stroke="#FFFFFF" stroke-width="5" stroke-miterlimit="10" d="M77.144,53.324
		c0-27.418,15.359-43.346,37.658-43.346s37.658,16.042,37.658,43.346S137.1,97.353,114.801,97.353S77.144,80.628,77.144,53.324z
		 M135.28,53.324c0-18.089-7.964-28.897-20.479-28.897S94.323,35.234,94.323,53.324c0,17.976,7.964,29.466,20.479,29.466
		S135.28,71.299,135.28,53.324z"/>
</g>
<g>
	<path fill="none" stroke="#FFFFFF" stroke-width="5" stroke-miterlimit="10" d="M60.029,107.051h17.179l6.712,41.071
		c1.251,8.874,2.617,17.862,3.868,26.85h0.455c1.707-8.988,3.527-18.089,5.347-26.85l9.784-41.071h14.335l9.784,41.071
		c1.82,8.646,3.527,17.748,5.347,26.85h0.569c1.251-9.102,2.503-18.089,3.754-26.85l6.599-41.071h16.042l-15.586,84.189h-20.934
		l-9.443-41.64c-1.365-6.599-2.617-13.083-3.641-19.455h-0.455c-1.138,6.371-2.275,12.856-3.641,19.455l-9.215,41.64H76.298
		L60.029,107.051z"/>
	<path fill="none" stroke="#FFFFFF" stroke-width="5" stroke-miterlimit="10" d="M167.08,159.499
		c0-21.275,14.676-33.562,30.604-33.562s30.604,12.287,30.604,33.562c0,21.047-14.676,33.334-30.604,33.334
		S167.08,180.546,167.08,159.499z M211.223,159.499c0-12.06-4.892-19.91-13.539-19.91s-13.539,7.85-13.539,19.91
		c0,11.946,4.892,19.682,13.539,19.682S211.223,171.444,211.223,159.499z"/>
	<path fill="none" stroke="#FFFFFF" stroke-width="5" stroke-miterlimit="10" d="M242.277,127.529h13.652l1.138,11.263h0.455
		c4.665-8.305,11.491-12.856,18.089-12.856c3.527,0,5.575,0.569,7.509,1.365l-2.958,14.449c-2.162-0.683-3.982-1.024-6.599-1.024
		c-5.006,0-11.036,3.299-14.676,12.515v37.999h-16.61V127.529z"/>
	<path fill="none" stroke="#FFFFFF" stroke-width="5" stroke-miterlimit="10" d="M291.877,100.452h16.269v54.609h0.455
		l22.071-27.532h18.203l-22.071,26.053l24.119,37.658h-18.089l-15.473-26.395l-9.215,10.467v15.928h-16.269V100.452z"/>
</g>
</svg>
