<?xml version="1.0" encoding="utf-8"?>
<!-- Generator: Adobe Illustrator 16.0.0, SVG Export Plug-In . SVG Version: 6.00 Build 0)  -->
<!DOCTYPE svg PUBLIC "-//W3C//DTD SVG 1.1//EN" "http://www.w3.org/Graphics/SVG/1.1/DTD/svg11.dtd">
<svg version="1.1" id="圖層_1" xmlns="http://www.w3.org/2000/svg" xmlns:xlink="http://www.w3.org/1999/xlink" x="0px" y="0px"
	 width="80px" height="80px" viewBox="0 0 80 80" enable-background="new 0 0 80 80" xml:space="preserve">
<path fill="#231815" d="M-261.359,100.668c-13.078,0-23.718-8.338-23.718-18.586v-11.94h-64.33c-0.365,0-0.73-0.037-1.083-0.109
	c-1.306-0.271-2.657-0.407-4.017-0.407c-2.348,0-4.25-1.491-4.25-3.331V4.11c0-1.266,0.914-2.421,2.36-2.984l55.66-21.649
	c1.178-0.458,2.562-0.461,3.744-0.014l56.977,21.65c1.465,0.557,2.396,1.722,2.396,2.998v77.972
	C-237.621,92.33-248.27,100.668-261.359,100.668z M-348.885,63.479h68.058c2.348,0,4.25,1.492,4.25,3.332v15.271
	c0,6.575,6.827,11.925,15.217,11.925c8.402,0,15.238-5.35,15.238-11.925V6.196l-52.706-20.026l-51.43,20.006v57.081
	C-349.797,63.321-349.339,63.396-348.885,63.479z"/>
<path fill="#231815" d="M-354.508,100.701c-13.278,0-24.079-8.464-24.079-18.868V66.812c0-1.84,1.903-3.332,4.25-3.332h93.509
	c2.348,0,4.25,1.492,4.25,3.332v15.271c0,6.575,6.827,11.925,15.217,11.925c0.006-0.002,0.015,0,0.021,0h0.022
	c2.347,0,4.25,1.491,4.25,3.33c0,1.84-1.903,3.331-4.25,3.331c-0.015-0.001-0.029-0.001-0.042,0h-91.874
	C-353.56,100.685-354.034,100.701-354.508,100.701z M-370.086,70.142v11.691c0,6.73,6.988,12.207,15.578,12.207
	c0.336,0,0.671-0.014,1.007-0.027c0.069-0.003,0.198-0.006,0.268-0.006h73.694c-3.456-3.23-5.539-7.391-5.539-11.925v-11.94
	H-370.086z"/>
<path fill="#231815" d="M-265.467,20.62h-67.421c-1.883,0-3.41-1.526-3.41-3.41c0-1.883,1.527-3.41,3.41-3.41h67.421
	c1.883,0,3.41,1.527,3.41,3.41C-262.057,19.093-263.583,20.62-265.467,20.62z"/>
<path fill="#231815" d="M-265.467,32.554h-67.421c-1.883,0-3.41-1.527-3.41-3.41c0-1.883,1.527-3.41,3.41-3.41h67.421
	c1.883,0,3.41,1.526,3.41,3.41C-262.057,31.027-263.583,32.554-265.467,32.554z"/>
<path fill="#231815" d="M-265.467,44.487h-67.421c-1.883,0-3.41-1.526-3.41-3.41c0-1.882,1.527-3.409,3.41-3.409h67.421
	c1.883,0,3.41,1.527,3.41,3.409C-262.057,42.961-263.583,44.487-265.467,44.487z"/>
<g>
	<g>
		<path fill="#231815" d="M-231.521,2.498l-13.534-10.841c-1.915-1.505-4.655-1.208-6.19,0.704l-37.79,47.274
			c-0.624,0.759-1.157,2.549-1.157,2.549l-1.864,12.21l-1.065,7.007l-0.145,1.079c0.02,0.763,0.39,1.543,1.036,2.073
			c0.678,0.505,1.517,0.723,2.316,0.53l0.959-0.391l6.55-2.56l11.544-4.501c0,0,1.597-0.855,2.226-1.674l37.821-47.271
			c0.721-0.929,1.044-2.086,0.928-3.234C-230.031,4.303-230.589,3.22-231.521,2.498z M-270.773,48.896l-11.011-8.439l32.306-40.407
			l11.013,8.411L-270.773,48.896z"/>
		
			<rect x="-266.454" y="-4.397" transform="matrix(0.7864 0.6178 -0.6178 0.7864 -40.9678 164.8941)" fill="#FFFFFF" width="15.13" height="55.225"/>
	</g>
	<polygon fill="#FFFFFF" points="-288.346,59.903 -287.074,52.177 -285.803,44.45 -279.868,49.112 -273.933,53.776 -281.138,56.84 	
		"/>
	<polygon fill="#030000" points="-288.346,59.903 -289.514,55.28 -290.68,50.659 -284.746,55.321 -278.811,59.983 -283.577,59.945 	
		"/>
</g>
<path fill="#FFFFFF" d="M62.486,71.478c-6.973,0-12.645-4.443-12.645-9.906v-6.365H15.553c-0.195,0-0.389-0.02-0.578-0.059
	c-0.696-0.144-1.416-0.216-2.141-0.216c-1.251,0-2.266-0.796-2.266-1.776V20.01c0-0.675,0.487-1.291,1.258-1.591l29.667-11.54
	c0.629-0.244,1.366-0.246,1.996-0.007l30.371,11.54c0.781,0.297,1.277,0.918,1.277,1.598v41.561
	C75.139,67.034,69.462,71.478,62.486,71.478z M15.832,51.655h36.277c1.251,0,2.265,0.795,2.265,1.775v8.141
	c0,3.505,3.639,6.355,8.112,6.355c4.478,0,8.121-2.851,8.121-6.355V21.122L42.514,10.448L15.101,21.111v30.425
	C15.346,51.57,15.59,51.611,15.832,51.655z"/>
<path fill="#FFFFFF" d="M12.834,71.496C5.757,71.496,0,66.983,0,61.438v-8.008c0-0.98,1.014-1.775,2.266-1.775h49.844
	c1.251,0,2.265,0.795,2.265,1.775v8.141c0,3.505,3.639,6.355,8.112,6.355c0.002-0.001,0.008,0,0.012,0h0.012
	c1.25,0,2.264,0.796,2.264,1.774c0,0.982-1.014,1.776-2.264,1.776c-0.01-0.001-0.018-0.001-0.023,0H13.515
	C13.34,71.486,13.088,71.496,12.834,71.496z M4.531,55.206v6.232c0,3.588,3.725,6.507,8.303,6.507c0.18,0,0.358-0.008,0.538-0.015
	c0.037-0.001,0.105-0.004,0.143-0.004h39.28c-1.841-1.722-2.953-3.939-2.953-6.355v-6.365H4.531z"/>
<path fill="#FFFFFF" d="M60.296,28.81H24.359c-1.004,0-1.818-0.813-1.818-1.817c0-1.003,0.814-1.817,1.818-1.817h35.937
	c1.004,0,1.818,0.814,1.818,1.817C62.114,27.997,61.3,28.81,60.296,28.81z"/>
<path fill="#FFFFFF" d="M60.296,35.171H24.359c-1.004,0-1.818-0.814-1.818-1.817c0-1.004,0.814-1.817,1.818-1.817h35.937
	c1.004,0,1.818,0.813,1.818,1.817C62.114,34.357,61.3,35.171,60.296,35.171z"/>
<path fill="#FFFFFF" d="M60.296,41.532H24.359c-1.004,0-1.818-0.813-1.818-1.817s0.814-1.817,1.818-1.817h35.937
	c1.004,0,1.818,0.813,1.818,1.817S61.3,41.532,60.296,41.532z"/>
<g>
	<g>
		<path fill="#FFFFFF" d="M78.39,19.151l-7.213-5.779c-1.021-0.803-2.48-0.644-3.3,0.375L47.734,38.945
			c-0.333,0.405-0.617,1.358-0.617,1.358l-0.994,6.509l-0.568,3.735l-0.076,0.574c0.011,0.406,0.208,0.823,0.553,1.106
			c0.36,0.268,0.807,0.385,1.233,0.281l0.513-0.208l3.491-1.363l6.153-2.399c0,0,0.851-0.457,1.187-0.894l20.16-25.196
			c0.383-0.495,0.555-1.112,0.493-1.724C79.184,20.113,78.887,19.536,78.39,19.151z M57.469,43.882l-5.87-4.499l17.22-21.538
			l5.87,4.483L57.469,43.882z"/>
		
			<rect x="59.77" y="15.476" transform="matrix(0.7863 0.6178 -0.6178 0.7863 32.2884 -32.9667)" fill="#FFFFFF" width="8.065" height="29.437"/>
	</g>
	<polygon fill="#FFFFFF" points="48.101,49.75 48.779,45.631 49.455,41.512 52.62,43.997 55.783,46.483 51.942,48.116 	"/>
	<polygon fill="#FFFFFF" points="48.101,49.75 47.479,47.285 46.857,44.822 50.021,47.307 53.184,49.791 50.644,49.772 	"/>
</g>
</svg>
