<?xml version="1.0" encoding="utf-8"?>
<?xml-stylesheet type="text/css" href="space_svg_motion.css"?>
<!-- Generator: Adobe Illustrator 16.0.0, SVG Export Plug-In . SVG Version: 6.00 Build 0)  -->
<!DOCTYPE svg PUBLIC "-//W3C//DTD SVG 1.1//EN" "http://www.w3.org/Graphics/SVG/1.1/DTD/svg11.dtd">
<svg version="1.1" id="focus_space" xmlns="http://www.w3.org/2000/svg" xmlns:xlink="http://www.w3.org/1999/xlink" x="0px" y="0px" width="750px" height="300px" viewBox="0 0 750 300" style="enable-background:new 0 0 750 300;" xml:space="preserve">
	<style type="text/css">
	<![CDATA[
		.st0{fill:none;stroke:#242919;stroke-width:12;stroke-linecap:round;stroke-miterlimit:10;}
		.st1{fill:#7AC0CE;}
		.st2{fill:#AB579E;}
		.st3{fill:#FFFFFF;stroke:#7AC0CE;stroke-width:0.3692;stroke-miterlimit:10;}
		.st4{fill:none;stroke:#6FC5C1;stroke-width:12;stroke-linecap:round;stroke-miterlimit:10;}
		.st5{fill:#E1BCAB;}
		.st6{fill:#8D99CD;stroke:#8D99CD;stroke-width:0.25;stroke-miterlimit:10;}
		.st7{fill:#E565A1;}
		.st8{fill:#E62782;}
		.st9{fill:none;stroke:#7AC0CE;stroke-width:1.1091;stroke-miterlimit:10;}
		.st10{fill:#19913B;}
		.st11{fill:#3E3A39;stroke:#484721;stroke-linecap:round;stroke-linejoin:round;stroke-miterlimit:10;}
		.st12{fill:none;stroke:#F5AE25;stroke-linecap:round;stroke-linejoin:round;stroke-miterlimit:10;}
		.st13{fill:none;stroke:#724F43;stroke-linecap:round;stroke-linejoin:round;stroke-miterlimit:10;}
		.st14{fill:#851B30;}
		.st15{fill:#B4DCC8;}
		.st16{fill:#B5B5B6;}
		.st17{fill:#1B499D;}
		.st18{fill:none;stroke:#000000;stroke-width:0.5546;stroke-miterlimit:10;}
		.st19{fill:#EA5532;}
		.st20{fill:#1C1835;}
		.st21{fill:#EBC138;}
		.st22{fill:#EC691A;}
		.st23{fill:#898989;}
		.st24{fill:#ECCCB6;}
		.st25{fill:#B9C41A;}
		.st26{fill:#EFB78E;}
		.st27{fill:none;stroke:#36414D;stroke-width:12;stroke-linecap:round;stroke-miterlimit:10;}
		.st28{fill:#BC6EA9;}
		.st29{fill:none;stroke:#224B9F;stroke-width:0.5;stroke-miterlimit:10;}
		.st30{fill:#BECF1D;}
		.st31{fill:#BF9D5A;}
		.st32{fill:#F08734;}
		.st33{fill:none;stroke:#724F43;stroke-width:0.25;stroke-linecap:round;stroke-linejoin:round;stroke-miterlimit:10;}
		.st34{fill:none;stroke:#63ADB8;stroke-width:12;stroke-linecap:round;stroke-miterlimit:10;}
		.st35{fill:#254624;}
		.st36{fill:#F6B34A;}
		.st37{fill:none;stroke:#2F391B;stroke-width:12;stroke-linecap:round;stroke-miterlimit:10;}
		.st38{fill:none;stroke:#B28247;stroke-width:0.25;stroke-linecap:round;stroke-linejoin:round;stroke-miterlimit:10;}
		.st39{fill:#2E8177;}
		.st40{fill:#2EAD38;}
		.st41{fill:#2F391B;}
		.st42{fill:#FFFFFF;}
		.st43{fill:#621014;}
		.st44{fill:none;stroke:#7AC0CE;stroke-width:0.5546;stroke-miterlimit:10;}
		.st45{fill:#653A1B;}
		.st46{fill:none;stroke:#661638;stroke-width:0.5;stroke-linecap:round;stroke-miterlimit:10;}
		.st47{fill:#9C4F9B;}
		.st48{fill:#699AD2;}
		.st49{fill:#CCAF79;}
		.st50{fill:#CCCCCC;}
		.st51{fill:none;stroke:#593317;stroke-width:0.75;stroke-linecap:round;stroke-linejoin:round;stroke-miterlimit:10;}
		.st52{fill:#9FCCEE;}
		.st53{fill:none;stroke:#077184;stroke-width:4;stroke-linecap:round;stroke-miterlimit:10;}
		.st54{fill:#315DAA;}
		.st55{fill:#CFEBF8;}
		.st56{fill:none;stroke:#74C294;stroke-miterlimit:10;}
		.st57{fill:none;stroke:#725339;stroke-miterlimit:10;}
		.st58{fill:none;stroke:#454C4E;stroke-width:12;stroke-linecap:round;stroke-miterlimit:10;}
		.st59{fill:#3563AE;}
		.st60{fill:#379489;}
		.st61{fill:#6EA79E;}
		.st62{fill:#6FBF86;}
		.st63{fill:#6FC5C1;}
		.st64{fill:none;stroke:#000000;stroke-width:1.1091;stroke-miterlimit:10;}
		.st65{fill:#D18FBC;}
		.st66{fill:#D2EBE9;}
		.st67{fill:#D8AD3A;}
		.st68{fill:#3E3A39;}
		.st69{fill:#D97CAF;}
		.st70{fill:#3F52A2;}
		.st71{fill:#701419;}
		.st72{fill:#A0C6E9;}
		.st73{fill:#724F43;}
		.st74{fill:#725339;}
		.st75{fill:#A3C3E7;}
		.st76{fill:#766E2B;}
		.st77{fill:#76B0E0;}
		.st78{fill:none;stroke:#3E3A39;stroke-width:3;stroke-linecap:round;stroke-miterlimit:10;}
		.st79{fill:none;stroke:#C84D1B;stroke-miterlimit:10;}
		.st80{fill:none;stroke:#F7C9DE;stroke-width:12;stroke-linecap:round;stroke-linejoin:round;stroke-miterlimit:10;}
		.st81{fill:#DD9613;}
		.st82{fill:none;stroke:#ECCCB6;stroke-width:10;stroke-linecap:round;stroke-miterlimit:10;}
		.st83{fill:#DDAB3A;}
		.st84{fill:#DDEAB4;}
		.st85{fill:#422413;}
		.st86{fill:none;stroke:#3B3C23;stroke-linecap:round;stroke-linejoin:round;stroke-miterlimit:10;}
		.st87{fill:#454C4E;}
	]]>
	</style>
	<g id="focus_space">
		<g id="focus_shadow">
			<polygon class="st50" points="208.2,263 191.2,279.4 257.4,279.4 256.2,263 	"/>
			<polygon class="st50" points="235.3,204.3 218.3,220.7 284.5,220.7 283.3,204.3 	"/>
			<polygon class="st50" points="191.6,184.4 249.3,184.4 189.9,289.5 108.1,289.5 	"/>
			<polygon class="st50" points="260.9,145.4 493.7,145.4 518.1,184.4 232.3,184.4 	"/>
			<polygon class="st50" points="543.8,263 560.7,279.4 494.5,279.4 495.8,263 	"/>
			<polygon class="st50" points="516.7,204.3 533.6,220.7 467.4,220.7 468.7,204.3 	"/>
			<polygon class="st50" points="560.4,184.4 502.7,184.4 562,289.5 643.9,289.5 	"/>
		</g>
		<g id="focus_man05_bootom">
			<path class="st20" d="M578,261c0.5,2.7-1.2,5.3-3.8,5.8l-14.8,3c-2.7,0.5-5.3-1.2-5.8-3.8l0,0c-0.5-2.7,1.2-5.3,3.8-5.8l14.8-3
				C574.8,256.6,577.4,258.4,578,261L578,261z"/>
			<path class="st0" d="M533.6,231.7c0,0,26.8,4.6,25.8,30.3"/>
			<path class="st41" d="M511.3,222.4c-0.1,2.1-4.6,23,15.5,20.5c9.1-1.1,17.5-7.3,17.9-13.7l-0.6-6.5c0,0-5.6-5.2-14.9-5.5
				C520.1,216.9,511.3,222.4,511.3,222.4z"/>
			<path class="st20" d="M582.5,273.1c0.5,2.7-1.2,5.3-3.8,5.8l-14.8,3c-2.7,0.5-5.3-1.2-5.8-3.8l0,0c-0.5-2.7,1.2-5.3,3.8-5.8l14.8-3
				C579.4,268.7,582,270.4,582.5,273.1L582.5,273.1z"/>
			<path class="st37" d="M530.2,234.3c0,0,36,1.3,34,37.5"/>
		</g>
		<g id="focus_man01_bootom">
			<path class="st47" d="M174,261c-0.5,2.7,1.2,5.3,3.8,5.8l14.8,3c2.7,0.5,5.3-1.2,5.8-3.8l0,0c0.5-2.7-1.2-5.3-3.8-5.8l-14.8-3
				C177.2,256.6,174.6,258.4,174,261L174,261z"/>
			<path class="st34" d="M218.4,231.7c0,0-26.8,4.6-25.8,30.3"/>
			<path class="st63" d="M240.7,222.4c0.1,2.1,4.6,23-15.5,20.5c-9.1-1.1-17.5-7.3-17.9-13.7l0.6-6.5c0,0,5.6-5.2,14.9-5.5
				C231.9,216.9,240.7,222.4,240.7,222.4z"/>
			<path class="st47" d="M169.5,273.1c-0.5,2.7,1.2,5.3,3.8,5.8l14.8,3c2.7,0.5,5.3-1.2,5.8-3.8l0,0c0.5-2.7-1.2-5.3-3.8-5.8l-14.8-3
				C172.6,268.7,170,270.4,169.5,273.1L169.5,273.1z"/>
			<path class="st4" d="M221.8,234.3c0,0-36,1.3-34,37.5"/>
		</g>
		<g id="focus_desk">
			<g>
				<path class="st53" d="M120.6,286.3c0,2.7-2.4,4.9-5.3,4.9l0,0c-2.9,0-5.3-2.2-5.3-4.9v-47.4c0-2.7,2.4-4.9,5.3-4.9l0,0
					c2.9,0,5.3,2.2,5.3,4.9V286.3z"/>
				<path class="st53" d="M186.2,286.3c0,2.7-2.4,4.9-5.3,4.9l0,0c-2.9,0-5.3-2.2-5.3-4.9v-47.4c0-2.7,2.4-4.9,5.3-4.9l0,0
					c2.9,0,5.3,2.2,5.3,4.9V286.3z"/>
				<rect x="101.2" y="229.2" class="st77" width="92.2" height="9.7"/>
				<polygon class="st75" points="179,147.8 247,147.8 193.4,229.2 101.2,229.2 		"/>
				<polygon class="st48" points="247,147.8 247,158 193.4,238.9 193.4,229.2 		"/>
			</g>
			<g>
				<path class="st53" d="M631.4,286.3c0,2.7,2.4,4.9,5.3,4.9l0,0c2.9,0,5.3-2.2,5.3-4.9v-47.4c0-2.7-2.4-4.9-5.3-4.9l0,0
					c-2.9,0-5.3,2.2-5.3,4.9V286.3z"/>
				<path class="st53" d="M565.7,286.3c0,2.7,2.4,4.9,5.3,4.9l0,0c2.9,0,5.3-2.2,5.3-4.9v-47.4c0-2.7-2.4-4.9-5.3-4.9l0,0
					c-2.9,0-5.3,2.2-5.3,4.9V286.3z"/>
				<rect x="558.6" y="229.2" class="st77" width="92.2" height="9.7"/>
				<polygon class="st75" points="573,147.8 505,147.8 558.6,229.2 650.8,229.2 		"/>
				<polygon class="st48" points="505,147.8 505,158 558.6,238.9 558.6,229.2 		"/>
			</g>
			<g>
				<polygon class="st72" points="575.8,100.5 561.8,100.5 644.4,167.9 662.8,167.9 		"/>
				<polygon class="st55" points="561.8,100.5 561.8,111.6 644.4,186.2 644.4,167.9 		"/>
				<rect x="644.4" y="167.9" class="st77" width="18.4" height="18.4"/>
				<line class="st78" x1="636.3" y1="80.9" x2="636.3" y2="149.5"/>
				<line class="st78" x1="585.5" y1="69.1" x2="585.5" y2="112.6"/>
			</g>
			<g>
				<polygon class="st72" points="176.2,100.5 190.2,100.5 107.6,167.9 89.2,167.9 		"/>
				<polygon class="st55" points="190.2,100.5 190.2,111.6 107.6,186.2 107.6,167.9 		"/>
				<rect x="89.2" y="167.9" class="st77" width="18.4" height="18.4"/>
				<line class="st78" x1="115.7" y1="80.9" x2="115.7" y2="149.5"/>
				<line class="st78" x1="166.5" y1="69.1" x2="166.5" y2="112.6"/>
			</g>
		</g>
		<g id="focus_notebook">
			<g id="focus_notebook04">
				<polygon class="st11" points="555.2,196.3 573.8,191.5 594.3,209.2 575.9,213.6 		"/>
				<polygon class="st23" points="573.6,171.6 573.6,191.9 594.3,209.2 594.7,184.8 		"/>
				<polygon id="focus_notebook04_monitor" class="st15" points="574.2,172.7 574.2,191.8 593.7,208.1 594.1,185.1 		"/>
				<line class="st29" x1="579.3" y1="179.8" x2="589.9" y2="186.6"/>
				<line class="st29" x1="575.3" y1="181.1" x2="589.9" y2="190.4"/>
				<line class="st29" x1="576.5" y1="185.2" x2="587.7" y2="191.8"/>
				<line class="st29" x1="577.9" y1="190.4" x2="591" y2="198.9"/>
			</g>
			<g id="focus_notebook03">
				<polygon class="st11" points="527.1,157.9 543,153.8 560.4,168.9 544.7,172.7 		"/>
				<polygon class="st23" points="542.8,136.8 542.8,154.1 560.4,168.9 560.8,148.1 		"/>
				<polygon id="focus_notebook03_monitor" class="st6" points="543.3,137.7 543.3,154.1 559.9,168 560.3,148.3 		"/>
				<g>
					<g>
						<path class="st54" d="M545.8,144.6c0.8,0,0.8-1.2,0-1.2S545,144.6,545.8,144.6L545.8,144.6z"/>
					</g>
				</g>
				<g>
					<g>
						<path class="st54" d="M548.4,145.3c0.8,0,0.8-1.2,0-1.2S547.6,145.3,548.4,145.3L548.4,145.3z"/>
					</g>
				</g>
				<g>
					<g>
						<path class="st54" d="M550,147.8c0.8,0,0.8-1.2,0-1.2S549.2,147.8,550,147.8L550,147.8z"/>
					</g>
				</g>
				<g>
					<g>
						<path class="st54" d="M553.2,147.3c0.8,0,0.8-1.2,0-1.2S552.4,147.3,553.2,147.3L553.2,147.3z"/>
					</g>
				</g>
				<g>
					<g>
						<path class="st54" d="M556.5,149.3c0.8,0,0.8-1.2,0-1.2S555.7,149.3,556.5,149.3L556.5,149.3z"/>
					</g>
				</g>
				<g>
					<g>
						<path class="st54" d="M554.8,155.8c0.8,0,0.8-1.2,0-1.2S554,155.8,554.8,155.8L554.8,155.8z"/>
					</g>
				</g>
				<g>
					<g>
						<path class="st54" d="M557.4,153.3c0.8,0,0.8-1.2,0-1.2S556.6,153.3,557.4,153.3L557.4,153.3z"/>
					</g>
				</g>
				<g>
					<g>
						<path class="st54" d="M551.6,156.8c0.8,0,0.8-1.2,0-1.2S550.8,156.8,551.6,156.8L551.6,156.8z"/>
					</g>
				</g>
				<g>
					<g>
						<path class="st54" d="M548.7,157.7c0.8,0,0.8-1.2,0-1.2S547.9,157.7,548.7,157.7L548.7,157.7z"/>
					</g>
				</g>
				<g>
					<g>
						<path class="st54" d="M546.4,155.4c0.8,0,0.8-1.2,0-1.2S545.6,155.4,546.4,155.4L546.4,155.4z"/>
					</g>
				</g>
				<g>
					<g>
						<path class="st54" d="M545.2,152.7c0.8,0,0.8-1.2,0-1.2S544.4,152.7,545.2,152.7L545.2,152.7z"/>
					</g>
				</g>
				<g>
					<g>
						<path class="st54" d="M544.6,148.7c0.8,0,0.8-1.2,0-1.2S543.8,148.7,544.6,148.7L544.6,148.7z"/>
					</g>
				</g>
			</g>
			<g id="focus_notebook02">
				<polygon class="st11" points="224.9,157.9 209,153.8 191.5,168.9 207.2,172.7 		"/>
				<polygon class="st23" points="209.2,136.8 209.2,154.1 191.5,168.9 191.2,148.1 		"/>
				<polygon class="st68" points="208.7,137.7 208.7,154.1 192,168 191.7,148.3 		"/>
				<polygon id="focus_notebook02_monitor" class="st52" points="208.7,137.7 208.7,154.1 192,168 191.7,148.3 		"/>
				<line class="st56" x1="194.4" y1="149.8" x2="205.2" y2="142.5"/>
				<line class="st56" x1="197.2" y1="150.1" x2="206.5" y2="143.4"/>
				<line class="st56" x1="195.4" y1="154.4" x2="206.8" y2="146.1"/>
				<line class="st56" x1="196" y1="157.4" x2="206.5" y2="150.2"/>
				<line class="st56" x1="196" y1="159.6" x2="204.7" y2="153.8"/>
			</g>
			<g id="focus_notebook01">
				<polygon class="st11" points="198.4,199.8 179.8,195 159.4,212.8 177.8,217.2 		"/>
				<polygon class="st23" points="180,175.1 180,195.4 159.4,212.8 158.9,188.3 		"/>
				<polygon id="focus_notebook01_monitor" class="st84" points="179.4,176.2 179.4,195.4 160,211.7 159.6,188.7 		"/>
				<ellipse class="st17" cx="170.8" cy="188.5" rx="4.4" ry="1.4"/>
				<ellipse class="st25" cx="166.2" cy="196.8" rx="3.3" ry="4"/>
				<ellipse class="st8" cx="174" cy="195.1" rx="3.2" ry="1.1"/>
			</g>
		</g>
		<g id="focus_furniture">
			<g>
				<path class="st30" d="M382.1,179.7c0,2.1-1.7,3.8-3.8,3.8l0,0c-2.1,0-3.8-1.7-3.8-3.8v-8.7c0-2.1,1.7-3.8,3.8-3.8l0,0
					c2.1,0,3.8,1.7,3.8,3.8V179.7z"/>
				<path class="st30" d="M295.1,179.7c0,2.1-1.7,3.8-3.8,3.8l0,0c-2.1,0-3.8-1.7-3.8-3.8v-8.7c0-2.1,1.7-3.8,3.8-3.8l0,0
					c2.1,0,3.8,1.7,3.8,3.8V179.7z"/>
				<path class="st30" d="M466.6,180.1c0,2.1-1.7,3.8-3.8,3.8l0,0c-2.1,0-3.8-1.7-3.8-3.8v-8.7c0-2.1,1.7-3.8,3.8-3.8l0,0
					c2.1,0,3.8,1.7,3.8,3.8V180.1z"/>
				<rect x="253.5" y="117.4" class="st83" width="249.6" height="52.7"/>
				<polygon class="st21" points="263.3,103.9 494.1,103.9 503,117.4 253.5,117.4 		"/>
				<line class="st57" x1="253.5" y1="142.5" x2="503.1" y2="142.5"/>
				<path class="st74" d="M386.4,129.4c0,1-0.8,1.9-1.9,1.9H372c-1,0-1.9-0.8-1.9-1.9l0,0c0-1,0.8-1.9,1.9-1.9h12.6
					C385.6,127.5,386.4,128.3,386.4,129.4L386.4,129.4z"/>
				<path class="st74" d="M386.4,152.9c0,1-0.8,1.9-1.9,1.9H372c-1,0-1.9-0.8-1.9-1.9l0,0c0-1,0.8-1.9,1.9-1.9h12.6
					C385.6,151,386.4,151.8,386.4,152.9L386.4,152.9z"/>
				<path class="st74" d="M299.5,129.4c0,1-0.8,1.9-1.9,1.9H285c-1,0-1.9-0.8-1.9-1.9l0,0c0-1,0.8-1.9,1.9-1.9h12.6
					C298.6,127.5,299.5,128.3,299.5,129.4L299.5,129.4z"/>
				<path class="st74" d="M299.5,152.9c0,1-0.8,1.9-1.9,1.9H285c-1,0-1.9-0.8-1.9-1.9l0,0c0-1,0.8-1.9,1.9-1.9h12.6
					C298.6,151,299.5,151.8,299.5,152.9L299.5,152.9z"/>
				<path class="st74" d="M470.9,129.4c0,1-0.8,1.9-1.9,1.9h-12.6c-1,0-1.9-0.8-1.9-1.9l0,0c0-1,0.8-1.9,1.9-1.9h12.6
					C470.1,127.5,470.9,128.3,470.9,129.4L470.9,129.4z"/>
				<path class="st74" d="M470.9,152.9c0,1-0.8,1.9-1.9,1.9h-12.6c-1,0-1.9-0.8-1.9-1.9l0,0c0-1,0.8-1.9,1.9-1.9h12.6
					C470.1,151,470.9,151.8,470.9,152.9L470.9,152.9z"/>
				<line class="st57" x1="333.1" y1="117.4" x2="333.1" y2="170.1"/>
				<line class="st57" x1="423.5" y1="117.4" x2="423.5" y2="170.1"/>
			</g>
			<ellipse class="st67" cx="464.8" cy="110.9" rx="8.1" ry="2.1"/>
			<ellipse class="st67" cx="288.5" cy="112.4" rx="8.1" ry="2.1"/>
			<g id="focus_flowerbox02">
				<polygon class="st66" points="276.1,94 282.9,91.6 292.9,91.6 299.8,94 295.1,95.3 281,95.3 		"/>
				<g id="focus_flower02">
					<path class="st39" d="M283.4,85.2c-5.4-3.9-8.9,0.8-8.1,8.4c0.3-7.1,3.9-9.7,8.1-4.4V85.2z"/>
					<path class="st60" d="M306.1,81c-11.8-5.8-15.5,4.9-15.5,14.5h-2.8C287.1,85.3,295,70.9,306.1,81"/>
					<path class="st39" d="M286.2,95.8c-1.5-4.5-2.8-10.6,0.4-16.3c3.3-5.7,10-5.6,10-5.6c-5.8,1.2-12.5,8.5-6.7,21.9H286.2z"/>
					<path class="st61" d="M288.6,95.8c1.3-8.8,10.2-11.8,12.4-4.1c-4.3-6.8-8.7,0.6-9.1,4.1H288.6z"/>
					<path class="st60" d="M285.9,96.1c0,0,0.6-2.2-0.4-6.4c-2.2-9.3-11.3-12.5-14.2-7c4.7-3.6,12.3,3,11.6,13.5H285.9z"/>
					<path class="st61" d="M301.8,82.7c-14.2-4.1-16.4,7.5-14.6,12.7h-2.7C282.3,87.5,287.8,76,301.8,82.7"/>
				</g>
				<g>
					<polygon class="st49" points="276.2,102.9 281,95.3 295.1,95.3 300.6,103.6 295.6,110.7 			"/>
					<polygon class="st31" points="276.2,102.9 282.6,113 293.2,113 295.6,110.7 			"/>
					<polygon class="st31" points="295.1,95.3 299.8,94 300.6,103.6 			"/>
					<polygon class="st31" points="281,95.3 276.1,94 276.2,102.9 			"/>
				</g>
			</g>
			<g id="focus_flowerbox01">
				<polygon class="st66" points="452.9,92 459.7,89.7 469.7,89.7 476.6,92 471.9,93.4 457.8,93.4 		"/>
				<g id="focus_flower01">
					<path class="st39" d="M460.2,83.3c-5.4-3.9-8.9,0.8-8.1,8.4c0.3-7.1,3.9-9.7,8.1-4.4V83.3z"/>
					<path class="st60" d="M482.9,79.1c-11.8-5.8-15.5,4.9-15.5,14.5h-2.8C463.9,83.4,471.8,68.9,482.9,79.1"/>
					<path class="st39" d="M463,93.9c-1.5-4.5-2.8-10.6,0.4-16.3c3.3-5.7,10-5.6,10-5.6c-5.8,1.2-12.5,8.5-6.7,21.9H463z"/>
					<path class="st61" d="M465.4,93.9c1.3-8.8,10.2-11.8,12.4-4.1c-4.3-6.8-8.7,0.6-9.1,4.1H465.4z"/>
					<path class="st60" d="M462.7,94.2c0,0,0.6-2.2-0.4-6.4c-2.2-9.3-11.3-12.5-14.2-7c4.7-3.6,12.3,3,11.6,13.5H462.7z"/>
					<path class="st61" d="M478.6,80.7c-14.2-4.1-16.4,7.5-14.6,12.7h-2.7C459.1,85.6,464.6,74.1,478.6,80.7"/>
				</g>
				<g>
					<polygon class="st49" points="453,101 457.8,93.4 471.9,93.4 477.4,101.7 472.4,108.8 			"/>
					<polygon class="st31" points="453,101 459.4,111.1 470,111.1 472.4,108.8 			"/>
					<polygon class="st31" points="471.9,93.4 476.6,92 477.4,101.7 			"/>
					<polygon class="st31" points="457.8,93.4 452.9,92 453,101 			"/>
				</g>
			</g>
			<g id="focus_clock">
				<circle class="st19" cx="377.5" cy="53" r="13.3"/>
				<circle class="st42" cx="377.5" cy="53" r="11.1"/>
				<g>
					<circle class="st18" cx="377.5" cy="53" r="10.7"/>
					<line class="st64" x1="377.5" y1="42.4" x2="377.5" y2="43.5"/>
					<line class="st64" x1="366.8" y1="53" x2="368" y2="53"/>
					<line class="st64" x1="377.5" y1="63.7" x2="377.5" y2="62.5"/>
					<line class="st64" x1="388.2" y1="53" x2="387" y2="53"/>
					<line class="st64" x1="372.1" y1="43.8" x2="372.7" y2="44.8"/>
					<line class="st64" x1="368.2" y1="58.4" x2="369.3" y2="57.8"/>
					<line class="st64" x1="382.8" y1="62.3" x2="382.2" y2="61.3"/>
					<line class="st64" x1="386.7" y1="47.7" x2="385.7" y2="48.3"/>
					<line class="st64" x1="368.2" y1="47.7" x2="369.3" y2="48.3"/>
					<line class="st64" x1="372.1" y1="62.3" x2="372.7" y2="61.3"/>
					<line class="st64" x1="386.7" y1="58.4" x2="385.7" y2="57.8"/>
					<line class="st64" x1="382.8" y1="43.8" x2="382.2" y2="44.8"/>
					<g>
						<line id="focus_clock_sec" class="st44" x1="384.4" y1="46.2" x2="374.1" y2="56.5"/>
						<line id="focus_clock_minute" class="st9" x1="372.9" y1="48.5" x2="379.4" y2="55"/>
						<circle class="st3" cx="377.5" cy="53.1" r="0.4"/>
					</g>
				</g>
			</g>
		</g>
		<g id="focus_man02_bootom">
			<path class="st27" d="M244.5,180c0,0-26.8,4.6-25.8,30.3"/>
			<path class="st87" d="M270.2,174.6c0.1,2,4.3,21.3-14.4,19c-8.4-1.1-16.2-6.8-16.6-12.7l0.6-6c0,0,5.2-4.8,13.8-5.1
				C262.1,169.5,270.2,174.6,270.2,174.6z"/>
			<path class="st58" d="M252.7,185.6c0,0-33.3,1.2-31.5,34.8"/>
		</g>
		<g id="focus_man02_top">
			<g id="Fman02_right_hand">
				<path class="st43" d="M226.9,162.7c8.7,1.4,15.9-0.1,21.2-4.3c10.1-7.9,10.5-14.5,10.5-15.1c0-0.3-0.1-0.5-0.1-0.8
					c-0.5-1.9-2.2-3.3-4.3-3.3c-2.3,0.1-3.3,1.9-4,4.4c-0.1,0.2-0.7,3-7.3,8.1c-3.5,2.7-8.5,3.6-15,2.5
					C227.8,154.4,231.7,160,226.9,162.7z"/>
				<path class="st5" d="M219.5,161.1c2.6,0.8,5,1.3,7.3,1.7l0,0c4.9-2.7,1-8.4,1-8.4c-1.9-0.3-3.8-0.8-5.9-1.4
					c-2.2-0.7-4.6,0.6-5.3,2.9C216,158.1,217.3,160.4,219.5,161.1z"/>
			</g>
			<path id="Fman02_body" class="st14" d="M240,152.9v21.4c0,0.8,0.1,1.6,0.2,2.4c11,2.8,25.7,6.8,30.8-1.7c0-0.2,0-0.4,0-0.7
				v-21.4c0-8-6.9-14.6-15.5-14.6c-4.3,0-8.1,1.6-10.9,4.3C241.7,145.2,240,148.9,240,152.9z"/>
			<g id="Fman02_head">
				<g>
					<path class="st26" d="M268.3,133.3c-0.2,0.9-1.1,1.4-1.9,1.2l-24.2-5.3c-0.9-0.2-1.4-1.1-1.2-1.9l0,0c0.2-0.9,1.1-1.4,1.9-1.2
						l24.2,5.3C267.9,131.6,268.5,132.4,268.3,133.3L268.3,133.3z"/>
					<g>
						<circle class="st24" cx="254" cy="131.2" r="11.3"/>
						<path class="st42" d="M255,131.2c0,0.9-0.7,1.6-1.6,1.6c-0.9,0-1.6-0.7-1.6-1.6c0-0.9,0.7-1.6,1.6-1.6
							C254.3,129.6,255,130.3,255,131.2z"/>
						<path class="st42" d="M249.3,130.1c0,0.9-0.7,1.6-1.6,1.6c-0.9,0-1.6-0.7-1.6-1.6c0-0.9,0.7-1.6,1.6-1.6
							C248.6,128.5,249.3,129.2,249.3,130.1z"/>
						<circle cx="246.7" cy="129.6" r="0.6"/>
						<path d="M253,130.6c0,0.3-0.2,0.6-0.6,0.6s-0.6-0.2-0.6-0.6c0-0.3,0.2-0.6,0.6-0.6S253,130.3,253,130.6z"/>
						<path class="st69" d="M250.7,132.5c-0.1,0.4-0.5,0.6-0.8,0.5l0,0c-0.4-0.1-0.6-0.5-0.5-0.8l0.6-2.2c0.1-0.4,0.5-0.6,0.8-0.5l0,0
							c0.4,0.1,0.6,0.5,0.5,0.8L250.7,132.5z"/>
					</g>
					<path class="st13" d="M253,127.7c0,0,0.9-0.7,2,0.2"/>
					<path class="st13" d="M247.5,126.8c1.1-1,2,0.2,2,0.2"/>
				</g>
				<g>
					<g id="XMLID_3_">
						<g>
							<path class="st73" d="M242.1,121.3c-0.3,0.8-0.4,1.6-0.4,2.4c0,0,0-0.1,0-0.1c0.1-1.3,1-5.8,1.9-6.9c0.8-1,1.7-1.8,2.6-2.4
								c-0.9,0.6-1.8,1.4-2.6,2.4C242.7,117.9,242.3,120.7,242.1,121.3z"/>
							<path class="st73" d="M248.7,123.8c-0.2,0.2-2.8,1.9-7,0.4c0,0,0,0.1,0,0.1l0,0.3c0.2,2.3,1.2,5.4,1.2,5.4s0-2.9,0.7-4.2
								c0.1-0.2,0.5-0.7,0.6-0.8c-0.1,0-0.2,0-0.2,0c0,0,0,0,0,0c0.1,0,0.1,0,0.2,0C246.7,125,248,124.3,248.7,123.8z"/>
							<path class="st73" d="M258.7,113.1c-1.2-0.4-7.3-2.2-12.4,1.2C251.2,111.1,257.5,112.8,258.7,113.1z"/>
							<path class="st73" d="M258.9,113.2C258.9,113.2,258.9,113.2,258.9,113.2C258.9,113.2,258.9,113.2,258.9,113.2z"/>
							<path class="st73" d="M259.4,113.3c0.1,0,0.1,0,0.2,0.1C259.5,113.3,259.5,113.3,259.4,113.3z"/>
							<path class="st73" d="M259.8,113.4c0.8,0.2,1.9,0.7,3.1,1.3C261.7,114,260.5,113.6,259.8,113.4z"/>
							<path class="st73" d="M261.9,124c-0.1,0.3-0.1,0.7-0.1,1.1c-0.1,2.5,1,5.1,1,5.1l0.4-2.5c0,0,0.5,0.5,0.8,1.1
								c1.1,2.4-1.2,4.7-1.2,4.7s2.4-1.2,2.8-3c0.3-1,0.2-1.6,0.2-2.4c0.3,1.4,1.1,2.8,1.1,2.8l0.1-4.9l0-0.2c0,0,0.3-1.8,0.4-4
								c0.2-3.6-2.3-5.9-4.6-7.2c0,0,0,0,0,0c-1.2-0.7-2.3-1.1-3.1-1.3c0,0-0.1,0-0.1,0c-0.1,0-0.1,0-0.2-0.1
								c-0.2-0.1-0.4-0.1-0.4-0.1c0,0-0.1,0-0.1,0c0,0,0,0,0,0s-0.1,0-0.2-0.1c-1.1-0.3-7.5-2-12.4,1.2c0,0,0,0-0.1,0
								c-0.9,0.6-1.8,1.4-2.6,2.4c-0.9,1.1-1.8,5.6-1.9,6.9c0,0,0,0.1,0,0.1c0,0.2,0,0.3,0,0.5c4.1,1.5,6.7-0.2,7-0.4c0,0,0,0,0,0
								c-0.3,0.3-2.2,1.6-3.7,1.5c0.1,0.1,2,1.2,4.9,0.6c1-0.2,2.9-1.5,3.1-1.6c-0.1,0.1-1.1,1.1-1.9,1.5c-0.8,0.5-2.8,0.8-2.8,0.8
								s1.8,0.6,3.9,0.1c0.9-0.2,2.2-0.9,2.5-1c-0.2,0.1-1,0.7-2.1,1.1c-2.1,0.8-3.6,0.5-3.6,0.5s2.9,0.6,3.8,0.7c1.2,0,4.5,0,7.2-1.7
								C261.1,125.5,261.6,124.7,261.9,124z"/>
							<path class="st73" d="M267.1,125.9l0,0.2L267.1,125.9c0,0,0.3-1.8,0.4-4c0.2-3.7-2.3-5.9-4.6-7.2c2.3,1.3,4.7,3.6,4.6,7.2
								C267.3,124.2,267.1,125.9,267.1,125.9z"/>
						</g>
						<g>
							<path class="st51" d="M262.9,114.7c2.3,1.3,4.8,3.6,4.6,7.2c-0.1,2.2-0.4,4-0.4,4l0,0.2l-0.6,3.1"/>
							<path class="st51" d="M259.8,113.4c0.8,0.2,1.9,0.7,3.1,1.3"/>
							<path class="st51" d="M259.4,113.3c0.1,0,0.1,0,0.2,0.1"/>
							<path class="st51" d="M258.9,113.2C258.9,113.2,258.9,113.2,258.9,113.2"/>
							<path class="st51" d="M246.3,114.3c5.1-3.5,11.2-1.7,12.4-1.2"/>
							<path class="st51" d="M241.7,123.9c0-0.1,0-0.1,0-0.2c0.1-1.3,1-5.8,1.9-6.9c0.8-1,1.7-1.8,2.6-2.4"/>
							<path class="st51" d="M244.3,125C244.3,125,244.3,125,244.3,125"/>
							<path class="st51" d="M244.3,125C244.3,125,244.3,125,244.3,125"/>
							<path class="st51" d="M244.1,125C244.1,125,244.1,125,244.1,125c0,0,0.1,0,0.2,0"/>
							<path class="st51" d="M248.7,123.8c-0.6,0.5-1.9,1.1-4.4,1.2c-0.1,0-0.1,0-0.2,0c0,0,0,0,0,0"/>
							<path class="st51" d="M253.1,124.3C253.1,124.3,253.1,124.3,253.1,124.3C253.1,124.3,253.1,124.3,253.1,124.3
								c-0.3,0.2-2.1,1.4-3.2,1.6c-2.9,0.6-4.8-0.5-4.9-0.6c1.5,0.1,3.4-1.2,3.7-1.5"/>
							<path class="st51" d="M254.8,125.6C254.8,125.6,254.8,125.6,254.8,125.6C254.8,125.6,254.8,125.6,254.8,125.6
								c-0.3,0.2-1.6,0.9-2.5,1.1c-2.1,0.5-3.9-0.1-3.9-0.1s2-0.4,2.8-0.8c0.8-0.4,1.7-1.3,1.9-1.5"/>
							<path class="st51" d="M244.3,125c-0.1,0.2-0.5,0.7-0.6,0.8c-0.7,1.3-0.7,4.2-0.7,4.2s-1-3.1-1.2-5.4l0-0.3c0,0,0-0.1,0-0.1
								c0-0.2,0-0.3,0-0.5c0-0.8,0.1-1.6,0.4-2.4c0.2-0.6,0.6-3.4,1.6-4.6c0.8-1,1.7-1.8,2.6-2.4c0,0,0,0,0.1,0
								c4.9-3.2,11.3-1.6,12.4-1.2c0.1,0,0.2,0.1,0.2,0.1s0,0,0,0c0,0,0,0,0.1,0c0.1,0,0.2,0.1,0.4,0.1c0.1,0,0.1,0,0.2,0.1
								c0,0,0.1,0,0.1,0c0.8,0.2,1.9,0.7,3.1,1.3c0,0,0,0,0,0c2.3,1.3,4.7,3.6,4.6,7.2c-0.1,2.2-0.4,4-0.4,4l0,0.2L267,131
								c0,0-0.8-1.4-1.1-2.8c0,0.8,0.1,1.4-0.2,2.4c-0.4,1.7-2.8,3-2.8,3s2.2-2.3,1.2-4.7c-0.3-0.6-0.8-1.1-0.8-1.1l-0.4,2.5
								c0,0-1.1-2.6-1-5.1c0-0.5,0.1-0.8,0.1-1.1c-0.3,0.6-0.9,1.5-1.9,2.2c-2.6,1.8-5.9,1.8-7.2,1.7c-1,0-3.8-0.7-3.8-0.7
								s1.6,0.2,3.6-0.5c1.1-0.4,1.9-1,2.1-1.1"/>
							<path class="st51" d="M241.5,124.1c0,0,0.1-0.2,0.2-0.4c0,0,0-0.1,0-0.1c0.7-1.3,2.7-4.7,5.9-5.6"/>
							<path class="st51" d="M248.7,123.8C248.7,123.8,248.7,123.8,248.7,123.8c-0.3,0.2-2.8,1.9-7,0.4c-0.1,0-0.1,0-0.2-0.1"/>
							<path class="st51" d="M261.9,124c0,0,0.7-1.6,0.8-3.3"/>
							<path class="st51" d="M257.5,122.7c-0.6,1.5-2,2.6-2.7,3"/>
							<path class="st51" d="M265.9,128.2c0,0-0.2-1.2-0.2-2.2"/>
							<path class="st51" d="M263.3,127.7c0,0,0.1-0.5,0.3-1.6"/>
						</g>
					</g>
				</g>
				<line class="st46" x1="249.1" y1="135" x2="253.4" y2="135"/>
			</g>
			<g id="Fman02_left_hand">
				<path class="st71" d="M216.6,170.3c8,3.9,15.2,4.6,21.5,2.2c11.9-4.5,15.7-18.5,15.9-19.1c0.1-0.3,0.1-0.5,0.1-0.8
					c0.1-2-1.1-3.9-3.1-4.4c-2.3-0.6-4.6,0.8-5.2,3c0,0.2-2.9,10.4-10.8,13.3c-4.2,1.6-9.2,0.9-15.1-2.1
					C220,162.6,222,169.2,216.6,170.3z"/>
				<path class="st24" d="M210.1,166.6c2.2,1.5,4.4,2.7,6.5,3.8l0,0c5.4-1.2,3.4-7.7,3.4-7.7c-1.7-0.8-3.4-1.9-5.2-3.1
					c-1.9-1.3-4.6-0.8-5.9,1.2C207.6,162.6,208.1,165.3,210.1,166.6z"/>
			</g>
		</g>
		<g id="focus_man04_bootom">
			<path class="st27" d="M507.5,180c0,0,26.8,4.6,25.8,30.3"/>
			<path class="st87" d="M481.7,174.6c-0.1,2-4.3,21.3,14.4,19c8.4-1.1,16.2-6.8,16.6-12.7l-0.6-6c0,0-5.2-4.8-13.8-5.1
				C489.9,169.5,481.7,174.6,481.7,174.6z"/>
			<path class="st58" d="M499.2,185.6c0,0,33.3,1.2,31.5,34.8"/>
		</g>
		<g id="focus_man04_top">
			<g id="Fman04_left_hand">
				<path class="st2" d="M529.9,164.3c-8.5,2.4-15.8,1.8-21.6-1.8c-10.9-6.6-12.1-21-12.1-21.7c0-0.3,0-0.5,0-0.8
					c0.2-2,1.8-3.6,3.9-3.7c2.3-0.2,4.3,1.6,4.5,3.9c0,0.2,1,10.8,8.1,15.1c3.8,2.3,8.9,2.5,15.2,0.7C528,156,524.8,162.1,529.9,164.3
					z"/>
				<path class="st5" d="M537,161.7c-2.5,1-4.8,1.9-7.1,2.5l0,0c-5.1-2.1-2-8.2-2-8.2c1.8-0.5,3.7-1.2,5.7-2.1
					c2.1-0.9,4.6,0.1,5.6,2.2C540.1,158.3,539.2,160.8,537,161.7z"/>
			</g>
			<path id="Fman04_body" class="st65" d="M512,152.9v21.4c0,0.8-0.1,1.6-0.2,2.4c-11,2.8-25.7,6.8-30.8-1.7c0-0.2,0-0.4,0-0.7
				v-21.4c0-8,6.9-14.6,15.5-14.6c4.3,0,8.1,1.6,10.9,4.3C510.3,145.2,512,148.9,512,152.9z"/>
			<g id="Fman04_head">
				<path class="st24" d="M487.8,128.4c-0.6,6.7,4.4,12.6,11.1,13.2c6.7,0.6,12.6-4.4,13.2-11.1c0.6-6.7-4.4-12.6-11.1-13.2
					C494.3,116.8,488.4,121.7,487.8,128.4z"/>
				<line class="st38" x1="502.9" y1="127.9" x2="502.9" y2="127.4"/>
				<line class="st38" x1="503.6" y1="127.9" x2="503.7" y2="127.2"/>
				<line class="st38" x1="504.3" y1="127.9" x2="504.6" y2="127.2"/>
				<line class="st38" x1="509.2" y1="127.2" x2="509.2" y2="126.9"/>
				<line class="st38" x1="509.9" y1="127.2" x2="510" y2="126.8"/>
				<line class="st38" x1="510.6" y1="127.2" x2="510.9" y2="126.8"/>
				<path class="st42" d="M501.8,129.4c-0.1,0.9,0.6,1.7,1.5,1.8c0.9,0.1,1.7-0.6,1.8-1.5c0.1-0.9-0.6-1.7-1.5-1.8
					C502.7,127.8,501.9,128.5,501.8,129.4z"/>
				<path class="st42" d="M508.1,128.7c-0.1,0.9,0.6,1.7,1.5,1.8c0.9,0.1,1.7-0.6,1.8-1.5c0.1-0.9-0.6-1.7-1.5-1.8
					C509,127.1,508.1,127.8,508.1,128.7z"/>
				<circle cx="510.5" cy="129.5" r="0.6"/>
				<path d="M503.7,130c0,0.3,0.2,0.6,0.5,0.6c0.3,0,0.6-0.2,0.6-0.5c0-0.3-0.2-0.6-0.5-0.6C504,129.5,503.7,129.7,503.7,130z"/>
				<path class="st69" d="M506.4,131.2c0.1,0.4,0.5,0.7,0.9,0.6l0,0c0.4-0.1,0.7-0.5,0.6-0.9l-0.4-2.4c-0.1-0.4-0.5-0.7-0.9-0.6l0,0
					c-0.4,0.1-0.7,0.5-0.6,0.9L506.4,131.2z"/>
				<g>
					<path class="st45" d="M508.9,122.4l-9,0.7l-1.1,18.5c0,0-5.2,4.2-11.6,4.2c-3.2,0-8.2-4.1-8.2-4.1c-1.8-2.1,3.7-29.7,18.5-29.6
						C512.2,112.1,510.6,122.3,508.9,122.4z"/>
				</g>
				<path class="st33" d="M504.3,125.9c0,0-0.9-0.9-2.2,0.1"/>
				<path class="st33" d="M510.4,125.3c-1.1-1.1-2.1,0.1-2.2,0.1"/>
				<line class="st46" x1="503.3" y1="134.5" x2="508.2" y2="134"/>
			</g>
			<g id="Fman04_right_hand">
				<path class="st28" d="M534.1,170.1c-8.2,3.3-15.5,3.6-21.7,0.7c-11.6-5.4-14.4-19.5-14.5-20.1c0-0.3-0.1-0.5-0.1-0.8
					c0-2,1.4-3.8,3.4-4.2c2.3-0.4,4.5,1.1,4.9,3.4c0,0.2,2.2,10.6,9.8,14.1c4,1.8,9.1,1.5,15.2-1C531.3,162.2,528.8,168.6,534.1,170.1
					z"/>
				<path class="st24" d="M540.9,166.8c-2.3,1.3-4.6,2.4-6.7,3.3l0,0c-5.4-1.6-2.9-7.9-2.9-7.9c1.7-0.7,3.6-1.6,5.4-2.7
					c2-1.2,4.6-0.5,5.8,1.6C543.6,163.1,542.9,165.7,540.9,166.8z"/>
			</g>
		</g>
		<g id="focus_chair02">
			<g>
				<line class="st53" x1="267.9" y1="193.5" x2="281.3" y2="217.1"/>
				<line class="st53" x1="272.8" y1="189.6" x2="283" y2="207.4"/>
				<line class="st53" x1="253" y1="188.6" x2="242.3" y2="210"/>
				<line class="st53" x1="242.3" y1="194.7" x2="230.5" y2="218.3"/>
				<polyline class="st80" points="238.5,193.5 267.9,188.6 278.3,166.8 		"/>
			</g>
			<g>
				<line class="st53" x1="484.1" y1="193.5" x2="470.6" y2="217.1"/>
				<line class="st53" x1="479.2" y1="189.6" x2="469" y2="207.4"/>
				<line class="st53" x1="499" y1="188.6" x2="509.6" y2="210"/>
				<line class="st53" x1="509.6" y1="194.7" x2="521.5" y2="218.3"/>
				<polyline class="st80" points="513.4,193.5 484.1,188.6 473.7,166.8 		"/>
			</g>
		</g>
		<g id="focus_chair01">
			<g>
				<line class="st53" x1="239.7" y1="248.8" x2="254.4" y2="274.5"/>
				<line class="st53" x1="245.1" y1="244.6" x2="256.2" y2="264"/>
				<line class="st53" x1="223.5" y1="243.5" x2="211.9" y2="266.8"/>
				<line class="st53" x1="211.9" y1="250.1" x2="199" y2="275.8"/>
				<polyline class="st80" points="207.7,248.8 239.7,243.5 251.1,219.8 		"/>
			</g>
			<g>
				<line class="st53" x1="512.2" y1="248.8" x2="497.6" y2="274.5"/>
				<line class="st53" x1="506.9" y1="244.6" x2="495.8" y2="264"/>
				<line class="st53" x1="528.4" y1="243.5" x2="540.1" y2="266.8"/>
				<line class="st53" x1="540.1" y1="250.1" x2="553" y2="275.8"/>
				<polyline class="st80" points="544.2,248.8 512.2,243.5 500.9,219.8 		"/>
			</g>
		</g>
		<g id="focus_man03">
			<g id="Fman03_foot">
				<path class="st36" d="M365.5,185.6c-2.5,2.1-3.7,5-2.8,6.5l5.4,8.5c1,1.5,3.8,1.1,6.3-1l0,0c2.5-2.1,3.7-5,2.8-6.5l-5.4-8.5
					C370.8,183.1,368,183.5,365.5,185.6L365.5,185.6z"/>
				<line class="st58" x1="379" y1="146.3" x2="372.1" y2="192.4"/>
				<path class="st36" d="M409,198.6c1.5-2.3,0.9-5.3-1.4-6.8l-12.6-8.3c-2.3-1.5-5.3-0.9-6.8,1.4l0,0c-1.5,2.3-0.9,5.3,1.4,6.8
					l12.6,8.3C404.5,201.5,407.5,200.8,409,198.6L409,198.6z"/>
				<line class="st58" x1="395.6" y1="144.3" x2="403.8" y2="190.7"/>
			</g>
			<g id="Fman03_body">
				<g id="Fman03_right_hand">
					<path class="st82" d="M405.6,128c16.9-7,17-17.9-7.6-28.5"/>
					<path class="st22" d="M399.2,94.3c1.1,0.4,5.6,2,10.8,4.9c-6,4.5-4.6,9.7-4.6,9.7c-3.7-2.2-7.3-3.8-9.5-4.5
						c-2.6-0.9-4-3.9-3.1-6.7C393.7,95,396.5,93.4,399.2,94.3z"/>
				</g>
				<g id="Fman03_left_hand">
					<path class="st82" d="M368,102.4c-3.5,8.9-33.5,29.1-17-1.7"/>
					<path class="st22" d="M364.6,98.3c-0.9,0.8-4.4,4.1-7.9,8.8c7.3,1.8,8.1,7.1,8.1,7.1c2.5-3.5,5.2-6.4,6.9-7.9
						c2-1.9,2.1-5.2,0.2-7.4C369.8,96.7,366.6,96.4,364.6,98.3z"/>
					<g id="Fman03_cafe">
						<path class="st35" d="M350.3,101c0,0.9,2.2,1.7,4.9,1.7c2.7,0,4.9-0.8,4.9-1.7c0-0.1,0-8.3,0-8.3h-9.9
							C350.3,92.7,350.3,101,350.3,101z"/>
						<path class="st16" d="M350.3,92.7c0,0.4,0.3,0.7,0.8,1c0.9-0.5,2.4-0.8,4.1-0.8c1.7,0,3.2,0.3,4.1,0.8c0.5-0.3,0.9-0.6,0.9-1
							c0-0.9-2.2-1.7-4.9-1.7C352.5,91,350.3,91.8,350.3,92.7z"/>
						<path class="st76" d="M351.2,93.7c0.9,0.5,2.4,0.7,4.1,0.7c1.7,0,3.2-0.3,4.1-0.7c-0.9-0.5-2.4-0.8-4.1-0.8
							C353.6,92.9,352.1,93.2,351.2,93.7z"/>
						<path class="st86" d="M351,95.8c0,0-2.8-1.4-3,1.3s0.8,3.6,3.1,2.4"/>
					</g>
				</g>
				<path class="st87" d="M402.5,127.3c0.4,2.1,8,22.1-12.2,22.6c-9.2,0.3-18.4-4.6-19.8-10.9l-0.4-6.5c0,0,4.7-6,13.9-7.7
					C393,123.2,402.5,127.3,402.5,127.3z"/>
				<path class="st32" d="M402.4,124.8c0.9,6.4-5.8,12.7-15,14l0,0c-9.2,1.3-17.4-2.9-18.3-9.3l-3.5-24.7c-0.9-6.4,5.8-12.7,15-14l0,0
					c9.2-1.3,17.4,2.9,18.3,9.3L402.4,124.8z"/>
				<g id="Fman03_head">
					<path class="st26" d="M395.1,81.5c0,1-0.9,1.7-1.8,1.7L366.6,82c-1,0-1.7-0.9-1.7-1.8l0,0c0-1,0.9-1.7,1.8-1.7l26.7,1.2
						C394.4,79.7,395.1,80.6,395.1,81.5L395.1,81.5z"/>
					<g>
						<circle class="st24" cx="379.5" cy="81.9" r="12.2"/>
					</g>
					<path class="st85" d="M392.8,70.3c1.7,13.8-0.8,17.5-5.2,19.5c-3.3,1.5-10.9,1.6-14-0.2c-8.2-4.6-7.9-15.9-8-18.4
						c0,0-0.9-4.6,2.8-6.6c0,0.1-0.4,1.6,1.7,1.8c5.2-1.4,4.9-1.7,9.1-2c5.1-0.4,8.1,1.4,8.1,1.4C389.3,66.5,392.5,67.7,392.8,70.3z"
						/>
				</g>
			</g>
		</g>
		<g id="focus_man05_top">
			<g id="Fman05_left_hand">
				<path class="st10" d="M557.9,204c-9.2,2.7-17,2.2-23.3-1.6c-11.9-7-13.9-10.7-14-11.3c0-0.3,0-0.6,0-0.9c0.2-2.1,1.9-3.9,4.1-4.1
					c2.5-0.2,2.7,0.3,5.4,2.6c0,0,1.3,1.2,9.1,5.8c4.1,2.4,9.6,2.6,16.4,0.6C555.7,195.2,552.4,201.8,557.9,204z"/>
				<path class="st5" d="M565.5,201.2c-2.6,1.2-5.2,2.1-7.6,2.8l0,0c-5.6-2.2-2.2-8.8-2.2-8.8c1.9-0.6,4-1.4,6.1-2.3c2.3-1,5,0,6,2.3
					C568.9,197.5,567.8,200.2,565.5,201.2z"/>
			</g>
			<path id="Fman05_body" class="st40" d="M544,198.9V222c0,0.9-0.1,1.7-0.2,2.5c-11.9,3-27.7,7.4-33.2-1.8c0-0.2,0-0.5,0-0.7
				v-23.1c0-8.7,7.5-15.7,16.7-15.7c4.6,0,8.8,1.8,11.8,4.6C542.1,190.7,544,194.6,544,198.9z"/>
			<g id="Fman05_head">
				<path class="st26" d="M514.7,174.4c0,1,0.8,1.7,1.8,1.7l26.7-0.6c1,0,1.7-0.8,1.7-1.8l0,0c0-1-0.8-1.7-1.8-1.7l-26.7,0.6
					C515.4,172.6,514.6,173.4,514.7,174.4L514.7,174.4z"/>
				<g>
					<path class="st24" d="M518.2,172.8c-1.3,6.6,3,13,9.6,14.3c6.6,1.3,13-3,14.3-9.6c1.3-6.6-3-13-9.6-14.3
						C525.9,161.9,519.5,166.2,518.2,172.8z"/>
					<path class="st42" d="M529.1,174.9c-0.2,0.9,0.4,1.8,1.3,2c0.9,0.2,1.8-0.4,2-1.3c0.2-0.9-0.4-1.8-1.3-2
						C530.2,173.4,529.3,174,529.1,174.9z"/>
					<path class="st42" d="M535.4,174.9c-0.2,0.9,0.4,1.8,1.3,2s1.8-0.4,2-1.3c0.2-0.9-0.4-1.8-1.3-2
						C536.5,173.4,535.6,174,535.4,174.9z"/>
					<circle cx="538" cy="175.3" r="0.6"/>
					<path d="M531,175.2c-0.1,0.3,0.1,0.6,0.5,0.7c0.3,0.1,0.6-0.1,0.7-0.5c0.1-0.3-0.1-0.6-0.5-0.7C531.3,174.6,531,174.9,531,175.2z
						"/>
					<path class="st79" d="M530.7,178.4"/>
					<path class="st69" d="M533.5,177.2c0,0.4,0.4,0.7,0.8,0.7l0,0c0.4,0,0.7-0.4,0.7-0.8l-0.1-2.5c0-0.4-0.4-0.7-0.8-0.7l0,0
						c-0.4,0-0.7,0.4-0.7,0.8L533.5,177.2z"/>
					<line class="st46" x1="533.3" y1="180.5" x2="535.9" y2="180"/>
				</g>
				<path class="st81" d="M525.1,167.9c0,0-0.5,4.1-3.6,5l-1,4.9c0,0-0.6,0.9-1.5-0.2c0,0-0.5-0.9-0.4-1.4c0.1-0.6,0.1-2.9-0.7-3.8
					c-0.8-0.9,2.2-5.2,2.2-5.2L525.1,167.9z"/>
				<path class="st81" d="M517.3,166.4c0.5,2.5,0.4,2.1,1.1,3.9l22.4-3.4c1.7-0.3,3.8-4.9-0.2-6c0.1,0.1-11.7-2.4-20,0.4
					C518.7,161.9,516.8,163.9,517.3,166.4z"/>
				<path class="st12" d="M532,171.7c0,0-0.8-1-2.2-0.2"/>
				<path class="st12" d="M538.1,171.8c-1-1.3-2.1-0.2-2.2-0.2"/>
			</g>
			<g id="Fman05_right_hand">
				<path class="st62" d="M567.6,213.4c-7.9,5.4-15.4,7.4-22.6,5.8c-13.5-2.9-19.8-17.2-20-17.8c-0.1-0.3-0.2-0.5-0.3-0.8
					c-0.5-2.1,0.6-4.3,2.6-5.2c2.3-1,5,0.1,6,2.4c0.1,0.2,4.8,10.6,13.6,12.5c4.7,1,10-0.6,15.8-4.6
					C562.7,205.7,561.6,213,567.6,213.4z"/>
				<path class="st24" d="M574,208.3c-2.1,1.9-4.2,3.6-6.3,5.1l0,0c-6-0.4-4.9-7.7-4.9-7.7c1.7-1.2,3.4-2.5,5.1-4.1
					c1.9-1.7,4.7-1.6,6.4,0.3C575.9,203.7,575.8,206.6,574,208.3z"/>
			</g>
		</g>
		<g id="focus_man01_top">
			<g id="Fman01_right_hand">
				<path class="st70" d="M193.8,203.9c9,3.3,16.8,3.3,23.4-0.1c12.3-6.2,13.8-9.7,13.9-10.4c0-0.3,0.1-0.6,0-0.9
					c-0.1-2.1-1.7-4-3.9-4.3c-2.5-0.4-2.9,1-5.7,2.8c-0.2,0.1-0.5,0.6-8.5,4.7c-4.3,2.1-9.8,2-16.4-0.5
					C196.6,195.2,199.5,202,193.8,203.9z"/>
				<path class="st5" d="M186.4,200.6c2.5,1.3,5,2.4,7.4,3.3l0,0c5.7-1.9,2.8-8.7,2.8-8.7c-1.9-0.7-3.9-1.6-6-2.7
					c-2.2-1.2-5-0.3-6.2,1.9C183.3,196.6,184.2,199.4,186.4,200.6z"/>
			</g>
			<path id="Fman01_body" class="st59" d="M208,198.9V222c0,0.9,0.1,1.7,0.2,2.5c11.9,3,27.7,7.4,33.2-1.8c0-0.2,0-0.5,0-0.7
				v-23.1c0-8.7-7.5-15.7-16.7-15.7c-4.6,0-8.8,1.8-11.8,4.6C209.9,190.7,208,194.6,208,198.9z"/>
			<g id="Fman01_head">
				<path class="st26" d="M237.3,174.4c0,1-0.8,1.7-1.8,1.7l-26.7-0.6c-1,0-1.7-0.8-1.7-1.8l0,0c0-1,0.8-1.7,1.8-1.7l26.7,0.6
					C236.6,172.6,237.3,173.4,237.3,174.4L237.3,174.4z"/>
				<g>
					<path class="st24" d="M233.7,172.8c1.3,6.6-3,13-9.6,14.3c-6.6,1.3-13-3-14.3-9.6c-1.3-6.6,3-13,9.6-14.3
						C226,161.9,232.4,166.2,233.7,172.8z"/>
					<path class="st42" d="M222.9,174.9c0.2,0.9-0.4,1.8-1.3,2c-0.9,0.2-1.8-0.4-2-1.3c-0.2-0.9,0.4-1.8,1.3-2
						C221.8,173.4,222.7,174,222.9,174.9z"/>
					<path class="st42" d="M216.6,174.9c0.2,0.9-0.4,1.8-1.3,2s-1.8-0.4-2-1.3c-0.2-0.9,0.4-1.8,1.3-2
						C215.5,173.4,216.4,174,216.6,174.9z"/>
					<circle cx="214" cy="175.3" r="0.6"/>
					<path d="M221,175.2c0.1,0.3-0.1,0.6-0.5,0.7c-0.3,0.1-0.6-0.1-0.7-0.5c-0.1-0.3,0.1-0.6,0.5-0.7
						C220.6,174.6,220.9,174.9,221,175.2z"/>
					<path class="st79" d="M221.3,178.4"/>
					<path class="st69" d="M218.5,177.2c0,0.4-0.4,0.7-0.8,0.7l0,0c-0.4,0-0.7-0.4-0.7-0.8l0.1-2.5c0-0.4,0.4-0.7,0.8-0.7l0,0
						c0.4,0,0.7,0.4,0.7,0.8L218.5,177.2z"/>
					<line class="st46" x1="215.9" y1="180.2" x2="220.8" y2="179.7"/>
				</g>
				<path class="st81" d="M226.8,167.9c0,0,0.5,4.1,3.6,5l1,4.9c0,0,0.6,0.9,1.5-0.2c0,0,0.5-0.9,0.4-1.4c-0.1-0.6-0.1-2.9,0.7-3.8
					c0.8-0.9-2.2-5.2-2.2-5.2L226.8,167.9z"/>
				<path class="st7" d="M234.7,166.4c-0.5,2.5-0.4,2.1-1.1,3.9l-22.4-3.4c-1.7-0.3-3.8-4.9,0.2-6c-0.1,0.1,11.7-2.4,20,0.4
					C233.3,161.9,235.1,163.9,234.7,166.4z"/>
				<path class="st12" d="M220,171.7c0,0,0.8-1,2.2-0.2"/>
				<path class="st12" d="M213.9,171.8c1-1.3,2.1-0.2,2.2-0.2"/>
			</g>
			<g id="Fman01_left_hand">
				<path class="st70" d="M184,216.3c8.5,4.3,16.3,5.1,23.2,2.6c12.9-4.8,17.1-19.8,17.3-20.4c0.1-0.3,0.1-0.6,0.1-0.8
					c0.2-2.1-1.2-4.2-3.4-4.8c-2.4-0.7-4.9,0.8-5.6,3.2c-0.1,0.2-3.2,11.2-11.7,14.3c-4.5,1.7-9.9,0.9-16.2-2.3
					C187.7,208,189.9,215.1,184,216.3z"/>
				<path class="st24" d="M177,212.2c2.4,1.6,4.7,3,7,4.1l0,0c5.9-1.2,3.8-8.3,3.8-8.3c-1.8-0.9-3.7-2-5.6-3.3
					c-2.1-1.4-4.9-0.9-6.3,1.2C174.4,208,174.9,210.8,177,212.2z"/>
			</g>
		</g>
	</g>
</svg>
