<?xml version="1.0" encoding="utf-8"?>
<?xml-stylesheet type="text/css" href="space_svg_motion.css"?>
<!-- Generator: Adobe Illustrator 16.0.0, SVG Export Plug-In . SVG Version: 6.00 Build 0)  -->
<!DOCTYPE svg PUBLIC "-//W3C//DTD SVG 1.1//EN" "http://www.w3.org/Graphics/SVG/1.1/DTD/svg11.dtd">
<svg version="1.1" id="lazy_space" xmlns="http://www.w3.org/2000/svg" xmlns:xlink="http://www.w3.org/1999/xlink" x="0px" y="0px" width="750px" height="300px" viewBox="0 0 750 300" style="enable-background:new 0 0 750 300;" xml:space="preserve">
	<style type="text/css">
	<![CDATA[
		.st0{fill:#ABABAB;}
		.st1{fill:#ABCD03;}
		.st2{fill:#7FCAC2;}
		.st3{fill:#12B8D7;}
		.st4{fill:none;stroke:#E5BB9F;stroke-width:10;stroke-linecap:round;stroke-linejoin:round;stroke-miterlimit:10;}
		.st5{fill:#E5BB9F;}
		.st6{fill:#E6C763;}
		.st7{fill:#E78425;}
		.st8{fill:none;stroke:#C84D1B;stroke-linecap:round;stroke-linejoin:round;stroke-miterlimit:10;}
		.st9{fill:#80BC8E;}
		.st10{fill:#3E3A39;stroke:#484721;stroke-linecap:round;stroke-linejoin:round;stroke-miterlimit:10;}
		.st11{fill:none;stroke:#90BFB1;stroke-width:4;stroke-linecap:round;stroke-miterlimit:10;}
		.st12{fill:none;stroke:#724F43;stroke-linecap:round;stroke-linejoin:round;stroke-miterlimit:10;}
		.st13{fill:#8399C3;}
		.st14{fill:#83B1DF;}
		.st15{fill:#B376B0;}
		.st16{fill:#B46125;}
		.st17{fill:#851B30;}
		.st18{fill:#B5B5B6;}
		.st19{fill:#1C4382;}
		.st20{fill:#EBEA6A;}
		.st21{fill:#898989;}
		.st22{fill:#89C997;}
		.st23{fill:#ECCCB6;}
		.st24{fill:none;stroke:#90BFB1;stroke-width:8;stroke-linecap:round;stroke-miterlimit:10;}
		.st25{fill:#EEEEEE;}
		.st26{fill:#5161AB;}
		.st27{fill:#EF7E3D;}
		.st28{fill:#EFB78E;}
		.st29{fill:none;stroke:#36414D;stroke-width:12;stroke-linecap:round;stroke-miterlimit:10;}
		.st30{fill:#5671B6;}
		.st31{fill:#593624;}
		.st32{fill:#8FC9EE;}
		.st33{fill:#225189;}
		.st34{fill:#229FC8;}
		.st35{fill:#F18830;}
		.st36{fill:#F19478;}
		.st37{fill:none;stroke:#724F43;stroke-width:0.25;stroke-linecap:round;stroke-linejoin:round;stroke-miterlimit:10;}
		.st38{fill:#F2DD77;}
		.st39{fill:#254624;}
		.st40{fill:#258EC6;}
		.st41{fill:#F4A788;}
		.st42{fill:#F4F296;}
		.st43{fill:#F6BBA9;}
		.st44{fill:#5D70AC;}
		.st45{fill:#90BFB1;}
		.st46{fill:#914A98;}
		.st47{opacity:0.2;fill:#FFFFFF;}
		.st48{fill:none;stroke:#B28247;stroke-width:0.25;stroke-linecap:round;stroke-linejoin:round;stroke-miterlimit:10;}
		.st49{fill:#2A55A5;}
		.st50{fill:#2C63AF;}
		.st51{fill:none;stroke:#2F2224;stroke-linecap:round;stroke-linejoin:round;stroke-miterlimit:10;}
		.st52{fill:#98CFA2;}
		.st53{fill:#C84D1B;}
		.st54{fill:#2E8177;}
		.st55{fill:#2F2224;}
		.st56{opacity:0.2;}
		.st57{fill:#617AAD;}
		.st58{fill:#FFFFFF;}
		.st59{fill:#621014;}
		.st60{fill:#9BA7CB;}
		.st61{fill:#CCCCCC;}
		.st62{fill:#CDA16A;}
		.st63{fill:none;stroke:#593317;stroke-width:0.75;stroke-linecap:round;stroke-linejoin:round;stroke-miterlimit:10;}
		.st64{fill:#337638;}
		.st65{fill:none;stroke:#9A1E23;stroke-width:0.5;stroke-linecap:round;stroke-miterlimit:10;}
		.st66{fill:none;stroke:#454C4E;stroke-width:12;stroke-linecap:round;stroke-miterlimit:10;}
		.st67{fill:none;stroke:#ECCCB6;stroke-width:10;stroke-linecap:round;stroke-linejoin:round;stroke-miterlimit:10;}
		.st68{fill:#36414D;}
		.st69{fill:#379489;}
		.st70{fill:#38602F;}
		.st71{fill:none;stroke:#503530;stroke-width:0.75;stroke-linecap:round;stroke-linejoin:round;stroke-miterlimit:10;}
		.st72{fill:#0086D1;}
		.st73{fill:#D1693E;}
		.st74{fill:#552E21;stroke:#422413;stroke-width:0.5;stroke-linecap:round;stroke-linejoin:round;stroke-miterlimit:10;}
		.st75{fill:#D28850;}
		.st76{fill:#068566;}
		.st77{fill:#D8D8D8;}
		.st78{fill:#3E3A39;}
		.st79{fill:#595757;stroke:#3E3A39;stroke-linecap:round;stroke-linejoin:round;stroke-miterlimit:10;}
		.st80{fill:#D97CAF;}
		.st81{fill:#D9B361;}
		.st82{fill:#701419;}
		.st83{fill:#A0C101;}
		.st84{fill:#724F43;}
		.st85{fill:#766E2B;}
		.st86{fill:#767777;}
		.st87{fill:#76AE84;}
		.st88{fill:#A6C702;}
		.st89{fill:#DAAB71;}
		.st90{fill:#784221;}
		.st91{fill:#DDDDDD;}
		.st92{fill:#DE640E;}
		.st93{fill:none;stroke:#ECCCB6;stroke-width:9;stroke-linecap:round;stroke-miterlimit:10;}
		.st94{fill:#422413;}
		.st95{fill:none;stroke:#3B3C23;stroke-linecap:round;stroke-linejoin:round;stroke-miterlimit:10;}
		.st96{fill:#454C4E;}
	]]>
	</style>
	<g id="lazy_shadow">
		<ellipse class="st61" cx="697.7" cy="194.8" rx="28.2" ry="5.1"/>
		<ellipse class="st61" cx="53.1" cy="194.2" rx="28.2" ry="5.1"/>
		<polygon class="st61" points="676.1,294.5 631.2,294.5 545.4,186.1 589.2,186.1 	"/>
		<ellipse class="st61" cx="348.9" cy="186.9" rx="18" ry="3.5"/>
		<ellipse class="st61" cx="510.9" cy="183.2" rx="18" ry="3.5"/>
		<path class="st61" d="M321.3,179.3c0,2.4-1,4.4-2.3,4.4H95.4c-1.3,0-2.3-2-2.3-4.4l0,0c0-2.4,1-4.4,2.3-4.4H319
			C320.3,174.9,321.3,176.9,321.3,179.3L321.3,179.3z"/>
		<ellipse class="st61" cx="179" cy="264.5" rx="62.8" ry="8.5"/>
		<ellipse class="st61" cx="444.5" cy="266.3" rx="62.8" ry="11.8"/>
		<path class="st61" d="M379,250.6c0,8.4-26.4,15.2-58.9,15.2c-32.6,0-58.9-6.8-58.9-15.2c0-8.4,26.4-15.2,58.9-15.2
			C352.6,235.4,379,242.2,379,250.6z"/>
		<path class="st61" d="M463.2,213c0,10.6-20.9,19.2-46.6,19.2c-25.7,0-46.6-8.6-46.6-19.2c0-10.6,20.9-19.1,46.6-19.1
			C442.3,193.8,463.2,202.4,463.2,213z"/>
	</g>
	<g id="lazy_man05">
		<line id="Lman05_right_arm" class="st4" x1="600.7" y1="121" x2="622.2" y2="115.3"/>
		<g id="Lman05_body">
			<path class="st96" d="M645.2,131v0.3l-0.8,24.9c-0.9,9.8-12.3,10.9-12.3,10.9c-1.6,0.3-3.2,0.4-4.9,0.4c-9.2-0.3-16.5-5.6-16.5-12
				v-0.3l0.8-24.9c0.2-6.5,7.9-11.5,17.2-11.2C637.9,119.3,645.2,124.7,645.2,131z"/>
			<path class="st49" d="M645.1,145.4c-0.2,6.5-7.9,11.5-17.2,11.2l0,0c-9.3-0.3-16.7-5.8-16.5-12.3l0.8-24.9
				c0.2-6.5,7.9-11.5,17.2-11.2l0,0c9.3,0.3,16.7,5.8,16.5,12.3L645.1,145.4z"/>
		</g>
		<g id="Lman05_head">
			<path class="st28" d="M645.3,101.5c-0.2,0.9-1.1,1.5-2.1,1.3l-26.1-5.7c-0.9-0.2-1.5-1.1-1.3-2.1l0,0c0.2-0.9,1.1-1.5,2.1-1.3
				l26.1,5.7C644.9,99.6,645.5,100.6,645.3,101.5L645.3,101.5z"/>
			<g>
				<circle class="st23" cx="629.9" cy="99.2" r="12.2"/>
				<path class="st58" d="M631,99.2c0,0.9-0.8,1.7-1.7,1.7c-0.9,0-1.7-0.7-1.7-1.7c0-0.9,0.8-1.7,1.7-1.7
					C630.2,97.6,631,98.3,631,99.2z"/>
				<path class="st58" d="M624.8,98c0,0.9-0.8,1.7-1.7,1.7c-0.9,0-1.7-0.7-1.7-1.7c0-0.9,0.8-1.7,1.7-1.7
					C624.1,96.3,624.8,97.1,624.8,98z"/>
				<circle cx="622.2" cy="98.6" r="0.6"/>
				<path d="M629.1,100c0,0.3-0.3,0.6-0.6,0.6c-0.3,0-0.6-0.3-0.6-0.6c0-0.3,0.3-0.6,0.6-0.6C628.8,99.4,629.1,99.6,629.1,100z"/>
				<path class="st53" d="M628.8,102.3L628.8,102.3c-0.3,1.7-1.9,2.8-3.5,2.5c-1.6-0.3-2.7-1.9-2.4-3.5l0-0.1L628.8,102.3z"/>
				<path class="st80" d="M626.3,100.6c-0.1,0.4-0.5,0.6-0.9,0.5l0,0c-0.4-0.1-0.6-0.5-0.5-0.9l0.6-2.4c0.1-0.4,0.5-0.6,0.9-0.5l0,0
					c0.4,0.1,0.6,0.5,0.5,0.9L626.3,100.6z"/>
			</g>
			<path class="st84" d="M636.2,93.1c0,0-0.3,4.2,2.6,5.6v5c0,0,0.4,0.9,1.5,0.1c0,0,0.6-0.8,0.6-1.3s0.5-2.9,1.4-3.6
				s-1.2-5.5-1.2-5.5L636.2,93.1z"/>
			<path class="st94" d="M643,89.7c-0.3,2.5-2,4.4-3.7,4.2l-18.7-2.5c-1.7-0.2-2.8-2.5-2.5-5c0,0-0.1-4.7,3.8-6
				c-0.1,0.1-0.7,1.5,1.4,2.1c5.4-0.5,5.2-0.8,9.3-0.4c5.1,0.5,7.8,2.7,7.8,2.7C642.2,85.8,643.3,87.2,643,89.7z"/>
			<path class="st12" d="M628.8,95.5c0,0,0.9-0.8,2.2,0.3"/>
			<path class="st12" d="M622.8,94.5c1.2-1,2.1,0.2,2.2,0.3"/>
		</g>
		<g id="Lman05_foot">
			<path class="st60" d="M624,204.2c0.3,2.7-1.7,5.1-4.4,5.4l-15,1.6c-2.7,0.3-5.1-1.7-5.4-4.4l0,0c-0.3-2.7,1.7-5.1,4.4-5.4l15-1.6
				C621.3,199.5,623.7,201.5,624,204.2L624,204.2z"/>
			<path class="st60" d="M637.2,219.2c0.3,2.7-1.7,5.1-4.4,5.4l-15,1.6c-2.7,0.3-5.1-1.7-5.4-4.4l0,0c-0.3-2.7,1.7-5.1,4.4-5.4
				l15-1.6C634.5,214.5,636.9,216.5,637.2,219.2L637.2,219.2z"/>
			<line class="st66" x1="620" y1="163.8" x2="620" y2="201.9"/>
			<line class="st66" x1="635.3" y1="164.2" x2="635.3" y2="214.8"/>
		</g>
	</g>
	<g id="lazy_furniture02">
		<g>
			<polygon class="st62" points="122,157 112.9,157 111.2,174.1 116.8,174.1 		"/>
			<polygon class="st62" points="289.3,157.4 298.3,157.5 300,174.6 294.4,174.6 		"/>
			<polygon class="st89" points="110.5,165.2 101.4,165.2 99.7,182.3 105.3,182.3 		"/>
			<polygon class="st89" points="300.8,165.7 309.8,165.7 311.5,182.8 305.9,182.8 		"/>
			<polygon class="st89" points="210.2,165.5 201.1,165.5 202.5,182.6 208,182.6 		"/>
			<path class="st22" d="M98.3,165.1l0.2-65.6c0-5.8,4.7-10.5,10.5-10.5l52.7,0.1c5.8,0,10.5,4.7,10.5,10.5l-0.2,65.6L98.3,165.1z"/>
			<path class="st52" d="M171.9,165.3l0.2-65.6c0-5.8,4.7-10.5,10.5-10.5l46.6,0.1c5.8,0,10.5,4.7,10.5,10.5l-0.2,65.6L171.9,165.3z"
				/>
			<path class="st22" d="M239.3,165.5l0.2-65.6c0-5.8,4.7-10.5,10.5-10.5l52.7,0.1c5.8,0,10.5,4.7,10.5,10.5l-0.2,65.6L239.3,165.5z"
				/>
			<path class="st87" d="M326.6,116.5l-13.5,0c-0.8,0-1.5,0.6-1.6,1.4l-6.2,43.2c-0.1,0.8-0.8,1.4-1.6,1.4l-196.2-0.5
				c-0.8,0-1.5-0.6-1.6-1.4l-6-43.2c-0.1-0.8-0.8-1.4-1.6-1.4l-13.5,0c-0.8,0-1.4,0.6-1.4,1.4l0,7.7c0,0.8,0.6,1.4,1.4,1.4l4.4,0
				c0.8,0,1.5,0.6,1.6,1.4l6,43.2c0.1,0.8,0.8,1.4,1.6,1.4l214.4,0.5c0.8,0,1.5-0.6,1.6-1.4l6.2-43.2c0.1-0.8,0.8-1.4,1.6-1.4l4.4,0
				c0.8,0,1.4-0.6,1.4-1.4l0-7.7C328,117.1,327.4,116.5,326.6,116.5z"/>
			<path class="st9" d="M105.9,160.5c0.1,0.8,0.8,1.4,1.6,1.4l62.9,0.2c0.8,0,1.5-0.6,1.6-1.4l-0.1-9.9c-5.5-1.5-17.2-4.2-33.7-4.2
				c-16.5,0-28.2,2.6-33.7,4.1L105.9,160.5z"/>
			<path class="st9" d="M171.8,160.6c0.1,0.8,0.8,1.4,1.6,1.4l64.5,0.2c0.8,0,1.5-0.6,1.6-1.4l-0.1-9.9c-5.5-1.5-17.2-4.2-33.7-4.2
				c-16.5,0-28.2,2.6-33.7,4.1L171.8,160.6z"/>
			<path class="st9" d="M239.2,160.8c0.1,0.8,0.8,1.4,1.6,1.4l62.9,0.2c0.8,0,1.5-0.6,1.6-1.4l1.4-9.9c-5.5-1.5-17.2-4.2-33.7-4.2
				c-16.5,0-28.2,2.6-33.7,4.1L239.2,160.8z"/>
		</g>
		<g>
			<g>
				<path class="st0" d="M77,192.3v-4.2H30v4.6c0,2.3,10.5,4.3,23.5,4.3c13,0,23.6-1.9,23.6-4.3C77.1,192.6,77,192.5,77,192.3z"/>
				<ellipse class="st77" cx="53.5" cy="187.7" rx="23.5" ry="4.3"/>
			</g>
			<path class="st0" d="M56,188.3c0,0.9-1.2,1.9-2.2,1.9h-0.1c-1.1,0-1.6-1-1.6-1.9V39.6c0-0.9,0.6-1.4,1.6-1.4h0.1
				c1.1,0,2.2,0.6,2.2,1.4V188.3z"/>
			<g>
				<path class="st36" d="M68,21.8c0-0.7-1.3-0.7-2.2-0.7H41.1c-0.9,0-1.1,0-1.1,0.7v16.4c7,2.6,16,4.9,28,5.2V21.8z"/>
				<path class="st43" d="M40,82.1c0,0.7,0.2,1.1,1.1,1.1h24.7c0.9,0,2.2-0.4,2.2-1.1V64c-12-0.4-21-2.7-28-5.2V82.1z"/>
				<path class="st41" d="M40,38.1v20.6c7,2.6,16,4.9,28,5.2V43.4C56,43,47,40.7,40,38.1z"/>
			</g>
			<ellipse class="st77" cx="53.7" cy="21.2" rx="14" ry="2.6"/>
			<ellipse class="st43" cx="53.7" cy="82.2" rx="14" ry="2.6"/>
		</g>
		<g>
			<g>
				<path class="st0" d="M721,192.3v-4.2h-47v4.6c0,2.3,10.5,4.3,23.5,4.3c13,0,23.6-1.9,23.6-4.3C721.1,192.6,721,192.5,721,192.3z"
					/>
				<ellipse class="st77" cx="697.5" cy="187.7" rx="23.5" ry="4.3"/>
			</g>
			<path class="st0" d="M700,188.3c0,0.9-1.2,1.9-2.2,1.9h-0.1c-1.1,0-1.6-1-1.6-1.9V39.6c0-0.9,0.6-1.4,1.6-1.4h0.1
				c1.1,0,2.2,0.6,2.2,1.4V188.3z"/>
			<g>
				<path class="st36" d="M712,21.8c0-0.7-1.3-0.7-2.2-0.7h-24.7c-0.9,0-1.1,0-1.1,0.7v16.4c7,2.6,16,4.9,28,5.2V21.8z"/>
				<path class="st43" d="M684,82.1c0,0.7,0.2,1.1,1.1,1.1h24.7c0.9,0,2.2-0.4,2.2-1.1V64c-12-0.4-21-2.7-28-5.2V82.1z"/>
				<path class="st41" d="M684,38.1v20.6c7,2.6,16,4.9,28,5.2V43.4C700,43,691,40.7,684,38.1z"/>
			</g>
			<ellipse class="st77" cx="697.7" cy="21.2" rx="14" ry="2.6"/>
			<ellipse class="st43" cx="697.7" cy="82.2" rx="14" ry="2.6"/>
		</g>
		<g>
			<polyline class="st11" points="349.4,141.9 349.4,171.3 339.7,185.7 		"/>
			<line class="st11" x1="349.4" y1="171.3" x2="361.2" y2="187.2"/>
		</g>
		<g>
			<path class="st6" d="M373,137.4v-4.2h-47v4.6c0,2.3,10.5,4.1,23.5,4.1c13,0,23.6-1.8,23.6-4.1C373.1,137.6,373,137.5,373,137.4z"
				/>
			<ellipse class="st20" cx="349.5" cy="132.9" rx="23.5" ry="4.1"/>
		</g>
	</g>
	<g id="lazy_man01">
		<g id="Lman01_left_hand">
			<path class="st23" d="M183.6,191.7c0.2,2.7,0.2,5.2,0,7.5c-2.1,2.6-9.2,0.1-9.2,0.1c0.1-2.1,0.1-4.4,0-7c-0.2-2.5,1.8-4.7,4.3-4.9
				C181.2,187.2,183.4,189.1,183.6,191.7z"/>
			<path class="st70" d="M183.6,199.2c-0.6,9.2-3.6,15.2-9,17.9c-1.8,0.9-3.7,1.4-5.7,1.5c-11.4,0.7-24.7-9.9-26.4-11.3
				c-2-1.6-2.2-4.5-0.6-6.5s4.5-2.2,6.5-0.6c4.9,4,16.8,11.4,22.1,8.7c2.2-1.1,3.6-4.5,4-9.7C174.4,199.3,181.6,201.8,183.6,199.2z"
				/>
		</g>
		<g id="Lman01_foot">
			<path class="st13" d="M241.5,247.2c1,2.5-0.2,5.4-2.7,6.4l-14,5.7c-2.5,1-5.4-0.2-6.4-2.7l0,0c-1-2.5,0.2-5.4,2.7-6.4l14-5.7
				C237.6,243.4,240.4,244.6,241.5,247.2L241.5,247.2z"/>
			<path class="st60" d="M248.4,251.8c1,2.5-0.2,5.4-2.7,6.4l-14,5.7c-2.5,1-5.4-0.2-6.4-2.7l0,0c-1-2.5,0.2-5.4,2.7-6.4l14-5.7
				C244.5,248.1,247.4,249.3,248.4,251.8L248.4,251.8z"/>
			<path class="st68" d="M222.5,257c-2.1,0-4.2-1.2-5.3-3.2c-0.4-0.7-0.5-1.2-0.7-1.8c-1.9-7.1-6.6-15.8-18.5-16.7
				c-9-0.7-16.1,3.1-16.1,3.2c-2.9,1.6-6.5,0.6-8.2-2.3c-1.6-2.9-0.6-6.5,2.3-8.2c0.4-0.2,10.1-5.6,22.9-4.7
				c14.6,1.1,25.2,10.4,29.2,25.6l0,0.1c0.9,2.7-0.2,5.8-2.9,7.2C224.5,256.8,223.5,257,222.5,257z"/>
			<path class="st96" d="M233.6,261.7c-0.9,0.5-1.9,0.7-2.8,0.7c-2.1,0-4.2-1.2-5.3-3.2c-0.4-0.7-0.5-1.2-0.7-1.8
				c-1.9-7.1-6.6-15.8-18.5-16.7c-9-0.7-16.1,3.1-16.1,3.2c-1.5,0.9-9.9,7.5-14.1,9.1c-4.7,1.9-9.7,1.6-14.1-0.5
				c-4.1-1.9-7.7-5.4-9.8-10c9.8,8.4,16.5-3.3,34.5-11.5c0.1,0.4,0.2,0.7,0.2,1.1c3.8-1.6,11.3-4.1,20.3-3.4
				c14.5,1.1,25.2,10.4,29.2,25.6l0,0.1C237.4,257.2,236.2,260.3,233.6,261.7z"/>
		</g>
		<g id="Lman01_book">
			<polygon class="st2" points="173.9,183.5 170,197.9 181.5,204.3 184.9,189.6 		"/>
			<polygon class="st61" points="174.8,182.5 170.8,197 181.5,204.3 184.9,189.6 		"/>
			<polygon class="st91" points="177.1,181.3 173.1,195.7 181.5,204.3 184.9,189.6 		"/>
			<polygon class="st2" points="185,189.4 191.5,186.9 188.5,202.7 181.5,204.3 		"/>
			<polygon class="st2" points="185,189.4 190.8,185.7 187.9,201.5 181.5,204.3 		"/>
			<polygon class="st25" points="185,189.4 190.2,183.7 187.2,199.5 181.5,204.3 		"/>
			<polygon id="lazy_book01" class="st58" points="179.6,180.9 175.3,195.3 181.2,204.2 183.4,195.4 184.9,189.6 		"/>
		</g>
		<path id="Lman01_body" class="st76" d="M175,201.4l10.8,26.6c0.4,1,0.7,2,1,3c-8.6,20.3-24.6,19.8-34.5,11.5
			c-0.1-0.3-0.2-0.5-0.4-0.8l-10.8-26.6c-4-10,0.3-21.2,9.6-24.9c4.7-1.9,9.7-1.6,14.1,0.5C169.2,192.7,173,196.4,175,201.4z"/>
		<path id="Lman01_chair" class="st33" d="M140.8,198.9c-9.3-5.1-33.3-8.2-32.7,25.1c0.7,33.3,22,41.5,38.7,43.2
			c16.7,1.6,66.4,7.2,66.7-14c0.3-20.8-10-16.3-34.7-19.7C154.1,230.1,156.8,207.7,140.8,198.9z"/>
		<g id="Lman01_head">
			<path class="st28" d="M139.5,183.2c0.2,0.9,1.1,1.5,2.1,1.3l26.1-5.7c0.9-0.2,1.5-1.1,1.3-2.1l0,0c-0.2-0.9-1.1-1.5-2.1-1.3
				l-26.1,5.7C139.9,181.4,139.3,182.3,139.5,183.2L139.5,183.2z"/>
			<g>
				<circle class="st23" cx="154.9" cy="181" r="12.2"/>
				<path class="st58" d="M157.9,179c0,0.9,0.8,1.7,1.7,1.7c0.9,0,1.7-0.7,1.7-1.7c0-0.9-0.8-1.7-1.7-1.7
					C158.7,177.3,157.9,178.1,157.9,179z"/>
				<path class="st58" d="M162.7,177.7c0,0.9,0.8,1.7,1.7,1.7c0.9,0,1.7-0.7,1.7-1.7c0-0.9-0.8-1.7-1.7-1.7
					C163.5,176,162.7,176.8,162.7,177.7z"/>
				<circle cx="165.3" cy="178.6" r="0.6"/>
				<path d="M160,179.6c0,0.3,0.3,0.6,0.6,0.6c0.3,0,0.6-0.3,0.6-0.6c0-0.3-0.3-0.6-0.6-0.6C160.3,179,160,179.3,160,179.6z"/>
				<path class="st80" d="M162.4,180.4c0.1,0.4,0.5,0.6,0.9,0.5l0,0c0.4-0.1,0.6-0.5,0.5-0.9l-0.6-2.4c-0.1-0.4-0.5-0.6-0.9-0.5l0,0
					c-0.4,0.1-0.6,0.5-0.5,0.9L162.4,180.4z"/>
				<path class="st8" d="M160,184.3c0,0,0.3,0.8,2.7,0c0.6-0.2,1.4-0.5,2.3-1"/>
				<path class="st12" d="M160,175.4c-0.7-0.9-1.9-0.2-3.2,0.9"/>
				<path class="st12" d="M165,175c-0.6,0.3-2.2-1.4-2.2,0.3"/>
			</g>
			<path class="st84" d="M151.2,174.6c0,0,0.4,4.5-3.6,5.9v5c0,0-0.6,0.9-2.2,0.1c0,0-0.9-0.8-0.9-1.3s-0.7-2.9-2-3.6
				c-1.3-0.8,0.2-7.2,0.2-7.2L151.2,174.6z"/>
			<line class="st71" x1="142.5" y1="175.7" x2="150.8" y2="175.7"/>
			<line class="st71" x1="142.2" y1="177.3" x2="150.6" y2="177.3"/>
			<line class="st71" x1="142.2" y1="178.9" x2="149.7" y2="179"/>
			<line class="st71" x1="142.7" y1="180.5" x2="147.7" y2="180.5"/>
			<path class="st94" d="M141.9,171.4c0.3,2.5,2,4.4,3.7,4.2l18.7-2.5c1.7-0.2,3.1-0.9,3.3-3.4c0.1-1.4-0.9-3-4.4-3.2
				c0.1,0.1,0.1-2.9-3.7-1.8c-5.2,1.5-3.2-1.4-7.4-0.9c-7.8,1.1-6.4,4.5-6.4,4.5C143.5,167.4,141.5,168.9,141.9,171.4z"/>
		</g>

		<path id="Lman01_right_arm" class="st70" d="M180.9,222.4c-0.2,0.4-0.6,0.8-0.9,1.1c-1.9,1.6-4.8,1.3-6.3-0.6l-16.1-19.4
			c-1.6-1.9-1.3-4.8,0.6-6.3c1.9-1.6,4.8-1.3,6.3,0.6l16.1,19.4C181.8,218.6,181.9,220.8,180.9,222.4z"/>
		<g id="Lman01_right_hand">
			<path class="st23" d="M179,194.3l0.9,6.7c-4,5.3-8.8,1.9-8.8,1.9l-1-7.4c-0.3-2.5,1.4-4.7,3.9-5
				C176.4,190.1,178.7,191.9,179,194.3z"/>
			<path class="st64" d="M179.9,201l2.4,18.3c0.3,2-0.8,3.8-2.5,4.6c-0.4,0.2-0.9,0.3-1.4,0.4c-2.5,0.3-4.7-1.4-5-3.9l-2.3-17.6
				C171,202.9,175.8,206.3,179.9,201z"/>
		</g>
	</g>
	<g id="lazy_man02">
		<g id="Lman02_foot">
			<path class="st26" d="M333.5,188.9c0.5,2.7-1.2,5.3-3.8,5.8l-14.8,3c-2.7,0.5-5.3-1.2-5.8-3.8l0,0c-0.5-2.7,1.2-5.3,3.8-5.8
				l14.8-3C330.4,184.5,333,186.3,333.5,188.9L333.5,188.9z"/>
			<path class="st29" d="M286,149.2c0,0,30.1,12,29.1,37.7"/>
			<path class="st96" d="M254.3,139.9c-0.1,2.1-4.6,23,15.5,20.5c9.1-1.1,17.5-7.3,17.9-13.7l-0.6-6.5c0,0-5.6-5.2-14.9-5.5
				C263.1,134.4,254.3,139.9,254.3,139.9z"/>
			<path class="st30" d="M316.8,192.9c0.5,2.7-1.2,5.3-3.8,5.8l-14.8,3c-2.7,0.5-5.3-1.2-5.8-3.8l0,0c-0.5-2.7,1.2-5.3,3.8-5.8
				l14.8-3C313.7,188.6,316.3,190.3,316.8,192.9L316.8,192.9z"/>
			<path class="st66" d="M264.5,154.1c0,0,36,1.3,34,37.5"/>
		</g>
		<g id="Lman02_left_hand">
			<path class="st59" d="M302.7,143.4c-9.5-0.2-16.8-3.1-21.7-8.6c-9.2-10.3-5.8-25.5-5.7-26.2c0.1-0.3,0.2-0.6,0.3-0.8
				c0.9-2,3-3.1,5.2-2.6c2.5,0.6,4,3,3.4,5.4c0,0.2-2.4,11.4,3.6,18.1c3.2,3.6,8.4,5.4,15.4,5.5C303.3,134.3,298.1,139.6,302.7,143.4
				z"/>
			<path class="st23" d="M310.8,143c-2.9,0.3-5.5,0.4-8.1,0.4l0,0c-4.6-3.8,0.6-9.1,0.6-9.1c2,0,4.2-0.1,6.5-0.3c2.5-0.3,4.8,1.5,5,4
				C315.1,140.5,313.3,142.8,310.8,143z"/>
		</g>
		<path id="Lman02_body" class="st17" d="M287,116.4v23.1c0,0.9-0.1,1.7-0.2,2.5c-12.6,3-29.5,7.4-35.3-1.8c0-0.2,0-0.5,0-0.7
			v-23.1c0-8.7,8-15.7,17.8-15.7c4.9,0,9.4,1.8,12.6,4.6C285,108.1,287,112,287,116.4z"/>
		<g id="Lman02_head">
			<g>
				<path class="st28" d="M256.4,95.3c0.2,0.9,1.1,1.5,2.1,1.3l26.1-5.7c0.9-0.2,1.5-1.1,1.3-2.1l0,0c-0.2-0.9-1.1-1.5-2.1-1.3
					l-26.1,5.7C256.8,93.4,256.2,94.3,256.4,95.3L256.4,95.3z"/>
				<g>
					<circle class="st23" cx="271.8" cy="93" r="12.2"/>
					<path class="st58" d="M270.7,93c0,0.9,0.8,1.7,1.7,1.7c0.9,0,1.7-0.7,1.7-1.7c0-0.9-0.8-1.7-1.7-1.7
						C271.5,91.3,270.7,92.1,270.7,93z"/>
					<path class="st58" d="M276.9,91.8c0,0.9,0.8,1.7,1.7,1.7c0.9,0,1.7-0.7,1.7-1.7c0-0.9-0.8-1.7-1.7-1.7
						C277.7,90.1,276.9,90.9,276.9,91.8z"/>
					<circle cx="279.5" cy="92.5" r="0.6"/>
					<path d="M272.9,93.5c0,0.3,0.3,0.6,0.6,0.6c0.3,0,0.6-0.3,0.6-0.6c0-0.3-0.3-0.6-0.6-0.6C273.2,92.9,272.9,93.1,272.9,93.5z"/>
					<path class="st80" d="M275.4,94.4c0.1,0.4,0.5,0.6,0.9,0.5l0,0c0.4-0.1,0.6-0.5,0.5-0.9l-0.6-2.4c-0.1-0.4-0.5-0.6-0.9-0.5l0,0
						c-0.4,0.1-0.6,0.5-0.5,0.9L275.4,94.4z"/>
				</g>
				<path class="st12" d="M272.9,89.3c0,0-0.9-0.8-2.2,0.3"/>
				<path class="st12" d="M278.9,88.2c-1.2-1-2.1,0.2-2.2,0.3"/>
			</g>
			<path class="st73" d="M266.7,92.1c-0.2,0.3-0.5,0.5-0.7,0.4l-7.2-3.5c-0.2-0.1-0.3-0.5-0.1-0.8l0,0c0.1-0.3,0.5-0.5,0.7-0.4
				l7.2,3.5C266.8,91.4,266.8,91.8,266.7,92.1L266.7,92.1z"/>
			<g>
				<g id="XMLID_5_">
					<g>
						<path class="st84" d="M285.1,84.8c-0.1-1.4-1.1-6.2-2.1-7.4c-0.9-1.1-1.8-1.9-2.8-2.6c1,0.7,1.9,1.5,2.8,2.6
							c1,1.3,1.4,4.2,1.7,4.9C285,83.2,285.1,84.1,285.1,84.8C285.1,84.9,285.1,84.9,285.1,84.8z"/>
						<path class="st84" d="M285.1,86c-0.2,2.5-1.3,5.8-1.3,5.8s0-3.2-0.7-4.5c-0.1-0.2-0.6-0.7-0.7-0.9c0.1,0,0.2,0,0.2,0
							c0,0,0,0,0,0c-0.1,0-0.1,0-0.2,0c-2.5-0.1-3.8-0.6-4.6-1.2c0.7,0.4,3.3,1.7,7.4,0.3c0,0,0,0.1,0,0.1L285.1,86z"/>
						<path class="st84" d="M280.2,74.8c-5.3-3.5-12.2-1.7-13.4-1.3C268.1,73,274.7,71.1,280.2,74.8z"/>
						<path class="st84" d="M266.5,73.6C266.5,73.6,266.5,73.6,266.5,73.6C266.5,73.6,266.5,73.5,266.5,73.6z"/>
						<path class="st84" d="M265.7,73.8c0.2-0.1,0.3-0.1,0.4-0.1C266,73.7,265.9,73.7,265.7,73.8z"/>
						<path class="st84" d="M264.8,74.1c0.4-0.1,0.7-0.2,0.9-0.3C265.4,73.9,265.1,74,264.8,74.1z"/>
						<path class="st84" d="M264.4,74.2c-0.4,0.2-0.8,0.3-1.2,0.5C263.6,74.6,264,74.4,264.4,74.2z"/>
						<path class="st84" d="M281.6,86.7c-0.1,0.1-2.2,1.3-5.3,0.7c-1.1-0.2-3.1-1.6-3.4-1.8c0.2,0.2,1.2,1.2,2,1.6
							c0.9,0.5,3,0.9,3,0.9s-1.9,0.6-4.2,0.1c-1-0.2-2.4-1-2.7-1.1c0.2,0.1,1.1,0.7,2.3,1.2c2.2,0.8,3.9,0.6,3.9,0.6
							s-3.1,0.7-4.1,0.7c-1.3,0-4.9,0-7.7-1.9c-1.1-0.8-1.7-1.6-2.1-2.3c0.1,0.3,0.1,0.7,0.1,1.2c0.1,2.7-1.1,5.5-1.1,5.5l-0.5-2.7
							c0,0-0.6,0.5-0.8,1.2c-1.1,2.6,1.3,5,1.3,5s-2.5-1.3-3-3.2c-0.3-1.1-0.2-1.7-0.2-2.6c-0.4,1.5-1.2,3-1.2,3l-0.1-5.3l0-0.2
							c0,0-0.3-1.9-0.4-4.3c-0.1-2.3,0.8-4.1,2-5.5c1.1-1.2,2.5-2.1,3.8-2.7c0.4-0.2,0.9-0.4,1.2-0.5c0.1-0.1,0.3-0.1,0.4-0.2
							c0.4-0.1,0.7-0.2,0.9-0.3c0,0,0,0,0,0c0.2,0,0.3-0.1,0.4-0.1c0.1,0,0.2-0.1,0.3-0.1c0,0,0.1,0,0.1,0c0,0,0,0,0,0s0.1,0,0.2-0.1
							c1.2-0.4,8.1-2.1,13.4,1.3c0,0,0,0,0.1,0c1,0.7,1.9,1.5,2.8,2.6c0.9,1.2,1.9,6,2.1,7.4c0,0,0,0.1,0,0.1c0,0.2,0,0.4,0,0.5
							c-4,1.4-6.7,0.1-7.4-0.3c-0.1-0.1-0.2-0.1-0.2-0.1C277.8,85.3,279.9,86.8,281.6,86.7z"/>
						<path class="st84" d="M257.3,83c0.1,2.4,0.4,4.3,0.4,4.3l0,0.2l0-0.2C257.7,87.3,257.4,85.4,257.3,83c-0.1-2.3,0.8-4.1,2-5.5
							C258.1,78.9,257.2,80.7,257.3,83z"/>
					</g>
					<g>
						<path class="st63" d="M259.3,77.5c-1.3,1.4-2.1,3.2-2,5.5c0.1,2.4,0.4,4.3,0.4,4.3l0,0.2l0.7,3.4"/>
						<path class="st63" d="M264.4,74.2c-0.4,0.2-0.8,0.3-1.2,0.5"/>
						<path class="st63" d="M265.7,73.8c-0.3,0.1-0.6,0.2-0.9,0.3"/>
						<path class="st63" d="M266.2,73.6c-0.1,0-0.3,0.1-0.4,0.1"/>
						<path class="st63" d="M266.5,73.6C266.5,73.6,266.5,73.6,266.5,73.6"/>
						<path class="st63" d="M280.2,74.8c-5.5-3.7-12.1-1.8-13.4-1.3"/>
						<path class="st63" d="M285.1,85.1c0-0.1,0-0.2,0-0.3c-0.1-1.4-1.1-6.2-2.1-7.4c-0.9-1.1-1.8-1.9-2.8-2.6"/>
						<path class="st63" d="M282.3,86.3C282.3,86.4,282.3,86.3,282.3,86.3"/>
						<path class="st63" d="M282.3,86.3C282.3,86.4,282.3,86.4,282.3,86.3"/>
						<path class="st63" d="M282.5,86.4C282.5,86.4,282.5,86.4,282.5,86.4c0,0-0.1,0-0.2,0"/>
						<path class="st63" d="M277.7,85.2c0.7,0.5,2.1,1.1,4.6,1.2c0.1,0,0.1,0,0.2,0c0,0,0,0,0,0"/>
						<path class="st63" d="M272.8,85.6C272.8,85.6,272.8,85.6,272.8,85.6L272.8,85.6c0.3,0.2,2.3,1.6,3.4,1.8
							c3.1,0.6,5.2-0.5,5.3-0.7c-1.6,0.1-3.7-1.3-4-1.6"/>
						<path class="st63" d="M271,87C271,87,271,87,271,87C271,87,271,87,271,87c0.3,0.2,1.8,0.9,2.7,1.1c2.3,0.5,4.2-0.1,4.2-0.1
							s-2.1-0.4-3-0.9c-0.8-0.4-1.8-1.5-2-1.6"/>
						<path class="st63" d="M282.3,86.4c0.1,0.2,0.6,0.7,0.7,0.9c0.7,1.4,0.7,4.5,0.7,4.5s1.1-3.4,1.3-5.8l0-0.3c0,0,0-0.1,0-0.1
							c0-0.2,0-0.4,0-0.5c0-0.9-0.1-1.7-0.4-2.6c-0.2-0.7-0.7-3.7-1.7-4.9c-0.8-1.1-1.8-1.9-2.8-2.6c0,0,0,0-0.1,0
							c-5.3-3.5-12.2-1.7-13.4-1.3c-0.2,0-0.2,0.1-0.2,0.1s0,0,0,0c0,0,0,0-0.1,0c-0.1,0-0.2,0-0.3,0.1s-0.3,0.1-0.4,0.1c0,0,0,0,0,0
							c-0.3,0.1-0.6,0.2-0.9,0.3c-0.1,0.1-0.3,0.1-0.4,0.2c-0.4,0.1-0.8,0.3-1.2,0.5c-1.3,0.6-2.7,1.5-3.8,2.7
							c-1.2,1.4-2.1,3.2-2,5.5c0.1,2.4,0.4,4.3,0.4,4.3l0,0.2l0.1,5.3c0,0,0.8-1.6,1.2-3c0,0.8-0.1,1.5,0.2,2.6c0.5,1.9,3,3.2,3,3.2
							s-2.4-2.5-1.3-5c0.3-0.7,0.8-1.2,0.8-1.2l0.5,2.7c0,0,1.2-2.8,1.1-5.5c0-0.5-0.1-0.9-0.1-1.2c0.3,0.7,0.9,1.6,2.1,2.3
							c2.8,1.9,6.4,1.9,7.7,1.9c1,0,4.1-0.7,4.1-0.7s-1.7,0.3-3.9-0.6c-1.2-0.4-2.1-1-2.3-1.2"/>
						<path class="st63" d="M285.3,85.4c0,0-0.1-0.2-0.2-0.5c0,0,0-0.1,0-0.1c-0.7-1.4-2.9-5-6.3-6"/>
						<path class="st63" d="M277.6,85.1c0,0,0.1,0,0.2,0.1c0.7,0.4,3.3,1.7,7.4,0.3c0.1,0,0.2-0.1,0.2-0.1"/>
						<path class="st63" d="M263.3,85.3c0,0-0.7-1.7-0.8-3.5"/>
						<path class="st63" d="M268.1,83.8c0.7,1.6,2.2,2.8,2.9,3.2"/>
						<path class="st63" d="M259,89.8c0,0,0.2-1.3,0.2-2.4"/>
						<path class="st63" d="M261.8,89.3c0,0-0.1-0.5-0.4-1.7"/>
					</g>
				</g>
			</g>
			<line class="st65" x1="273.5" y1="98.5" x2="278.6" y2="97.7"/>
			<g>
				<path class="st27" d="M284.8,88.1c-0.1,0-0.2-0.1-0.3-0.1c-0.4,0-0.8-0.1-1.2-0.1l-0.2,0c-0.6,0-1.2-0.1-1.8,0
					c-0.3,0-0.7,0.1-1,0.1c-1,0.2-1.9,0.5-2.5,0.9c-0.4,0.3-0.8,0.6-1,0.9c0,0,0,0.1-0.1,0.1c0,0,0,0,0,0c-0.2-0.1-0.3,0-0.5,0
					c-0.2,0-0.4,0.1-0.6,0.1c-0.2,0-0.4,0.1-0.6,0.1c-0.2,0-0.4,0-0.5,0.2c0,0,0,0,0,0c0,0-0.1-0.1-0.1-0.1c-0.3-0.2-0.7-0.4-1.2-0.5
					c-0.8-0.2-1.8-0.2-2.7,0c-0.3,0.1-0.7,0.1-1,0.2c-0.6,0.2-1.1,0.4-1.7,0.7l-0.2,0.1c-0.4,0.2-0.7,0.3-1.1,0.5
					c-0.1,0-0.2,0.1-0.3,0.2c-0.1,0.1-0.2,0.2-0.1,0.3c0,0.2,0.1,0.4,0.1,0.6c0,0.2,0.2,0.3,0.4,0.2c0,0,0.1,0,0.1,0l0.1,0
					c0.1,0,0.1,0,0.1,0c0.1,0.3,0.1,0.5,0.2,0.7c0.1,0.5,0.2,1,0.6,1.6c0.2,0.4,0.6,0.8,1,1c0.7,0.4,1.5,0.6,2.5,0.5
					c0.2,0,0.3,0,0.5-0.1c0.9-0.2,1.7-0.5,2.3-1c1-0.8,1.5-2.1,1.4-3.5c0-0.2,0-0.4-0.1-0.7c0-0.1,0-0.2,0-0.2c0,0,0.5-0.2,0.7-0.2
					c0.2,0,0.7-0.1,0.7-0.1c0,0.1,0,0.2,0.1,0.2c0,0.2,0.1,0.4,0.2,0.6c0.4,1.3,1.4,2.4,2.5,2.7c0.7,0.2,1.6,0.3,2.5,0.1
					c0.2,0,0.3-0.1,0.5-0.1c1-0.3,1.7-0.7,2.1-1.4c0.3-0.4,0.5-0.8,0.5-1.3c0.1-0.7,0.1-1.2,0-1.7c0-0.2-0.1-0.5-0.1-0.8
					c0,0,0,0,0-0.1l0.1,0c0,0,0.1,0,0.1,0c0.2,0,0.3-0.2,0.3-0.4c0-0.2-0.1-0.4-0.1-0.7C285,88.2,284.9,88.1,284.8,88.1z M283.4,93.1
					c-0.4,0.4-0.8,0.6-1.3,0.8c-0.6,0.2-1.1,0.3-1.7,0.3c-0.6,0-1.1-0.2-1.6-0.4c-0.9-0.5-1.5-1.7-1.6-2.6c-0.1-0.5,0.1-0.9,0.5-1.3
					c0.3-0.3,0.7-0.6,1.2-0.8c0.4-0.2,1-0.3,1.5-0.4c0.8-0.1,1.5-0.2,2.1,0c0.6,0.1,1,0.3,1.2,0.7C284.4,90.2,284.2,92.2,283.4,93.1z
					 M270.6,96c-0.5,0-1-0.1-1.5-0.3c-1.1-0.5-1.9-2.4-1.6-3.5c0.1-0.4,0.4-0.7,0.9-1c0.5-0.3,1.2-0.6,2-0.7c0.5-0.1,1.1-0.1,1.5-0.1
					c0.5,0,1,0.1,1.4,0.3c0.5,0.2,0.8,0.6,0.9,1c0.2,0.9,0.1,2.2-0.6,3c-0.4,0.4-0.8,0.8-1.3,1C271.7,95.8,271.2,96,270.6,96z"/>
			</g>
		</g>
		<g id="Lman02_notebook">
			<polygon class="st79" points="317.5,152.8 298.7,142.8 272.4,151.1 291.6,163.7 		"/>
			<polygon class="st21" points="321.5,129.9 317.5,152.8 291.6,163.7 295.9,136 		"/>
			<path class="st91" d="M308.4,145.4c-0.7,1.5-0.8,3-0.2,3.4c0.6,0.4,1.6-0.5,2.2-2c0.7-1.5,0.8-3,0.2-3.4
				C310,143,309,143.9,308.4,145.4z"/>
			<path class="st86" d="M321.5,129.9c0,0-11.6,28.5-29.9,33.8l25.9-10.9L321.5,129.9z"/>
		</g>
		<g id="Lman02_right_hand">
			<path class="st82" d="M279.4,150c-9.5-0.8-16.6-4.1-21.2-9.9c-8.5-10.8-4.3-25.8-4.1-26.5c0.1-0.3,0.2-0.5,0.3-0.8
				c1-1.9,3.2-2.9,5.3-2.3c2.4,0.7,3.8,3.2,3.1,5.6c-0.1,0.2-3.1,11.2,2.6,18.3c3,3.8,8,5.9,15.1,6.5
				C280.5,140.9,275,145.9,279.4,150z"/>
			<path class="st23" d="M287.5,150.1c-2.9,0.1-5.6,0.1-8.1-0.1l0,0c-4.4-4.1,1.1-9,1.1-9c2,0.2,4.2,0.2,6.6,0.1
				c2.5-0.1,4.7,1.8,4.8,4.3C291.9,147.8,290,150,287.5,150.1z"/>
		</g>
	</g>
	<g id="lazy_man03">
		<g id="Lman03_chair">
			<path id="Lman03_chair_outter" class="st33" d="M388.5,217.9c-16.4-4.7-29.8-46,9.3-67.6c17.7-9.8,74.3-6,64,49.7
				C461.8,200,447,234.8,388.5,217.9z"/>
			<path id="Lman03_chair_inner" class="st19" d="M410.1,197c-9.6-3.3-17.4-32.4,5.5-47.6c10.4-6.9,43.4-4.2,37.4,35
				C452.9,184.4,444.2,208.8,410.1,197z"/>
		</g>
		<g>
			<path class="st5" d="M453.5,172.7c-0.7,0.5-1.6,0.8-2.4,0.8c-1.2,0-2.4-0.6-3.2-1.6l-11.1-15l0,0c0.2-0.3,3.5-5.8,6.6-4.5l0.3,0.4
				l10.6,14.2C455.7,168.9,455.3,171.4,453.5,172.7z"/>
			<path class="st46" d="M443.5,152.5c-3.1-1.3-6.5,4.1-6.6,4.5l0,0l-2.6-3.5c-1.3-1.8-0.9-4.3,0.8-5.6c1.8-1.3,4.3-0.9,5.6,0.8
				L443.5,152.5z"/>
			<line id="Lman03_left_hand" class="st93" x1="459.8" y1="145.2" x2="452" y2="169.2"/>
		</g>
		<path id="Lman03_body" class="st15" d="M440.2,160.2l-3.8,24.2c-0.1,0.5-0.2,1.1-0.3,1.6c-0.1,0.4-0.2,0.7-0.3,1c0,0,0,0,0,0
			c-1.9-1.2-5.2-1.8-8.8-2.2c-4.2-0.4-8.7-0.9-12.6-1.7c-2.6-0.5-4.4-1.5-5.9-2.5c0-0.2,3.4-24.8,3.4-24.8
			c1.4-9.1,8.9-15.5,16.7-14.3c3.9,0.6,7.2,3,9.2,6.4C439.9,151.3,440.9,155.6,440.2,160.2z"/>
		<g id="Lman03_right_hand">
			<path class="st23" d="M444,178.8c-1.1,0.2-6,1.2-11.8,1.2c-7,0-15.4-1.4-19.9-7.3c-3.8-4.9-4.2-11.7-1-20.2c0,0,2.8,2.3,8.8,2.1
				c-1.9,4.6-3,9.7-0.7,12.6c3.9,5,17,4,22.7,2.8c2.4-0.5,4.8,1,5.3,3.5C448,175.9,446.4,178.2,444,178.8z"/>
			<path class="st46" d="M421.7,151c-0.5,1.1-1.1,2.3-1.6,3.6h0c-6,0.2-8.8-2.1-8.8-2.1c0.6-1.7,1.4-3.5,2.4-5.4c1.1-2.2,3.8-3.1,6-2
				C421.8,146.1,422.8,148.8,421.7,151z"/>
		</g>
		<g id="Lman03_foot">
			<path class="st60" d="M420.2,234.7c-0.9,2.6-3.7,3.9-6.3,3l-14.2-5.1c-2.6-0.9-3.9-3.7-3-6.3l0,0c0.9-2.6,3.7-3.9,6.3-3l14.2,5.1
				C419.8,229.3,421.2,232.1,420.2,234.7L420.2,234.7z"/>
			<path class="st60" d="M450.9,239.8c-0.9,2.6-3.7,3.9-6.3,3l-14.2-5.1c-2.6-0.9-3.9-3.7-3-6.3l0,0c0.9-2.6,3.7-3.9,6.3-3l14.2,5.1
				C450.4,234.4,451.8,237.2,450.9,239.8L450.9,239.8z"/>
			<path class="st44" d="M433.2,235.6c-1.1,0-2.2-0.3-3.1-0.9c-2.8-1.7-3.7-5.4-2-8.3c6.5-10.6,12.1-25.4,9.6-29.5
				c-0.8-1.3-3.7-1.2-5-1.2c-3.3,0.2-6.1-2.4-6.3-5.7c-0.2-3.3,2.4-6.1,5.7-6.3c9.4-0.5,13.9,3.6,16,7c7.5,12.7-6.8,37.2-9.7,42
				C437.2,234.5,435.2,235.6,433.2,235.6z"/>
			<path class="st57" d="M432.3,194.4c-0.4,5.3-4,12-11.1,20.8c-6,7.4-12.5,13.7-12.7,13.9c-1.2,1.1-2.7,1.7-4.2,1.7
				c-1.6,0-3.1-0.6-4.3-1.8c-2.3-2.4-2.2-6.2,0.1-8.5c9.5-9.2,16.9-18.9,19.3-24.1c-4.2-0.3-9.1-1.2-10.5-3.5
				c-2-3.2-0.5-12.8-0.5-12.5c1.4,1.3,3.5,2.1,6.1,2.6c0.3-0.1,0.6-0.3,1-0.4c0.5-0.1,0.9-0.2,1.4-0.2c3.5-0.2,6.1,0.2,8.2,1
				c0.8,0.3,1.6,0.7,2.3,1.1c2.1,1.3,3.3,3,4,4.6C432.1,190.7,432.4,192.5,432.3,194.4z"/>
		</g>
		<g id="Lman03_head">
			<path class="st92" d="M422.7,118.1c0,0-12.2-1.5-12,10.2s8.7,11.4,3.7,13.4c0,0,7.6,0.6,6.4-3.4S422.7,118.1,422.7,118.1z"/>
			<path class="st28" d="M416.1,133.8c0.1,1,1,1.6,2,1.5l26.5-3.4c1-0.1,1.6-1,1.5-2l0,0c-0.1-1-1-1.6-2-1.5l-26.5,3.4
				C416.7,132,416,132.9,416.1,133.8L416.1,133.8z"/>
			<path class="st23" d="M419.5,131.8c-0.6,6.7,4.4,12.6,11.1,13.2c6.7,0.6,12.6-4.4,13.2-11.1c0.6-6.7-4.4-12.6-11.1-13.2
				C426,120.2,420.1,125.1,419.5,131.8z"/>
			<line class="st48" x1="431.6" y1="131.3" x2="431.6" y2="130.8"/>
			<line class="st48" x1="432.4" y1="131.3" x2="432.4" y2="130.6"/>
			<line class="st48" x1="433" y1="131.3" x2="433.4" y2="130.6"/>
			<line class="st48" x1="437.9" y1="130.6" x2="437.9" y2="130.3"/>
			<line class="st48" x1="438.7" y1="130.6" x2="438.7" y2="130.2"/>
			<line class="st48" x1="439.3" y1="130.6" x2="439.7" y2="130.2"/>
			<path class="st58" d="M430.5,132.8c-0.1,0.9,0.6,1.7,1.5,1.8c0.9,0.1,1.7-0.6,1.8-1.5c0.1-0.9-0.6-1.7-1.5-1.8
				C431.4,131.2,430.6,131.9,430.5,132.8z"/>
			<path class="st58" d="M436.8,132.1c-0.1,0.9,0.6,1.7,1.5,1.8c0.9,0.1,1.7-0.6,1.8-1.5c0.1-0.9-0.6-1.7-1.5-1.8
				C437.7,130.5,436.9,131.2,436.8,132.1z"/>
			<circle cx="439.2" cy="132.9" r="0.6"/>
			<path d="M432.4,133.4c0,0.3,0.2,0.6,0.5,0.6c0.3,0,0.6-0.2,0.6-0.5c0-0.3-0.2-0.6-0.5-0.6C432.7,132.9,432.5,133.1,432.4,133.4z"
				/>
			<path class="st80" d="M435.1,134.6c0.1,0.4,0.5,0.7,0.9,0.6l0,0c0.4-0.1,0.7-0.5,0.6-0.9l-0.4-2.4c-0.1-0.4-0.5-0.7-0.9-0.6l0,0
				c-0.4,0.1-0.7,0.5-0.6,0.9L435.1,134.6z"/>
			<g>
				<path class="st7" d="M441.6,125.8l-14.9,0.3l-4.6,3.3l-0.3,3.9c0,0-0.5,0.9-1.5,0c0,0-0.5-0.8-0.5-1.4c0-0.2-0.4-0.5-0.4-0.5
					c-1.7,0.1-3.7-16,11.1-16C444.9,115.5,443.3,125.7,441.6,125.8z"/>
			</g>
			<path class="st37" d="M433,129.2c0,0-0.9-0.9-2.2,0.1"/>
			<path class="st37" d="M439.1,128.7c-1.1-1.1-2.1,0.1-2.2,0.1"/>
			<path class="st53" d="M438.7,136.3L438.7,136.3c0,1.7-1.4,3.1-3.1,3c-1.7,0-3-1.4-3-3.1l0-0.1L438.7,136.3z"/>
		</g>
	</g>
	<g id="lazy_furniture01">
		<g>
			<g>
				<path class="st45" d="M591.8,185.7c0,1.7-1.3,3-2.9,3h-36.9c-1.6,0-2.9-1.3-2.9-3l0,0c0-1.7,1.3-3,2.9-3h36.9
					C590.5,182.8,591.8,184.1,591.8,185.7L591.8,185.7z"/>
				<path class="st45" d="M629.4,235.9c0,1.7-1.3,3-2.9,3h-36.9c-1.6,0-2.9-1.3-2.9-3l0,0c0-1.7,1.3-3,2.9-3h36.9
					C628.2,232.9,629.4,234.2,629.4,235.9L629.4,235.9z"/>
				<path class="st45" d="M672.4,291.5c0,1.7-1.3,3-2.9,3h-36.9c-1.6,0-2.9-1.3-2.9-3l0,0c0-1.7,1.3-3,2.9-3h36.9
					C671.1,288.5,672.4,289.9,672.4,291.5L672.4,291.5z"/>
				<path class="st45" d="M605.9,233.2c0,1.5,1.1,2.7,2.5,2.7l0,0c1.4,0,2.6-1.2,2.6-2.7v-31.6c0-1.5-1.1-2.7-2.6-2.7l0,0
					c-1.4,0-2.5,1.2-2.5,2.7V233.2z"/>
				<path class="st45" d="M648.9,288.9c0,1.5,1.1,2.7,2.6,2.7l0,0c1.4,0,2.5-1.2,2.5-2.7v-31.6c0-1.5-1.1-2.7-2.5-2.7l0,0
					c-1.4,0-2.6,1.2-2.6,2.7V288.9z"/>
				<path class="st45" d="M568.2,183.1c0,1.5,1.1,2.7,2.5,2.7l0,0c1.4,0,2.5-1.2,2.5-2.7v-31.6c0-1.5-1.1-2.7-2.5-2.7l0,0
					c-1.4,0-2.5,1.2-2.5,2.7V183.1z"/>
			</g>
			<g>
				<polygon class="st20" points="690,242.6 645.1,242.6 545.4,111.1 589.2,111.1 			"/>
				<polygon class="st6" points="645.1,242.6 645.1,260.4 545.4,128.9 545.4,111.1 			"/>
				<rect x="645.1" y="242.6" class="st81" width="44.9" height="17.8"/>
			</g>
		</g>
		<g>
			<polygon class="st10" points="566.2,125.9 586.4,123.3 610.9,140.7 589.8,145.8 		"/>
			<polygon class="st21" points="566.2,102.7 566.2,125.9 589.8,145.8 590.3,117.8 		"/>
			
				<ellipse transform="matrix(0.9705 -0.2412 0.2412 0.9705 -12.5479 142.4137)" class="st91" cx="575.3" cy="122.5" rx="1.2" ry="3.1"/>
			<path class="st86" d="M566.2,102.7c0,0,6.6,31.4,23.7,43.1l-23.7-19.9V102.7z"/>
		</g>
		<g id="lazy_flowerbox01">
			<g>
				<path class="st40" d="M524,181.1h-26v1.7c0,1.3,6,2.3,13.2,2.3c7.2,0,12.8-0.8,12.8-2.1C524,182.9,524,181.1,524,181.1z"/>
				<path class="st34" d="M523.7,181.1c0,1.3-5.8,2.3-13,2.3c-7.2,0-13-1-13-2.3c0-1.3,5.8-2.3,13-2.3
					C517.9,178.8,523.7,179.8,523.7,181.1z"/>
			</g>
			<g>
				<path class="st3" d="M489.3,150.1c0,0,1.8,13.9,1.8,21.3c0,8.6,8.2,10.3,19.5,10.3c9.8,0,19.1-1,19.1-10.3
					c0-7.4,1.8-21.3,1.8-21.3H489.3z"/>
				<path class="st72" d="M532.5,144c0,0-16.6,0-22.1,0c-5.6,0-22.2,0-22.2,0v6.2h44.4V144z"/>
			</g>
			<path class="st90" d="M534,143.9c0,0.2-0.1,0.4-0.3,0.6c-1.7,2-11.5,3.5-23.2,3.5c-13,0-23.5-1.8-23.5-4.1
				c0-2.3,10.5-4.1,23.5-4.1C523.5,139.8,534,141.6,534,143.9z"/>
			<path class="st50" d="M533.8,144c0-2.3-10.5-4.1-23.5-4.1c-13,0-23.6,1.8-23.6,4.1v4.9h0.3c0-2.3,10.5-4.1,23.5-4.1
				c11.8,0,21.5,1.5,23.2,3.5v-3.9C533.7,144.2,533.8,144.1,533.8,144z"/>
			<g id="lazy_flower01">
				<g>
					<path class="st54" d="M506.1,130.9c-2.8-8.5-7.5-15.8-12.6-17.5c-0.5,14.2,7.8,30,11.3,35.6l3.6-1.4L506.1,130.9z"/>
					<g class="st56">
						<path class="st58" d="M506.3,147.1l-0.6,0.5c-0.4,0.3-0.8,0.6-1.2,0.9c0.1,0.2,0.3,0.4,0.4,0.6l2.9-1.1
							c0.2-0.2,0.5-0.3,0.7-0.5l-0.2-1.7C507.5,146.2,506.9,146.7,506.3,147.1z"/>
						<path class="st58" d="M503.4,144.2c0.9-0.8,1.6-1.3,2.3-1.8l0.5-0.3c0.5-0.3,0.9-0.6,1.4-0.9l-0.2-1.6c-0.1,0-0.2,0.1-0.3,0.1
							c-0.6,0.3-1.2,0.7-1.7,1.1l-0.5,0.3c-1,0.6-1.8,1.4-2.4,1.9l-0.6,0.5c0.2,0.5,0.5,1,0.7,1.4c0.1,0,0.1-0.1,0.2-0.1L503.4,144.2
							z"/>
						<path class="st58" d="M507,137.8l-0.2-1.7c-0.7,0.5-1.5,1-2.2,1.5c-1.6,1-3,2-4.3,3.1c0.2,0.5,0.5,1,0.7,1.4
							c1.3-1.1,2.8-2.2,4.4-3.2C505.9,138.5,506.5,138.2,507,137.8z"/>
						<path class="st58" d="M493.6,118.2c0.8-0.3,1.6-0.6,2.5-0.9c0.7-0.2,1.3-0.5,2-0.8c-0.4-0.4-0.8-0.8-1.3-1.2
							c-0.4,0.2-0.8,0.3-1.2,0.5c-0.7,0.3-1.4,0.5-2,0.8C493.5,117.1,493.6,117.7,493.6,118.2z"/>
						<path class="st58" d="M495.3,120.1c-0.4,0.1-0.9,0.3-1.4,0.5c0.1,0.5,0.2,1,0.2,1.6c0.5-0.2,1.1-0.4,1.6-0.6l0.4-0.1
							c0.9-0.3,1.7-0.6,2.6-0.9c0.6-0.2,1.3-0.3,1.9-0.5c0.1,0,0.1,0,0.2-0.1c-0.3-0.5-0.6-0.9-0.9-1.3c-0.5,0.1-1,0.3-1.5,0.4
							c-1,0.3-1.9,0.6-2.8,0.9L495.3,120.1z"/>
						<path class="st58" d="M500.1,124c0.6-0.2,1.3-0.5,1.9-0.7c0.2-0.1,0.5-0.1,0.8-0.2c-0.2-0.5-0.5-0.9-0.8-1.4
							c-0.1,0-0.3,0.1-0.4,0.1c-0.7,0.2-1.3,0.4-2,0.7c-0.5,0.2-0.9,0.3-1.4,0.5c-1.1,0.4-2.1,0.7-3.2,1l-0.4,0.1
							c0.1,0.5,0.2,1,0.4,1.5c0,0,0,0,0,0l0.4-0.1c1.1-0.3,2.2-0.6,3.3-1C499.1,124.3,499.6,124.2,500.1,124z"/>
						<path class="st58" d="M499.3,133.6l0.3-0.2c1.3-0.9,2.6-1.9,4-2.5c0.7-0.3,1.4-0.6,2.1-0.8c-0.2-0.5-0.3-1-0.5-1.4
							c-0.8,0.3-1.5,0.5-2.3,0.9c-1.5,0.7-2.9,1.7-4.2,2.7l-0.3,0.2c-0.4,0.3-0.8,0.6-1.2,0.9c0.2,0.5,0.4,1,0.5,1.5
							c0.1-0.1,0.2-0.2,0.3-0.2C498.5,134.2,498.9,133.9,499.3,133.6z"/>
						<path class="st58" d="M501.4,127.7c0.8-0.3,1.7-0.5,2.8-0.8c0.1,0,0.2,0,0.3-0.1c-0.2-0.5-0.4-1-0.6-1.4c0,0-0.1,0-0.1,0
							c-1.1,0.2-2.1,0.5-2.9,0.8c-1.2,0.4-2.4,1-3.8,1.9c-0.5,0.3-0.9,0.6-1.3,0.9c0.2,0.5,0.3,1,0.5,1.5c0.5-0.3,1.1-0.7,1.7-1.1
							C499.2,128.6,500.3,128.1,501.4,127.7z"/>
					</g>
				</g>
				<g>
					<path class="st69" d="M512.4,147.2c1.7-13.1,9.1-28.2,19.8-34c2.6,10.1-7.4,27.4-17.9,35.4L512.4,147.2z"/>
					<path class="st47" d="M513.2,143.1c-0.1,0.5-0.2,1-0.3,1.5c0.6,0.3,1.1,0.5,1.7,0.8c0.8,0.3,1.5,0.7,2.3,1.1
						c0.4-0.4,0.8-0.7,1.2-1.1c-0.9-0.5-1.9-0.9-2.8-1.4C514.4,143.7,513.8,143.4,513.2,143.1z M514,139.6c2.1,0.9,4.6,2.4,6.3,3.5
						c0.3-0.4,0.7-0.8,1-1.2c-2.5-1.5-4.8-2.9-6.8-3.7C514.3,138.6,514.2,139.1,514,139.6z M532.6,115.2c-0.6-0.4-1.2-0.7-1.9-1.1
						c-0.5,0.3-0.9,0.6-1.4,1c1.2,0.7,2.3,1.4,3.3,2C532.7,116.4,532.7,115.8,532.6,115.2z M513,147.6l1.5,1c0.1-0.1,0.2-0.2,0.3-0.3
						c-0.1-0.1-0.2-0.1-0.4-0.2C513.8,147.9,513.4,147.7,513,147.6z M515.7,134.5c-0.2,0.5-0.4,1-0.5,1.5c0.8,0.6,1.7,1.2,2.5,1.8
						c1.6,1.1,3.1,2.2,4.2,3.4c0.3-0.4,0.6-0.8,1-1.2c-1.1-1.3-2.7-2.3-4.3-3.4C517.5,135.8,516.6,135.2,515.7,134.5z M525.6,118.4
						c1.9,0.5,4.4,1.7,6.6,2.7c0,0,0,0,0.1,0c0.1-0.5,0.2-1,0.3-1.6c-2-1-4-1.9-5.7-2.4C526.4,117.5,526,118,525.6,118.4z
						 M522.6,121.9c-0.3,0.4-0.6,0.8-0.9,1.3c1.8,0.7,4,1.9,6,3c0.9,0.5,1.7,1,2.5,1.4c0.2-0.5,0.4-1,0.6-1.4
						c-0.8-0.4-1.6-0.9-2.4-1.3C526.3,123.7,524.3,122.6,522.6,121.9z M524,120.2c-0.3,0.4-0.7,0.8-1,1.2c1.5,1,4.1,1.8,6.7,2.6
						c0.5,0.2,1.1,0.3,1.7,0.5c0.2-0.5,0.3-1,0.4-1.5c-0.5-0.2-1.1-0.3-1.6-0.5C528,121.8,525.4,121,524,120.2z M520.2,125.4
						c-0.3,0.4-0.5,0.9-0.8,1.3c1,0.8,2.3,1.6,3.9,2.6c1.5,0.9,3.2,2,4.5,3.1c0.3-0.5,0.5-0.9,0.7-1.4c-1.3-1-2.9-2-4.5-3
						C522.8,127.2,521.3,126.3,520.2,125.4z M518.1,129.1c-0.2,0.5-0.5,0.9-0.7,1.4c2.6,1,6,3,8.3,4.4c0.2,0.1,0.3,0.2,0.4,0.3
						c0.3-0.4,0.5-0.9,0.8-1.3c-0.2-0.1-0.3-0.2-0.5-0.3C523.3,131.7,520.4,130,518.1,129.1z"/>
				</g>
				<g>
					<path class="st69" d="M510.9,148.3c0-16-2.1-41.1-10.4-50.9c-3.7,11.6,1.7,42.5,5.9,51.7L510.9,148.3z"/>
					<g class="st56">
						<path class="st58" d="M508.4,137.7c0.8-0.1,1.5-0.2,2.2-0.3c0-0.5-0.1-1-0.1-1.5c-0.8,0.1-1.5,0.2-2.4,0.3
							c-0.8,0.1-1.6,0.3-2.4,0.4c-0.9,0.1-1.9,0.3-2.9,0.5c0.1,0.5,0.2,1,0.3,1.5c0.9-0.2,1.8-0.3,2.7-0.5
							C506.8,138,507.6,137.9,508.4,137.7z"/>
						<path class="st58" d="M499.6,115.3c0,0.5,0.1,1,0.1,1.5c1-0.2,2-0.4,2.9-0.6c1.7-0.4,3.5-0.5,5.3-0.5c-0.1-0.5-0.2-1-0.3-1.5
							c-1.7,0-3.5,0.2-5.2,0.5C501.5,114.9,500.6,115.1,499.6,115.3z"/>
						<path class="st58" d="M504.6,110.4l-0.6,0c-0.9,0.1-1.8,0.1-2.7,0.3c-0.7,0.1-1.3,0.3-2,0.5c0,0.5,0,1,0.1,1.6
							c0.7-0.2,1.4-0.4,2.2-0.5c0.8-0.2,1.6-0.2,2.5-0.3l0.6,0c0.7-0.1,1.5-0.1,2.2-0.2c-0.1-0.5-0.3-1-0.4-1.5
							C505.9,110.3,505.3,110.4,504.6,110.4z"/>
						<path class="st58" d="M499.3,107.8c0,0.5,0,1,0,1.6c1.3-0.3,2.6-0.6,3.8-0.7c0.9-0.1,1.9-0.2,2.9-0.3c-0.2-0.5-0.3-1-0.5-1.5
							c-0.9,0.1-1.7,0.2-2.6,0.3C501.8,107.3,500.6,107.5,499.3,107.8z"/>
						<path class="st58" d="M502.1,132.3c-0.1,0-0.1,0.1-0.2,0.1c0.1,0.5,0.2,1,0.3,1.5c0.2-0.1,0.3-0.1,0.5-0.2
							c2.4-1,4.5-1.7,6.5-2.2c0.3-0.1,0.7-0.1,1-0.2c0-0.5-0.1-1-0.1-1.5c-0.4,0.1-0.8,0.2-1.2,0.3
							C506.7,130.5,504.6,131.2,502.1,132.3z"/>
						<path class="st58" d="M499.5,103c0.5-0.1,1-0.2,1.5-0.3l1.1-0.2c0.5-0.1,1-0.2,1.5-0.4c-0.2-0.5-0.5-0.9-0.7-1.4
							c-0.4,0.1-0.7,0.2-1.1,0.3l-1.1,0.2c-0.3,0.1-0.7,0.1-1,0.2C499.6,101.9,499.6,102.5,499.5,103z"/>
						<path class="st58" d="M510.9,145.5c0-0.5,0-1,0-1.5c-1.9,0.3-3.9,0.6-5.8,1.2c0.2,0.5,0.3,1,0.5,1.5
							C507.3,146.1,509.1,145.8,510.9,145.5z"/>
						<path class="st58" d="M499.4,105.6c0,0.5,0,1.1,0,1.6c0,0,0.1,0,0.1-0.1c0.8-0.2,1.6-0.4,2.5-0.6c1.1-0.2,2.2-0.3,3.4-0.4
							c-0.2-0.5-0.4-1-0.6-1.5c-1,0.1-2,0.2-3.1,0.4C500.9,105.3,500.1,105.4,499.4,105.6z"/>
						<path class="st58" d="M507.2,141.9c0.9-0.3,1.8-0.7,2.7-0.9c0.3-0.1,0.6-0.1,0.9-0.2c0-0.5,0-1-0.1-1.5
							c-0.4,0.1-0.8,0.1-1.2,0.2c-1,0.2-1.9,0.6-2.8,0.9c-0.4,0.2-0.8,0.3-1.2,0.4c-0.5,0.2-1,0.4-1.6,0.5c0.1,0.5,0.3,1,0.4,1.5
							c0.5-0.2,1.1-0.4,1.6-0.6C506.4,142.2,506.8,142,507.2,141.9z"/>
						<path class="st58" d="M501.6,120.6c1.7-0.3,3.4-0.3,5.1-0.3c0.4,0,0.9,0,1.3,0l0.8,0c-0.1-0.5-0.2-1-0.3-1.5H508
							c-0.4,0-0.9,0-1.3,0c-1.8,0-3.6,0-5.4,0.3c-0.4,0.1-0.9,0.2-1.3,0.3c0.1,0.5,0.1,1,0.2,1.5
							C500.6,120.8,501.1,120.7,501.6,120.6z"/>
						<path class="st58" d="M503.8,124.5c1.7-0.2,3.6-0.4,5.6-0.4c-0.1-0.5-0.1-1-0.2-1.5c-2,0-3.9,0.2-5.5,0.4
							c-1,0.1-2.1,0.2-3.1,0.4c0.1,0.5,0.1,1,0.2,1.5C501.7,124.8,502.7,124.6,503.8,124.5z"/>
					</g>
				</g>
				<g>
					<path class="st54" d="M510.3,148.9c-2-5.7-2-24.3,2.7-29c4.1,4.1,5.1,18.2,0,29.7C511.5,153,510.3,148.9,510.3,148.9z"/>
					<g class="st56">
						<path class="st58" d="M511.5,142l0.7-0.1c0.6-0.1,1.2-0.2,1.7-0.2c0.5,0,1.1,0,1.6,0c0.1-0.5,0.2-1,0.3-1.5c-0.6,0-1.3,0-1.9,0
							c-0.7,0-1.3,0.1-2.1,0.2l-0.6,0.1c-0.7,0.1-1.5,0.2-2.2,0.4c0,0,0,0,0,0c0,0.5,0.1,1.1,0.1,1.6c0.1-0.1,0.3-0.1,0.4-0.2
							C510.2,142.2,510.8,142.1,511.5,142z"/>
						<path class="st58" d="M510.9,130.9l0.4,0c1.3-0.1,2.5-0.3,3.7-0.2c0.5,0,0.9,0.1,1.4,0.1c0-0.5-0.1-1.1-0.1-1.6
							c-0.4-0.1-0.8-0.1-1.2-0.1c-1.3,0-2.6,0.1-3.9,0.3l-0.4,0c-0.4,0-0.8,0.1-1.2,0.2c-0.1,0.5-0.1,1-0.2,1.6c0.1,0,0.2,0,0.3,0
							C510.1,131,510.5,131,510.9,130.9z"/>
						<path class="st58" d="M512.3,125.2c-0.5,0-1,0.1-1.6,0.2c-0.1,0-0.3,0-0.4,0.1c-0.1,0.5-0.3,1.1-0.4,1.6c0.1,0,0.1,0,0.2,0
							c0.3,0,0.6-0.1,0.9-0.2c0.5-0.1,0.9-0.2,1.4-0.2c0.3,0,0.7,0,1,0l2.4,0h0.1c-0.1-0.5-0.2-1-0.3-1.5l-2.1,0
							C513.1,125.2,512.7,125.2,512.3,125.2z"/>
						<path class="st58" d="M513.3,148.9c0.2-0.5,0.4-1,0.6-1.6c-0.5,0-1.1,0-1.8,0.1c-0.7,0.1-1.5,0.2-2.3,0.3
							c0.1,0.4,0.2,0.8,0.3,1.2c0,0,0,0.1,0.1,0.3c0.7-0.1,1.4-0.2,2-0.3C512.7,148.9,513,148.9,513.3,148.9z"/>
						<path class="st58" d="M512.5,120.6c-0.4,0.5-0.7,1-1,1.7c1-0.2,2-0.3,3-0.3c-0.3-0.6-0.6-1-1-1.5
							C513.2,120.5,512.8,120.6,512.5,120.6z"/>
						<path class="st58" d="M512.2,136.6c-0.3,0-0.6,0-0.9,0c-0.4,0-0.8,0-1.3,0.1c-0.3,0-0.7,0.1-1,0.1c0,0.5,0,1,0,1.5
							c0.4-0.1,0.7-0.1,1.1-0.1c0.4,0,0.8,0,1.2-0.1c0.3,0,0.6,0,1,0c0.9-0.1,1.8-0.1,2.7,0c0.4,0,0.8,0.1,1.2,0.1
							c0.1-0.5,0.1-1,0.2-1.5c-0.4-0.1-0.8-0.1-1.3-0.1C514.1,136.5,513.2,136.5,512.2,136.6z"/>
						<path class="st58" d="M514.4,146.1c0.2-0.5,0.3-1,0.5-1.5c-1.6-0.1-3.3,0-5.4,0.3c0.1,0.5,0.1,1,0.2,1.5
							C511.4,146.2,513,146.1,514.4,146.1z"/>
						<path class="st58" d="M512,123.4l-0.5,0.1c-0.2,0-0.4,0-0.5,0c-0.2,0.5-0.3,1-0.5,1.6c0.1,0,0.2,0,0.3,0c0.3,0,0.6,0,0.9-0.1
							l0.5-0.1c0.3,0,0.7-0.1,1-0.1c0.9,0,1.6,0,2.3,0c-0.2-0.5-0.3-1.1-0.5-1.6c-0.6,0-1.1,0-1.8,0
							C512.8,123.3,512.4,123.4,512,123.4z"/>
						<path class="st58" d="M516,134.6c0.2,0,0.3,0.1,0.5,0.1c0-0.5,0-1,0-1.5c-0.1,0-0.1,0-0.2,0c-1.2-0.2-2.3-0.3-3.7-0.3
							c-1,0-2.2,0-3.4,0.3c0,0.5-0.1,1.1-0.1,1.6c1.2-0.3,2.5-0.3,3.5-0.3C513.8,134.3,514.9,134.4,516,134.6z"/>
					</g>
				</g>
			</g>
			<path class="st40" d="M533.8,148.8c0,2.3-10.5,4.1-23.5,4.1c-13,0-23.6-1.8-23.6-4.1v-4.9h0.3c0,2.3,10.5,4.1,23.5,4.1
				c11.8,0,21.5-1.5,23.2-3.5v3.9C533.7,148.5,533.8,148.6,533.8,148.8z"/>
		</g>
		<g id="lazy_flowerbox02">
			<g>
				<path class="st75" d="M662.1,222.1v7.8c0,0.8-0.7,1.5-1.5,1.5h-6.9c-0.8,0-1.5-0.7-1.5-1.5v-7.8H662.1z"/>
				<path class="st16" d="M662.4,220.5h-10.5c-0.4,0-0.7,0.3-0.7,0.7v0.7c0,0.4,0.3,0.7,0.7,0.7h10.5c0.4,0,0.7-0.3,0.7-0.7v-0.7
					C663.1,220.8,662.8,220.5,662.4,220.5z"/>
			</g>
			<g id="lazy_flower02">
				<g>
					<path class="st1" d="M661.4,206.7c-1.4,1.4-3.2,0.9-3.2,0.9s-0.5-1.8,0.9-3.2c1.4-1.4,3.2-0.9,3.2-0.9S662.8,205.3,661.4,206.7z
						"/>
					<path class="st88" d="M662.3,203.5c0,0,0.5,1.8-0.9,3.2c-1.4,1.4-3.2,0.9-3.2,0.9L662.3,203.5z"/>
				</g>
				<g>
					<path class="st1" d="M662,214.7c-1.7,1.7-3.8,1.1-3.8,1.1s-0.6-2.2,1.1-3.8c1.7-1.7,3.8-1.1,3.8-1.1S663.7,213,662,214.7z"/>
					<path class="st88" d="M663.1,210.9c0,0,0.6,2.2-1.1,3.8c-1.7,1.7-3.8,1.1-3.8,1.1L663.1,210.9z"/>
				</g>
				<g>
					<path class="st1" d="M652.9,204.2c1.4,1.4,3.2,0.9,3.2,0.9s0.5-1.8-0.9-3.2s-3.2-0.9-3.2-0.9S651.5,202.7,652.9,204.2z"/>
					<path class="st88" d="M652,200.9c0,0-0.5,1.8,0.9,3.2c1.4,1.4,3.2,0.9,3.2,0.9L652,200.9z"/>
				</g>
				<g>
					<path class="st1" d="M652.3,212.2c1.7,1.7,3.8,1.1,3.8,1.1s0.6-2.2-1.1-3.8c-1.7-1.7-3.8-1.1-3.8-1.1S650.6,210.5,652.3,212.2z"
						/>
					<path class="st88" d="M651.2,208.3c0,0-0.6,2.2,1.1,3.8c1.7,1.7,3.8,1.1,3.8,1.1L651.2,208.3z"/>
				</g>
				<rect x="656.9" y="203.9" class="st83" width="0.4" height="16.6"/>
			</g>
		</g>
		<g>
			<path class="st55" d="M619.3,160c0,0.9-2.2,1.7-4.9,1.7c-2.7,0-4.9-0.8-4.9-1.7c0-0.1,0-8.3,0-8.3h9.9
				C619.3,151.7,619.3,160,619.3,160z"/>
			<path class="st18" d="M619.3,151.7c0,0.4-0.3,0.7-0.8,1c-0.9-0.5-2.4-0.8-4.1-0.8c-1.7,0-3.2,0.3-4.1,0.8c-0.5-0.3-0.9-0.6-0.9-1
				c0-0.9,2.2-1.7,4.9-1.7C617.1,150,619.3,150.8,619.3,151.7z"/>
			<path class="st31" d="M618.5,152.7c-0.9,0.5-2.4,0.7-4.1,0.7c-1.7,0-3.2-0.3-4.1-0.7c0.9-0.5,2.4-0.8,4.1-0.8
				C616.1,151.9,617.6,152.2,618.5,152.7z"/>
			<path class="st51" d="M618.6,154.8c0,0,2.8-1.4,3,1.3s-0.8,3.6-3.1,2.4"/>
		</g>
		<g>
			<path class="st55" d="M333,132.1c0,0.9,2.2,1.7,4.9,1.7c2.7,0,4.9-0.8,4.9-1.7c0-0.1,0-8.3,0-8.3H333
				C333,123.8,333,132.1,333,132.1z"/>
			<path class="st18" d="M333,123.8c0,0.4,0.3,0.7,0.8,1c0.9-0.5,2.4-0.8,4.1-0.8c1.7,0,3.2,0.3,4.1,0.8c0.5-0.3,0.9-0.6,0.9-1
				c0-0.9-2.2-1.7-4.9-1.7C335.2,122.1,333,122.8,333,123.8z"/>
			<path class="st31" d="M333.8,124.7c0.9,0.5,2.4,0.7,4.1,0.7c1.7,0,3.2-0.3,4.1-0.7c-0.9-0.5-2.4-0.8-4.1-0.8
				C336.2,124,334.7,124.3,333.8,124.7z"/>
			<path class="st51" d="M333.7,126.9c0,0-2.8-1.4-3,1.3s0.8,3.6,3.1,2.4"/>
		</g>
		<g>
			<line class="st24" x1="280" y1="225.4" x2="268.5" y2="255.2"/>
			<line class="st24" x1="293.1" y1="222.3" x2="287.6" y2="235.4"/>
			<line class="st24" x1="362.7" y1="227.4" x2="371.2" y2="255.2"/>
			<line class="st24" x1="348.2" y1="221.3" x2="351.7" y2="236.2"/>
			<path class="st6" d="M383.3,209.2v10c0,9-27.8,16.2-62,16.2s-62-7.2-62-16.2v-10H383.3z"/>
			<ellipse class="st20" cx="321.3" cy="209.2" rx="62" ry="16.2"/>
		</g>
		<g>
			<polygon class="st10" points="327.6,199.6 347.8,193 372.3,205.6 351.3,214.8 		"/>
			<polygon class="st21" points="327.6,176.4 327.6,199.6 351.3,214.8 351.8,186.7 		"/>
			<path class="st91" d="M337.9,193.8c0.4,1.6,0.2,3.1-0.4,3.4c-0.6,0.3-1.5-0.8-1.9-2.4s-0.2-3.1,0.4-3.4
				C336.6,191.2,337.5,192.3,337.9,193.8z"/>
			<path class="st86" d="M327.6,176.4c0,0,6.6,30.1,23.7,38.4l-23.7-15.2V176.4z"/>
		</g>
		<g>
			<path class="st39" d="M273.1,204.7c0,0.9,2.2,1.7,4.9,1.7c2.7,0,4.9-0.8,4.9-1.7c0-0.1,0-8.3,0-8.3h-9.9
				C273.1,196.4,273.1,204.7,273.1,204.7z"/>
			<path class="st18" d="M273.1,196.4c0,0.4,0.3,0.7,0.8,1c0.9-0.5,2.4-0.8,4.1-0.8c1.7,0,3.2,0.3,4.1,0.8c0.5-0.3,0.9-0.6,0.9-1
				c0-0.9-2.2-1.7-4.9-1.7C275.3,194.7,273.1,195.5,273.1,196.4z"/>
			<path class="st85" d="M273.9,197.4c0.9,0.5,2.4,0.7,4.1,0.7c1.7,0,3.2-0.3,4.1-0.7c-0.9-0.5-2.4-0.8-4.1-0.8
				C276.3,196.6,274.8,196.9,273.9,197.4z"/>
			<path class="st95" d="M273.8,199.5c0,0-2.8-1.4-3,1.3s0.8,3.6,3.1,2.4"/>
		</g>
	</g>
	<g id="lazy_man04">
		<g id="Lman04_foot">
			<path class="st60" d="M414.6,260.7c-0.9,2.6-3.7,3.9-6.3,3l-14.2-5.1c-2.6-0.9-3.9-3.7-3-6.3l0,0c0.9-2.6,3.7-3.9,6.3-3l14.2,5.1
				C414.2,255.3,415.5,258.1,414.6,260.7L414.6,260.7z"/>
			<path class="st60" d="M400.6,267.7c-0.9,2.6-3.7,3.9-6.3,3l-14.2-5.1c-2.6-0.9-3.9-3.7-3-6.3l0,0c0.9-2.6,3.7-3.9,6.3-3l14.2,5.1
				C400.2,262.3,401.5,265.1,400.6,267.7L400.6,267.7z"/>
			<path class="st68" d="M409.2,263.5c-0.6,0-1.2-0.1-1.9-0.3c-3.1-1-4.9-4.4-3.8-7.6c3.4-10.3,9.5-17.8,18.1-22.1
				c16.4-8.2,35.9-1.8,36.7-1.5c3.1,1.1,4.8,4.5,3.8,7.6c-1.1,3.1-4.5,4.8-7.6,3.8c-0.2-0.1-15.7-5.1-27.6,0.9
				c-5.7,2.9-9.7,7.8-12,15.1C414.1,261.9,411.7,263.5,409.2,263.5z"/>
			<path class="st96" d="M470.5,244.6c-2.9,3.6-9.4,10.8-13.5,11.6c-4.4,0.9-18.1-7.8-18.4-7.8c-0.2-0.1-15.7-5.1-27.6,0.9
				c-5.7,2.9-9.7,7.8-12,15.1c-0.8,2.5-3.2,4.1-5.7,4.1c-0.6,0-1.2-0.1-1.9-0.3c-3.1-1-4.9-4.4-3.8-7.6c3.4-10.3,9.5-17.8,18.1-22.1
				c11.7-5.9,24.9-4.3,31.8-2.8c0.3-1.5,0.8-3.1,1.6-4.5C443.5,240.2,462.2,245.7,470.5,244.6z"/>
		</g>
		<g id="Lman04_notebook">
			<polygon class="st78" points="404.3,210.5 423.9,202.5 432.4,224.9 413.8,234.8 		"/>
			<polygon id="Lman04_notebook_monitor" class="st35" points="405.6,211.2 423.3,204 431.1,224.3 414.2,233.2 		"/>
			<polygon class="st18" points="413.8,234.8 436.6,240.4 455.6,230.1 432.4,224.9 		"/>
		</g>
		<path id="Lman04_body" class="st42" d="M456.2,207.6l-15.6,21.1c-0.6,0.8-1.1,1.6-1.5,2.5c9.7,16.1,28,13.2,28.5,17.2
			c0.2-0.2,0.3-0.4,0.5-0.7l15.6-21.1c5.8-7.9,4.4-18.6-3.2-23.9c-3.8-2.6-8.4-3.4-12.8-2.5C463.3,201.1,459.1,203.6,456.2,207.6z"/>
		<g id="Lman04_head">
			<path class="st74" d="M465.4,178.8c0,0-1-1.1-3.2,1.1c0,0,1.5-1.1,2.7,0.7C466.1,182.5,465.4,178.8,465.4,178.8z"/>
			<path class="st74" d="M462.6,180.9c2.2-2.2,3.2-1.1,3.2-1.1s0.6,3.6-0.5,1.8C465.2,181.6,463.5,180.9,462.6,180.9z"/>
			<g>
				<circle class="st23" cx="476.7" cy="190.4" r="12.9"/>
				<path class="st58" d="M468.1,190.3c0.3,0.9-0.2,2-1.1,2.3c-0.9,0.3-1.9-0.1-2.3-1.1c-0.3-0.9,0.2-1.9,1.1-2.3
					C466.7,188.9,467.7,189.4,468.1,190.3z"/>
				<circle cx="465.2" cy="191.5" r="0.6"/>
				<path class="st53" d="M466.8,194.3L466.8,194.3c0.5,1.7,0.6,3.2,0.1,3.4c-0.5,0.1-1.3-1.1-1.8-2.8l0-0.1L466.8,194.3z"/>
				<path class="st80" d="M464.6,194.1c0,0.4-0.2,0.8-0.6,0.8l0,0c-0.4,0-0.7-0.3-0.7-0.7l-0.2-2.6c0-0.4,0.2-0.8,0.6-0.8l0,0
					c0.4,0,0.7,0.3,0.7,0.7L464.6,194.1z"/>
			</g>
			<path class="st84" d="M472,182.9c0,0-0.5,4.4,2.5,6l-0.2,5.2c0,0,0.4,1,1.6,0.2c0,0,0.7-0.8,0.7-1.4c0-0.6,10.4,4.3,11.4,3.5
				c3.6-2.5,1.5-14.6,1.5-14.6L472,182.9z"/>
			<path class="st12" d="M465.3,187.8c0.9-1.5,2.2-0.5,2.2-0.5"/>
			<path class="st94" d="M496.8,191.8c-1,2.5-17.5-0.1-22.3-2c-4.8-1.8,4-2.1,5-4.7c1-2.5,5.6-3.1,10.4-1.3
				C494.7,185.7,497.8,189.3,496.8,191.8z"/>
			<path class="st14" d="M465.3,184.6c0,0-1.6-9.2,4.1-11.1c5.7-2,18.3-2.3,19.2,3.5c0.9,5.7,5.5,9.1-7,12.3
				C469.1,192.4,465.3,184.6,465.3,184.6z"/>
			<path class="st32" d="M465.2,180.7c0,0,0.2-5.8,4.3-7.2c5.6-2,18.3-2.3,19.2,3.5c0.9,5.7-13.1,2.5-14.7,2.3
				C464.9,177.9,465.2,180.7,465.2,180.7z"/>
			<path class="st28" d="M479.6,195.8c-0.2,0.9-1.1,1.5-2,1.3l0,0c-0.9-0.2-1.5-1.1-1.3-2l0.4-2.2c0.2-0.9,1.1-1.5,2-1.3l0,0
				c0.9,0.2,1.5,1.1,1.3,2L479.6,195.8z"/>
		</g>
		<g id="Lman04_left_hand">
			<path class="st23" d="M462.2,221.3c-5.5,6.6-13.8,14.1-23.7,14.1c-0.6,0-1.2,0-1.8-0.1c-15.5-1.5-22.3-5.2-23-5.7
				c-2.4-1.4-3.2-4.5-1.8-6.9c1.4-2.4,4.5-3.2,6.8-1.8c0,0,5.6,3.1,18.8,4.3c5.9,0.6,12.1-4.8,16.6-10.1
				C454.2,215.2,456.3,222.5,462.2,221.3z"/>
			<path class="st38" d="M468.9,211.6c-0.6,1-3,5.2-6.7,9.7c-5.9,1.2-8-6.1-8-6.1c2.8-3.3,4.9-6.6,6-8.5c1.3-2.4,4.4-3.3,6.8-1.9
				C469.4,206.1,470.3,209.2,468.9,211.6z"/>
		</g>
		<path id="Lman04_chair" class="st33" d="M474.8,219.6c9.2-5.6,47.3-15.2,45.5,21.1c-1.6,32-21.8,32-38.2,33.8
			c-16.5,1.8-65.6,7.9-65.9-15.3c-0.3-22.7,7.5-10.9,31.9-14.6C472.5,240.8,459,229.2,474.8,219.6z"/>
	</g>
	<g id="Lman05_hand">
		<path id="Lman05_left_hand" class="st67" d="M635.3,116.8c0,30.6-34.6,23.8-34.6,23.8"/>
		<line id="Lman05_right_hand" class="st67" x1="600.7" y1="121" x2="602.6" y2="128.6"/>
	</g>

</svg>
