<?xml version="1.0" encoding="utf-8"?>
<?xml-stylesheet type="text/css" href="space_svg_motion.css"?>
<!-- Generator: Adobe Illustrator 16.0.0, SVG Export Plug-In . SVG Version: 6.00 Build 0)  -->
<!DOCTYPE svg PUBLIC "-//W3C//DTD SVG 1.1//EN" "http://www.w3.org/Graphics/SVG/1.1/DTD/svg11.dtd">
<svg version="1.1" id="nature_space" xmlns="http://www.w3.org/2000/svg" xmlns:xlink="http://www.w3.org/1999/xlink" x="0px" y="0px" width="750px" height="300px" viewBox="0 0 750 300" style="enable-background:new 0 0 750 300;" xml:space="preserve">

	<style type="text/css">
	<![CDATA[
		.st0{fill:#4785C6;}
		.st1{fill:#482F14;}
		.st2{fill:none;stroke:#D3AD29;stroke-width:14;stroke-linecap:round;stroke-linejoin:round;stroke-miterlimit:10;}
		.st3{fill:#7FCAC2;}
		.st4{fill:#1375B1;}
		.st5{fill:none;stroke:#C84D1B;stroke-width:0.5;stroke-linecap:round;stroke-miterlimit:10;}
		.st6{fill:#E48CA3;}
		.st7{fill:#E6C763;}
		.st8{fill:#4D9D36;}
		.st9{fill:none;stroke:#C84D1B;stroke-linecap:round;stroke-linejoin:round;stroke-miterlimit:10;}
		.st10{fill:#B0B827;}
		.st11{fill:#3E3A39;stroke:#484721;stroke-linecap:round;stroke-linejoin:round;stroke-miterlimit:10;}
		.st12{fill:none;stroke:#F5AE25;stroke-linecap:round;stroke-linejoin:round;stroke-miterlimit:10;}
		.st13{fill:none;stroke:#724F43;stroke-linecap:round;stroke-linejoin:round;stroke-miterlimit:10;}
		.st14{fill:#8399C3;}
		.st15{fill:#B376B0;}
		.st16{fill:#B5B5B6;}
		.st17{fill:#EB932F;}
		.st18{fill:#EBEA6A;}
		.st19{fill:#898989;}
		.st20{fill:#ECCCB6;}
		.st21{fill:#B93F43;}
		.st22{fill:none;stroke:#90BFB1;stroke-width:8;stroke-linecap:round;stroke-miterlimit:10;}
		.st23{fill:#EF7E3D;}
		.st24{fill:#EFB78E;}
		.st25{fill:#523320;}
		.st26{fill:none;stroke:#232951;stroke-linecap:round;stroke-linejoin:round;stroke-miterlimit:10;}
		.st27{fill:none;stroke:#3F4142;stroke-width:12;stroke-linecap:round;stroke-miterlimit:10;}
		.st28{fill:#BECF1D;}
		.st29{fill:#8FBC2A;}
		.st30{fill:none;stroke:#724F43;stroke-width:0.25;stroke-linecap:round;stroke-linejoin:round;stroke-miterlimit:10;}
		.st31{fill:none;stroke:#030413;stroke-width:0.5;stroke-linecap:round;stroke-miterlimit:10;}
		.st32{fill:#254624;}
		.st33{fill:#F6B34A;}
		.st34{fill:#F8CB67;}
		.st35{fill:#926F27;}
		.st36{fill:#937927;}
		.st37{fill:none;stroke:#B28247;stroke-width:0.25;stroke-linecap:round;stroke-linejoin:round;stroke-miterlimit:10;}
		.st38{fill:#2A55A5;}
		.st39{opacity:0.4;fill:#59413D;}
		.st40{fill:#C65346;}
		.st41{fill:#C84D1B;}
		.st42{fill:none;stroke:#724E22;stroke-width:4;stroke-linecap:round;stroke-linejoin:round;stroke-miterlimit:10;}
		.st43{fill:none;stroke:#724E22;stroke-width:5;stroke-linecap:round;stroke-linejoin:round;stroke-miterlimit:10;}
		.st44{fill:none;stroke:#724E22;stroke-width:7;stroke-linecap:round;stroke-linejoin:round;stroke-miterlimit:10;}
		.st45{fill:none;stroke:#724E22;stroke-width:9;stroke-linecap:round;stroke-linejoin:round;stroke-miterlimit:10;}
		.st46{fill:#604021;}
		.st47{fill:#61B430;}
		.st48{fill:#FFFFFF;}
		.st49{fill:#9BA7CB;}
		.st50{fill:#9D579F;}
		.st51{fill:#CCCCCC;}
		.st52{fill:none;stroke:#593317;stroke-width:0.75;stroke-linecap:round;stroke-linejoin:round;stroke-miterlimit:10;}
		.st53{fill:#CFA328;}
		.st54{fill:none;stroke:#454C4E;stroke-width:12;stroke-linecap:round;stroke-miterlimit:10;}
		.st55{fill:none;stroke:#503530;stroke-width:0.75;stroke-linecap:round;stroke-linejoin:round;stroke-miterlimit:10;}
		.st56{fill:#3971B8;}
		.st57{fill:#D1693E;}
		.st58{fill:none;stroke:#EFB78E;stroke-width:9;stroke-linecap:round;stroke-miterlimit:10;}
		.st59{fill:#D97CAF;}
		.st60{fill:#3FB28F;}
		.st61{fill:#724E22;}
		.st62{fill:#724F43;}
		.st63{fill:#A4B826;}
		.st64{fill:#766E2B;}
		.st65{fill:#767777;}
		.st66{fill:#775C26;}
		.st67{fill:#A7B223;}
		.st68{fill:none;stroke:#C84D1B;stroke-miterlimit:10;}
		.st69{fill:#DD9613;}
		.st70{fill:none;stroke:#ECCCB6;stroke-width:10;stroke-linecap:round;stroke-miterlimit:10;}
		.st71{fill:#DDDDDD;}
		.st72{fill:#40220F;}
		.st73{fill:none;stroke:#E0C022;stroke-width:14;stroke-linecap:round;stroke-linejoin:round;stroke-miterlimit:10;}
		.st74{fill:#422413;}
		.st75{fill:none;stroke:#3B3C23;stroke-linecap:round;stroke-linejoin:round;stroke-miterlimit:10;}
		.st76{fill:#454C4E;}
	]]>
	</style>

	<g id="nature_shadow">
		<rect x="247.6" y="192.8" class="st51" width="101.1" height="5.2"/>
		<rect x="611" y="192.8" class="st51" width="101.1" height="5.2"/>
		<rect x="122.5" y="192.2" class="st51" width="101.1" height="5.2"/>
		<rect x="66.5" y="189.7" class="st51" width="397.3" height="3.6"/>
		<path class="st51" d="M461.9,229.3c0,3.2-2.6,5.8-5.8,5.8h-44.7c-3.2,0-5.8-2.6-5.8-5.8l0,0c0-3.2,2.6-5.8,5.8-5.8H456
			C459.2,223.5,461.9,226.1,461.9,229.3L461.9,229.3z"/>
		<polygon class="st51" points="678.8,201.9 743.3,297.1 471.2,296.8 433.7,202.2 	"/>
		<polygon class="st51" points="225.7,207.4 199.7,296.9 6.7,296.9 63.4,207.4 	"/>
		<ellipse class="st51" cx="235.8" cy="245" rx="26.3" ry="10.5"/>
		<rect x="383.8" y="191.6" class="st51" width="101.1" height="5.2"/>
	</g>

	<g id="nature_tree">
		<g id="nature_tree01">
			<path class="st29" d="M268.4,72.1c-1.3-13.3-13.2-23.1-26.5-21.7c-4.6,0.5-8.8,2.2-12.3,4.8c-5-5.1-12.1-7.9-19.7-7.2
				c-5.9,0.6-11.1,3.2-15,7.2c-4-9.5-13.9-15.7-24.7-14.7c-13.3,1.3-23.1,13.2-21.7,26.5c0.8,8.2,5.6,15,12.2,18.7
				c-8.3,2.3-14,10.3-13.2,19.2c0.7,6.9,5.1,12.5,11.1,14.9c-2.7,3.5-4.1,8-3.7,12.8c1,9.9,9.8,17.2,19.8,16.2
				c3.2-0.3,6.1-1.4,8.5-3.1c0,0.3,0,0.7,0.1,1c1,9.9,9.8,17.2,19.8,16.2c6.7-0.7,12.2-4.9,14.7-10.7c5,5.1,12.2,8,19.8,7.3
				c13.3-1.3,23.1-13.2,21.7-26.5c-0.5-4.7-2.3-9-5-12.5c5.3-3.6,8.5-9.9,7.8-16.7c-0.4-3.7-1.8-7-4-9.6
				C265.1,89.4,269.3,81.1,268.4,72.1z"/>
			<line class="st44" x1="203.1" y1="126.6" x2="203.1" y2="187.9"/>
			<line class="st44" x1="203.1" y1="149" x2="232.7" y2="137"/>
			<line class="st44" x1="202" y1="137" x2="185.6" y2="126.5"/>
			<line class="st43" x1="219.4" y1="142.3" x2="219.7" y2="131.7"/>
			<line class="st42" x1="192.1" y1="130.7" x2="184.7" y2="137"/>
		</g>
		<g id="nature_tree02">
			<path class="st29" d="M612.3,96.7c2.8,3.7,4.4,8.3,4.4,13.2c0,11.6-8.9,21.2-20.3,22.1c0.8,2.3,1.2,4.7,1.2,7.3
				c0,12.3-10,22.2-22.2,22.2c-11.2,0-20.4-8.3-22-19c-3.4,8.9-12,15.3-22.1,15.3c-9.7,0-18-5.8-21.7-14.2c-3.5,5.4-9.5,9-16.4,9
				c-10.8,0-19.5-8.7-19.5-19.5c0-2.5,0.5-4.8,1.3-7c-8.6-2-14.9-9.7-14.9-18.9c0-0.9,0.1-1.7,0.2-2.5c-0.1,0-0.1,0-0.2,0
				c-10.8,0-19.5-8.7-19.5-19.5c0-7.9,4.7-14.7,11.4-17.7c-8.3-4.8-14-13.9-14-24.2c0-15.4,12.5-28,28-28c8.8,0,16.7,4.1,21.8,10.5
				c4-5.4,10.5-9,17.8-9c5.3,0,10.2,1.9,14,5c3.4-11.6,14.1-20,26.8-20c14.1,0,25.7,10.4,27.7,23.9c2.5-1,5.3-1.6,8.1-1.6
				c12.3,0,22.2,10,22.2,22.2c0,2.4-0.4,4.7-1.1,6.8c1.6-0.4,3.2-0.5,4.8-0.5c12.3,0,22.2,10,22.2,22.2
				C630.7,85.8,622.8,94.9,612.3,96.7z"/>
			<line class="st45" x1="528.3" y1="108.8" x2="528.3" y2="188.6"/>
			<line class="st45" x1="528.3" y1="137.9" x2="566.8" y2="122.3"/>
			<line class="st45" x1="526.9" y1="122.3" x2="505.5" y2="108.7"/>
			<line class="st45" x1="549.5" y1="129.3" x2="549.9" y2="115.5"/>
			<line class="st45" x1="514" y1="114.1" x2="504.3" y2="122.4"/>
		</g>
	</g>

	<g id="nature_grass">
		<g id="nature_grass_back">
			<g id="nature_grass_back05">
				<g>
					<path class="st8" d="M165.7,188.1c0,0.1,0.1,0.2,0.1,0.3c0.9,0.4,1.6,1.1,1.7,1.9v0.1h-100c-0.7-0.4-1.1-1-1.1-1.8
						c0.1-1.2,1.6-2.2,3.2-2.2c0.2,0,0.3,0,0.5,0c-0.1-0.2-0.1-0.4-0.1-0.7c-1-0.3-1.5-1.1-1.4-1.9c0.2-1.2,1.8-2.1,3.4-2.1
						c0.3,0,0.5,0,0.7,0.1c0.3-0.5,0.9-1,1.6-1.2c-0.8-0.4-1.2-1-1-1.8c0.3-1.2,1.9-2.1,3.5-2.1c0.1,0,0.1,0,0.2,0
						c0.2-0.5,0.6-1,1.2-1.3c0-0.2,0-0.4,0-0.7c0.4-1.1,2-2,3.5-2c0.5,0,0.9,0.1,1.3,0.3c0.6-0.5,1.4-0.9,2.2-1
						c-0.2-0.3-0.3-0.7-0.1-1.2c0.4-1.1,2-2,3.4-2c0.3,0,0.5,0,0.7,0.1c0.3-0.2,0.6-0.3,0.9-0.4c0,0,0-0.1,0-0.1
						c0.4-1.1,1.9-1.9,3.3-1.9c0.5,0,0.8,0.1,1.2,0.2c0.5-0.9,1.8-1.6,3.1-1.6c0.4,0,0.8,0.1,1.1,0.2c0.3-0.1,0.6-0.2,0.9-0.3
						c0.5-0.8,1.7-1.4,2.8-1.4c0.9,0,1.6,0.4,1.9,1c0.3-0.1,0.6-0.3,0.9-0.3v-0.1c0.2-1,1.5-1.9,2.8-1.9c1.1,0,1.9,0.5,2.1,1.3
						c0.5-0.2,1-0.4,1.5-0.4h0.1c0.5-0.6,1.3-1.1,2.3-1.1c0.9,0,1.7,0.4,2.1,1c0.4-0.2,0.8-0.3,1.3-0.3c0.2,0,0.4,0,0.6,0.1
						c0.4-0.4,1.1-0.7,1.8-0.7c0.7,0,1.4,0.3,1.9,0.7c0.4-0.3,0.9-0.5,1.5-0.5c1,0,1.9,0.5,2.4,1.2c0.4-0.4,1-0.6,1.7-0.6
						c0.8,0,1.6,0.3,2.2,0.8c0.3-0.1,0.6-0.2,1-0.2c1,0,2,0.5,2.6,1.1c0.3-0.2,0.7-0.2,1.2-0.2c1.3,0,2.6,0.8,3,1.7
						c0.4-0.3,0.9-0.5,1.5-0.5c1.3,0,2.7,0.8,3.1,1.7c0.3-0.1,0.7-0.2,1.1-0.2c1.4,0,2.9,0.9,3.3,2c0,0,0,0.1,0,0.1
						c0.3-0.1,0.7-0.2,1.1-0.2c1.4,0,2.8,0.7,3.3,1.7c0.2,0,0.3,0,0.5,0c1.5,0,3.1,0.9,3.5,2c0.2,0.5,0.1,0.9-0.2,1.3
						c0.1,0,0.1,0,0.2,0c1.5,0,3.1,0.9,3.5,2.1c0.2,0.8-0.2,1.4-0.9,1.8c0.1,0.1,0.3,0.2,0.4,0.4c0.3-0.1,0.7-0.2,1.1-0.2
						c1.6,0,3.2,1,3.4,2.1c0.1,0.5,0,0.9-0.4,1.3c0.7,0.6,1.2,1.4,1.6,2.1c0.1,0,0.3,0,0.4,0c1.6,0,3.2,1,3.3,2.2
						C167.7,187,166.9,187.8,165.7,188.1z"/>
					<path class="st8" d="M165.7,188.1c0,0.1,0.1,0.2,0.1,0.3c0.9,0.4,1.6,1.1,1.7,1.9v0.1h-100c-0.7-0.4-1.1-1-1.1-1.8
						c0.1-1.2,1.6-2.2,3.2-2.2c0.2,0,0.3,0,0.5,0c-0.1-0.2-0.1-0.4-0.1-0.7c-1-0.3-1.5-1.1-1.4-1.9c0.2-1.2,1.8-2.1,3.4-2.1
						c0.3,0,0.5,0,0.7,0.1c0.3-0.5,0.9-1,1.6-1.2c-0.8-0.4-1.2-1-1-1.8c0.3-1.2,1.9-2.1,3.5-2.1c0.1,0,0.1,0,0.2,0
						c0.2-0.5,0.6-1,1.2-1.3c0-0.2,0-0.4,0-0.7c0.4-1.1,2-2,3.5-2c0.5,0,0.9,0.1,1.3,0.3c0.6-0.5,1.4-0.9,2.2-1
						c-0.2-0.3-0.3-0.7-0.1-1.2c0.4-1.1,2-2,3.4-2c0.3,0,0.5,0,0.7,0.1c0.3-0.2,0.6-0.3,0.9-0.4c0,0,0-0.1,0-0.1
						c0.4-1.1,1.9-1.9,3.3-1.9c0.5,0,0.8,0.1,1.2,0.2c0.5-0.9,1.8-1.6,3.1-1.6c0.4,0,0.8,0.1,1.1,0.2c0.3-0.1,0.6-0.2,0.9-0.3
						c0.5-0.8,1.7-1.4,2.8-1.4c0.9,0,1.6,0.4,1.9,1c0.3-0.1,0.6-0.3,0.9-0.3v-0.1c0.2-1,1.5-1.9,2.8-1.9c1.1,0,1.9,0.5,2.1,1.3
						c0.5-0.2,1-0.4,1.5-0.4h0.1c0.5-0.6,1.3-1.1,2.3-1.1c0.9,0,1.7,0.4,2.1,1c0.4-0.2,0.8-0.3,1.3-0.3c0.2,0,0.4,0,0.6,0.1
						c0.4-0.4,1.1-0.7,1.8-0.7c0.7,0,1.4,0.3,1.9,0.7c0.4-0.3,0.9-0.5,1.5-0.5c1,0,1.9,0.5,2.4,1.2c0.4-0.4,1-0.6,1.7-0.6
						c0.8,0,1.6,0.3,2.2,0.8c0.3-0.1,0.6-0.2,1-0.2c1,0,2,0.5,2.6,1.1c0.3-0.2,0.7-0.2,1.2-0.2c1.3,0,2.6,0.8,3,1.7
						c0.4-0.3,0.9-0.5,1.5-0.5c1.3,0,2.7,0.8,3.1,1.7c0.3-0.1,0.7-0.2,1.1-0.2c1.4,0,2.9,0.9,3.3,2c0,0,0,0.1,0,0.1
						c0.3-0.1,0.7-0.2,1.1-0.2c1.4,0,2.8,0.7,3.3,1.7c0.2,0,0.3,0,0.5,0c1.5,0,3.1,0.9,3.5,2c0.2,0.5,0.1,0.9-0.2,1.3
						c0.1,0,0.1,0,0.2,0c1.5,0,3.1,0.9,3.5,2.1c0.2,0.8-0.2,1.4-0.9,1.8c0.1,0.1,0.3,0.2,0.4,0.4c0.3-0.1,0.7-0.2,1.1-0.2
						c1.6,0,3.2,1,3.4,2.1c0.1,0.5,0,0.9-0.4,1.3c0.7,0.6,1.2,1.4,1.6,2.1c0.1,0,0.3,0,0.4,0c1.6,0,3.2,1,3.3,2.2
						C167.7,187,166.9,187.8,165.7,188.1z"/>
				</g>
			</g>
			<g id="nature_grass_back04">
				<g>
					<path class="st8" d="M289.2,188.1c0,0.1,0.1,0.2,0.1,0.3c0.9,0.4,1.6,1.1,1.7,1.9v0.1h-100c-0.7-0.4-1.1-1-1.1-1.8
						c0.1-1.2,1.6-2.2,3.2-2.2c0.2,0,0.3,0,0.5,0c-0.1-0.2-0.1-0.4-0.1-0.7c-1-0.3-1.5-1.1-1.4-1.9c0.2-1.2,1.8-2.1,3.4-2.1
						c0.3,0,0.5,0,0.7,0.1c0.3-0.5,0.9-1,1.6-1.2c-0.8-0.4-1.2-1-1-1.8c0.3-1.2,1.9-2.1,3.5-2.1c0.1,0,0.1,0,0.2,0
						c0.2-0.5,0.6-1,1.2-1.3c0-0.2,0-0.4,0-0.7c0.4-1.1,2-2,3.5-2c0.5,0,0.9,0.1,1.3,0.3c0.6-0.5,1.4-0.9,2.2-1
						c-0.2-0.3-0.3-0.7-0.1-1.2c0.4-1.1,2-2,3.4-2c0.3,0,0.5,0,0.7,0.1c0.3-0.2,0.6-0.3,0.9-0.4c0,0,0-0.1,0-0.1
						c0.4-1.1,1.9-1.9,3.3-1.9c0.5,0,0.8,0.1,1.2,0.2c0.5-0.9,1.8-1.6,3.1-1.6c0.4,0,0.8,0.1,1.1,0.2c0.3-0.1,0.6-0.2,0.9-0.3
						c0.5-0.8,1.7-1.4,2.8-1.4c0.9,0,1.6,0.4,1.9,1c0.3-0.1,0.6-0.3,0.9-0.3v-0.1c0.2-1,1.5-1.9,2.8-1.9c1.1,0,1.9,0.5,2.1,1.3
						c0.5-0.2,1-0.4,1.5-0.4h0.1c0.5-0.6,1.3-1.1,2.3-1.1c0.9,0,1.7,0.4,2.1,1c0.4-0.2,0.8-0.3,1.3-0.3c0.2,0,0.4,0,0.6,0.1
						c0.4-0.4,1.1-0.7,1.8-0.7s1.4,0.3,1.9,0.7c0.4-0.3,0.9-0.5,1.5-0.5c1,0,1.9,0.5,2.4,1.2c0.4-0.4,1-0.6,1.7-0.6
						c0.8,0,1.6,0.3,2.2,0.8c0.3-0.1,0.6-0.2,1-0.2c1,0,2,0.5,2.6,1.1c0.3-0.2,0.7-0.2,1.2-0.2c1.3,0,2.6,0.8,3,1.7
						c0.4-0.3,0.9-0.5,1.5-0.5c1.3,0,2.7,0.8,3.1,1.7c0.3-0.1,0.7-0.2,1.1-0.2c1.4,0,2.9,0.9,3.3,2c0,0,0,0.1,0,0.1
						c0.3-0.1,0.7-0.2,1.1-0.2c1.4,0,2.8,0.7,3.3,1.7c0.2,0,0.3,0,0.5,0c1.5,0,3.1,0.9,3.5,2c0.2,0.5,0.1,0.9-0.2,1.3
						c0.1,0,0.1,0,0.2,0c1.5,0,3.1,0.9,3.5,2.1c0.2,0.8-0.2,1.4-0.9,1.8c0.1,0.1,0.3,0.2,0.4,0.4c0.3-0.1,0.7-0.2,1.1-0.2
						c1.6,0,3.2,1,3.4,2.1c0.1,0.5,0,0.9-0.4,1.3c0.7,0.6,1.2,1.4,1.6,2.1c0.1,0,0.3,0,0.4,0c1.6,0,3.2,1,3.3,2.2
						C291.2,187,290.4,187.8,289.2,188.1z"/>
					<path class="st8" d="M289.2,188.1c0,0.1,0.1,0.2,0.1,0.3c0.9,0.4,1.6,1.1,1.7,1.9v0.1h-100c-0.7-0.4-1.1-1-1.1-1.8
						c0.1-1.2,1.6-2.2,3.2-2.2c0.2,0,0.3,0,0.5,0c-0.1-0.2-0.1-0.4-0.1-0.7c-1-0.3-1.5-1.1-1.4-1.9c0.2-1.2,1.8-2.1,3.4-2.1
						c0.3,0,0.5,0,0.7,0.1c0.3-0.5,0.9-1,1.6-1.2c-0.8-0.4-1.2-1-1-1.8c0.3-1.2,1.9-2.1,3.5-2.1c0.1,0,0.1,0,0.2,0
						c0.2-0.5,0.6-1,1.2-1.3c0-0.2,0-0.4,0-0.7c0.4-1.1,2-2,3.5-2c0.5,0,0.9,0.1,1.3,0.3c0.6-0.5,1.4-0.9,2.2-1
						c-0.2-0.3-0.3-0.7-0.1-1.2c0.4-1.1,2-2,3.4-2c0.3,0,0.5,0,0.7,0.1c0.3-0.2,0.6-0.3,0.9-0.4c0,0,0-0.1,0-0.1
						c0.4-1.1,1.9-1.9,3.3-1.9c0.5,0,0.8,0.1,1.2,0.2c0.5-0.9,1.8-1.6,3.1-1.6c0.4,0,0.8,0.1,1.1,0.2c0.3-0.1,0.6-0.2,0.9-0.3
						c0.5-0.8,1.7-1.4,2.8-1.4c0.9,0,1.6,0.4,1.9,1c0.3-0.1,0.6-0.3,0.9-0.3v-0.1c0.2-1,1.5-1.9,2.8-1.9c1.1,0,1.9,0.5,2.1,1.3
						c0.5-0.2,1-0.4,1.5-0.4h0.1c0.5-0.6,1.3-1.1,2.3-1.1c0.9,0,1.7,0.4,2.1,1c0.4-0.2,0.8-0.3,1.3-0.3c0.2,0,0.4,0,0.6,0.1
						c0.4-0.4,1.1-0.7,1.8-0.7s1.4,0.3,1.9,0.7c0.4-0.3,0.9-0.5,1.5-0.5c1,0,1.9,0.5,2.4,1.2c0.4-0.4,1-0.6,1.7-0.6
						c0.8,0,1.6,0.3,2.2,0.8c0.3-0.1,0.6-0.2,1-0.2c1,0,2,0.5,2.6,1.1c0.3-0.2,0.7-0.2,1.2-0.2c1.3,0,2.6,0.8,3,1.7
						c0.4-0.3,0.9-0.5,1.5-0.5c1.3,0,2.7,0.8,3.1,1.7c0.3-0.1,0.7-0.2,1.1-0.2c1.4,0,2.9,0.9,3.3,2c0,0,0,0.1,0,0.1
						c0.3-0.1,0.7-0.2,1.1-0.2c1.4,0,2.8,0.7,3.3,1.7c0.2,0,0.3,0,0.5,0c1.5,0,3.1,0.9,3.5,2c0.2,0.5,0.1,0.9-0.2,1.3
						c0.1,0,0.1,0,0.2,0c1.5,0,3.1,0.9,3.5,2.1c0.2,0.8-0.2,1.4-0.9,1.8c0.1,0.1,0.3,0.2,0.4,0.4c0.3-0.1,0.7-0.2,1.1-0.2
						c1.6,0,3.2,1,3.4,2.1c0.1,0.5,0,0.9-0.4,1.3c0.7,0.6,1.2,1.4,1.6,2.1c0.1,0,0.3,0,0.4,0c1.6,0,3.2,1,3.3,2.2
						C291.2,187,290.4,187.8,289.2,188.1z"/>
				</g>
			</g>
			<g id="nature_grass_back03">
				<g>
					<path class="st8" d="M417.1,188.1c0,0.1,0.1,0.2,0.1,0.3c0.9,0.4,1.6,1.1,1.7,1.9v0.1h-100c-0.7-0.4-1.1-1-1.1-1.8
						c0.1-1.2,1.6-2.2,3.2-2.2c0.2,0,0.3,0,0.5,0c-0.1-0.2-0.1-0.4-0.1-0.7c-1-0.3-1.5-1.1-1.4-1.9c0.2-1.2,1.8-2.1,3.4-2.1
						c0.3,0,0.5,0,0.8,0.1c0.3-0.5,0.9-1,1.6-1.2c-0.8-0.4-1.2-1-1-1.8c0.3-1.2,1.9-2.1,3.5-2.1c0.1,0,0.1,0,0.2,0
						c0.2-0.5,0.6-1,1.2-1.3c0-0.2,0-0.4,0-0.7c0.4-1.1,2-2,3.5-2c0.5,0,0.9,0.1,1.3,0.3c0.6-0.5,1.4-0.9,2.2-1
						c-0.2-0.3-0.3-0.7-0.1-1.2c0.4-1.1,2-2,3.4-2c0.3,0,0.5,0,0.7,0.1c0.3-0.2,0.6-0.3,0.9-0.4c0,0,0-0.1,0-0.1
						c0.4-1.1,1.9-1.9,3.3-1.9c0.5,0,0.8,0.1,1.2,0.2c0.5-0.9,1.8-1.6,3.1-1.6c0.4,0,0.8,0.1,1.1,0.2c0.3-0.1,0.6-0.2,0.9-0.3
						c0.5-0.8,1.7-1.4,2.8-1.4c0.9,0,1.6,0.4,1.9,1c0.3-0.1,0.6-0.3,0.9-0.3v-0.1c0.2-1,1.5-1.9,2.8-1.9c1.1,0,1.9,0.5,2.1,1.3
						c0.5-0.2,1-0.4,1.5-0.4h0.1c0.5-0.6,1.3-1.1,2.3-1.1c0.9,0,1.7,0.4,2.1,1c0.4-0.2,0.8-0.3,1.3-0.3c0.2,0,0.4,0,0.6,0.1
						c0.4-0.4,1.1-0.7,1.8-0.7c0.7,0,1.4,0.3,1.9,0.7c0.4-0.3,0.9-0.5,1.5-0.5c1,0,1.9,0.5,2.4,1.2c0.4-0.4,1-0.6,1.7-0.6
						c0.8,0,1.6,0.3,2.2,0.8c0.3-0.1,0.6-0.2,1-0.2c1,0,2,0.5,2.6,1.1c0.3-0.2,0.7-0.2,1.2-0.2c1.3,0,2.6,0.8,3,1.7
						c0.4-0.3,0.9-0.5,1.5-0.5c1.3,0,2.7,0.8,3.1,1.7c0.3-0.1,0.7-0.2,1.1-0.2c1.4,0,2.9,0.9,3.3,2c0,0,0,0.1,0,0.1
						c0.3-0.1,0.7-0.2,1.1-0.2c1.4,0,2.8,0.7,3.3,1.7c0.2,0,0.3,0,0.5,0c1.5,0,3.1,0.9,3.5,2c0.2,0.5,0.1,0.9-0.2,1.3
						c0.1,0,0.1,0,0.2,0c1.5,0,3.1,0.9,3.5,2.1c0.2,0.8-0.2,1.4-0.9,1.8c0.1,0.1,0.3,0.2,0.4,0.4c0.3-0.1,0.7-0.2,1.1-0.2
						c1.6,0,3.2,1,3.4,2.1c0.1,0.5,0,0.9-0.4,1.3c0.7,0.6,1.2,1.4,1.6,2.1c0.1,0,0.3,0,0.4,0c1.6,0,3.2,1,3.3,2.2
						C419.1,187,418.3,187.8,417.1,188.1z"/>
					<path class="st8" d="M417.1,188.1c0,0.1,0.1,0.2,0.1,0.3c0.9,0.4,1.6,1.1,1.7,1.9v0.1h-100c-0.7-0.4-1.1-1-1.1-1.8
						c0.1-1.2,1.6-2.2,3.2-2.2c0.2,0,0.3,0,0.5,0c-0.1-0.2-0.1-0.4-0.1-0.7c-1-0.3-1.5-1.1-1.4-1.9c0.2-1.2,1.8-2.1,3.4-2.1
						c0.3,0,0.5,0,0.8,0.1c0.3-0.5,0.9-1,1.6-1.2c-0.8-0.4-1.2-1-1-1.8c0.3-1.2,1.9-2.1,3.5-2.1c0.1,0,0.1,0,0.2,0
						c0.2-0.5,0.6-1,1.2-1.3c0-0.2,0-0.4,0-0.7c0.4-1.1,2-2,3.5-2c0.5,0,0.9,0.1,1.3,0.3c0.6-0.5,1.4-0.9,2.2-1
						c-0.2-0.3-0.3-0.7-0.1-1.2c0.4-1.1,2-2,3.4-2c0.3,0,0.5,0,0.7,0.1c0.3-0.2,0.6-0.3,0.9-0.4c0,0,0-0.1,0-0.1
						c0.4-1.1,1.9-1.9,3.3-1.9c0.5,0,0.8,0.1,1.2,0.2c0.5-0.9,1.8-1.6,3.1-1.6c0.4,0,0.8,0.1,1.1,0.2c0.3-0.1,0.6-0.2,0.9-0.3
						c0.5-0.8,1.7-1.4,2.8-1.4c0.9,0,1.6,0.4,1.9,1c0.3-0.1,0.6-0.3,0.9-0.3v-0.1c0.2-1,1.5-1.9,2.8-1.9c1.1,0,1.9,0.5,2.1,1.3
						c0.5-0.2,1-0.4,1.5-0.4h0.1c0.5-0.6,1.3-1.1,2.3-1.1c0.9,0,1.7,0.4,2.1,1c0.4-0.2,0.8-0.3,1.3-0.3c0.2,0,0.4,0,0.6,0.1
						c0.4-0.4,1.1-0.7,1.8-0.7c0.7,0,1.4,0.3,1.9,0.7c0.4-0.3,0.9-0.5,1.5-0.5c1,0,1.9,0.5,2.4,1.2c0.4-0.4,1-0.6,1.7-0.6
						c0.8,0,1.6,0.3,2.2,0.8c0.3-0.1,0.6-0.2,1-0.2c1,0,2,0.5,2.6,1.1c0.3-0.2,0.7-0.2,1.2-0.2c1.3,0,2.6,0.8,3,1.7
						c0.4-0.3,0.9-0.5,1.5-0.5c1.3,0,2.7,0.8,3.1,1.7c0.3-0.1,0.7-0.2,1.1-0.2c1.4,0,2.9,0.9,3.3,2c0,0,0,0.1,0,0.1
						c0.3-0.1,0.7-0.2,1.1-0.2c1.4,0,2.8,0.7,3.3,1.7c0.2,0,0.3,0,0.5,0c1.5,0,3.1,0.9,3.5,2c0.2,0.5,0.1,0.9-0.2,1.3
						c0.1,0,0.1,0,0.2,0c1.5,0,3.1,0.9,3.5,2.1c0.2,0.8-0.2,1.4-0.9,1.8c0.1,0.1,0.3,0.2,0.4,0.4c0.3-0.1,0.7-0.2,1.1-0.2
						c1.6,0,3.2,1,3.4,2.1c0.1,0.5,0,0.9-0.4,1.3c0.7,0.6,1.2,1.4,1.6,2.1c0.1,0,0.3,0,0.4,0c1.6,0,3.2,1,3.3,2.2
						C419.1,187,418.3,187.8,417.1,188.1z"/>
				</g>
			</g>
			<g id="nature_grass_back02">
				<g>
					<path class="st8" d="M529,188.3c0,0.1,0.1,0.2,0.1,0.3c0.9,0.4,1.6,1.1,1.7,1.9v0.1h-100c-0.7-0.4-1.1-1-1.1-1.8
						c0.1-1.2,1.6-2.2,3.2-2.2c0.2,0,0.3,0,0.5,0c-0.1-0.2-0.1-0.4-0.1-0.7c-1-0.3-1.5-1.1-1.4-1.9c0.2-1.2,1.8-2.1,3.4-2.1
						c0.3,0,0.5,0,0.7,0.1c0.3-0.5,0.9-1,1.6-1.2c-0.8-0.4-1.2-1-1-1.8c0.3-1.2,1.9-2.1,3.5-2.1c0.1,0,0.1,0,0.2,0
						c0.2-0.5,0.6-1,1.2-1.3c0-0.2,0-0.4,0-0.7c0.4-1.1,2-2,3.5-2c0.5,0,0.9,0.1,1.3,0.3c0.6-0.5,1.4-0.9,2.2-1
						c-0.2-0.3-0.3-0.7-0.1-1.2c0.4-1.1,2-2,3.4-2c0.3,0,0.5,0,0.7,0.1c0.3-0.2,0.6-0.3,0.9-0.4c0,0,0-0.1,0-0.1
						c0.4-1.1,1.9-1.9,3.3-1.9c0.5,0,0.8,0.1,1.2,0.2c0.5-0.9,1.8-1.6,3.1-1.6c0.4,0,0.8,0.1,1.1,0.2c0.3-0.1,0.6-0.2,0.9-0.3
						c0.5-0.8,1.7-1.4,2.8-1.4c0.9,0,1.6,0.4,1.9,1c0.3-0.1,0.6-0.3,0.9-0.3v-0.1c0.2-1,1.5-1.9,2.8-1.9c1.1,0,1.9,0.5,2.1,1.3
						c0.5-0.2,1-0.4,1.5-0.4h0.1c0.5-0.6,1.3-1.1,2.3-1.1c0.9,0,1.7,0.4,2.1,1c0.4-0.2,0.8-0.3,1.3-0.3c0.2,0,0.4,0,0.6,0.1
						c0.4-0.4,1.1-0.7,1.8-0.7s1.4,0.3,1.9,0.7c0.4-0.3,0.9-0.5,1.5-0.5c1,0,1.9,0.5,2.4,1.2c0.4-0.4,1-0.6,1.7-0.6
						c0.8,0,1.6,0.3,2.2,0.8c0.3-0.1,0.6-0.2,1-0.2c1,0,2,0.5,2.6,1.1c0.3-0.2,0.7-0.2,1.2-0.2c1.3,0,2.6,0.8,3,1.7
						c0.4-0.3,0.9-0.5,1.5-0.5c1.3,0,2.7,0.8,3.1,1.7c0.3-0.1,0.7-0.2,1.1-0.2c1.4,0,2.9,0.9,3.3,2c0,0,0,0.1,0,0.1
						c0.3-0.1,0.7-0.2,1.1-0.2c1.4,0,2.8,0.7,3.3,1.7c0.2,0,0.3,0,0.5,0c1.5,0,3.1,0.9,3.5,2c0.2,0.5,0.1,0.9-0.2,1.3
						c0.1,0,0.1,0,0.2,0c1.5,0,3.1,0.9,3.5,2.1c0.2,0.8-0.2,1.4-0.9,1.8c0.1,0.1,0.3,0.2,0.4,0.4c0.3-0.1,0.7-0.2,1.1-0.2
						c1.6,0,3.2,1,3.4,2.1c0.1,0.5,0,0.9-0.4,1.3c0.7,0.6,1.2,1.4,1.6,2.1c0.1,0,0.3,0,0.4,0c1.6,0,3.2,1,3.3,2.2
						C531,187.3,530.2,188.1,529,188.3z"/>
					<path class="st8" d="M529,188.3c0,0.1,0.1,0.2,0.1,0.3c0.9,0.4,1.6,1.1,1.7,1.9v0.1h-100c-0.7-0.4-1.1-1-1.1-1.8
						c0.1-1.2,1.6-2.2,3.2-2.2c0.2,0,0.3,0,0.5,0c-0.1-0.2-0.1-0.4-0.1-0.7c-1-0.3-1.5-1.1-1.4-1.9c0.2-1.2,1.8-2.1,3.4-2.1
						c0.3,0,0.5,0,0.7,0.1c0.3-0.5,0.9-1,1.6-1.2c-0.8-0.4-1.2-1-1-1.8c0.3-1.2,1.9-2.1,3.5-2.1c0.1,0,0.1,0,0.2,0
						c0.2-0.5,0.6-1,1.2-1.3c0-0.2,0-0.4,0-0.7c0.4-1.1,2-2,3.5-2c0.5,0,0.9,0.1,1.3,0.3c0.6-0.5,1.4-0.9,2.2-1
						c-0.2-0.3-0.3-0.7-0.1-1.2c0.4-1.1,2-2,3.4-2c0.3,0,0.5,0,0.7,0.1c0.3-0.2,0.6-0.3,0.9-0.4c0,0,0-0.1,0-0.1
						c0.4-1.1,1.9-1.9,3.3-1.9c0.5,0,0.8,0.1,1.2,0.2c0.5-0.9,1.8-1.6,3.1-1.6c0.4,0,0.8,0.1,1.1,0.2c0.3-0.1,0.6-0.2,0.9-0.3
						c0.5-0.8,1.7-1.4,2.8-1.4c0.9,0,1.6,0.4,1.9,1c0.3-0.1,0.6-0.3,0.9-0.3v-0.1c0.2-1,1.5-1.9,2.8-1.9c1.1,0,1.9,0.5,2.1,1.3
						c0.5-0.2,1-0.4,1.5-0.4h0.1c0.5-0.6,1.3-1.1,2.3-1.1c0.9,0,1.7,0.4,2.1,1c0.4-0.2,0.8-0.3,1.3-0.3c0.2,0,0.4,0,0.6,0.1
						c0.4-0.4,1.1-0.7,1.8-0.7s1.4,0.3,1.9,0.7c0.4-0.3,0.9-0.5,1.5-0.5c1,0,1.9,0.5,2.4,1.2c0.4-0.4,1-0.6,1.7-0.6
						c0.8,0,1.6,0.3,2.2,0.8c0.3-0.1,0.6-0.2,1-0.2c1,0,2,0.5,2.6,1.1c0.3-0.2,0.7-0.2,1.2-0.2c1.3,0,2.6,0.8,3,1.7
						c0.4-0.3,0.9-0.5,1.5-0.5c1.3,0,2.7,0.8,3.1,1.7c0.3-0.1,0.7-0.2,1.1-0.2c1.4,0,2.9,0.9,3.3,2c0,0,0,0.1,0,0.1
						c0.3-0.1,0.7-0.2,1.1-0.2c1.4,0,2.8,0.7,3.3,1.7c0.2,0,0.3,0,0.5,0c1.5,0,3.1,0.9,3.5,2c0.2,0.5,0.1,0.9-0.2,1.3
						c0.1,0,0.1,0,0.2,0c1.5,0,3.1,0.9,3.5,2.1c0.2,0.8-0.2,1.4-0.9,1.8c0.1,0.1,0.3,0.2,0.4,0.4c0.3-0.1,0.7-0.2,1.1-0.2
						c1.6,0,3.2,1,3.4,2.1c0.1,0.5,0,0.9-0.4,1.3c0.7,0.6,1.2,1.4,1.6,2.1c0.1,0,0.3,0,0.4,0c1.6,0,3.2,1,3.3,2.2
						C531,187.3,530.2,188.1,529,188.3z"/>
				</g>
			</g>
			<g id="nature_grass_back01">
				<g>
					<path class="st8" d="M652.6,188.3c0,0.1,0.1,0.2,0.1,0.3c0.9,0.4,1.6,1.1,1.7,1.9v0.1h-100c-0.7-0.4-1.1-1-1.1-1.8
						c0.1-1.2,1.6-2.2,3.2-2.2c0.2,0,0.3,0,0.5,0c-0.1-0.2-0.1-0.4-0.1-0.7c-1-0.3-1.5-1.1-1.4-1.9c0.2-1.2,1.8-2.1,3.4-2.1
						c0.3,0,0.5,0,0.8,0.1c0.3-0.5,0.9-1,1.6-1.2c-0.8-0.4-1.2-1-1-1.8c0.3-1.2,1.9-2.1,3.5-2.1c0.1,0,0.1,0,0.2,0
						c0.2-0.5,0.6-1,1.2-1.3c0-0.2,0-0.4,0-0.7c0.4-1.1,2-2,3.5-2c0.5,0,0.9,0.1,1.3,0.3c0.6-0.5,1.4-0.9,2.2-1
						c-0.2-0.3-0.3-0.7-0.1-1.2c0.4-1.1,2-2,3.4-2c0.3,0,0.5,0,0.7,0.1c0.3-0.2,0.6-0.3,0.9-0.4c0,0,0-0.1,0-0.1
						c0.4-1.1,1.9-1.9,3.3-1.9c0.5,0,0.8,0.1,1.2,0.2c0.5-0.9,1.8-1.6,3.1-1.6c0.4,0,0.8,0.1,1.1,0.2c0.3-0.1,0.6-0.2,0.9-0.3
						c0.5-0.8,1.7-1.4,2.8-1.4c0.9,0,1.6,0.4,1.9,1c0.3-0.1,0.6-0.3,0.9-0.3v-0.1c0.2-1,1.5-1.9,2.8-1.9c1.1,0,1.9,0.5,2.1,1.3
						c0.5-0.2,1-0.4,1.5-0.4h0.1c0.5-0.6,1.3-1.1,2.3-1.1c0.9,0,1.7,0.4,2.1,1c0.4-0.2,0.8-0.3,1.3-0.3c0.2,0,0.4,0,0.6,0.1
						c0.4-0.4,1.1-0.7,1.8-0.7c0.7,0,1.4,0.3,1.9,0.7c0.4-0.3,0.9-0.5,1.5-0.5c1,0,1.9,0.5,2.4,1.2c0.4-0.4,1-0.6,1.7-0.6
						c0.8,0,1.6,0.3,2.2,0.8c0.3-0.1,0.6-0.2,1-0.2c1,0,2,0.5,2.6,1.1c0.3-0.2,0.7-0.2,1.2-0.2c1.3,0,2.6,0.8,3,1.7
						c0.4-0.3,0.9-0.5,1.5-0.5c1.3,0,2.7,0.8,3.1,1.7c0.3-0.1,0.7-0.2,1.1-0.2c1.4,0,2.9,0.9,3.3,2c0,0,0,0.1,0,0.1
						c0.3-0.1,0.7-0.2,1.1-0.2c1.4,0,2.8,0.7,3.3,1.7c0.2,0,0.3,0,0.5,0c1.5,0,3.1,0.9,3.5,2c0.2,0.5,0.1,0.9-0.2,1.3
						c0.1,0,0.1,0,0.2,0c1.5,0,3.1,0.9,3.5,2.1c0.2,0.8-0.2,1.4-0.9,1.8c0.1,0.1,0.3,0.2,0.4,0.4c0.3-0.1,0.7-0.2,1.1-0.2
						c1.6,0,3.2,1,3.4,2.1c0.1,0.5,0,0.9-0.4,1.3c0.7,0.6,1.2,1.4,1.6,2.1c0.1,0,0.3,0,0.4,0c1.6,0,3.2,1,3.3,2.2
						C654.5,187.3,653.8,188.1,652.6,188.3z"/>
					<path class="st8" d="M652.6,188.3c0,0.1,0.1,0.2,0.1,0.3c0.9,0.4,1.6,1.1,1.7,1.9v0.1h-100c-0.7-0.4-1.1-1-1.1-1.8
						c0.1-1.2,1.6-2.2,3.2-2.2c0.2,0,0.3,0,0.5,0c-0.1-0.2-0.1-0.4-0.1-0.7c-1-0.3-1.5-1.1-1.4-1.9c0.2-1.2,1.8-2.1,3.4-2.1
						c0.3,0,0.5,0,0.8,0.1c0.3-0.5,0.9-1,1.6-1.2c-0.8-0.4-1.2-1-1-1.8c0.3-1.2,1.9-2.1,3.5-2.1c0.1,0,0.1,0,0.2,0
						c0.2-0.5,0.6-1,1.2-1.3c0-0.2,0-0.4,0-0.7c0.4-1.1,2-2,3.5-2c0.5,0,0.9,0.1,1.3,0.3c0.6-0.5,1.4-0.9,2.2-1
						c-0.2-0.3-0.3-0.7-0.1-1.2c0.4-1.1,2-2,3.4-2c0.3,0,0.5,0,0.7,0.1c0.3-0.2,0.6-0.3,0.9-0.4c0,0,0-0.1,0-0.1
						c0.4-1.1,1.9-1.9,3.3-1.9c0.5,0,0.8,0.1,1.2,0.2c0.5-0.9,1.8-1.6,3.1-1.6c0.4,0,0.8,0.1,1.1,0.2c0.3-0.1,0.6-0.2,0.9-0.3
						c0.5-0.8,1.7-1.4,2.8-1.4c0.9,0,1.6,0.4,1.9,1c0.3-0.1,0.6-0.3,0.9-0.3v-0.1c0.2-1,1.5-1.9,2.8-1.9c1.1,0,1.9,0.5,2.1,1.3
						c0.5-0.2,1-0.4,1.5-0.4h0.1c0.5-0.6,1.3-1.1,2.3-1.1c0.9,0,1.7,0.4,2.1,1c0.4-0.2,0.8-0.3,1.3-0.3c0.2,0,0.4,0,0.6,0.1
						c0.4-0.4,1.1-0.7,1.8-0.7c0.7,0,1.4,0.3,1.9,0.7c0.4-0.3,0.9-0.5,1.5-0.5c1,0,1.9,0.5,2.4,1.2c0.4-0.4,1-0.6,1.7-0.6
						c0.8,0,1.6,0.3,2.2,0.8c0.3-0.1,0.6-0.2,1-0.2c1,0,2,0.5,2.6,1.1c0.3-0.2,0.7-0.2,1.2-0.2c1.3,0,2.6,0.8,3,1.7
						c0.4-0.3,0.9-0.5,1.5-0.5c1.3,0,2.7,0.8,3.1,1.7c0.3-0.1,0.7-0.2,1.1-0.2c1.4,0,2.9,0.9,3.3,2c0,0,0,0.1,0,0.1
						c0.3-0.1,0.7-0.2,1.1-0.2c1.4,0,2.8,0.7,3.3,1.7c0.2,0,0.3,0,0.5,0c1.5,0,3.1,0.9,3.5,2c0.2,0.5,0.1,0.9-0.2,1.3
						c0.1,0,0.1,0,0.2,0c1.5,0,3.1,0.9,3.5,2.1c0.2,0.8-0.2,1.4-0.9,1.8c0.1,0.1,0.3,0.2,0.4,0.4c0.3-0.1,0.7-0.2,1.1-0.2
						c1.6,0,3.2,1,3.4,2.1c0.1,0.5,0,0.9-0.4,1.3c0.7,0.6,1.2,1.4,1.6,2.1c0.1,0,0.3,0,0.4,0c1.6,0,3.2,1,3.3,2.2
						C654.5,187.3,653.8,188.1,652.6,188.3z"/>
				</g>
			</g>
		</g>
		<g id="nature_grass_front">
			<g id="nature_grass_front05">
				<g>
					<path class="st47" d="M221.8,192.1c0,0.1,0.1,0.2,0.1,0.3c0.9,0.4,1.6,1.1,1.7,1.9v0.1h-100c-0.7-0.4-1.1-1-1.1-1.8
						c0.1-1.2,1.6-2.2,3.2-2.2c0.2,0,0.3,0,0.5,0c-0.1-0.2-0.1-0.4-0.1-0.7c-1-0.3-1.5-1.1-1.4-1.9c0.2-1.2,1.8-2.1,3.4-2.1
						c0.3,0,0.5,0,0.7,0.1c0.3-0.5,0.9-1,1.6-1.2c-0.8-0.4-1.2-1-1-1.8c0.3-1.2,1.9-2.1,3.5-2.1c0.1,0,0.1,0,0.2,0
						c0.2-0.5,0.6-1,1.2-1.3c0-0.2,0-0.4,0-0.7c0.4-1.1,2-2,3.5-2c0.5,0,0.9,0.1,1.3,0.3c0.6-0.5,1.4-0.9,2.2-1
						c-0.2-0.3-0.3-0.7-0.1-1.2c0.4-1.1,2-2,3.4-2c0.3,0,0.5,0,0.7,0.1c0.3-0.2,0.6-0.3,0.9-0.4c0,0,0-0.1,0-0.1
						c0.4-1.1,1.9-1.9,3.3-1.9c0.5,0,0.8,0.1,1.2,0.2c0.5-0.9,1.8-1.6,3.1-1.6c0.4,0,0.8,0.1,1.1,0.2c0.3-0.1,0.6-0.2,0.9-0.3
						c0.5-0.8,1.7-1.4,2.8-1.4c0.9,0,1.6,0.4,1.9,1c0.3-0.1,0.6-0.3,0.9-0.3v-0.1c0.2-1,1.5-1.9,2.8-1.9c1.1,0,1.9,0.5,2.1,1.3
						c0.5-0.2,1-0.4,1.5-0.4h0.1c0.5-0.6,1.3-1.1,2.3-1.1c0.9,0,1.7,0.4,2.1,1c0.4-0.2,0.8-0.3,1.3-0.3c0.2,0,0.4,0,0.6,0.1
						c0.4-0.4,1.1-0.7,1.8-0.7s1.4,0.3,1.9,0.7c0.4-0.3,0.9-0.5,1.5-0.5c1,0,1.9,0.5,2.4,1.2c0.4-0.4,1-0.6,1.7-0.6
						c0.8,0,1.6,0.3,2.2,0.8c0.3-0.1,0.6-0.2,1-0.2c1,0,2,0.5,2.6,1.1c0.3-0.2,0.7-0.2,1.2-0.2c1.3,0,2.6,0.8,3,1.7
						c0.4-0.3,0.9-0.5,1.5-0.5c1.3,0,2.7,0.8,3.1,1.7c0.3-0.1,0.7-0.2,1.1-0.2c1.4,0,2.9,0.9,3.3,2c0,0,0,0.1,0,0.1
						c0.3-0.1,0.7-0.2,1.1-0.2c1.4,0,2.8,0.7,3.3,1.7c0.2,0,0.3,0,0.5,0c1.5,0,3.1,0.9,3.5,2c0.2,0.5,0.1,0.9-0.2,1.3
						c0.1,0,0.1,0,0.2,0c1.5,0,3.1,0.9,3.5,2.1c0.2,0.8-0.2,1.4-0.9,1.8c0.1,0.1,0.3,0.2,0.4,0.4c0.3-0.1,0.7-0.2,1.1-0.2
						c1.6,0,3.2,1,3.4,2.1c0.1,0.5,0,0.9-0.4,1.3c0.7,0.6,1.2,1.4,1.6,2.1c0.1,0,0.3,0,0.4,0c1.6,0,3.2,1,3.3,2.2
						C223.7,191,222.9,191.8,221.8,192.1z"/>
					<path class="st47" d="M221.8,192.1c0,0.1,0.1,0.2,0.1,0.3c0.9,0.4,1.6,1.1,1.7,1.9v0.1h-100c-0.7-0.4-1.1-1-1.1-1.8
						c0.1-1.2,1.6-2.2,3.2-2.2c0.2,0,0.3,0,0.5,0c-0.1-0.2-0.1-0.4-0.1-0.7c-1-0.3-1.5-1.1-1.4-1.9c0.2-1.2,1.8-2.1,3.4-2.1
						c0.3,0,0.5,0,0.7,0.1c0.3-0.5,0.9-1,1.6-1.2c-0.8-0.4-1.2-1-1-1.8c0.3-1.2,1.9-2.1,3.5-2.1c0.1,0,0.1,0,0.2,0
						c0.2-0.5,0.6-1,1.2-1.3c0-0.2,0-0.4,0-0.7c0.4-1.1,2-2,3.5-2c0.5,0,0.9,0.1,1.3,0.3c0.6-0.5,1.4-0.9,2.2-1
						c-0.2-0.3-0.3-0.7-0.1-1.2c0.4-1.1,2-2,3.4-2c0.3,0,0.5,0,0.7,0.1c0.3-0.2,0.6-0.3,0.9-0.4c0,0,0-0.1,0-0.1
						c0.4-1.1,1.9-1.9,3.3-1.9c0.5,0,0.8,0.1,1.2,0.2c0.5-0.9,1.8-1.6,3.1-1.6c0.4,0,0.8,0.1,1.1,0.2c0.3-0.1,0.6-0.2,0.9-0.3
						c0.5-0.8,1.7-1.4,2.8-1.4c0.9,0,1.6,0.4,1.9,1c0.3-0.1,0.6-0.3,0.9-0.3v-0.1c0.2-1,1.5-1.9,2.8-1.9c1.1,0,1.9,0.5,2.1,1.3
						c0.5-0.2,1-0.4,1.5-0.4h0.1c0.5-0.6,1.3-1.1,2.3-1.1c0.9,0,1.7,0.4,2.1,1c0.4-0.2,0.8-0.3,1.3-0.3c0.2,0,0.4,0,0.6,0.1
						c0.4-0.4,1.1-0.7,1.8-0.7s1.4,0.3,1.9,0.7c0.4-0.3,0.9-0.5,1.5-0.5c1,0,1.9,0.5,2.4,1.2c0.4-0.4,1-0.6,1.7-0.6
						c0.8,0,1.6,0.3,2.2,0.8c0.3-0.1,0.6-0.2,1-0.2c1,0,2,0.5,2.6,1.1c0.3-0.2,0.7-0.2,1.2-0.2c1.3,0,2.6,0.8,3,1.7
						c0.4-0.3,0.9-0.5,1.5-0.5c1.3,0,2.7,0.8,3.1,1.7c0.3-0.1,0.7-0.2,1.1-0.2c1.4,0,2.9,0.9,3.3,2c0,0,0,0.1,0,0.1
						c0.3-0.1,0.7-0.2,1.1-0.2c1.4,0,2.8,0.7,3.3,1.7c0.2,0,0.3,0,0.5,0c1.5,0,3.1,0.9,3.5,2c0.2,0.5,0.1,0.9-0.2,1.3
						c0.1,0,0.1,0,0.2,0c1.5,0,3.1,0.9,3.5,2.1c0.2,0.8-0.2,1.4-0.9,1.8c0.1,0.1,0.3,0.2,0.4,0.4c0.3-0.1,0.7-0.2,1.1-0.2
						c1.6,0,3.2,1,3.4,2.1c0.1,0.5,0,0.9-0.4,1.3c0.7,0.6,1.2,1.4,1.6,2.1c0.1,0,0.3,0,0.4,0c1.6,0,3.2,1,3.3,2.2
						C223.7,191,222.9,191.8,221.8,192.1z"/>
				</g>
			</g>
			<g id="nature_grass_front04">
				<g>
					<path class="st47" d="M346.9,193.1c0,0.1,0.1,0.2,0.1,0.3c0.9,0.4,1.6,1.1,1.7,1.9v0.1h-100c-0.7-0.4-1.1-1-1.1-1.8
						c0.1-1.2,1.6-2.2,3.2-2.2c0.2,0,0.3,0,0.5,0c-0.1-0.2-0.1-0.4-0.1-0.7c-1-0.3-1.5-1.1-1.4-1.9c0.2-1.2,1.8-2.1,3.4-2.1
						c0.3,0,0.5,0,0.7,0.1c0.3-0.5,0.9-1,1.6-1.2c-0.8-0.4-1.2-1-1-1.8c0.3-1.2,1.9-2.1,3.5-2.1c0.1,0,0.1,0,0.2,0
						c0.2-0.5,0.6-1,1.2-1.3c0-0.2,0-0.4,0-0.7c0.4-1.1,2-2,3.5-2c0.5,0,0.9,0.1,1.3,0.3c0.6-0.5,1.4-0.9,2.2-1
						c-0.2-0.3-0.3-0.7-0.1-1.2c0.4-1.1,2-2,3.4-2c0.3,0,0.5,0,0.7,0.1c0.3-0.2,0.6-0.3,0.9-0.4c0,0,0-0.1,0-0.1
						c0.4-1.1,1.9-1.9,3.3-1.9c0.5,0,0.8,0.1,1.2,0.2c0.5-0.9,1.8-1.6,3.1-1.6c0.4,0,0.8,0.1,1.1,0.2c0.3-0.1,0.6-0.2,0.9-0.3
						c0.5-0.8,1.7-1.4,2.8-1.4c0.9,0,1.6,0.4,1.9,1c0.3-0.1,0.6-0.3,0.9-0.3v-0.1c0.2-1,1.5-1.9,2.8-1.9c1.1,0,1.9,0.5,2.1,1.3
						c0.5-0.2,1-0.4,1.5-0.4h0.1c0.5-0.6,1.3-1.1,2.3-1.1c0.9,0,1.7,0.4,2.1,1c0.4-0.2,0.8-0.3,1.3-0.3c0.2,0,0.4,0,0.6,0.1
						c0.4-0.4,1.1-0.7,1.8-0.7s1.4,0.3,1.9,0.7c0.4-0.3,0.9-0.5,1.5-0.5c1,0,1.9,0.5,2.4,1.2c0.4-0.4,1-0.6,1.7-0.6
						c0.8,0,1.6,0.3,2.2,0.8c0.3-0.1,0.6-0.2,1-0.2c1,0,2,0.5,2.6,1.1c0.3-0.2,0.7-0.2,1.2-0.2c1.3,0,2.6,0.8,3,1.7
						c0.4-0.3,0.9-0.5,1.5-0.5c1.3,0,2.7,0.8,3.1,1.7c0.3-0.1,0.7-0.2,1.1-0.2c1.4,0,2.9,0.9,3.3,2c0,0,0,0.1,0,0.1
						c0.3-0.1,0.7-0.2,1.1-0.2c1.4,0,2.8,0.7,3.3,1.7c0.2,0,0.3,0,0.5,0c1.5,0,3.1,0.9,3.5,2c0.2,0.5,0.1,0.9-0.2,1.3
						c0.1,0,0.1,0,0.2,0c1.5,0,3.1,0.9,3.5,2.1c0.2,0.8-0.2,1.4-0.9,1.8c0.1,0.1,0.3,0.2,0.4,0.4c0.3-0.1,0.7-0.2,1.1-0.2
						c1.6,0,3.2,1,3.4,2.1c0.1,0.5,0,0.9-0.4,1.3c0.7,0.6,1.2,1.4,1.6,2.1c0.1,0,0.3,0,0.4,0c1.6,0,3.2,1,3.3,2.2
						C348.9,192,348.1,192.8,346.9,193.1z"/>
					<path class="st47" d="M346.9,193.1c0,0.1,0.1,0.2,0.1,0.3c0.9,0.4,1.6,1.1,1.7,1.9v0.1h-100c-0.7-0.4-1.1-1-1.1-1.8
						c0.1-1.2,1.6-2.2,3.2-2.2c0.2,0,0.3,0,0.5,0c-0.1-0.2-0.1-0.4-0.1-0.7c-1-0.3-1.5-1.1-1.4-1.9c0.2-1.2,1.8-2.1,3.4-2.1
						c0.3,0,0.5,0,0.7,0.1c0.3-0.5,0.9-1,1.6-1.2c-0.8-0.4-1.2-1-1-1.8c0.3-1.2,1.9-2.1,3.5-2.1c0.1,0,0.1,0,0.2,0
						c0.2-0.5,0.6-1,1.2-1.3c0-0.2,0-0.4,0-0.7c0.4-1.1,2-2,3.5-2c0.5,0,0.9,0.1,1.3,0.3c0.6-0.5,1.4-0.9,2.2-1
						c-0.2-0.3-0.3-0.7-0.1-1.2c0.4-1.1,2-2,3.4-2c0.3,0,0.5,0,0.7,0.1c0.3-0.2,0.6-0.3,0.9-0.4c0,0,0-0.1,0-0.1
						c0.4-1.1,1.9-1.9,3.3-1.9c0.5,0,0.8,0.1,1.2,0.2c0.5-0.9,1.8-1.6,3.1-1.6c0.4,0,0.8,0.1,1.1,0.2c0.3-0.1,0.6-0.2,0.9-0.3
						c0.5-0.8,1.7-1.4,2.8-1.4c0.9,0,1.6,0.4,1.9,1c0.3-0.1,0.6-0.3,0.9-0.3v-0.1c0.2-1,1.5-1.9,2.8-1.9c1.1,0,1.9,0.5,2.1,1.3
						c0.5-0.2,1-0.4,1.5-0.4h0.1c0.5-0.6,1.3-1.1,2.3-1.1c0.9,0,1.7,0.4,2.1,1c0.4-0.2,0.8-0.3,1.3-0.3c0.2,0,0.4,0,0.6,0.1
						c0.4-0.4,1.1-0.7,1.8-0.7s1.4,0.3,1.9,0.7c0.4-0.3,0.9-0.5,1.5-0.5c1,0,1.9,0.5,2.4,1.2c0.4-0.4,1-0.6,1.7-0.6
						c0.8,0,1.6,0.3,2.2,0.8c0.3-0.1,0.6-0.2,1-0.2c1,0,2,0.5,2.6,1.1c0.3-0.2,0.7-0.2,1.2-0.2c1.3,0,2.6,0.8,3,1.7
						c0.4-0.3,0.9-0.5,1.5-0.5c1.3,0,2.7,0.8,3.1,1.7c0.3-0.1,0.7-0.2,1.1-0.2c1.4,0,2.9,0.9,3.3,2c0,0,0,0.1,0,0.1
						c0.3-0.1,0.7-0.2,1.1-0.2c1.4,0,2.8,0.7,3.3,1.7c0.2,0,0.3,0,0.5,0c1.5,0,3.1,0.9,3.5,2c0.2,0.5,0.1,0.9-0.2,1.3
						c0.1,0,0.1,0,0.2,0c1.5,0,3.1,0.9,3.5,2.1c0.2,0.8-0.2,1.4-0.9,1.8c0.1,0.1,0.3,0.2,0.4,0.4c0.3-0.1,0.7-0.2,1.1-0.2
						c1.6,0,3.2,1,3.4,2.1c0.1,0.5,0,0.9-0.4,1.3c0.7,0.6,1.2,1.4,1.6,2.1c0.1,0,0.3,0,0.4,0c1.6,0,3.2,1,3.3,2.2
						C348.9,192,348.1,192.8,346.9,193.1z"/>
				</g>
			</g>
			<g id="nature_grass_front03">
				<g>
					<path class="st47" d="M483.1,192.1c0,0.1,0.1,0.2,0.1,0.3c0.9,0.4,1.6,1.1,1.7,1.9v0.1h-100c-0.7-0.4-1.1-1-1.1-1.8
						c0.1-1.2,1.6-2.2,3.2-2.2c0.2,0,0.3,0,0.5,0c-0.1-0.2-0.1-0.4-0.1-0.7c-1-0.3-1.5-1.1-1.4-1.9c0.2-1.2,1.7-2.1,3.4-2.1
						c0.3,0,0.5,0,0.8,0.1c0.3-0.5,0.9-1,1.6-1.2c-0.8-0.4-1.2-1-1-1.8c0.3-1.2,1.9-2.1,3.5-2.1c0.1,0,0.1,0,0.2,0
						c0.2-0.5,0.6-1,1.2-1.3c0-0.2,0-0.4,0-0.7c0.4-1.1,2-2,3.5-2c0.5,0,0.9,0.1,1.3,0.3c0.6-0.5,1.4-0.9,2.2-1
						c-0.2-0.3-0.3-0.7-0.1-1.2c0.4-1.1,2-2,3.4-2c0.3,0,0.5,0,0.7,0.1c0.3-0.2,0.6-0.3,0.9-0.4c0,0,0-0.1,0-0.1
						c0.4-1.1,1.9-1.9,3.3-1.9c0.5,0,0.8,0.1,1.2,0.2c0.5-0.9,1.8-1.6,3.1-1.6c0.4,0,0.8,0.1,1.1,0.2c0.3-0.1,0.6-0.2,0.9-0.3
						c0.5-0.8,1.7-1.4,2.8-1.4c0.9,0,1.6,0.4,1.9,1c0.3-0.1,0.6-0.3,0.9-0.3v-0.1c0.2-1,1.5-1.9,2.8-1.9c1.1,0,1.9,0.5,2.1,1.3
						c0.5-0.2,1-0.4,1.5-0.4h0.1c0.5-0.6,1.3-1.1,2.3-1.1c0.9,0,1.7,0.4,2.1,1c0.4-0.2,0.8-0.3,1.3-0.3c0.2,0,0.4,0,0.6,0.1
						c0.4-0.4,1.1-0.7,1.8-0.7s1.4,0.3,1.9,0.7c0.4-0.3,0.9-0.5,1.5-0.5c1,0,1.9,0.5,2.4,1.2c0.4-0.4,1-0.6,1.7-0.6
						c0.8,0,1.6,0.3,2.2,0.8c0.3-0.1,0.6-0.2,1-0.2c1,0,2,0.5,2.6,1.1c0.3-0.2,0.7-0.2,1.2-0.2c1.3,0,2.6,0.8,3,1.7
						c0.4-0.3,0.9-0.5,1.5-0.5c1.3,0,2.7,0.8,3.1,1.7c0.3-0.1,0.7-0.2,1.1-0.2c1.4,0,2.9,0.9,3.3,2c0,0,0,0.1,0,0.1
						c0.3-0.1,0.7-0.2,1.1-0.2c1.4,0,2.8,0.7,3.3,1.7c0.2,0,0.3,0,0.5,0c1.5,0,3.1,0.9,3.5,2c0.2,0.5,0.1,0.9-0.2,1.3
						c0.1,0,0.1,0,0.2,0c1.5,0,3.1,0.9,3.5,2.1c0.2,0.8-0.2,1.4-0.9,1.8c0.1,0.1,0.3,0.2,0.4,0.4c0.3-0.1,0.7-0.2,1.1-0.2
						c1.6,0,3.2,1,3.4,2.1c0.1,0.5,0,0.9-0.4,1.3c0.7,0.6,1.2,1.4,1.6,2.1c0.1,0,0.3,0,0.4,0c1.6,0,3.2,1,3.3,2.2
						C485.1,191,484.3,191.8,483.1,192.1z"/>
					<path class="st47" d="M483.1,192.1c0,0.1,0.1,0.2,0.1,0.3c0.9,0.4,1.6,1.1,1.7,1.9v0.1h-100c-0.7-0.4-1.1-1-1.1-1.8
						c0.1-1.2,1.6-2.2,3.2-2.2c0.2,0,0.3,0,0.5,0c-0.1-0.2-0.1-0.4-0.1-0.7c-1-0.3-1.5-1.1-1.4-1.9c0.2-1.2,1.7-2.1,3.4-2.1
						c0.3,0,0.5,0,0.8,0.1c0.3-0.5,0.9-1,1.6-1.2c-0.8-0.4-1.2-1-1-1.8c0.3-1.2,1.9-2.1,3.5-2.1c0.1,0,0.1,0,0.2,0
						c0.2-0.5,0.6-1,1.2-1.3c0-0.2,0-0.4,0-0.7c0.4-1.1,2-2,3.5-2c0.5,0,0.9,0.1,1.3,0.3c0.6-0.5,1.4-0.9,2.2-1
						c-0.2-0.3-0.3-0.7-0.1-1.2c0.4-1.1,2-2,3.4-2c0.3,0,0.5,0,0.7,0.1c0.3-0.2,0.6-0.3,0.9-0.4c0,0,0-0.1,0-0.1
						c0.4-1.1,1.9-1.9,3.3-1.9c0.5,0,0.8,0.1,1.2,0.2c0.5-0.9,1.8-1.6,3.1-1.6c0.4,0,0.8,0.1,1.1,0.2c0.3-0.1,0.6-0.2,0.9-0.3
						c0.5-0.8,1.7-1.4,2.8-1.4c0.9,0,1.6,0.4,1.9,1c0.3-0.1,0.6-0.3,0.9-0.3v-0.1c0.2-1,1.5-1.9,2.8-1.9c1.1,0,1.9,0.5,2.1,1.3
						c0.5-0.2,1-0.4,1.5-0.4h0.1c0.5-0.6,1.3-1.1,2.3-1.1c0.9,0,1.7,0.4,2.1,1c0.4-0.2,0.8-0.3,1.3-0.3c0.2,0,0.4,0,0.6,0.1
						c0.4-0.4,1.1-0.7,1.8-0.7s1.4,0.3,1.9,0.7c0.4-0.3,0.9-0.5,1.5-0.5c1,0,1.9,0.5,2.4,1.2c0.4-0.4,1-0.6,1.7-0.6
						c0.8,0,1.6,0.3,2.2,0.8c0.3-0.1,0.6-0.2,1-0.2c1,0,2,0.5,2.6,1.1c0.3-0.2,0.7-0.2,1.2-0.2c1.3,0,2.6,0.8,3,1.7
						c0.4-0.3,0.9-0.5,1.5-0.5c1.3,0,2.7,0.8,3.1,1.7c0.3-0.1,0.7-0.2,1.1-0.2c1.4,0,2.9,0.9,3.3,2c0,0,0,0.1,0,0.1
						c0.3-0.1,0.7-0.2,1.1-0.2c1.4,0,2.8,0.7,3.3,1.7c0.2,0,0.3,0,0.5,0c1.5,0,3.1,0.9,3.5,2c0.2,0.5,0.1,0.9-0.2,1.3
						c0.1,0,0.1,0,0.2,0c1.5,0,3.1,0.9,3.5,2.1c0.2,0.8-0.2,1.4-0.9,1.8c0.1,0.1,0.3,0.2,0.4,0.4c0.3-0.1,0.7-0.2,1.1-0.2
						c1.6,0,3.2,1,3.4,2.1c0.1,0.5,0,0.9-0.4,1.3c0.7,0.6,1.2,1.4,1.6,2.1c0.1,0,0.3,0,0.4,0c1.6,0,3.2,1,3.3,2.2
						C485.1,191,484.3,191.8,483.1,192.1z"/>
				</g>
			</g>
			<g id="nature_grass_front02">
				<g>
					<path class="st47" d="M595.1,192.3c0,0.1,0.1,0.2,0.1,0.3c0.9,0.4,1.6,1.1,1.7,1.9v0.1h-100c-0.7-0.4-1.1-1-1.1-1.8
						c0.1-1.2,1.6-2.2,3.2-2.2c0.2,0,0.3,0,0.5,0c-0.1-0.2-0.1-0.4-0.1-0.7c-1-0.3-1.5-1.1-1.4-1.9c0.2-1.2,1.8-2.1,3.4-2.1
						c0.3,0,0.5,0,0.7,0.1c0.3-0.5,0.9-1,1.6-1.2c-0.8-0.4-1.2-1-1-1.8c0.3-1.2,1.9-2.1,3.5-2.1c0.1,0,0.1,0,0.2,0
						c0.2-0.5,0.6-1,1.2-1.3c0-0.2,0-0.4,0-0.7c0.4-1.1,2-2,3.5-2c0.5,0,0.9,0.1,1.3,0.3c0.6-0.5,1.4-0.9,2.2-1
						c-0.2-0.3-0.3-0.7-0.1-1.2c0.4-1.1,2-2,3.4-2c0.3,0,0.5,0,0.7,0.1c0.3-0.2,0.6-0.3,0.9-0.4c0,0,0-0.1,0-0.1
						c0.4-1.1,1.9-1.9,3.3-1.9c0.5,0,0.8,0.1,1.2,0.2c0.5-0.9,1.8-1.6,3.1-1.6c0.4,0,0.8,0.1,1.1,0.2c0.3-0.1,0.6-0.2,0.9-0.3
						c0.5-0.8,1.7-1.4,2.8-1.4c0.9,0,1.6,0.4,1.9,1c0.3-0.1,0.6-0.3,0.9-0.3v-0.1c0.2-1,1.5-1.9,2.8-1.9c1.1,0,1.9,0.5,2.1,1.3
						c0.5-0.2,1-0.4,1.5-0.4h0.1c0.5-0.6,1.3-1.1,2.3-1.1c0.9,0,1.7,0.4,2.1,1c0.4-0.2,0.8-0.3,1.3-0.3c0.2,0,0.4,0,0.6,0.1
						c0.4-0.4,1.1-0.7,1.8-0.7s1.4,0.3,1.9,0.7c0.4-0.3,0.9-0.5,1.5-0.5c1,0,1.9,0.5,2.4,1.2c0.4-0.4,1-0.6,1.7-0.6
						c0.8,0,1.6,0.3,2.2,0.8c0.3-0.1,0.6-0.2,1-0.2c1,0,2,0.5,2.6,1.1c0.3-0.2,0.7-0.2,1.2-0.2c1.3,0,2.6,0.8,3,1.7
						c0.4-0.3,0.9-0.5,1.5-0.5c1.3,0,2.7,0.8,3.1,1.7c0.3-0.1,0.7-0.2,1.1-0.2c1.4,0,2.9,0.9,3.3,2c0,0,0,0.1,0,0.1
						c0.3-0.1,0.7-0.2,1.1-0.2c1.4,0,2.8,0.7,3.3,1.7c0.2,0,0.3,0,0.5,0c1.5,0,3.1,0.9,3.5,2c0.2,0.5,0.1,0.9-0.2,1.3
						c0.1,0,0.1,0,0.2,0c1.5,0,3.1,0.9,3.5,2.1c0.2,0.8-0.2,1.4-0.9,1.8c0.1,0.1,0.3,0.2,0.4,0.4c0.3-0.1,0.7-0.2,1.1-0.2
						c1.6,0,3.2,1,3.4,2.1c0.1,0.5,0,0.9-0.4,1.3c0.7,0.6,1.2,1.4,1.6,2.1c0.1,0,0.3,0,0.4,0c1.6,0,3.2,1,3.3,2.2
						C597.1,191.3,596.3,192.1,595.1,192.3z"/>
					<path class="st47" d="M595.1,192.3c0,0.1,0.1,0.2,0.1,0.3c0.9,0.4,1.6,1.1,1.7,1.9v0.1h-100c-0.7-0.4-1.1-1-1.1-1.8
						c0.1-1.2,1.6-2.2,3.2-2.2c0.2,0,0.3,0,0.5,0c-0.1-0.2-0.1-0.4-0.1-0.7c-1-0.3-1.5-1.1-1.4-1.9c0.2-1.2,1.8-2.1,3.4-2.1
						c0.3,0,0.5,0,0.7,0.1c0.3-0.5,0.9-1,1.6-1.2c-0.8-0.4-1.2-1-1-1.8c0.3-1.2,1.9-2.1,3.5-2.1c0.1,0,0.1,0,0.2,0
						c0.2-0.5,0.6-1,1.2-1.3c0-0.2,0-0.4,0-0.7c0.4-1.1,2-2,3.5-2c0.5,0,0.9,0.1,1.3,0.3c0.6-0.5,1.4-0.9,2.2-1
						c-0.2-0.3-0.3-0.7-0.1-1.2c0.4-1.1,2-2,3.4-2c0.3,0,0.5,0,0.7,0.1c0.3-0.2,0.6-0.3,0.9-0.4c0,0,0-0.1,0-0.1
						c0.4-1.1,1.9-1.9,3.3-1.9c0.5,0,0.8,0.1,1.2,0.2c0.5-0.9,1.8-1.6,3.1-1.6c0.4,0,0.8,0.1,1.1,0.2c0.3-0.1,0.6-0.2,0.9-0.3
						c0.5-0.8,1.7-1.4,2.8-1.4c0.9,0,1.6,0.4,1.9,1c0.3-0.1,0.6-0.3,0.9-0.3v-0.1c0.2-1,1.5-1.9,2.8-1.9c1.1,0,1.9,0.5,2.1,1.3
						c0.5-0.2,1-0.4,1.5-0.4h0.1c0.5-0.6,1.3-1.1,2.3-1.1c0.9,0,1.7,0.4,2.1,1c0.4-0.2,0.8-0.3,1.3-0.3c0.2,0,0.4,0,0.6,0.1
						c0.4-0.4,1.1-0.7,1.8-0.7s1.4,0.3,1.9,0.7c0.4-0.3,0.9-0.5,1.5-0.5c1,0,1.9,0.5,2.4,1.2c0.4-0.4,1-0.6,1.7-0.6
						c0.8,0,1.6,0.3,2.2,0.8c0.3-0.1,0.6-0.2,1-0.2c1,0,2,0.5,2.6,1.1c0.3-0.2,0.7-0.2,1.2-0.2c1.3,0,2.6,0.8,3,1.7
						c0.4-0.3,0.9-0.5,1.5-0.5c1.3,0,2.7,0.8,3.1,1.7c0.3-0.1,0.7-0.2,1.1-0.2c1.4,0,2.9,0.9,3.3,2c0,0,0,0.1,0,0.1
						c0.3-0.1,0.7-0.2,1.1-0.2c1.4,0,2.8,0.7,3.3,1.7c0.2,0,0.3,0,0.5,0c1.5,0,3.1,0.9,3.5,2c0.2,0.5,0.1,0.9-0.2,1.3
						c0.1,0,0.1,0,0.2,0c1.5,0,3.1,0.9,3.5,2.1c0.2,0.8-0.2,1.4-0.9,1.8c0.1,0.1,0.3,0.2,0.4,0.4c0.3-0.1,0.7-0.2,1.1-0.2
						c1.6,0,3.2,1,3.4,2.1c0.1,0.5,0,0.9-0.4,1.3c0.7,0.6,1.2,1.4,1.6,2.1c0.1,0,0.3,0,0.4,0c1.6,0,3.2,1,3.3,2.2
						C597.1,191.3,596.3,192.1,595.1,192.3z"/>
				</g>
			</g>
			<g id="nature_grass_front01">
				<g>
					<path class="st47" d="M710.2,192.3c0,0.1,0.1,0.2,0.1,0.3c0.9,0.4,1.6,1.1,1.7,1.9v0.1H612c-0.7-0.4-1.1-1-1.1-1.8
						c0.1-1.2,1.6-2.2,3.2-2.2c0.2,0,0.3,0,0.5,0c-0.1-0.2-0.1-0.4-0.1-0.7c-1-0.3-1.5-1.1-1.4-1.9c0.2-1.2,1.8-2.1,3.4-2.1
						c0.3,0,0.5,0,0.7,0.1c0.3-0.5,0.9-1,1.6-1.2c-0.8-0.4-1.2-1-1-1.8c0.3-1.2,1.9-2.1,3.5-2.1c0.1,0,0.1,0,0.2,0
						c0.2-0.5,0.6-1,1.2-1.3c0-0.2,0-0.4,0-0.7c0.4-1.1,2-2,3.5-2c0.5,0,0.9,0.1,1.3,0.3c0.6-0.5,1.4-0.9,2.2-1
						c-0.2-0.3-0.3-0.7-0.1-1.2c0.4-1.1,2-2,3.4-2c0.3,0,0.5,0,0.7,0.1c0.3-0.2,0.6-0.3,0.9-0.4c0,0,0-0.1,0-0.1
						c0.4-1.1,1.9-1.9,3.3-1.9c0.5,0,0.8,0.1,1.2,0.2c0.5-0.9,1.8-1.6,3.1-1.6c0.4,0,0.8,0.1,1.1,0.2c0.3-0.1,0.6-0.2,0.9-0.3
						c0.5-0.8,1.7-1.4,2.8-1.4c0.9,0,1.6,0.4,1.9,1c0.3-0.1,0.6-0.3,0.9-0.3v-0.1c0.2-1,1.5-1.9,2.8-1.9c1.1,0,1.9,0.5,2.1,1.3
						c0.5-0.2,1-0.4,1.5-0.4h0.1c0.5-0.6,1.3-1.1,2.3-1.1c0.9,0,1.7,0.4,2.1,1c0.4-0.2,0.8-0.3,1.3-0.3c0.2,0,0.4,0,0.6,0.1
						c0.4-0.4,1.1-0.7,1.8-0.7s1.4,0.3,1.9,0.7c0.4-0.3,0.9-0.5,1.5-0.5c1,0,1.9,0.5,2.4,1.2c0.4-0.4,1-0.6,1.7-0.6
						c0.8,0,1.6,0.3,2.2,0.8c0.3-0.1,0.6-0.2,1-0.2c1,0,2,0.5,2.6,1.1c0.3-0.2,0.7-0.2,1.2-0.2c1.3,0,2.6,0.8,3,1.7
						c0.4-0.3,0.9-0.5,1.5-0.5c1.3,0,2.7,0.8,3.1,1.7c0.3-0.1,0.7-0.2,1.1-0.2c1.4,0,2.9,0.9,3.3,2c0,0,0,0.1,0,0.1
						c0.3-0.1,0.7-0.2,1.1-0.2c1.4,0,2.8,0.7,3.3,1.7c0.2,0,0.3,0,0.5,0c1.5,0,3.1,0.9,3.5,2c0.2,0.5,0.1,0.9-0.2,1.3
						c0.1,0,0.1,0,0.2,0c1.5,0,3.1,0.9,3.5,2.1c0.2,0.8-0.2,1.4-0.9,1.8c0.1,0.1,0.3,0.2,0.4,0.4c0.3-0.1,0.7-0.2,1.1-0.2
						c1.6,0,3.2,1,3.4,2.1c0.1,0.5,0,0.9-0.4,1.3c0.7,0.6,1.2,1.4,1.6,2.1c0.1,0,0.3,0,0.4,0c1.6,0,3.2,1,3.3,2.2
						C712.2,191.3,711.4,192.1,710.2,192.3z"/>
					<path class="st47" d="M710.2,192.3c0,0.1,0.1,0.2,0.1,0.3c0.9,0.4,1.6,1.1,1.7,1.9v0.1H612c-0.7-0.4-1.1-1-1.1-1.8
						c0.1-1.2,1.6-2.2,3.2-2.2c0.2,0,0.3,0,0.5,0c-0.1-0.2-0.1-0.4-0.1-0.7c-1-0.3-1.5-1.1-1.4-1.9c0.2-1.2,1.8-2.1,3.4-2.1
						c0.3,0,0.5,0,0.7,0.1c0.3-0.5,0.9-1,1.6-1.2c-0.8-0.4-1.2-1-1-1.8c0.3-1.2,1.9-2.1,3.5-2.1c0.1,0,0.1,0,0.2,0
						c0.2-0.5,0.6-1,1.2-1.3c0-0.2,0-0.4,0-0.7c0.4-1.1,2-2,3.5-2c0.5,0,0.9,0.1,1.3,0.3c0.6-0.5,1.4-0.9,2.2-1
						c-0.2-0.3-0.3-0.7-0.1-1.2c0.4-1.1,2-2,3.4-2c0.3,0,0.5,0,0.7,0.1c0.3-0.2,0.6-0.3,0.9-0.4c0,0,0-0.1,0-0.1
						c0.4-1.1,1.9-1.9,3.3-1.9c0.5,0,0.8,0.1,1.2,0.2c0.5-0.9,1.8-1.6,3.1-1.6c0.4,0,0.8,0.1,1.1,0.2c0.3-0.1,0.6-0.2,0.9-0.3
						c0.5-0.8,1.7-1.4,2.8-1.4c0.9,0,1.6,0.4,1.9,1c0.3-0.1,0.6-0.3,0.9-0.3v-0.1c0.2-1,1.5-1.9,2.8-1.9c1.1,0,1.9,0.5,2.1,1.3
						c0.5-0.2,1-0.4,1.5-0.4h0.1c0.5-0.6,1.3-1.1,2.3-1.1c0.9,0,1.7,0.4,2.1,1c0.4-0.2,0.8-0.3,1.3-0.3c0.2,0,0.4,0,0.6,0.1
						c0.4-0.4,1.1-0.7,1.8-0.7s1.4,0.3,1.9,0.7c0.4-0.3,0.9-0.5,1.5-0.5c1,0,1.9,0.5,2.4,1.2c0.4-0.4,1-0.6,1.7-0.6
						c0.8,0,1.6,0.3,2.2,0.8c0.3-0.1,0.6-0.2,1-0.2c1,0,2,0.5,2.6,1.1c0.3-0.2,0.7-0.2,1.2-0.2c1.3,0,2.6,0.8,3,1.7
						c0.4-0.3,0.9-0.5,1.5-0.5c1.3,0,2.7,0.8,3.1,1.7c0.3-0.1,0.7-0.2,1.1-0.2c1.4,0,2.9,0.9,3.3,2c0,0,0,0.1,0,0.1
						c0.3-0.1,0.7-0.2,1.1-0.2c1.4,0,2.8,0.7,3.3,1.7c0.2,0,0.3,0,0.5,0c1.5,0,3.1,0.9,3.5,2c0.2,0.5,0.1,0.9-0.2,1.3
						c0.1,0,0.1,0,0.2,0c1.5,0,3.1,0.9,3.5,2.1c0.2,0.8-0.2,1.4-0.9,1.8c0.1,0.1,0.3,0.2,0.4,0.4c0.3-0.1,0.7-0.2,1.1-0.2
						c1.6,0,3.2,1,3.4,2.1c0.1,0.5,0,0.9-0.4,1.3c0.7,0.6,1.2,1.4,1.6,2.1c0.1,0,0.3,0,0.4,0c1.6,0,3.2,1,3.3,2.2
						C712.2,191.3,711.4,192.1,710.2,192.3z"/>
				</g>
			</g>
		</g>
	</g>

	<g id="nature_ground">
		<rect x="445.7" y="202.5" class="st25" width="242.3" height="21.3"/>
		<polygon class="st61" points="441.1,191.4 441.1,212.2 445.7,223.8 445.7,202 	"/>
		<rect x="472.7" y="272.5" class="st25" width="264.3" height="21.3"/>
		<rect x="478.6" y="271.8" class="st46" width="264.7" height="14.8"/>
		<polygon class="st61" points="437.3,175.8 437.3,188.2 478.6,286.5 478.6,272 	"/>
		<g>
			<polygon class="st35" points="437.3,175.8 670.6,175.8 743.3,271.8 478.6,271.8 		"/>
			<g>
				<line class="st26" x1="473.6" y1="260.4" x2="734.2" y2="260.4"/>
				<line class="st26" x1="467.6" y1="246.7" x2="723.6" y2="246.7"/>
				<line class="st26" x1="462" y1="233.1" x2="713.4" y2="233.1"/>
				<line class="st26" x1="456.2" y1="219.5" x2="702.9" y2="219.5"/>
				<line class="st26" x1="450.5" y1="205.8" x2="692.6" y2="205.8"/>
				<line class="st26" x1="446" y1="194.2" x2="683.5" y2="194.2"/>
				<line class="st26" x1="441.2" y1="182.5" x2="675.3" y2="182.5"/>
			</g>
		</g>
		<polygon class="st61" points="468.1,261.5 468.1,282.2 472.7,293.9 472.7,272 	"/>
	</g>

	<g id="nature_chair02">
		<g>
			<path class="st61" d="M48.6,233.1l167.1-0.3c0,0-0.7-22.2-14.7-22.8c-14-0.6-152.5,4.4-152.5,4.4V233.1z"/>
			<path class="st66" d="M223.4,206.8l-7.6,26c-1.4-21.1-16.2-20.3-16.2-20.3l-151,1.9l16.4-23.6l140.3-0.2
				C223.4,191.5,223.4,206.8,223.4,206.8z"/>
		</g>
	</g>

	<g id="nature_man02">
		<g id="Nman02_left_hand">
			<path class="st70" d="M120.5,167.5c0,0,19.2,34.6,22.1-0.2"/>
			<path class="st50" d="M124.3,163.7c0.8,0.9,4,4.4,7,9.5c-7.4,1.1-8.7,6.3-8.7,6.3c-2.2-3.7-4.6-6.8-6.1-8.5
				c-1.9-2-1.6-5.3,0.5-7.4C119.2,161.7,122.4,161.7,124.3,163.7z"/>
		</g>
		<path id="Nman02_body" class="st15" d="M90.2,193.9c-0.4,6.5,6.9,12.2,16.2,12.7l0,0c9.3,0.5,17.1-4.3,17.5-10.8l1.4-24.9
			c0.4-6.5-6.9-12.2-16.2-12.7l0,0c-9.3-0.5-17.1,4.3-17.5,10.8L90.2,193.9z"/>
		<g id="Nman02_right_hand">
			<path class="st70" d="M136,202.4c0,0-28.2,10.9-39.8-34.1"/>
			<path class="st50" d="M90.6,169.7c0.3,1.1,1.7,5.7,4.4,11c4.8-5.7,9.9-4.1,9.9-4.1c-2-3.8-3.4-7.5-4-9.7c-0.8-2.7-3.7-4.2-6.6-3.4
				C91.5,164.3,89.8,167,90.6,169.7z"/>
		</g>
		<g id="Nman02_head">
			<path class="st1" d="M100.4,134.4c0,0-12.2-1.5-12,10.2S97,155.9,92,158c0,0,7.6,0.6,6.4-3.4S100.4,134.4,100.4,134.4z"/>
			<g>
				<path class="st24" d="M93.8,150.2c0.1,1,1,1.6,2,1.5l26.5-3.4c1-0.1,1.6-1,1.5-2l0,0c-0.1-1-1-1.6-2-1.5l-26.5,3.4
					C94.4,148.3,93.7,149.2,93.8,150.2L93.8,150.2z"/>
				<g>
					<path class="st20" d="M97.2,148.2c-0.6,6.7,4.4,12.6,11.1,13.2c6.7,0.6,12.6-4.4,13.2-11.1c0.6-6.7-4.4-12.6-11.1-13.2
						C103.7,136.5,97.8,141.5,97.2,148.2z"/>
					<line class="st37" x1="109.4" y1="147.6" x2="109.4" y2="147.1"/>
					<line class="st37" x1="110.1" y1="147.6" x2="110.2" y2="146.9"/>
					<line class="st37" x1="110.8" y1="147.6" x2="111.1" y2="146.9"/>
					<line class="st37" x1="115.7" y1="146.9" x2="115.7" y2="146.7"/>
					<line class="st37" x1="116.4" y1="146.9" x2="116.5" y2="146.6"/>
					<line class="st37" x1="117" y1="146.9" x2="117.4" y2="146.6"/>
					<path class="st48" d="M108.3,149.1c-0.1,0.9,0.6,1.7,1.5,1.8c0.9,0.1,1.7-0.6,1.8-1.5c0.1-0.9-0.6-1.7-1.5-1.8
						C109.2,147.5,108.4,148.2,108.3,149.1z"/>
					<path class="st48" d="M114.5,148.5c-0.1,0.9,0.6,1.7,1.5,1.8c0.9,0.1,1.7-0.6,1.8-1.5c0.1-0.9-0.6-1.7-1.5-1.8
						C115.4,146.9,114.6,147.5,114.5,148.5z"/>
					<circle cx="117.1" cy="148.6" r="0.6"/>
					<path d="M110.2,149.2c0,0.3,0.2,0.6,0.5,0.6c0.3,0,0.6-0.2,0.6-0.5c0-0.3-0.2-0.6-0.5-0.6C110.5,148.6,110.2,148.9,110.2,149.2z
						"/>
					<path class="st59" d="M112.8,150.9c0.1,0.4,0.5,0.7,0.9,0.6l0,0c0.4-0.1,0.7-0.5,0.6-0.9l-0.4-2.4c-0.1-0.4-0.5-0.7-0.9-0.6l0,0
						c-0.4,0.1-0.7,0.5-0.6,0.9L112.8,150.9z"/>
					<path class="st41" d="M114,154c0,0.4-0.3,0.7-0.7,0.7H112c-0.4,0-0.7-0.3-0.7-0.7l0,0c0-0.4,0.3-0.7,0.7-0.7h1.3
						C113.7,153.3,114,153.6,114,154L114,154z"/>
				</g>
				<g>
					<path class="st72" d="M119.3,142.1l-14.9,0.3l-4.6,3.3l-0.3,3.9c0,0-0.5,0.9-1.5,0c0,0-0.5-0.8-0.5-1.4c0-0.2-0.4-0.5-0.4-0.5
						c-1.7,0.1-3.7-16,11.1-16C122.7,131.8,121.1,142,119.3,142.1z"/>
				</g>
				<path class="st30" d="M110.8,145.6c0,0-0.9-0.9-2.2,0.1"/>
				<path class="st30" d="M116.8,145.1c-1.1-1.1-2.1,0.1-2.2,0.1"/>
			</g>
		</g>
	</g>

	<g id="nature_desk02">
		<line class="st73" x1="633.3" y1="204.6" x2="656.7" y2="225"/>
		<path class="st49" d="M630.5,230.8c0.2,2.7,2.5,4.8,5.2,4.6l15.1-1c2.7-0.2,4.8-2.5,4.6-5.2l0,0c-0.2-2.7-2.5-4.8-5.2-4.6l-15.1,1
			C632.4,225.7,630.3,228.1,630.5,230.8L630.5,230.8z"/>
		<path class="st39" d="M643.7,227.1c0,8.4-28.5,15.2-63.8,15.2c-35.2,0-63.8-6.8-63.8-15.2c0-8.4,28.5-15.2,63.8-15.2
			C615.2,211.9,643.7,218.7,643.7,227.1z"/>
		<g>
			<line class="st22" x1="538.4" y1="214.1" x2="526.9" y2="235.9"/>
			<line class="st22" x1="551.6" y1="211.9" x2="546.1" y2="221.4"/>
			<line class="st22" x1="621.2" y1="215.6" x2="629.7" y2="235.9"/>
			<line class="st22" x1="606.7" y1="211.1" x2="610.2" y2="222"/>
			<path class="st7" d="M641.8,202.3v7.3c0,6.5-27.8,11.8-62,11.8s-62-5.3-62-11.8v-7.3H641.8z"/>
			<ellipse class="st18" cx="579.8" cy="202.3" rx="62" ry="11.8"/>
		</g>
		<g>
			<polygon class="st11" points="581.5,197.3 601.8,190.6 626.2,203.2 605.2,212.4 		"/>
			<polygon class="st19" points="581.5,174 581.5,197.3 605.2,212.4 605.7,184.3 		"/>
			<path class="st71" d="M591.8,191.5c0.4,1.6,0.2,3.1-0.4,3.4c-0.6,0.3-1.5-0.8-1.9-2.4s-0.2-3.1,0.4-3.4
				C590.5,188.8,591.4,189.9,591.8,191.5z"/>
			<path class="st65" d="M581.5,174c0,0,6.6,30.1,23.7,38.4l-23.7-15.2V174z"/>
		</g>
		<g>
			<path class="st32" d="M542,204.7c0,0.9,2.2,1.7,4.9,1.7c2.7,0,4.9-0.8,4.9-1.7c0-0.1,0-8.3,0-8.3H542
				C542,196.4,542,204.7,542,204.7z"/>
			<path class="st16" d="M542,196.4c0,0.4,0.3,0.7,0.8,1c0.9-0.5,2.4-0.8,4.1-0.8c1.7,0,3.2,0.3,4.1,0.8c0.5-0.3,0.9-0.6,0.9-1
				c0-0.9-2.2-1.7-4.9-1.7C544.2,194.7,542,195.5,542,196.4z"/>
			<path class="st64" d="M542.9,197.4c0.9,0.5,2.4,0.7,4.1,0.7c1.7,0,3.2-0.3,4.1-0.7c-0.9-0.5-2.4-0.8-4.1-0.8
				C545.3,196.6,543.8,196.9,542.9,197.4z"/>
			<path class="st75" d="M542.8,199.5c0,0-2.8-1.4-3,1.3s0.8,3.6,3.1,2.4"/>
		</g>
		<path class="st53" d="M686,215.2c0,6.8-6,12.3-13.5,12.3h-14.7c-7.5,0-13.5-5.5-13.5-12.3l0,0c0-6.8,6-12.3,13.5-12.3h14.7
			C679.9,202.9,686,208.4,686,215.2L686,215.2z"/>
		<path class="st14" d="M654.3,225.3c-0.9,2.6,0.5,5.4,3.1,6.2l14.3,4.8c2.6,0.9,5.4-0.5,6.2-3.1l0,0c0.9-2.6-0.5-5.4-3.1-6.2
			l-14.3-4.8C658,221.4,655.2,222.7,654.3,225.3L654.3,225.3z"/>
		<path class="st2" d="M676.3,220.6"/>
		<path class="st2" d="M674.2,206.5"/>
	</g>

	<g id="nature_desk01">
		<g>
			<rect x="80" y="229.9" class="st28" width="83.8" height="19.6"/>
			<polygon class="st10" points="166.7,234.8 163.7,249.6 163.7,229.9 167.7,229.9 		"/>
			<rect x="42.1" y="227" class="st67" width="155.5" height="5.9"/>
			<polygon class="st28" points="64.3,194.1 207.3,194.1 197.6,227 42.1,227 		"/>
			<g>
				<path class="st32" d="M155.9,200.7c0,0.9,2.2,1.7,4.9,1.7c2.7,0,4.9-0.8,4.9-1.7c0-0.1,0-8.3,0-8.3h-9.9
					C155.9,192.4,155.9,200.7,155.9,200.7z"/>
				<path class="st16" d="M155.9,192.4c0,0.4,0.3,0.7,0.8,1c0.9-0.5,2.4-0.8,4.1-0.8c1.7,0,3.2,0.3,4.1,0.8c0.5-0.3,0.9-0.6,0.9-1
					c0-0.9-2.2-1.7-4.9-1.7C158.1,190.7,155.9,191.5,155.9,192.4z"/>
				<path class="st64" d="M156.7,193.3c0.9,0.5,2.4,0.7,4.1,0.7c1.7,0,3.2-0.3,4.1-0.7c-0.9-0.5-2.4-0.8-4.1-0.8
					C159.1,192.6,157.6,192.9,156.7,193.3z"/>
				<path class="st75" d="M156.6,195.5c0,0-2.8-1.4-3,1.3s0.8,3.6,3.1,2.4"/>
			</g>
			<g>
				<polygon class="st11" points="152.5,211.1 110.5,211.1 107,202.1 150.3,202.4 			"/>
				<rect x="110.5" y="187.2" class="st19" width="42.1" height="23.9"/>
				<circle class="st71" cx="131.7" cy="200.4" r="2.2"/>
				<path class="st65" d="M110.5,187.2c0,0,1.9,20.3,42.1,23.9h-42.1V187.2z"/>
			</g>
			<polygon class="st63" points="197.6,232.9 207.3,202.1 207.3,194.1 197.6,227 		"/>
		</g>
	</g>

	<g id="nature_chair01">
		<path class="st61" d="M6.7,233.9v60h190.7c0,0-0.7-24.7-14.7-25.3s-148,4-148,4S40.7,225.9,6.7,233.9z"/>
		<path class="st66" d="M205,265l-7.6,28.8c-1.4-23.4-16.2-22.6-16.2-22.6l-146.5,1.2l11.9-25.3L187,247C205,248,205,265,205,265z"/>
		<path class="st36" d="M6.7,233.9L21.5,210c0,0,29.7-11.6,25.2,37.2l-11.9,25.3C34.7,272.5,40.6,227,6.7,233.9z"/>
	</g>

	<g id="nature_man05">
		<g id="Nman05_right_hand">
			<path class="st70" d="M613.2,188.2c0,0,18.6,0.5,40.4-19.7"/>
			<path class="st21" d="M657.6,171.8c-0.8,0.9-4.2,4.3-9,7.7c-1.6-7.3-6.9-8.3-6.9-8.3c3.6-2.4,6.5-5.1,8-6.7c1.9-2,5.2-2,7.4,0
				C659.3,166.6,659.5,169.8,657.6,171.8z"/>
		</g>
		<g id="Nman05_body">
			<g>
				<path class="st40" d="M644.9,180.6l2,28.6c0.1,1.1,0.2,2.1,0.5,3.1c5.1,7.1,30.8,7.1,36-4.8c0-0.3,0-0.6,0-0.9l-2-28.6
					c-0.7-10.8-9.5-18.9-19.6-18.2c-5,0.3-9.4,2.8-12.5,6.6C646.2,170.2,644.5,175.2,644.9,180.6z"/>
			</g>
			<line class="st2" x1="674.2" y1="206.5" x2="676.3" y2="220.6"/>
			<line class="st73" x1="674.2" y1="206.5" x2="650.8" y2="227"/>
		</g>
		<g id="Nman05_head">
			<path class="st24" d="M673.2,152.3c0,1-0.8,1.8-1.7,1.8l-26.7,0.2c-1,0-1.8-0.8-1.8-1.7l0,0c0-1,0.8-1.8,1.7-1.8l26.7-0.2
				C672.4,150.5,673.2,151.3,673.2,152.3L673.2,152.3z"/>
			<g>
				<path class="st20" d="M669.6,150.8c1.5,6.6-2.6,13.1-9.2,14.6c-6.6,1.5-13.1-2.6-14.6-9.2c-1.5-6.6,2.6-13.1,9.2-14.6
					C661.5,140.1,668.1,144.2,669.6,150.8z"/>
				<path class="st48" d="M654.3,152.2c0.2,0.9-0.4,1.8-1.3,2c-0.9,0.2-1.8-0.4-2-1.3c-0.2-0.9,0.4-1.8,1.3-2
					C653.2,150.7,654.1,151.3,654.3,152.2z"/>
				<path class="st48" d="M649.3,152c0.2,0.9-0.4,1.8-1.3,2c-0.9,0.2-1.8-0.4-2-1.3c-0.2-0.9,0.4-1.8,1.3-2
					C648.2,150.5,649.1,151.1,649.3,152z"/>
				<path d="M647.6,153.3c0.1,0.3-0.1,0.6-0.5,0.7c-0.3,0.1-0.6-0.1-0.7-0.4s0.1-0.6,0.5-0.7C647.2,152.8,647.5,153,647.6,153.3z"/>
				<path d="M652.4,153.3c0.1,0.3-0.1,0.6-0.5,0.7c-0.3,0.1-0.6-0.1-0.7-0.5c-0.1-0.3,0.1-0.6,0.5-0.7
					C652,152.8,652.3,153,652.4,153.3z"/>
				<path class="st59" d="M650.2,154.5c0,0.4-0.4,0.7-0.8,0.7l0,0c-0.4,0-0.7-0.4-0.7-0.8l0.1-2.5c0-0.4,0.4-0.7,0.8-0.7l0,0
					c0.4,0,0.7,0.4,0.7,0.8L650.2,154.5z"/>
				<path class="st9" d="M653.4,157.8c0,0-0.1,0.9-2.6,0.6c-0.7-0.1-1.5-0.2-2.4-0.5"/>
				<path class="st13" d="M651.5,149.2c0.5-1.1,1.8-0.6,3.3,0.1"/>
				<path class="st13" d="M646.5,149.8c0.6,0.1,1.8-1.9,2.2-0.2"/>
			</g>
			<path class="st62" d="M659.9,146.4c0,0,0.6,4.4,4.8,5l1.1,4.8c0,0,0.8,0.8,2.1-0.4c0,0,0.7-0.9,0.6-1.5c-0.1-0.6,0-2.9,1.1-4
				c1.1-1-1.8-7-1.8-7L659.9,146.4z"/>
			<line class="st55" x1="668.7" y1="145.6" x2="660.5" y2="147.5"/>
			<line class="st55" x1="669.3" y1="147.1" x2="661" y2="148.9"/>
			<line class="st55" x1="669.6" y1="148.7" x2="662.3" y2="150.4"/>
			<line class="st55" x1="669.5" y1="150.3" x2="664.6" y2="151.4"/>
			<path class="st74" d="M668.3,141.2c0.2,2.5-1,4.7-2.7,4.9l-18.8,1.7c-1.7,0.2-3.2-0.2-3.9-2.6c-0.4-1.3,0.2-3.1,3.5-4.1
				c0,0.1-0.8-2.8,3.2-2.6c5.4,0.3,2.8-2.1,7-2.5c7.9-0.7,7.2,3,7.2,3C665.9,137.7,668.1,138.7,668.3,141.2z"/>
		</g>
		<g id="Nman05_left_hand">
			<path class="st70" d="M620.2,199.2c0,0,29.6-4.5,51.4-24.7"/>
			<path class="st21" d="M675.6,177.8c-0.8,0.9-4.2,4.3-9,7.7c-1.6-7.3-6.9-8.3-6.9-8.3c3.6-2.4,6.5-5.1,8-6.7c1.9-2,5.2-2,7.4,0
				C677.3,172.6,677.5,175.8,675.6,177.8z"/>
		</g>
	</g>

	<g id="nature_man04">
		<g id="Nman04_foot">
			<path class="st17" d="M393.6,207c-1.5,2.2-1,5.3,1.3,6.9l12.5,8.6c2.2,1.5,5.3,1,6.9-1.3l0,0c1.5-2.2,1-5.3-1.3-6.9l-12.5-8.6
				C398.2,204.2,395.1,204.8,393.6,207L393.6,207z"/>
			<line class="st27" x1="454.6" y1="189.7" x2="410.7" y2="217.7"/>
			<path class="st33" d="M404.9,217.6c-1.6,2.2-1.2,5.3,1,6.9l12.2,9c2.2,1.6,5.3,1.2,6.9-1l0,0c1.6-2.2,1.2-5.3-1-6.9l-12.2-9
				C409.6,215,406.5,215.4,404.9,217.6L404.9,217.6z"/>
			<line class="st54" x1="475.2" y1="194.3" x2="421.7" y2="225.7"/>
			<g>
				<polygon class="st3" points="484.4,213.2 471.8,221.3 462.3,212.2 475.3,204.6 			"/>
				<polygon class="st51" points="485.1,212.2 472.5,220.3 462.3,212.2 475.3,204.6 			"/>
				<polygon class="st71" points="485.6,209.6 473,217.7 462.3,212.2 475.3,204.6 			"/>
				<polygon class="st48" points="485.2,207.3 472.5,215.4 462.3,212.2 475.3,204.6 			"/>
				<polygon class="st3" points="475.5,204.5 484.9,205.4 470.8,213 462.3,212.2 			"/>
			</g>
		</g>
		
		<g id="Nman04_body">
			<g id="Nman04_right_hand">
				<path class="st70" d="M462.8,121.9c-23.1-3.6-27.4,25.9-0.9,30.3"/>
				<path class="st56" d="M460.8,157.6c-1.1-0.3-5.8-1.4-11.2-3.9c5.5-5.5,3.6-10.7,3.6-10.7c3.9,1.9,7.7,3.1,9.9,3.6
					c2.7,0.6,4.4,3.6,3.8,6.7C466.2,156.2,463.5,158.2,460.8,157.6z"/>
			</g>

			<path class="st76" d="M482.1,177.2c0.4,2.1,8,22.1-12.2,22.6c-9.2,0.3-18.4-4.6-19.8-10.9l-0.4-6.5c0,0,4.7-6,13.9-7.7
				C472.6,173.1,482.1,177.2,482.1,177.2z"/>
			<path class="st0" d="M452.3,156.3l-2.6,22.9c-0.1,0.9-0.1,1.7-0.1,2.6c12.2,4.4,28.5,10.6,35.3,2.1c0-0.2,0.1-0.5,0.1-0.7
				l2.6-22.9c1-8.6-6.2-16.5-15.9-17.6c-4.9-0.5-9.5,0.7-13,3.2C455.2,148.3,452.8,152,452.3,156.3z"/>
			<g id="Nman04_head">
				<g>
					<path class="st24" d="M486.1,140c-0.3,0.9-1.4,1.3-2.3,1l-24.9-9.6c-0.9-0.3-1.3-1.4-1-2.3l0,0c0.3-0.9,1.4-1.4,2.3-1l24.9,9.6
						C486,138,486.4,139.1,486.1,140L486.1,140z"/>
					<g>
						<circle class="st20" cx="471.2" cy="135.4" r="12.2"/>
						<path class="st59" d="M467.4,136.2c-0.2,0.4-0.6,0.6-1,0.4l0,0c-0.4-0.2-0.6-0.6-0.4-1l1-2.3c0.2-0.4,0.6-0.6,1-0.4l0,0
							c0.4,0.2,0.6,0.6,0.4,1L467.4,136.2z"/>
						<line class="st31" x1="462.9" y1="133.2" x2="465" y2="133.7"/>
						<line class="st31" x1="470.5" y1="134.5" x2="473" y2="134.8"/>
					</g>
					<path class="st13" d="M470.7,131.5c0,0,1.1-0.6,2.1,0.6"/>
					<path class="st13" d="M465,129.6c1.4-0.8,2.1,0.6,2.1,0.6"/>
					
						<ellipse transform="matrix(0.9883 0.1525 -0.1525 0.9883 26.9497 -69.5316)" class="st6" cx="466.9" cy="141" rx="2.4" ry="1.5"/>
				</g>
				<path class="st57" d="M476.3,135.4c0.1,0.3,0.4,0.5,0.6,0.5l7.7-2.3c0.2-0.1,0.4-0.4,0.3-0.7l0,0c-0.1-0.3-0.4-0.5-0.6-0.5
					l-7.7,2.3C476.3,134.7,476.2,135.1,476.3,135.4L476.3,135.4z"/>
				<g>
					<g id="XMLID_21_">
						<g>
							<path class="st62" d="M460.1,122.9c-0.4,0.8-0.7,1.6-0.8,2.5c0,0,0-0.1,0.1-0.1c0.3-1.4,2.1-6,3.2-7c1-0.9,2.1-1.6,3.1-2.1
								c-1.1,0.5-2.1,1.2-3.1,2.1C461.3,119.4,460.5,122.2,460.1,122.9z"/>
							<path class="st62" d="M486,132l0-0.1c0,0,0.6-1.8,1-4.2c0.8-3.9-1.4-6.7-3.7-8.4c0,0,0,0,0,0c-0.8-0.6-1.6-1.1-2.2-1.5
								c-0.4-0.2-0.7-0.4-1-0.5c-0.1,0-0.1,0-0.2-0.1c-0.1,0-0.1-0.1-0.2-0.1c-0.2-0.1-0.3-0.1-0.4-0.2c0,0,0,0,0,0s-0.1,0-0.2-0.1
								c-1.1-0.5-7.7-3.3-13.5-0.7c0,0,0,0-0.1,0c-1,0.5-2.1,1.2-3.1,2.1c-1.1,1-2.8,5.6-3.2,7c0,0,0,0.1-0.1,0.1
								c0,0.2-0.1,0.4-0.1,0.5c4.2,2.3,7.2,0.9,7.5,0.7c0,0,0,0,0,0c-0.3,0.2-2.6,1.3-4.2,1c0.1,0.2,2,1.6,5.2,1.5
								c1.1,0,3.3-1.1,3.6-1.2c-0.2,0.1-1.4,1-2.2,1.3c-1,0.3-3.1,0.4-3.1,0.4s1.8,0.9,4.1,0.7c1-0.1,2.5-0.6,2.8-0.7
								c-0.2,0.1-1.2,0.6-2.5,0.8c-2.3,0.5-4,0-4,0s2.9,1.1,4,1.3c1.3,0.2,4.9,0.8,7.9-0.7c1.2-0.6,2-1.4,2.4-2
								c-0.1,0.3-0.2,0.7-0.3,1.2c-0.6,2.7,0.2,5.6,0.2,5.6l0.9-2.6c0,0,0.4,0.6,0.6,1.3c0.7,2.7-2,4.8-2,4.8s2.7-0.9,3.5-2.7
								c0.4-1,0.5-1.7,0.6-2.5c0.1,1.5,0.7,3.2,0.7,3.2L486,132z"/>
							<path class="st62" d="M461.6,127.2C461.7,127.1,461.7,127.2,461.6,127.2c0.1,0,0.2,0,0.2,0c2.6,0.3,4.1-0.1,4.8-0.5
								c-0.3,0.1-3.3,1.5-7.5-0.7c0,0,0,0.1,0,0.1l0,0.3c-0.1,2.5,0.4,6,0.4,6s0.5-3.1,1.4-4.4c0.1-0.2,0.7-0.6,0.8-0.8
								C461.8,127.2,461.7,127.2,461.6,127.2z"/>
							<path class="st62" d="M479.2,116.8c-1.2-0.6-7.5-3.6-13.5-0.7C471.5,113.5,478,116.3,479.2,116.8z"/>
							<path class="st62" d="M479.4,116.9c0.1,0,0.2,0.1,0.4,0.2C479.6,117,479.4,116.9,479.4,116.9z"/>
							<path class="st62" d="M479.9,117.2c0.1,0,0.1,0,0.2,0.1C480,117.2,480,117.2,479.9,117.2z"/>
							<path class="st62" d="M481.1,117.8c0.7,0.4,1.5,0.9,2.2,1.5C482.6,118.6,481.8,118.1,481.1,117.8z"/>
							<path class="st62" d="M483.4,119.3c2.2,1.8,4.4,4.6,3.7,8.4c-0.5,2.4-1,4.2-1,4.2l0,0.1l0-0.1c0,0,0.6-1.8,1.1-4.2
								C487.9,123.8,485.6,121,483.4,119.3z"/>
						</g>
						<g>
							<path class="st52" d="M483.4,119.3c2.3,1.8,4.5,4.6,3.7,8.4c-0.5,2.4-1.1,4.2-1.1,4.2l0,0.1l-1.2,3.3"/>
							<path class="st52" d="M481.1,117.8c0.7,0.4,1.5,0.9,2.2,1.5"/>
							<path class="st52" d="M479.9,117.2c0.1,0,0.1,0,0.2,0.1"/>
							<path class="st52" d="M479.4,116.9c0.1,0,0.2,0.1,0.4,0.2"/>
							<path class="st52" d="M465.7,116.1c6-2.9,12.3,0.1,13.5,0.7"/>
							<path class="st52" d="M459.3,125.5c0-0.1,0-0.2,0.1-0.3c0.3-1.4,2.1-6,3.2-7c1-0.9,2.1-1.6,3.1-2.1"/>
							<path class="st52" d="M461.9,127.2C461.9,127.2,461.9,127.2,461.9,127.2"/>
							<path class="st52" d="M461.9,127.2C461.9,127.2,461.9,127.2,461.9,127.2"/>
							<path class="st52" d="M461.6,127.2L461.6,127.2c0,0,0.1,0,0.2,0"/>
							<path class="st52" d="M466.7,126.6c-0.8,0.4-2.2,0.9-4.8,0.5c-0.1,0-0.1,0-0.2,0c0,0,0,0,0,0"/>
							<path class="st52" d="M471.4,127.9C471.4,127.9,471.4,127.9,471.4,127.9L471.4,127.9c-0.3,0.1-2.5,1.2-3.6,1.2
								c-3.2,0.2-5.1-1.3-5.2-1.5c1.6,0.4,3.9-0.8,4.2-1"/>
							<path class="st52" d="M473,129.5C473,129.5,473,129.6,473,129.5C473,129.6,473,129.6,473,129.5c-0.3,0.1-1.9,0.7-2.9,0.7
								c-2.4,0.2-4.1-0.7-4.1-0.7s2.2-0.1,3.1-0.4c0.9-0.3,2-1.2,2.2-1.3"/>
							<path class="st52" d="M461.9,127.2c-0.1,0.1-0.7,0.6-0.8,0.8c-0.9,1.2-1.4,4.4-1.4,4.4s-0.6-3.5-0.4-6l0-0.3c0,0,0-0.1,0-0.1
								c0-0.2,0-0.4,0.1-0.5c0.1-0.9,0.4-1.7,0.8-2.5c0.4-0.6,1.2-3.5,2.4-4.6c1-0.9,2.1-1.6,3.1-2.1c0,0,0,0,0.1,0
								c5.8-2.6,12.3,0.2,13.5,0.7c0.1,0.1,0.2,0.1,0.2,0.1s0,0,0,0c0.1,0,0.2,0.1,0.4,0.2c0.1,0,0.1,0,0.2,0.1c0.1,0,0.1,0,0.2,0.1
								c0.3,0.1,0.6,0.3,1,0.5c0.7,0.4,1.5,0.9,2.2,1.5c0,0,0,0,0,0c2.2,1.8,4.4,4.6,3.7,8.4c-0.5,2.4-1,4.2-1,4.2l0,0.1l-0.9,5.3
								c0,0-0.6-1.7-0.7-3.2c-0.1,0.8-0.1,1.5-0.6,2.5c-0.8,1.8-3.5,2.7-3.5,2.7s2.8-2.1,2-4.8c-0.2-0.7-0.6-1.3-0.6-1.3l-0.9,2.6
								c0,0-0.8-2.9-0.2-5.6c0.1-0.5,0.2-0.9,0.3-1.2c-0.4,0.6-1.2,1.4-2.4,2c-3.1,1.4-6.6,0.9-7.9,0.7c-1-0.2-4-1.3-4-1.3
								s1.6,0.5,4,0c1.3-0.2,2.2-0.7,2.5-0.8"/>
							<path class="st52" d="M459,125.8c0,0,0.1-0.2,0.3-0.4c0,0,0-0.1,0.1-0.1c0.9-1.3,3.6-4.5,7.2-5"/>
							<path class="st52" d="M466.7,126.6C466.7,126.6,466.7,126.6,466.7,126.6c-0.3,0.2-3.3,1.5-7.5-0.7c-0.1,0-0.2-0.1-0.2-0.1"/>
							<path class="st52" d="M480.9,129c0,0,0.9-1.6,1.4-3.4"/>
							<path class="st52" d="M476.4,126.8c-0.9,1.5-2.6,2.5-3.3,2.7"/>
							<path class="st52" d="M484.3,134.1c0,0,0-1.3,0.1-2.4"/>
							<path class="st52" d="M481.7,133.2c0,0,0.2-0.5,0.6-1.7"/>
						</g>
					</g>
				</g>
				<path class="st23" d="M476.9,134.6c-0.1-0.1-0.2-0.1-0.3-0.2c-0.3-0.2-0.7-0.4-1-0.5l-0.2-0.1c-0.5-0.3-1-0.5-1.6-0.8
					c-0.3-0.1-0.6-0.2-0.9-0.3c-0.9-0.2-1.8-0.3-2.6-0.2c-0.5,0.1-0.9,0.2-1.2,0.4c0,0-0.1,0-0.1,0.1c0,0,0,0,0,0
					c-0.1-0.2-0.3-0.2-0.5-0.2c-0.2-0.1-0.4-0.1-0.6-0.2c-0.2,0-0.4-0.1-0.6-0.2c-0.2,0-0.3-0.1-0.5,0c0,0,0,0,0,0c0,0,0-0.1-0.1-0.1
					c-0.2-0.3-0.5-0.6-0.9-0.9c-0.6-0.5-1.5-0.9-2.4-1.1c-0.3-0.1-0.7-0.2-1-0.2c-0.6-0.1-1.2-0.1-1.8-0.1l-0.2,0c-0.4,0-0.8,0-1.1,0
					c-0.1,0-0.2,0-0.3,0c-0.1,0-0.2,0.1-0.2,0.2c-0.1,0.2-0.1,0.4-0.1,0.6c0,0.2,0.1,0.3,0.2,0.4c0,0,0.1,0,0.1,0l0.1,0c0,0,0,0,0,0.1
					c0,0.3-0.1,0.5-0.1,0.7c-0.1,0.5-0.2,1-0.1,1.7c0,0.5,0.2,0.9,0.4,1.3c0.4,0.7,1,1.1,1.9,1.5c0.1,0.1,0.3,0.1,0.4,0.1
					c0.8,0.2,1.7,0.2,2.4,0.1c1.2-0.3,2.2-1.2,2.7-2.5c0.1-0.2,0.1-0.4,0.2-0.6c0-0.1,0-0.1,0.1-0.2c0,0,0.5,0.1,0.7,0.1
					c0.2,0.1,0.7,0.2,0.7,0.2c0,0.1,0,0.1,0,0.2c0,0.2-0.1,0.4-0.1,0.6c-0.2,1.3,0.2,2.6,1.1,3.4c0.5,0.5,1.3,0.9,2.1,1.1
					c0.2,0,0.3,0.1,0.5,0.1c1,0.1,1.7,0,2.4-0.3c0.4-0.2,0.8-0.5,1-0.9c0.4-0.6,0.5-1,0.7-1.5c0.1-0.2,0.1-0.4,0.2-0.7c0,0,0,0,0.1,0
					l0.1,0c0,0,0.1,0,0.1,0c0.2,0,0.3,0,0.4-0.2c0.1-0.2,0.1-0.4,0.2-0.6C477,134.8,477,134.7,476.9,134.6z M473.6,138.4
					c-0.5,0.2-1,0.2-1.5,0.2c-0.6-0.1-1.1-0.2-1.6-0.5c-0.5-0.2-0.9-0.6-1.2-1c-0.6-0.8-0.6-2.1-0.3-2.9c0.1-0.4,0.4-0.7,0.9-0.9
					c0.4-0.2,0.8-0.2,1.4-0.2c0.5,0,1,0.1,1.5,0.2c0.7,0.2,1.4,0.5,1.9,0.8c0.5,0.3,0.7,0.7,0.8,1.1
					C475.7,136.3,474.7,138,473.6,138.4z M461.2,135.7c-0.5-0.2-0.9-0.5-1.2-0.9c-0.8-0.9-0.7-2.9,0-3.7c0.3-0.3,0.7-0.5,1.2-0.5
					c0.6-0.1,1.3,0,2.1,0.2c0.5,0.1,1,0.3,1.4,0.5c0.5,0.2,0.8,0.5,1.1,0.8c0.3,0.4,0.4,0.8,0.3,1.2c-0.2,0.8-0.8,1.9-1.7,2.4
					c-0.5,0.2-1,0.3-1.6,0.3C462.3,136.1,461.7,135.9,461.2,135.7z"/>
			</g>
			<g id="Nman04_left_hand">
				<path class="st70" d="M495.8,204.5c0,0-4.8-19.3-13.5-49.4"/>
				<path class="st56" d="M487.1,152.4c0.5,1.1,2.2,5.5,3.3,11.4c-7.6-1.3-10.8,3.3-10.8,3.3c-0.8-4.3-2-8-2.8-10.1
					c-1.1-2.6,0.4-5.7,3.3-6.9C482.8,148.8,486,149.9,487.1,152.4z"/>
			</g>			
		</g>
	</g>

	<g id="nature_man03">

		<g id="Nman03_body">

			<g id="Nman03_right_hand">
				<path class="st70" d="M215.9,154.6c0,0-16.2,36.1-22.1,1.7"/>
				<path class="st4" d="M211.7,151.1c-0.7,0.9-3.6,4.8-6.2,10.1c7.5,0.5,9.2,5.5,9.2,5.5c1.9-3.9,4-7.2,5.4-9
					c1.7-2.2,1.2-5.5-1.1-7.3C216.7,148.6,213.4,148.9,211.7,151.1z"/>
			</g>
		
			<path class="st76" d="M248.3,180.8c0.4,2.1,8,22.1-12.2,22.6c-9.2,0.3-18.4-4.6-19.8-10.9l-0.4-6.5c0,0,4.7-6,13.9-7.7
				C238.8,176.7,248.3,180.8,248.3,180.8z"/>
			<path class="st38" d="M248.2,178.3c0.9,6.4-5.8,12.7-15,14l0,0c-9.2,1.3-17.4-2.9-18.3-9.3l-3.5-24.7c-0.9-6.4,5.8-12.7,15-14l0,0
				c9.2-1.3,17.4,2.9,18.3,9.3L248.2,178.3z"/>

			<g id="Nman03_head">
				<path class="st24" d="M240.9,135c0,1-0.9,1.7-1.8,1.7l-26.7-1.2c-1,0-1.7-0.9-1.7-1.8l0,0c0-1,0.9-1.7,1.8-1.7l26.7,1.2
					C240.2,133.3,241,134.1,240.9,135L240.9,135z"/>
				<g>
					<circle class="st20" cx="225.4" cy="135.4" r="12.2"/>
					<path class="st48" d="M226.4,135.2c0.2,0.9-0.5,1.8-1.4,2c-0.9,0.2-1.8-0.4-1.9-1.4c-0.2-0.9,0.5-1.8,1.4-1.9
						C225.4,133.7,226.3,134.3,226.4,135.2z"/>
					<path class="st48" d="M220.2,135.1c0.2,0.9-0.5,1.8-1.4,2c-0.9,0.2-1.8-0.4-1.9-1.4c-0.2-0.9,0.5-1.8,1.4-1.9
						C219.1,133.6,220,134.2,220.2,135.1z"/>
					<circle cx="217.6" cy="135.4" r="0.6"/>
					<path d="M224.6,135.4c0.1,0.3-0.2,0.6-0.5,0.7c-0.3,0.1-0.6-0.2-0.7-0.5c-0.1-0.3,0.2-0.6,0.5-0.7
						C224.2,134.9,224.5,135.1,224.6,135.4z"/>
					<path class="st41" d="M224.8,138.6L224.8,138.6c0,1.7-1.4,3.1-3.1,3c-1.7,0-3-1.4-3-3.1l0-0.1L224.8,138.6z"/>
					<path class="st59" d="M222,137.4c0,0.4-0.4,0.7-0.8,0.7l0,0c-0.4,0-0.7-0.4-0.7-0.8l0.2-2.5c0-0.4,0.4-0.7,0.8-0.7l0,0
						c0.4,0,0.7,0.4,0.7,0.8L222,137.4z"/>
				</g>
				<path class="st62" d="M230.6,128.3c0,0,0.4,4.2,3.5,5.1l0.8,4.9c0,0,0.6,0.9,1.5-0.1c0,0,0.5-0.8,0.4-1.4s0-2.9,0.8-3.8
					s-2.1-5.2-2.1-5.2L230.6,128.3z"/>
				<path class="st74" d="M236.6,123.8c0.1,2.5-1.2,4.7-2.9,4.7l-18.9,0.7c-1.7,0.1-3.2-1.9-3.3-4.5c0,0-0.9-4.6,2.8-6.6
					c0,0.1-0.4,1.6,1.7,1.8c5.2-1.4,4.9-1.7,9.1-2c5.1-0.4,8.1,1.4,8.1,1.4C235.1,120.1,236.5,121.2,236.6,123.8z"/>
				<path class="st13" d="M223.7,131.9c0,0,0.8-0.9,2.2-0.1"/>
				<path class="st13" d="M217.6,131.9c1-1.2,2.1-0.1,2.2-0.1"/>
			</g>
			<g id="Nman03_left_hand">
				<path class="st70" d="M254.1,111.4c0,0,5.1,15.3-11.7,39.9"/>
				<path class="st4" d="M246.4,154.8c0.7-0.9,3.6-4.8,6.2-10.1c-7.5-0.5-9.2-5.6-9.2-5.6c-1.9,3.9-4,7.2-5.4,9
					c-1.7,2.2-1.2,5.5,1.1,7.3C241.5,157.3,244.7,157,246.4,154.8z"/>
			</g>

		</g>
		
		<g id="Nman03_foot">
			<path class="st33" d="M204.3,238.2c-0.1,2.7,2,5,4.7,5.2l15.1,0.7c2.7,0.1,5-2,5.2-4.7l0,0c0.1-2.7-2-5-4.7-5.2l-15.1-0.7
				C206.8,233.4,204.5,235.5,204.3,238.2L204.3,238.2z"/>
			<line class="st54" x1="224.8" y1="199.8" x2="223.1" y2="236.4"/>
			<path class="st33" d="M231,247.9c0.2,2.7,2.5,4.8,5.2,4.6l15.1-0.9c2.7-0.2,4.8-2.5,4.6-5.2l0,0c-0.2-2.7-2.5-4.8-5.2-4.6
				l-15.1,0.9C232.9,242.9,230.8,245.2,231,247.9L231,247.9z"/>
			<line class="st54" x1="241.4" y1="197.8" x2="249.6" y2="244.2"/>
		</g>
	</g>

	<g id="nature_man01">

		<g id="Nman01_body">

			<g id="Nman01_left_hand">
				<path class="st58" d="M55.3,217.3c0,0,14.9,30.7,47.9,2"/>
				<g id="Nman01_cafe">
					<path class="st32" d="M97.2,222.7c0.1,0.9,2.4,1.3,5.1,0.9c2.7-0.4,4.8-1.5,4.6-2.4c0-0.1-1.2-8.2-1.2-8.2l-9.8,1.5
						C96,214.5,97.2,222.7,97.2,222.7z"/>
					<path class="st16" d="M96,214.5c0.1,0.3,0.4,0.6,1,0.8c0.8-0.6,2.3-1.1,3.9-1.4c1.7-0.3,3.2-0.2,4.1,0.1c0.5-0.4,0.8-0.7,0.7-1.1
						c-0.1-0.9-2.4-1.3-5.1-0.9C97.9,212.5,95.8,213.6,96,214.5z"/>
					<path class="st64" d="M96.9,215.3c0.9,0.3,2.5,0.4,4.2,0.1c1.7-0.3,3.1-0.8,3.9-1.3c-0.9-0.3-2.5-0.4-4.1-0.1
						C99.2,214.2,97.8,214.7,96.9,215.3z"/>
					<path class="st75" d="M97.1,217.5c0,0-3-1-2.7,1.8c0.3,2.8,1.4,3.5,3.4,1.9"/>
				</g>
			</g>		
		
			<path class="st76" d="M34.6,251.1c0.2,2.1-1.2,23.4,18.4,18c8.8-2.5,16.2-9.9,15.7-16.2l-1.6-6.3c0,0-6.3-4.3-15.5-3.3
				C42.5,244.4,34.6,251.1,34.6,251.1z"/>
			<path class="st60" d="M34,248.7c1,6.4,9.3,10.4,18.5,8.9l0,0c9.2-1.5,15.8-7.9,14.8-14.3l-4-24.6c-1-6.4-9.3-10.4-18.5-8.9l0,0
				c-9.2,1.5-15.8,7.9-14.8,14.3L34,248.7z"/>

			<g id="Nman01_head">
				<path class="st24" d="M31.3,203.9c0.2,0.9,1.1,1.6,2,1.4l26.3-4.7c1-0.2,1.6-1.1,1.4-2l0,0c-0.2-1-1.1-1.6-2-1.4l-26.3,4.7
					C31.8,202.1,31.2,203,31.3,203.9L31.3,203.9z"/>
				<g>
					<path class="st20" d="M34.6,201.8c-0.3,6.7,5,12.4,11.7,12.7c6.7,0.3,12.4-5,12.6-11.7c0.3-6.7-5-12.4-11.7-12.6
						C40.6,189.8,34.9,195.1,34.6,201.8z"/>
					<path class="st48" d="M45.7,202.2c0,0.9,0.7,1.7,1.6,1.8c0.9,0,1.7-0.7,1.7-1.6c0-0.9-0.7-1.7-1.6-1.7
						C46.5,200.6,45.7,201.3,45.7,202.2z"/>
					<path class="st48" d="M51.9,201.3c0,0.9,0.7,1.7,1.6,1.8c0.9,0,1.7-0.7,1.7-1.6c0-0.9-0.7-1.7-1.6-1.7
						C52.7,199.6,52,200.3,51.9,201.3z"/>
					<circle cx="54.5" cy="201.2" r="0.6"/>
					<path d="M47.6,202.2c0,0.3,0.2,0.6,0.6,0.6c0.3,0,0.6-0.2,0.6-0.6c0-0.3-0.2-0.6-0.6-0.6C47.9,201.6,47.6,201.9,47.6,202.2z"/>
					<path class="st68" d="M47.8,205.4"/>
					<path class="st5" d="M47.8,205.4c0.2,1.6,1.6,1.6,3.3,1.4c1.7-0.2,2.5-1.1,2.7-2.3l0-0.1"/>
					<path class="st59" d="M50.3,203.8c0.1,0.4,0.5,0.7,0.9,0.6l0,0c0.4-0.1,0.7-0.5,0.6-0.9l-0.5-2.4c-0.1-0.4-0.5-0.7-0.9-0.6l0,0
						c-0.4,0.1-0.7,0.5-0.6,0.9L50.3,203.8z"/>
				</g>
				<path class="st69" d="M40.7,195.9c0,0,0.1,4.2-2.8,5.5l-0.2,4.9c0,0-0.5,0.9-1.5,0.1c0,0-0.6-0.8-0.6-1.4c0-0.6-0.4-2.9-1.3-3.7
					c-0.9-0.8,1.4-5.4,1.4-5.4L40.7,195.9z"/>
				<path class="st34" d="M34.1,192.2c0.2,2.5,1.8,4.5,3.5,4.3l18.8-1.8c1.7-0.2,2.9-2.3,2.7-4.9c0,0-0.7-1.1-4.6-2.6
					c0,0.1-1.6-2.9-3.7-2.4c-5.3-0.7-4,0.6-8.2,0.9c-5.1,0.3-5.9,1.7-5.9,1.7C35.1,188.3,33.9,189.7,34.1,192.2z"/>
				<path class="st12" d="M48,198.6c0,0-0.9-0.8-2.2,0.2"/>
				<path class="st12" d="M54.1,197.8c-1.2-1.1-2.1,0.2-2.2,0.2"/>
			</g>

			<path id="Nman01_right_hand" class="st70" d="M37.4,226.1c0,0,10.2,32.6,47.1,9.2"/>

		</g>

		<g id="Nman01_foot">
			<path class="st49" d="M136.4,247.6c0.9,2.6-0.4,5.4-2.9,6.3l-14.2,5.2c-2.6,0.9-5.4-0.4-6.3-2.9l0,0c-0.9-2.6,0.4-5.4,2.9-6.3
				l14.2-5.2C132.7,243.8,135.5,245.1,136.4,247.6L136.4,247.6z"/>
			<path class="st27" d="M61.9,262.5c0,0,28.8-33.3,54.3-11.5"/>
			<path class="st49" d="M122.2,256.3c0.9,2.6-0.4,5.4-2.9,6.3l-14.2,5.2c-2.6,0.9-5.4-0.4-6.3-2.9l0,0c-0.9-2.6,0.4-5.4,2.9-6.3
				l14.2-5.2C118.4,252.4,121.3,253.8,122.2,256.3L122.2,256.3z"/>
			<path class="st54" d="M46.2,265.4c0,0,26-27.1,55.8-4.4"/>
		</g>
	</g>

</svg>
