<?xml version="1.0" encoding="utf-8"?>
<!-- Generator: Adobe Illustrator 16.0.0, SVG Export Plug-In . SVG Version: 6.00 Build 0)  -->
<!DOCTYPE svg PUBLIC "-//W3C//DTD SVG 1.1//EN" "http://www.w3.org/Graphics/SVG/1.1/DTD/svg11.dtd">
<svg version="1.1" id="圖層_1" xmlns="http://www.w3.org/2000/svg" xmlns:xlink="http://www.w3.org/1999/xlink" x="0px" y="0px"
	 width="220px" height="85px" viewBox="0 0 220 85" style="enable-background:new 0 0 220 85;" xml:space="preserve">
<style type="text/css">
<![CDATA[
	.st0{fill:#80D8FF;}
	.st1{fill:#888888;}
	.st2{fill:#FBC02D;}
	.st3{fill:#FDD835;}
	.st4{fill:#616161;}
	.st5{fill:#0091EA;}
	.st6{fill:#00B0FF;}
	.st7{fill:#40C4FF;}
]]>
</style>
<path class="st0" d="M69.1,3.1L46.2,42.7H0.4c0-2.4,0.6-4.8,1.8-7c0-0.1,16.1-27.9,16.1-27.9c0,0,0,0,0,0C21,3.7,25.7,1,31,1h30.6
	C64.3,1,66.9,1.8,69.1,3.1z"/>
<path class="st7" d="M89.8,46.7c0,2.4-0.9,4.5-2,6.8c0,0-13.6,24.1-13.6,24.1c0,0,0,0,0,0c-1.3,1.9-3,3.5-5,4.7L48.6,46.7L89.8,46.7
	z"/>
<path class="st6" d="M46.2,42.7c0,0-20.6,35.7-20.7,35.8c-0.7,1.1-1.9,1.7-3.3,1.7c-1.1,0-2.1-0.4-2.8-1.2c0,0,0,0,0,0
	c-0.1-0.1-1.3-1.7-1.6-2.3L2.5,50.3c-1.4-2.4-2-5-2-7.6L46.2,42.7z"/>
<path class="st5" d="M69.1,82.3c-1.9,1.1-4.1,1.8-6.5,2c-0.1,0-31.7,0-31.7,0c-6.5,0-10.4-4-11.5-5.3c0.7,0.7,1.7,1.2,2.8,1.2
	c1.4,0,2.6-0.7,3.3-1.7c0.1-0.1,0.2-0.3,0.3-0.4l20.5-35.4l2.3,4L69.1,82.3z"/>
<path class="st2" d="M71.5,52.2c-1.8,3.2-5.9,4.3-9.1,2.4l0,0c-3.2-1.9-4.3-5.9-2.4-9.1l9.8-16.9c1.8-3.2,5.9-4.3,9.1-2.4l0,0
	c3.2,1.8,4.3,5.9,2.4,9.1L71.5,52.2z"/>
<path class="st3" d="M79,17.3c-1.5,2.5-4.7,3.4-7.2,1.9c-2.5-1.5-3.4-4.7-1.9-7.2c1.5-2.5,4.7-3.4,7.2-1.9
	C79.6,11.5,80.4,14.8,79,17.3z"/>
<g>
	<g>
		<path class="st4" d="M95.8,36.1c0.5,0,1-0.1,1.3-0.3c0.4-0.2,0.7-0.5,0.9-0.8c0.2-0.3,0.4-0.7,0.6-1.2c0.1-0.4,0.2-0.9,0.3-1.3
			l5.7,0c-0.1,1.2-0.4,2.4-0.9,3.5c-0.5,1.1-1.1,2-1.9,2.8c-0.8,0.8-1.7,1.4-2.8,1.8c-1.1,0.4-2.3,0.6-3.6,0.6c-1.7,0-3-0.4-4.1-1.1
			c-1.1-0.7-1.9-1.5-2.5-2.6c-0.6-1.1-0.9-2.3-1.1-3.6c-0.2-1.4-0.2-2.8,0-4.2L88,28c0.1-1,0.3-2,0.6-3c0.3-1,0.6-1.9,1-2.8
			c0.4-0.9,0.9-1.7,1.5-2.4c0.6-0.7,1.2-1.4,2-1.9c0.7-0.5,1.6-0.9,2.5-1.2c0.9-0.3,2-0.4,3.1-0.4c1.3,0,2.5,0.3,3.4,0.8
			c0.9,0.5,1.7,1.2,2.3,2.1c0.6,0.9,1,1.8,1.2,3c0.2,1.1,0.3,2.3,0.3,3.5l-5.7,0c0-0.4,0-0.9,0-1.4c0-0.5-0.1-0.9-0.2-1.3
			c-0.1-0.4-0.4-0.8-0.6-1c-0.3-0.3-0.7-0.4-1.3-0.5c-0.6,0-1.1,0.1-1.5,0.2c-0.4,0.2-0.7,0.5-1,0.8c-0.3,0.3-0.5,0.7-0.7,1.2
			c-0.2,0.4-0.3,0.9-0.4,1.4c-0.1,0.5-0.2,1-0.3,1.5c-0.1,0.5-0.1,0.9-0.2,1.4L94,29.8c0,0.3-0.1,0.7-0.1,1.1
			c-0.1,0.4-0.1,0.9-0.1,1.3c0,0.5,0,0.9,0,1.4c0,0.5,0.1,0.9,0.3,1.2c0.1,0.4,0.4,0.7,0.7,0.9C94.9,36,95.3,36.1,95.8,36.1z"/>
		<path class="st4" d="M108.4,28.1c0.2-1.5,0.5-3,1.1-4.4c0.5-1.4,1.3-2.7,2.2-3.7c0.9-1.1,2-2,3.3-2.6c1.3-0.6,2.8-0.9,4.5-0.9
			c1.1,0,2,0.2,2.9,0.5c0.8,0.3,1.6,0.8,2.2,1.3c0.6,0.5,1.1,1.2,1.5,1.9c0.4,0.7,0.7,1.5,0.9,2.4c0.2,0.8,0.4,1.7,0.4,2.7
			c0,0.9,0,1.9-0.1,2.8l-0.2,1.6c-0.2,1.5-0.5,3-1.1,4.4c-0.5,1.4-1.3,2.7-2.2,3.7c-0.9,1.1-2,1.9-3.3,2.6c-1.3,0.6-2.8,0.9-4.5,0.9
			c-1.6,0-3-0.4-4-1.1c-1.1-0.7-1.9-1.6-2.5-2.6c-0.6-1.1-1-2.3-1.2-3.7c-0.2-1.4-0.2-2.8-0.1-4.2L108.4,28.1z M114.4,29.7
			c0,0.3-0.1,0.7-0.1,1.1c0,0.4-0.1,0.9-0.1,1.3c0,0.5,0,0.9,0.1,1.4c0.1,0.5,0.2,0.9,0.4,1.2c0.2,0.4,0.4,0.7,0.7,0.9
			c0.3,0.2,0.7,0.4,1.2,0.4c0.8,0,1.5-0.1,2-0.6c0.5-0.4,1-1,1.3-1.6c0.3-0.7,0.6-1.4,0.7-2.1c0.2-0.8,0.3-1.5,0.3-2.1l0.2-1.6
			c0-0.3,0.1-0.7,0.1-1.1c0-0.4,0.1-0.9,0.1-1.4c0-0.5,0-0.9-0.1-1.4c-0.1-0.5-0.2-0.9-0.4-1.3c-0.2-0.4-0.4-0.7-0.7-0.9
			c-0.3-0.2-0.7-0.4-1.2-0.4c-0.8,0-1.5,0.2-2,0.6c-0.5,0.4-1,1-1.3,1.7c-0.3,0.7-0.6,1.4-0.7,2.2c-0.2,0.8-0.3,1.4-0.3,2
			L114.4,29.7z"/>
		<path class="st4" d="M138.2,36.1c0.5,0,1-0.1,1.3-0.3c0.4-0.2,0.7-0.5,0.9-0.8c0.2-0.3,0.4-0.7,0.6-1.2c0.1-0.4,0.2-0.9,0.3-1.3
			l5.7,0c-0.1,1.2-0.4,2.4-0.9,3.5c-0.5,1.1-1.1,2-1.9,2.8c-0.8,0.8-1.7,1.4-2.8,1.8c-1.1,0.4-2.3,0.6-3.6,0.6c-1.7,0-3-0.4-4.1-1.1
			c-1.1-0.7-1.9-1.5-2.5-2.6c-0.6-1.1-0.9-2.3-1.1-3.6c-0.2-1.4-0.2-2.8,0-4.2l0.2-1.7c0.1-1,0.3-2,0.6-3c0.3-1,0.6-1.9,1-2.8
			c0.4-0.9,0.9-1.7,1.5-2.4c0.6-0.7,1.2-1.4,2-1.9c0.8-0.5,1.6-0.9,2.5-1.2c0.9-0.3,2-0.4,3.1-0.4c1.4,0,2.5,0.3,3.4,0.8
			c0.9,0.5,1.7,1.2,2.3,2.1c0.6,0.9,1,1.8,1.2,3c0.2,1.1,0.3,2.3,0.3,3.5l-5.7,0c0-0.4,0-0.9,0-1.4c0-0.5-0.1-0.9-0.2-1.3
			c-0.1-0.4-0.4-0.8-0.7-1c-0.3-0.3-0.7-0.4-1.3-0.5c-0.6,0-1.1,0.1-1.5,0.2c-0.4,0.2-0.7,0.5-1,0.8c-0.3,0.3-0.5,0.7-0.7,1.2
			c-0.2,0.4-0.3,0.9-0.4,1.4c-0.1,0.5-0.2,1-0.3,1.5c-0.1,0.5-0.1,0.9-0.2,1.4l-0.2,1.7c0,0.3-0.1,0.7-0.1,1.1
			c-0.1,0.4-0.1,0.9-0.1,1.3c0,0.5,0,0.9,0,1.4c0,0.5,0.1,0.9,0.3,1.2c0.1,0.4,0.4,0.7,0.7,0.9C137.3,36,137.7,36.1,138.2,36.1z"/>
		<path class="st4" d="M150.8,28.1c0.2-1.5,0.5-3,1.1-4.4c0.5-1.4,1.3-2.7,2.2-3.7c0.9-1.1,2-2,3.3-2.6c1.3-0.6,2.8-0.9,4.5-0.9
			c1.1,0,2,0.2,2.9,0.5c0.8,0.3,1.5,0.8,2.2,1.3c0.6,0.5,1.1,1.2,1.5,1.9c0.4,0.7,0.7,1.5,0.9,2.4c0.2,0.8,0.4,1.7,0.4,2.7
			c0,0.9,0,1.9-0.1,2.8l-0.2,1.6c-0.2,1.5-0.5,3-1.1,4.4c-0.5,1.4-1.3,2.7-2.2,3.7c-0.9,1.1-2,1.9-3.3,2.6c-1.3,0.6-2.8,0.9-4.5,0.9
			c-1.6,0-3-0.4-4-1.1c-1.1-0.7-1.9-1.6-2.5-2.6c-0.6-1.1-1-2.3-1.2-3.7c-0.2-1.4-0.2-2.8-0.1-4.2L150.8,28.1z M156.7,29.7
			c0,0.3-0.1,0.7-0.1,1.1c0,0.4-0.1,0.9-0.1,1.3c0,0.5,0,0.9,0.1,1.4c0.1,0.5,0.2,0.9,0.4,1.2c0.2,0.4,0.4,0.7,0.7,0.9
			c0.3,0.2,0.7,0.4,1.2,0.4c0.8,0,1.5-0.1,2-0.6c0.5-0.4,0.9-1,1.3-1.6c0.3-0.7,0.6-1.4,0.7-2.1c0.2-0.8,0.3-1.5,0.3-2.1l0.2-1.6
			c0-0.3,0.1-0.7,0.1-1.1c0-0.4,0.1-0.9,0.1-1.4c0-0.5,0-0.9-0.1-1.4c-0.1-0.5-0.2-0.9-0.4-1.3c-0.2-0.4-0.4-0.7-0.7-0.9
			c-0.3-0.2-0.7-0.4-1.2-0.4c-0.8,0-1.5,0.2-2,0.6c-0.5,0.4-1,1-1.3,1.7c-0.3,0.7-0.6,1.4-0.7,2.2c-0.2,0.8-0.3,1.4-0.3,2
			L156.7,29.7z"/>
		<path class="st4" d="M189.9,30.3l4.4-13.3h6l-8.9,23.8h-5l-0.9-13.7l-5.6,13.7h-5.1L174,17h5.7l-0.3,13.2l5.4-13.2h4.3L189.9,30.3
			z"/>
		<path class="st4" d="M200.7,28.1c0.2-1.5,0.5-3,1.1-4.4c0.5-1.4,1.3-2.7,2.2-3.7c0.9-1.1,2-2,3.3-2.6c1.3-0.6,2.8-0.9,4.5-0.9
			c1.1,0,2,0.2,2.9,0.5c0.8,0.3,1.5,0.8,2.2,1.3c0.6,0.5,1.1,1.2,1.5,1.9c0.4,0.7,0.7,1.5,0.9,2.4c0.2,0.8,0.4,1.7,0.4,2.7
			c0,0.9,0,1.9-0.1,2.8l-0.2,1.6c-0.2,1.5-0.5,3-1.1,4.4c-0.5,1.4-1.3,2.7-2.2,3.7c-0.9,1.1-2,1.9-3.3,2.6c-1.3,0.6-2.8,0.9-4.5,0.9
			c-1.6,0-3-0.4-4-1.1c-1.1-0.7-1.9-1.6-2.5-2.6c-0.6-1.1-1-2.3-1.2-3.7c-0.2-1.4-0.2-2.8-0.1-4.2L200.7,28.1z M206.6,29.7
			c0,0.3-0.1,0.7-0.1,1.1c0,0.4-0.1,0.9-0.1,1.3c0,0.5,0,0.9,0.1,1.4c0.1,0.5,0.2,0.9,0.4,1.2c0.2,0.4,0.4,0.7,0.7,0.9
			c0.3,0.2,0.7,0.4,1.2,0.4c0.8,0,1.5-0.1,2-0.6c0.5-0.4,0.9-1,1.3-1.6c0.3-0.7,0.5-1.4,0.7-2.1c0.2-0.8,0.3-1.5,0.3-2.1l0.2-1.6
			c0-0.3,0.1-0.7,0.1-1.1c0-0.4,0.1-0.9,0.1-1.4c0-0.5,0-0.9-0.1-1.4c-0.1-0.5-0.2-0.9-0.4-1.3c-0.2-0.4-0.4-0.7-0.7-0.9
			c-0.3-0.2-0.7-0.4-1.2-0.4c-0.8,0-1.5,0.2-2,0.6c-0.5,0.4-1,1-1.3,1.7c-0.3,0.7-0.6,1.4-0.7,2.2c-0.2,0.8-0.3,1.4-0.3,2
			L206.6,29.7z"/>
	</g>
</g>
<path class="st1" d="M133.8,50.5h-4.3v19c0,2.3-0.6,3.4-2.4,4.1c-1.9,0.6-4.7,0.7-8.5,0.7c-0.3-1.1-1.2-3-1.8-4
	c2.7,0.1,5.9,0.1,6.9,0.1c0.9,0,1.2-0.2,1.2-0.9v-19H99.9v-3.8h33.9V50.5z M107.7,66.4v2.4h-4.4V54.1h16v12.4H107.7z M107.7,57.7
	v5.1h7.2v-5.1H107.7z"/>
<path class="st1" d="M174.4,50.5h-4.3v19c0,2.3-0.6,3.4-2.4,4.1c-1.9,0.6-4.7,0.7-8.5,0.7c-0.3-1.1-1.2-3-1.8-4
	c2.7,0.1,5.9,0.1,6.9,0.1c0.9,0,1.2-0.2,1.2-0.9v-19h-24.9v-3.8h33.9V50.5z M148.3,66.4v2.4H144V54.1h16v12.4H148.3z M148.3,57.7
	v5.1h7.2v-5.1H148.3z"/>
<path class="st1" d="M216,46.7v4.6h-4.5v-1.7H205v1.4c0,0.6,0.1,1,1.1,1h4c1.1,0,3-0.1,3.6-0.3c0.1,1.1,0.2,1.8,0.3,2.6
	c-0.7,0.2-2.4,0.3-3.7,0.3h-5.6c-3.6,0-4.3-1.3-4.3-3.6v-1.4h-2.8c-0.8,3.4-3.1,4.9-11.9,5.6c-0.3-0.9-1.2-2.1-1.9-2.7
	c7-0.3,8.6-1.1,9.2-2.9h-6v2.1h-4.3v-5.1h13.9c-0.2-0.6-0.4-1.2-0.6-1.7l4.6-0.9c0.3,0.8,0.8,1.7,1.1,2.6H216z M214.4,63.1v7.6
	c0,1.6-0.4,2.5-1.7,3c-1.3,0.5-3.1,0.5-5.4,0.5c-0.1-0.8-0.6-1.8-1.1-2.6v1h-10.3v1.1h-4v-6.7h14.3V71c1.3,0.1,2.7,0.1,3.1,0
	c0.5,0,0.6-0.1,0.6-0.4v-4.8h-21.5v8.5H184V63.1h3.6v-7.7h23.2v7.7H214.4z M191.8,63.1h3.5v-3.6h11.1v-1.3h-14.7V63.1z M202.1,68.9
	h-6.1v1.5h6.1V68.9z M206.5,61.4h-7v1.6h7V61.4z"/>
</svg>
