<?xml version="1.0" encoding="utf-8"?>
<!-- Generator: Adobe Illustrator 16.0.0, SVG Export Plug-In . SVG Version: 6.00 Build 0)  -->
<!DOCTYPE svg PUBLIC "-//W3C//DTD SVG 1.1//EN" "http://www.w3.org/Graphics/SVG/1.1/DTD/svg11.dtd">
<svg version="1.1" id="圖層_1" xmlns="http://www.w3.org/2000/svg" xmlns:xlink="http://www.w3.org/1999/xlink" x="0px" y="0px"
	 width="135px" height="50px" viewBox="0 0 135 50" style="enable-background:new 0 0 135 50;" xml:space="preserve">
<style type="text/css">
<![CDATA[
	.st0{fill:#80D8FF;}
	.st1{fill:#606060;}
	.st2{fill:#616161;}
	.st3{fill:#FFD600;}
	.st4{fill:#0091EA;}
	.st5{fill:#00B0FF;}
	.st6{fill:#0277BD;}
	.st7{fill:#40C4FF;}
]]>
</style>
<polygon class="st6" points="56.3,31.6 42.7,49.2 42.3,48.5 56.1,30.8 "/>
<polygon class="st7" points="56.1,30.8 42.1,48.6 28.2,30.8 "/>
<g>
	<circle class="st3" cx="32.3" cy="28.5" r="8.1"/>
	<circle class="st3" cx="44.5" cy="22.9" r="3.1"/>
	<path class="st3" d="M41.4,22.1c-0.5,1.5-1.1,2.9-3.5,0.7c0.4,2.9,2.2,4.8,2.4,4.9c-0.4-1.7,0.4-3.3,2.8-2
		C43.1,24,42.3,22.1,41.4,22.1z"/>
</g>
<polygon class="st4" points="42.7,49.2 14.8,49.2 28.7,25 "/>
<g>
	<polygon class="st5" points="14.8,49.2 28.7,25 0.8,25 	"/>
</g>
<polygon class="st6" points="42.7,0.8 43.1,1.6 29.2,25.8 28.7,25 "/>
<polyline class="st6" points="43.1,48.5 29.2,24.3 28.7,25 42.7,49.2 "/>
<polygon class="st0" points="28.7,25 0.8,25 14.8,0.8 14.8,0.8 42.7,0.8 28.7,25 "/>
<g>
	<g>
		<path class="st2" d="M53.9,27.1c0.3,0,0.5,0,0.7-0.1c0.2-0.1,0.3-0.2,0.4-0.4c0.1-0.2,0.2-0.4,0.3-0.6c0.1-0.2,0.1-0.4,0.2-0.6
			l2.8,0c-0.1,0.6-0.2,1.2-0.4,1.7c-0.2,0.5-0.5,1-0.9,1.4c-0.4,0.4-0.9,0.7-1.4,0.9c-0.5,0.2-1.1,0.3-1.8,0.3c-0.8,0-1.5-0.2-2-0.5
			c-0.5-0.3-0.9-0.8-1.2-1.3c-0.3-0.5-0.5-1.1-0.5-1.8c-0.1-0.7-0.1-1.4,0-2.1l0.1-0.8c0.1-0.5,0.2-1,0.3-1.5
			c0.1-0.5,0.3-0.9,0.5-1.4c0.2-0.4,0.5-0.8,0.7-1.2c0.3-0.4,0.6-0.7,1-0.9c0.4-0.3,0.8-0.4,1.3-0.6c0.5-0.1,1-0.2,1.5-0.2
			c0.7,0,1.2,0.2,1.7,0.4c0.5,0.3,0.8,0.6,1.1,1s0.5,0.9,0.6,1.5c0.1,0.5,0.2,1.1,0.1,1.7l-2.8,0c0-0.2,0-0.4,0-0.7
			c0-0.2,0-0.5-0.1-0.7c-0.1-0.2-0.2-0.4-0.3-0.5C55.5,20,55.3,20,55,20c-0.3,0-0.5,0-0.7,0.1c-0.2,0.1-0.4,0.2-0.5,0.4
			c-0.1,0.2-0.3,0.4-0.3,0.6c-0.1,0.2-0.2,0.4-0.2,0.7c-0.1,0.2-0.1,0.5-0.1,0.7c0,0.2-0.1,0.5-0.1,0.7L53,24c0,0.2,0,0.3-0.1,0.6
			c0,0.2-0.1,0.4-0.1,0.7c0,0.2,0,0.5,0,0.7c0,0.2,0.1,0.4,0.1,0.6c0.1,0.2,0.2,0.3,0.3,0.4C53.4,27,53.6,27.1,53.9,27.1z"/>
		<path class="st2" d="M60.1,23.2c0.1-0.7,0.3-1.5,0.5-2.2c0.3-0.7,0.6-1.3,1.1-1.9c0.4-0.5,1-1,1.6-1.3c0.6-0.3,1.4-0.5,2.2-0.4
			c0.5,0,1,0.1,1.4,0.3c0.4,0.2,0.8,0.4,1.1,0.6c0.3,0.3,0.5,0.6,0.7,1c0.2,0.4,0.3,0.8,0.5,1.2c0.1,0.4,0.2,0.9,0.2,1.3
			c0,0.5,0,0.9,0,1.4l-0.1,0.8c-0.1,0.7-0.3,1.5-0.5,2.2c-0.3,0.7-0.6,1.3-1.1,1.8c-0.4,0.5-1,1-1.6,1.3c-0.6,0.3-1.4,0.5-2.2,0.4
			c-0.8,0-1.5-0.2-2-0.5c-0.5-0.3-0.9-0.8-1.2-1.3c-0.3-0.5-0.5-1.1-0.6-1.8c-0.1-0.7-0.1-1.4,0-2.1L60.1,23.2z M63,23.9
			c0,0.2,0,0.3,0,0.6c0,0.2,0,0.4,0,0.7c0,0.2,0,0.5,0,0.7c0,0.2,0.1,0.4,0.2,0.6c0.1,0.2,0.2,0.3,0.3,0.5c0.1,0.1,0.3,0.2,0.6,0.2
			c0.4,0,0.8-0.1,1-0.3c0.3-0.2,0.5-0.5,0.6-0.8c0.2-0.3,0.3-0.7,0.3-1.1c0.1-0.4,0.1-0.7,0.2-1l0.1-0.8c0-0.2,0-0.3,0-0.6
			c0-0.2,0-0.4,0-0.7c0-0.2,0-0.5-0.1-0.7c0-0.2-0.1-0.4-0.2-0.6c-0.1-0.2-0.2-0.3-0.4-0.5C65.7,20,65.5,20,65.2,20
			c-0.4,0-0.7,0.1-1,0.3c-0.3,0.2-0.5,0.5-0.6,0.8c-0.2,0.3-0.3,0.7-0.4,1.1c-0.1,0.4-0.1,0.7-0.2,1L63,23.9z"/>
		<path class="st2" d="M74.8,27.1c0.3,0,0.5,0,0.7-0.1c0.2-0.1,0.3-0.2,0.4-0.4c0.1-0.2,0.2-0.4,0.3-0.6c0.1-0.2,0.1-0.4,0.2-0.6
			l2.8,0c-0.1,0.6-0.2,1.2-0.4,1.7c-0.2,0.5-0.6,1-0.9,1.4c-0.4,0.4-0.9,0.7-1.4,0.9s-1.1,0.3-1.8,0.3c-0.8,0-1.5-0.2-2-0.5
			c-0.5-0.3-0.9-0.8-1.2-1.3c-0.3-0.5-0.5-1.1-0.5-1.8c-0.1-0.7-0.1-1.4,0-2.1l0.1-0.8c0.1-0.5,0.2-1,0.3-1.5
			c0.1-0.5,0.3-0.9,0.5-1.4c0.2-0.4,0.5-0.8,0.7-1.2c0.3-0.4,0.6-0.7,1-0.9c0.4-0.3,0.8-0.4,1.3-0.6c0.5-0.1,1-0.2,1.5-0.2
			c0.7,0,1.2,0.2,1.7,0.4c0.5,0.3,0.8,0.6,1.1,1c0.3,0.4,0.5,0.9,0.6,1.5c0.1,0.5,0.2,1.1,0.1,1.7L77,22c0-0.2,0-0.4,0-0.7
			c0-0.2,0-0.5-0.1-0.7c-0.1-0.2-0.2-0.4-0.3-0.5C76.4,20,76.2,20,75.9,20c-0.3,0-0.5,0-0.7,0.1c-0.2,0.1-0.4,0.2-0.5,0.4
			c-0.1,0.2-0.2,0.4-0.3,0.6c-0.1,0.2-0.2,0.4-0.2,0.7C74.1,22,74,22.2,74,22.4s-0.1,0.5-0.1,0.7L73.9,24c0,0.2,0,0.3-0.1,0.6
			c0,0.2-0.1,0.4-0.1,0.7c0,0.2,0,0.5,0,0.7c0,0.2,0.1,0.4,0.1,0.6c0.1,0.2,0.2,0.3,0.3,0.4C74.3,27,74.5,27.1,74.8,27.1z"/>
		<path class="st2" d="M81,23.2c0.1-0.7,0.3-1.5,0.5-2.2c0.3-0.7,0.6-1.3,1.1-1.9c0.4-0.5,1-1,1.6-1.3c0.6-0.3,1.4-0.5,2.2-0.4
			c0.5,0,1,0.1,1.4,0.3c0.4,0.2,0.8,0.4,1.1,0.6c0.3,0.3,0.5,0.6,0.7,1c0.2,0.4,0.3,0.8,0.5,1.2c0.1,0.4,0.2,0.9,0.2,1.3
			c0,0.5,0,0.9,0,1.4l-0.1,0.8c-0.1,0.7-0.3,1.5-0.5,2.2c-0.3,0.7-0.6,1.3-1.1,1.8c-0.4,0.5-1,1-1.6,1.3c-0.6,0.3-1.4,0.5-2.2,0.4
			c-0.8,0-1.5-0.2-2-0.5c-0.5-0.3-0.9-0.8-1.2-1.3c-0.3-0.5-0.5-1.1-0.6-1.8c-0.1-0.7-0.1-1.4,0-2.1L81,23.2z M83.9,23.9
			c0,0.2,0,0.3,0,0.6c0,0.2,0,0.4,0,0.7c0,0.2,0,0.5,0,0.7c0,0.2,0.1,0.4,0.2,0.6c0.1,0.2,0.2,0.3,0.3,0.5c0.1,0.1,0.3,0.2,0.6,0.2
			c0.4,0,0.8-0.1,1-0.3c0.3-0.2,0.5-0.5,0.6-0.8c0.2-0.3,0.3-0.7,0.3-1.1c0.1-0.4,0.1-0.7,0.2-1l0.1-0.8c0-0.2,0-0.3,0-0.6
			c0-0.2,0-0.4,0-0.7c0-0.2,0-0.5-0.1-0.7c0-0.2-0.1-0.4-0.2-0.6c-0.1-0.2-0.2-0.3-0.4-0.5C86.6,20,86.4,20,86.1,20
			c-0.4,0-0.7,0.1-1,0.3c-0.3,0.2-0.5,0.5-0.6,0.8c-0.2,0.3-0.3,0.7-0.4,1.1c-0.1,0.4-0.1,0.7-0.2,1L83.9,23.9z"/>
		<path class="st2" d="M100.3,24.2l2.2-6.6h2.9L101,29.4h-2.5l-0.4-6.8l-2.8,6.8h-2.5l-0.3-11.8h2.8l-0.1,6.5l2.6-6.5h2.1
			L100.3,24.2z"/>
		<path class="st2" d="M105.6,23.2c0.1-0.7,0.3-1.5,0.5-2.2c0.3-0.7,0.6-1.3,1.1-1.9c0.4-0.5,1-1,1.6-1.3c0.6-0.3,1.4-0.5,2.2-0.4
			c0.5,0,1,0.1,1.4,0.3c0.4,0.2,0.8,0.4,1.1,0.6c0.3,0.3,0.5,0.6,0.7,1c0.2,0.4,0.3,0.8,0.5,1.2c0.1,0.4,0.2,0.9,0.2,1.3
			c0,0.5,0,0.9,0,1.4l-0.1,0.8c-0.1,0.7-0.3,1.5-0.5,2.2c-0.3,0.7-0.6,1.3-1.1,1.8c-0.4,0.5-1,1-1.6,1.3c-0.6,0.3-1.4,0.5-2.2,0.4
			c-0.8,0-1.5-0.2-2-0.5c-0.5-0.3-0.9-0.8-1.2-1.3c-0.3-0.5-0.5-1.1-0.6-1.8c-0.1-0.7-0.1-1.4,0-2.1L105.6,23.2z M108.6,23.9
			c0,0.2,0,0.3,0,0.6c0,0.2,0,0.4,0,0.7c0,0.2,0,0.5,0,0.7s0.1,0.4,0.2,0.6c0.1,0.2,0.2,0.3,0.3,0.5c0.1,0.1,0.3,0.2,0.6,0.2
			c0.4,0,0.8-0.1,1-0.3c0.3-0.2,0.5-0.5,0.6-0.8c0.2-0.3,0.3-0.7,0.3-1.1c0.1-0.4,0.1-0.7,0.2-1l0.1-0.8c0-0.2,0-0.3,0-0.6
			c0-0.2,0-0.4,0-0.7c0-0.2,0-0.5-0.1-0.7c0-0.2-0.1-0.4-0.2-0.6c-0.1-0.2-0.2-0.3-0.4-0.5c-0.2-0.1-0.3-0.2-0.6-0.2
			c-0.4,0-0.7,0.1-1,0.3c-0.3,0.2-0.5,0.5-0.6,0.8c-0.2,0.3-0.3,0.7-0.4,1.1c-0.1,0.4-0.1,0.7-0.2,1L108.6,23.9z"/>
		<path class="st2" d="M123,20.6c-0.2,0-0.3,0-0.5-0.1c-0.2,0-0.3,0-0.5,0c-0.4,0-0.8,0.1-1.1,0.3c-0.3,0.2-0.6,0.5-0.8,0.8
			l-1.4,7.8h-3l2-11.8l2.8,0l-0.2,1.3c0.1-0.2,0.3-0.4,0.4-0.6s0.3-0.3,0.5-0.5c0.2-0.1,0.4-0.3,0.6-0.3c0.2-0.1,0.4-0.1,0.7-0.1
			c0.2,0,0.3,0,0.5,0c0.2,0,0.3,0.1,0.5,0.1L123,20.6z"/>
		<path class="st2" d="M127.7,24.9l-1.1,1l-0.6,3.5h-3l2.9-16.7h3l-1.7,9.1l0.5-0.6l2.7-3.5h3.8l-4.3,5l2.4,6.8H129L127.7,24.9z"/>
	</g>
</g>
<g>
	<g>
		<path class="st1" d="M74.9,35.5h-2.1v9.4c0,1.1-0.3,1.7-1.2,2c-0.9,0.3-2.3,0.3-4.2,0.3c-0.1-0.6-0.6-1.5-0.9-2
			c1.3,0.1,2.9,0,3.4,0c0.4,0,0.6-0.1,0.6-0.4v-9.4H58.2v-1.9h16.7V35.5z M62,43.4v1.2h-2.2v-7.3h7.9v6.1H62z M62,39.1v2.5h3.5v-2.5
			H62z"/>
		<path class="st1" d="M102.8,35.5h-2.1v9.4c0,1.1-0.3,1.7-1.2,2c-0.9,0.3-2.3,0.3-4.2,0.3c-0.1-0.6-0.6-1.5-0.9-2
			c1.3,0.1,2.9,0,3.4,0c0.4,0,0.6-0.1,0.6-0.4v-9.4H86.1v-1.9h16.7V35.5z M89.9,43.4v1.2h-2.2v-7.3h7.9v6.1H89.9z M89.9,39.1v2.5
			h3.5v-2.5H89.9z"/>
		<path class="st1" d="M130.6,33.7V36h-2.2v-0.8h-3.2v0.7c0,0.3,0.1,0.5,0.6,0.5h2c0.5,0,1.5,0,1.8-0.1c0.1,0.5,0.1,0.9,0.2,1.3
			c-0.4,0.1-1.2,0.1-1.8,0.1h-2.8c-1.8,0-2.1-0.6-2.1-1.8v-0.7h-1.4c-0.4,1.7-1.5,2.4-5.9,2.8c-0.1-0.4-0.6-1-0.9-1.4
			c3.4-0.2,4.3-0.5,4.5-1.4h-3v1.1h-2.1v-2.5h6.8c-0.1-0.3-0.2-0.6-0.3-0.8l2.3-0.4c0.2,0.4,0.4,0.9,0.5,1.3H130.6z M129.8,41.8v3.7
			c0,0.8-0.2,1.2-0.8,1.5c-0.6,0.3-1.5,0.3-2.7,0.3c-0.1-0.4-0.3-0.9-0.5-1.3v0.5h-5.1V47h-2v-3.3h7v2.1c0.7,0,1.3,0,1.5,0
			c0.2,0,0.3-0.1,0.3-0.2v-2.4H117v4.2h-2.2v-5.6h1.8V38H128v3.8H129.8z M118.7,41.8h1.7V40h5.5v-0.6h-7.2V41.8z M123.7,44.6h-3v0.7
			h3V44.6z M125.9,41h-3.5v0.8h3.5V41z"/>
	</g>
</g>
</svg>
