<?xml version="1.0" encoding="utf-8"?>
<!-- Generator: Adobe Illustrator 16.0.0, SVG Export Plug-In . SVG Version: 6.00 Build 0)  -->
<!DOCTYPE svg PUBLIC "-//W3C//DTD SVG 1.1//EN" "http://www.w3.org/Graphics/SVG/1.1/DTD/svg11.dtd">
<svg version="1.1" id="圖層_1" xmlns="http://www.w3.org/2000/svg" xmlns:xlink="http://www.w3.org/1999/xlink" x="0px" y="0px"
	 width="2500px" height="500px" viewBox="0 0 2500 500" enable-background="new 0 0 2500 500" xml:space="preserve">
<path fill="#FFFFFF" d="M1399.563,370.905c5.224-9.215,8.227-19.815,8.227-31.139c0-35.13-28.648-63.595-63.988-63.595
	c-5.663,0-11.121,0.806-16.347,2.182c-15.081-87.672-91.878-154.416-184.393-154.416c-74.078,0-138.094,42.775-168.415,104.819
	c-11.298-5.1-23.837-7.968-37.054-7.968c-22.347,0-42.774,8.143-58.472,21.587c-11.014-36.825-45.315-63.692-85.949-63.692
	c-29.607,0-55.865,14.274-72.194,36.262c-31.578-29.553-75.569-47.906-124.252-47.906c-59.729,0-112.42,27.615-143.749,69.675
	c-14.507-10.027-32.119-15.926-51.129-15.926c-48.376,0-87.786,38.082-89.582,85.721c-16.211-16.048-38.577-25.975-63.267-25.975
	c-25.416,0-48.347,10.528-64.667,27.413c-12.347-39.132-49.127-67.525-92.58-67.525c-53.575,0-97.008,43.161-97.008,96.408
	c0,11.55-27.868,159.979,7.476,159.979c1.725,0,1375.62,0,1384.626,0c35.348,0,63.998-28.466,63.998-63.587
	C1450.844,402.436,1428.814,376.762,1399.563,370.905z"/>
<path fill="#FFFFFF" d="M2526.854,304.91c-51.18,0-93.639,34.523-101.897,79.837c-8.255-5.709-18.483-9.084-29.558-9.084
	c-4.673,0-9.182,0.606-13.457,1.731c-5.612-19.681-24.925-34.187-47.888-34.187c-8.904,0-17.265,2.192-24.483,6.015
	c-10.255-18.065-30.666-30.389-54.195-30.389c-28.014,0-51.619,17.473-58.893,41.317c-12.716-10.534-29.484-16.943-47.871-16.943
	c-17.079,0-32.756,5.535-45.094,14.769c0.067-1.188,0.107-2.389,0.107-3.593c0-36.865-32.201-66.749-71.92-66.749
	c-13.735,0-26.574,3.579-37.488,9.784c-18.657-37.369-59.392-63.303-106.675-63.303c-62.551,0-113.672,45.36-117.302,102.57
	c-40.976,6.495-72.17,39.59-72.17,79.475c0,44.542,38.903,80.648,86.891,80.648c0.729,0,750.236,0,750.236,0v-0.339
	C2588.381,492.525,2583.944,304.91,2526.854,304.91z"/>
<path fill="#FFFFFF" d="M1880.273,379.367c-12.127,0-23.404,3.638-32.789,9.87c-3.41-29.205-28.377-51.884-58.684-51.884
	c-28.99,0-53.09,20.753-58.113,48.124c-10.27-17.365-29.24-29.026-50.972-29.026c-16.712,0-31.79,6.902-42.541,17.987
	c-7.147-39.434-41.833-69.354-83.569-69.354c-42.901,0-78.356,31.607-84.102,72.67c-10.426-9.152-24.113-14.716-39.104-14.716
	c-9.7,0-18.84,2.336-26.916,6.449c-11.21-33.579-43.059-57.818-80.613-57.818c-42.374,0-77.496,30.833-83.892,71.158
	c-6.25-2.233-12.983-3.46-20.011-3.46c-32.638,0-59.092,26.289-59.092,58.723c0,30.769,23.828,56,54.146,58.498v0.222h666.252
	c32.639,0,59.098-26.288,59.098-58.72C1939.371,405.656,1912.912,379.367,1880.273,379.367z"/>
</svg>
