<?xml version="1.0" encoding="utf-8"?>
<?xml-stylesheet type="text/css" href="space_svg_motion.css"?>
<!-- Generator: Adobe Illustrator 16.0.0, SVG Export Plug-In . SVG Version: 6.00 Build 0)  -->
<!DOCTYPE svg PUBLIC "-//W3C//DTD SVG 1.1//EN" "http://www.w3.org/Graphics/SVG/1.1/DTD/svg11.dtd">
<svg version="1.1" id="talking_space" xmlns="http://www.w3.org/2000/svg" xmlns:xlink="http://www.w3.org/1999/xlink" x="0px" y="0px" width="750px" height="300px" viewBox="0 0 750 300" style="enable-background:new 0 0 750 300;" xml:space="preserve">
	<style type="text/css">
	<![CDATA[
		.st0{fill:#4785C6;}
		.st1{fill:#482F14;}
		.st2{fill:#7F4F21;}
		.st3{fill:#7FCAC2;}
		.st4{fill:#121835;}
		.st5{fill:#12B8D7;}
		.st6{fill:#E38940;}
		.st7{fill:#E3CD62;}
		.st8{fill:none;stroke:#566275;stroke-linecap:round;stroke-linejoin:round;stroke-miterlimit:10;}
		.st9{fill:#4B6BAE;}
		.st10{fill:#E62782;}
		.st11{fill:#E6C763;}
		.st12{fill:#4F9536;}
		.st13{fill:none;stroke:#5895D0;stroke-width:3;stroke-linecap:round;stroke-linejoin:round;stroke-miterlimit:10;}
		.st14{fill:#81B11A;}
		.st15{fill:#3E3A39;stroke:#484721;stroke-linecap:round;stroke-linejoin:round;stroke-miterlimit:10;}
		.st16{fill:none;stroke:#F5AE25;stroke-linecap:round;stroke-linejoin:round;stroke-miterlimit:10;}
		.st17{fill:none;stroke:#724F43;stroke-linecap:round;stroke-linejoin:round;stroke-miterlimit:10;}
		.st18{fill:#83B1DF;}
		.st19{fill:#1B499D;}
		.st20{fill:#EA5532;}
		.st21{fill:#EAC848;}
		.st22{fill:#EBEA6A;}
		.st23{fill:#898989;}
		.st24{fill:#ECCCB6;}
		.st25{fill:#B93F43;}
		.st26{fill:#B9C41A;}
		.st27{fill:#EDB763;}
		.st28{fill:#509867;}
		.st29{fill:#EFB78E;}
		.st30{fill:#528465;}
		.st31{fill:#55B76B;}
		.st32{fill:#595757;}
		.st33{fill:none;stroke:#2A4686;stroke-width:8;stroke-linecap:round;stroke-linejoin:round;stroke-miterlimit:10;}
		.st34{fill:none;stroke:#32588F;stroke-width:8;stroke-linecap:round;stroke-linejoin:round;stroke-miterlimit:10;}
		.st35{fill:#8FC31F;}
		.st36{fill:#8FC9EE;}
		.st37{fill:#229FC8;}
		.st38{fill:#F1983E;}
		.st39{fill:none;stroke:#724F43;stroke-width:0.25;stroke-linecap:round;stroke-linejoin:round;stroke-miterlimit:10;}
		.st40{fill:#F2EF82;}
		.st41{fill:#258EC6;}
		.st42{fill:#F6D963;}
		.st43{fill:#5C5C5C;}
		.st44{fill:#F7EABD;}
		.st45{opacity:0.2;fill:#FFFFFF;}
		.st46{fill:#92D1CF;}
		.st47{fill:none;stroke:#32588F;stroke-width:12;stroke-linecap:round;stroke-linejoin:round;stroke-miterlimit:10;}
		.st48{fill:none;stroke:#B28247;stroke-width:0.25;stroke-linecap:round;stroke-linejoin:round;stroke-miterlimit:10;}
		.st49{fill:#956134;}
		.st50{fill:#C65346;}
		.st51{fill:#2C63AF;}
		.st52{fill:#C84D1B;}
		.st53{fill:#C8A544;}
		.st54{fill:#2E8177;}
		.st55{opacity:0.2;}
		.st56{fill:#FFFFFF;}
		.st57{fill:none;stroke:#661638;stroke-width:0.5;stroke-linecap:round;stroke-miterlimit:10;}
		.st58{fill:#9BA7CB;}
		.st59{fill:#CCCCCC;}
		.st60{fill:#CDB44A;}
		.st61{fill:#9FA0A0;}
		.st62{fill:#32588F;}
		.st63{fill:none;stroke:#454C4E;stroke-width:12;stroke-linecap:round;stroke-miterlimit:10;}
		.st64{fill:#379489;}
		.st65{fill:#6C4B21;}
		.st66{fill:#3971B8;}
		.st67{fill:#0086D1;}
		.st68{fill:#552E21;stroke:#422413;stroke-width:0.5;stroke-linecap:round;stroke-linejoin:round;stroke-miterlimit:10;}
		.st69{fill:none;stroke:#EFB78E;stroke-width:9;stroke-linecap:round;stroke-miterlimit:10;}
		.st70{fill:#3B55A2;}
		.st71{fill:#D97CAF;}
		.st72{fill:#3F4142;}
		.st73{fill:#71BD61;}
		.st74{fill:#71C6CD;}
		.st75{fill:#724F43;}
		.st76{fill:#767777;}
		.st77{fill:none;stroke:#324D9F;stroke-width:5;stroke-linecap:round;stroke-linejoin:round;stroke-miterlimit:10;}
		.st78{fill:#77A8BB;}
		.st79{fill:#784221;}
		.st80{fill:#DBBC44;}
		.st81{fill:none;stroke:#C84D1B;stroke-miterlimit:10;}
		.st82{fill:#DD9613;}
		.st83{fill:none;stroke:#ECCCB6;stroke-width:10;stroke-linecap:round;stroke-miterlimit:10;}
		.st84{fill:#DDDDDD;}
		.st85{fill:#DDEAB4;}
		.st86{fill:#40220F;}
		.st87{fill:#422413;}
		.st88{opacity:0.3;fill:#F7F8F8;}
		.st89{fill:#454C4E;}
		.st90{fill:none;stroke:#006363;stroke-width:5;stroke-linecap:round;stroke-linejoin:round;stroke-miterlimit:10;}
	]]>
	</style>
	
	<g id="talking_shadow">
		<polygon class="st59" points="687.9,283.6 694.8,266.7 727.9,266.7 733.1,283.6 	"/>
		<polygon class="st59" points="639.3,233.5 443.1,192 487.1,180.5 647.1,211.1 	"/>
		<ellipse class="st59" cx="683.9" cy="229.1" rx="21.3" ry="7.1"/>
		<polygon class="st59" points="185.2,213.9 228.2,220.7 250.3,211 212.2,201.4 	"/>
		<polygon class="st59" points="118.2,176.2 72,274 110.1,274 153.3,176.2 	"/>
		
			<ellipse transform="matrix(1 -2.559224e-03 2.559224e-03 1 -0.6358 0.9432)" class="st59" cx="368.2" cy="248.9" rx="115.4" ry="21.5"/>
		<ellipse class="st59" cx="479.3" cy="204.3" rx="31.2" ry="8.4"/>
		<polygon class="st59" points="245.3,263.2 272.7,263 286.5,251.3 306.7,262.7 272,290.7 212.8,288.3 	"/>
		<polygon class="st59" points="417.7,262.7 362.9,267.2 391.1,290.2 450.3,287.8 	"/>
	</g>

	<g id="talking_man01">
		<ellipse id="Tman01_shadow" class="st59" cx="49" cy="199.3" rx="31.2" ry="8.4"/>
		<g id="Tman01_right_hand">
			<path class="st83" d="M31.6,92.3c0,0-0.8,30-13.9,49.9"/>
			<path class="st12" d="M37,91.8c0,1.2,0.1,6-1,11.8c-6.6,2.7-11.3-0.8-11.3-0.8c0.8-4.3,1.1-8.2,1-10.4c-0.1-2.8,2.4-5.1,5.5-5.3
				C34.3,86.9,36.9,89,37,91.8z"/>
		</g>
		<g id="Tman01_foot">
			<g id="Tman01_right_foot">
				<path class="st58" d="M44.5,187.1c1,2.5-0.2,5.4-2.7,6.4l-14,5.6c-2.5,1-5.4-0.2-6.4-2.7l0,0c-1-2.5,0.2-5.4,2.7-6.4l14-5.6
					C40.6,183.3,43.5,184.6,44.5,187.1L44.5,187.1z"/>
				<path class="st47" d="M37.9,137.6c0,0-8.2,35.5-0.7,47.1"/>
			</g>
			<g id="Tman01_left_foot">
				<path class="st58" d="M70.5,184.7c1.6,2.2,1,5.3-1.2,6.9l-12.4,8.7c-2.2,1.6-5.3,1-6.9-1.2l0,0c-1.6-2.2-1-5.3,1.2-6.9l12.4-8.7
					C65.8,181.9,68.9,182.5,70.5,184.7L70.5,184.7z"/>
				<path class="st47" d="M50.5,137.6c0,0,2.5,36.3,13.1,45.2"/>
			</g>
		</g>
		<g id="Tman01_body">
			<path class="st62" d="M27.8,122.3c0,2.1-3.4,23.2,16.6,19.7c9-1.6,17.1-8.3,17.2-14.7l-1-6.4c0,0-5.9-4.9-15.2-4.7
				C36.2,116.4,27.8,122.3,27.8,122.3z"/>
			<path class="st73" d="M27.3,119.9c0.4,6.5,8.3,11.3,17.6,10.7l0,0c9.3-0.6,16.5-6.4,16.1-12.8l-1.6-24.9
				c-0.4-6.5-8.3-11.3-17.6-10.7l0,0c-9.3,0.6-16.5,6.4-16,12.8L27.3,119.9z"/>
			<g id="Tman01_head">
				<path class="st29" d="M23.6,73.4c0,1,0.8,1.7,1.8,1.7l26.7-0.6c1,0,1.7-0.8,1.7-1.8l0,0c0-1-0.8-1.7-1.8-1.7l-26.7,0.6
					C24.4,71.6,23.6,72.4,23.6,73.4L23.6,73.4z"/>
				<g>
					<path class="st24" d="M27.2,71.8c-1.3,6.6,3,13,9.6,14.3c6.6,1.3,13-3,14.3-9.6c1.3-6.6-3-13-9.6-14.3
						C34.9,60.9,28.5,65.2,27.2,71.8z"/>
					<path class="st56" d="M38.1,73.9c-0.2,0.9,0.4,1.8,1.3,2c0.9,0.2,1.8-0.4,2-1.3c0.2-0.9-0.4-1.8-1.3-2
						C39.2,72.4,38.3,73,38.1,73.9z"/>
					<path class="st56" d="M44.4,73.9c-0.2,0.9,0.4,1.8,1.3,2s1.8-0.4,2-1.3c0.2-0.9-0.4-1.8-1.3-2C45.4,72.4,44.6,73,44.4,73.9z"/>
					<circle cx="47" cy="74.3" r="0.6"/>
					<path d="M40,74.2c-0.1,0.3,0.1,0.6,0.5,0.7c0.3,0.1,0.6-0.1,0.7-0.5c0.1-0.3-0.1-0.6-0.5-0.7C40.3,73.6,40,73.8,40,74.2z"/>
					<path class="st81" d="M39.6,77.4"/>
					<path class="st71" d="M42.4,76.2c0,0.4,0.4,0.7,0.8,0.7l0,0c0.4,0,0.7-0.4,0.7-0.8l-0.1-2.5c0-0.4-0.4-0.7-0.8-0.7l0,0
						c-0.4,0-0.7,0.4-0.7,0.8L42.4,76.2z"/>
					<line class="st57" x1="42.3" y1="79.5" x2="43.9" y2="79"/>
				</g>
				<path class="st82" d="M34.1,66.9c0,0-0.5,4.1-3.6,5l-1,4.9c0,0-0.6,0.9-1.5-0.2c0,0-0.5-0.9-0.4-1.4c0.1-0.6,0.1-2.9-0.7-3.8
					c-0.8-0.9,2.2-5.2,2.2-5.2L34.1,66.9z"/>
				<path class="st82" d="M26.3,65.4c0.5,2.5,0.4,2.1,1.1,3.9l22.4-3.4c1.7-0.3,3.8-4.9-0.2-6c0.1,0.1-11.7-2.4-20,0.4
					C27.7,60.9,25.8,62.9,26.3,65.4z"/>
				<path id="Tman01_eyebrow" class="st16" d="M40,69.7c0,0-0.8-1-2.2-0.2"/>
				<path id="Tman01_eyebrow" class="st16" d="M47,70.8c-1-1.3-2.1-0.2-2.2-0.2"/>
			</g>
			<g id="Tman01_left_hand">
				<path class="st83" d="M55.5,91.7c0,0,23.2,15.8,9.7,48"/>
				<path class="st12" d="M59.5,86.8c0.9,0.8,4.4,4.1,7.9,8.9c-2.6,6.6-8.4,7.7-8.4,7.7c-2.5-3.5-5.2-6.4-6.9-7.9
					c-2-1.9-2.1-5.3,0-7.7C54.1,85.4,57.4,85,59.5,86.8z"/>
			</g>
		</g>
	</g>

	<g id="talking_furniture03">
		<g>
			<rect x="690.1" y="81.2" class="st42" width="5.8" height="92.5"/>
			<polygon class="st27" points="685.1,167 690.1,173.7 690.1,81.2 685.1,81.2 		"/>
			<rect x="121.2" y="76.7" class="st42" width="575.3" height="4.5"/>
			<polygon class="st40" points="692.4,70.9 125.6,70.9 121.2,76.7 696.5,76.7 		"/>
			<rect x="121.2" y="81.2" class="st42" width="5.8" height="92.5"/>
			<rect x="262" y="81.2" class="st42" width="5.8" height="92.5"/>
			<rect x="410.5" y="81.2" class="st42" width="5.8" height="92.5"/>
			<polygon class="st27" points="132,167 127,173.7 127,81.2 132,81.2 		"/>
			<polygon class="st27" points="271,167 267.7,173.7 267.7,81.2 271,81.2 		"/>
			<polygon class="st27" points="408,167 410.5,173.7 410.5,81.2 408,81.2 		"/>
			<rect x="553.8" y="81.2" class="st42" width="5.8" height="92.5"/>
			<polygon class="st27" points="550.6,167 553.8,173.7 553.8,81.2 550.6,81.2 		"/>
			<rect x="559.6" y="80.9" class="st88" width="130.3" height="92.5"/>
			<rect x="127" y="81.2" class="st88" width="135" height="92.5"/>
			<rect x="267.7" y="81.2" class="st88" width="142.7" height="92.5"/>
			<rect x="416.2" y="81.2" class="st88" width="137.6" height="92.5"/>
		</g>
		<g>
			<line class="st33" x1="649.3" y1="211.9" x2="637.6" y2="160.2"/>
			<line class="st33" x1="504.4" y1="146.4" x2="489.2" y2="183.2"/>
			<line class="st77" x1="499.9" y1="167.8" x2="644.4" y2="194.1"/>
			<line class="st77" x1="477.5" y1="171.7" x2="493.8" y2="166.9"/>
			<line class="st77" x1="638" y1="207" x2="644.4" y2="195.4"/>
			<line class="st34" x1="631.8" y1="179.4" x2="643.5" y2="231.1"/>
			<line class="st34" x1="485" y1="153.6" x2="469.8" y2="190.4"/>
			<polygon class="st78" points="466.8,67.7 631.8,95.7 631.8,171.7 466.8,141.7 		"/>
			<polygon class="st3" points="631.8,95.7 646.3,85.7 646.3,171.7 626.3,187.2 626.3,175.4 631.8,171.7 		"/>
			<polygon class="st78" points="458.3,153.7 626.3,187.2 626.3,175.4 458.3,144.7 		"/>
			<polygon class="st3" points="466.8,141.7 458.3,144.7 626.3,175.4 631.8,171.7 		"/>
			<line class="st77" x1="477.4" y1="175.4" x2="637.6" y2="205.2"/>
			<polygon class="st3" points="466.8,67.7 485.8,58.2 646.3,85.7 631.8,95.7 		"/>
			<g>
				<path class="st8" d="M524.6,103.1c0.6,6.6,5.1,13.2,10.1,14.6c5,1.4,8.6-2.8,7.9-9.4c-0.6-6.6-5.1-13.2-10.1-14.6
					C527.6,92.3,524,96.5,524.6,103.1z"/>
				<line class="st8" x1="533.1" y1="91.9" x2="534.6" y2="107.7"/>
				<line class="st8" x1="549.6" y1="111.9" x2="534.6" y2="107.7"/>
				<line class="st8" x1="550.5" y1="107.8" x2="572.5" y2="116.4"/>
				<line class="st8" x1="569.6" y1="120.5" x2="568.3" y2="93.1"/>
				<line class="st8" x1="571" y1="96.8" x2="554" y2="112.2"/>
				<polygon class="st8" points="585.6,112.6 595.4,121.1 592.3,104.3 			"/>
				<path class="st8" d="M580,110.5c0.2,4.9,2.9,9.9,6,11.1c3.1,1.2,5.3-1.8,5.1-6.8c-0.2-4.9-2.9-9.9-6-11.1
					C582.1,102.5,579.8,105.5,580,110.5z"/>
				<polygon class="st8" points="529.1,142 527.4,127.8 519.6,124.8 521.4,138.9 			"/>
				<line class="st8" x1="527.4" y1="127.8" x2="521.4" y2="138.9"/>
				<line class="st8" x1="519.6" y1="124.8" x2="529.1" y2="142"/>
			</g>
		</g>
		<g id="talking_flowerbox03">
			<g>
				<path class="st41" d="M698,228.1h-26v2c0,1.3,6,2.3,13.2,2.3c7.2,0,12.8-0.8,12.8-2.1C698,230.2,698,228.1,698,228.1z"/>
				<path class="st37" d="M697.7,228.4c0,1.3-5.8,2.3-13,2.3c-7.2,0-13-1-13-2.3c0-1.3,5.8-2.3,13-2.3
					C691.9,226.1,697.7,227.1,697.7,228.4z"/>
			</g>
			<g>
				<path class="st5" d="M663.3,197.5c0,0,1.8,13.9,1.8,21.3c0,8.6,8.2,10.3,19.5,10.3c9.8,0,19.1-1,19.1-10.3
					c0-7.4,1.8-21.3,1.8-21.3H663.3z"/>
				<path class="st67" d="M706.5,191.3c0,0-16.6,0-22.1,0c-5.6,0-22.2,0-22.2,0v6.2h44.4V191.3z"/>
			</g>
			<path class="st79" d="M708,191.2c0,0.2-0.1,0.4-0.3,0.6c-1.7,2-11.5,3.5-23.2,3.5c-13,0-23.5-1.8-23.5-4.1
				c0-2.3,10.5-4.1,23.5-4.1C697.5,187.1,708,188.9,708,191.2z"/>
			<path class="st51" d="M707.8,191.3c0-2.3-10.5-4.1-23.5-4.1c-13,0-23.6,1.8-23.6,4.1v4.9h0.3c0-2.3,10.5-4.1,23.5-4.1
				c11.8,0,21.5,1.5,23.2,3.5v-3.9C707.7,191.6,707.8,191.4,707.8,191.3z"/>
			<g id="talking_flower03">
				<g>
					<path class="st54" d="M680.1,178.3c-2.8-8.5-7.5-15.8-12.6-17.5c-0.5,14.2,7.8,30,11.3,35.6l3.6-1.4L680.1,178.3z"/>
					<g class="st55">
						<path class="st56" d="M680.3,194.4l-0.6,0.5c-0.4,0.3-0.8,0.6-1.2,0.9c0.1,0.2,0.3,0.4,0.4,0.6l2.9-1.1
							c0.2-0.2,0.5-0.3,0.7-0.5l-0.2-1.7C681.5,193.5,680.9,194,680.3,194.4z"/>
						<path class="st56" d="M677.4,191.5c0.9-0.8,1.6-1.3,2.3-1.8l0.5-0.3c0.5-0.3,0.9-0.6,1.4-0.9l-0.2-1.6c-0.1,0-0.2,0.1-0.3,0.1
							c-0.6,0.3-1.2,0.7-1.7,1.1l-0.5,0.3c-1,0.6-1.8,1.4-2.4,1.9l-0.6,0.5c0.2,0.5,0.5,1,0.7,1.4c0.1,0,0.1-0.1,0.2-0.1L677.4,191.5
							z"/>
						<path class="st56" d="M681,185.1l-0.2-1.7c-0.7,0.5-1.5,1-2.2,1.5c-1.6,1-3,2-4.3,3.1c0.2,0.5,0.5,1,0.7,1.4
							c1.3-1.1,2.8-2.2,4.4-3.2C679.9,185.8,680.5,185.5,681,185.1z"/>
						<path class="st56" d="M667.6,165.5c0.8-0.3,1.6-0.6,2.5-0.9c0.7-0.2,1.3-0.5,2-0.8c-0.4-0.4-0.8-0.8-1.3-1.2
							c-0.4,0.2-0.8,0.3-1.2,0.5c-0.7,0.3-1.4,0.5-2,0.8C667.5,164.5,667.6,165,667.6,165.5z"/>
						<path class="st56" d="M669.3,167.5c-0.4,0.1-0.9,0.3-1.4,0.5c0.1,0.5,0.2,1,0.2,1.6c0.5-0.2,1.1-0.4,1.6-0.6l0.4-0.1
							c0.9-0.3,1.7-0.6,2.6-0.9c0.6-0.2,1.3-0.3,1.9-0.5c0.1,0,0.1,0,0.2-0.1c-0.3-0.5-0.6-0.9-0.9-1.3c-0.5,0.1-1,0.3-1.5,0.4
							c-1,0.3-1.9,0.6-2.8,0.9L669.3,167.5z"/>
						<path class="st56" d="M674.1,171.3c0.6-0.2,1.3-0.5,1.9-0.7c0.2-0.1,0.5-0.1,0.8-0.2c-0.2-0.5-0.5-0.9-0.8-1.4
							c-0.1,0-0.3,0.1-0.4,0.1c-0.7,0.2-1.3,0.4-2,0.7c-0.5,0.2-0.9,0.3-1.4,0.5c-1.1,0.4-2.1,0.7-3.2,1l-0.4,0.1
							c0.1,0.5,0.2,1,0.4,1.5c0,0,0,0,0,0l0.4-0.1c1.1-0.3,2.2-0.6,3.3-1C673.1,171.7,673.6,171.5,674.1,171.3z"/>
						<path class="st56" d="M673.3,180.9l0.3-0.2c1.3-0.9,2.6-1.9,4-2.5c0.7-0.3,1.4-0.6,2.1-0.8c-0.2-0.5-0.3-1-0.5-1.4
							c-0.8,0.3-1.5,0.5-2.3,0.9c-1.5,0.7-2.9,1.7-4.2,2.7l-0.3,0.2c-0.4,0.3-0.8,0.6-1.2,0.9c0.2,0.5,0.4,1,0.5,1.5
							c0.1-0.1,0.2-0.2,0.3-0.2C672.5,181.5,672.9,181.2,673.3,180.9z"/>
						<path class="st56" d="M675.4,175c0.8-0.3,1.7-0.5,2.8-0.8c0.1,0,0.2,0,0.3-0.1c-0.2-0.5-0.4-1-0.6-1.4c0,0-0.1,0-0.1,0
							c-1.1,0.2-2.1,0.5-2.9,0.8c-1.2,0.4-2.4,1-3.8,1.9c-0.5,0.3-0.9,0.6-1.3,0.9c0.2,0.5,0.3,1,0.5,1.5c0.5-0.3,1.1-0.7,1.7-1.1
							C673.2,176,674.3,175.4,675.4,175z"/>
					</g>
				</g>
				<g>
					<path class="st64" d="M686.4,194.5c1.7-13.1,9.1-28.2,19.8-34c2.6,10.1-7.4,27.4-17.9,35.4L686.4,194.5z"/>
					<path class="st45" d="M687.2,190.4c-0.1,0.5-0.2,1-0.3,1.5c0.6,0.3,1.1,0.5,1.7,0.8c0.8,0.3,1.5,0.7,2.3,1.1
						c0.4-0.4,0.8-0.7,1.2-1.1c-0.9-0.5-1.9-0.9-2.8-1.4C688.4,191.1,687.8,190.8,687.2,190.4z M688,186.9c2.1,0.9,4.6,2.4,6.3,3.5
						c0.3-0.4,0.7-0.8,1-1.2c-2.5-1.5-4.8-2.9-6.8-3.7C688.3,185.9,688.2,186.4,688,186.9z M706.6,162.5c-0.6-0.4-1.2-0.7-1.9-1.1
						c-0.5,0.3-0.9,0.6-1.4,1c1.2,0.7,2.3,1.4,3.3,2C706.7,163.7,706.7,163.1,706.6,162.5z M687,194.9l1.5,1c0.1-0.1,0.2-0.2,0.3-0.3
						c-0.1-0.1-0.2-0.1-0.4-0.2C687.8,195.3,687.4,195.1,687,194.9z M689.7,181.8c-0.2,0.5-0.4,1-0.5,1.5c0.8,0.6,1.7,1.2,2.5,1.8
						c1.6,1.1,3.1,2.2,4.2,3.4c0.3-0.4,0.6-0.8,1-1.2c-1.1-1.3-2.7-2.3-4.3-3.4C691.5,183.2,690.6,182.5,689.7,181.8z M699.6,165.7
						c1.9,0.5,4.4,1.7,6.6,2.7c0,0,0,0,0.1,0c0.1-0.5,0.2-1,0.3-1.6c-2-1-4-1.9-5.7-2.4C700.4,164.9,700,165.3,699.6,165.7z
						 M696.6,169.2c-0.3,0.4-0.6,0.8-0.9,1.3c1.8,0.7,4,1.9,6,3c0.9,0.5,1.7,1,2.5,1.4c0.2-0.5,0.4-1,0.6-1.4
						c-0.8-0.4-1.6-0.9-2.4-1.3C700.3,171,698.3,169.9,696.6,169.2z M698,167.5c-0.3,0.4-0.7,0.8-1,1.2c1.5,1,4.1,1.8,6.7,2.6
						c0.5,0.2,1.1,0.3,1.7,0.5c0.2-0.5,0.3-1,0.4-1.5c-0.5-0.2-1.1-0.3-1.6-0.5C702,169.2,699.4,168.4,698,167.5z M694.2,172.8
						c-0.3,0.4-0.5,0.9-0.8,1.3c1,0.8,2.3,1.6,3.9,2.6c1.5,0.9,3.2,2,4.5,3.1c0.3-0.5,0.5-0.9,0.7-1.4c-1.3-1-2.9-2-4.5-3
						C696.8,174.6,695.3,173.6,694.2,172.8z M692.1,176.4c-0.2,0.5-0.5,0.9-0.7,1.4c2.6,1,6,3,8.3,4.4c0.2,0.1,0.3,0.2,0.4,0.3
						c0.3-0.4,0.5-0.9,0.8-1.3c-0.2-0.1-0.3-0.2-0.5-0.3C697.3,179,694.4,177.4,692.1,176.4z"/>
				</g>
				<g>
					<path class="st64" d="M684.9,195.6c0-16-2.1-41.1-10.4-50.9c-3.7,11.6,1.7,42.5,5.9,51.7L684.9,195.6z"/>
					<g class="st55">
						<path class="st56" d="M682.4,185c0.8-0.1,1.5-0.2,2.2-0.3c0-0.5-0.1-1-0.1-1.5c-0.8,0.1-1.5,0.2-2.4,0.3
							c-0.8,0.1-1.6,0.3-2.4,0.4c-0.9,0.1-1.9,0.3-2.9,0.5c0.1,0.5,0.2,1,0.3,1.5c0.9-0.2,1.8-0.3,2.7-0.5
							C680.8,185.3,681.6,185.2,682.4,185z"/>
						<path class="st56" d="M673.6,162.6c0,0.5,0.1,1,0.1,1.5c1-0.2,2-0.4,2.9-0.6c1.7-0.4,3.5-0.5,5.3-0.5c-0.1-0.5-0.2-1-0.3-1.5
							c-1.7,0-3.5,0.2-5.2,0.5C675.5,162.2,674.6,162.4,673.6,162.6z"/>
						<path class="st56" d="M678.6,157.7l-0.6,0c-0.9,0.1-1.8,0.1-2.7,0.3c-0.7,0.1-1.3,0.3-2,0.5c0,0.5,0,1,0.1,1.6
							c0.7-0.2,1.4-0.4,2.2-0.5c0.8-0.2,1.6-0.2,2.5-0.3l0.6,0c0.7-0.1,1.5-0.1,2.2-0.2c-0.1-0.5-0.3-1-0.4-1.5
							C679.9,157.6,679.3,157.7,678.6,157.7z"/>
						<path class="st56" d="M673.3,155.1c0,0.5,0,1,0,1.6c1.3-0.3,2.6-0.6,3.8-0.7c0.9-0.1,1.9-0.2,2.9-0.3c-0.2-0.5-0.3-1-0.5-1.5
							c-0.9,0.1-1.7,0.2-2.6,0.3C675.8,154.6,674.6,154.8,673.3,155.1z"/>
						<path class="st56" d="M676.1,179.6c-0.1,0-0.1,0.1-0.2,0.1c0.1,0.5,0.2,1,0.3,1.5c0.2-0.1,0.3-0.1,0.5-0.2
							c2.4-1,4.5-1.7,6.5-2.2c0.3-0.1,0.7-0.1,1-0.2c0-0.5-0.1-1-0.1-1.5c-0.4,0.1-0.8,0.2-1.2,0.3
							C680.7,177.8,678.6,178.6,676.1,179.6z"/>
						<path class="st56" d="M673.5,150.3c0.5-0.1,1-0.2,1.5-0.3l1.1-0.2c0.5-0.1,1-0.2,1.5-0.4c-0.2-0.5-0.5-0.9-0.7-1.4
							c-0.4,0.1-0.7,0.2-1.1,0.3l-1.1,0.2c-0.3,0.1-0.7,0.1-1,0.2C673.6,149.3,673.6,149.8,673.5,150.3z"/>
						<path class="st56" d="M684.9,192.9c0-0.5,0-1,0-1.5c-1.9,0.3-3.9,0.6-5.8,1.2c0.2,0.5,0.3,1,0.5,1.5
							C681.3,193.5,683.1,193.1,684.9,192.9z"/>
						<path class="st56" d="M673.4,153c0,0.5,0,1.1,0,1.6c0,0,0.1,0,0.1-0.1c0.8-0.2,1.6-0.4,2.5-0.6c1.1-0.2,2.2-0.3,3.4-0.4
							c-0.2-0.5-0.4-1-0.6-1.5c-1,0.1-2,0.2-3.1,0.4C674.9,152.6,674.1,152.8,673.4,153z"/>
						<path class="st56" d="M681.2,189.2c0.9-0.3,1.8-0.7,2.7-0.9c0.3-0.1,0.6-0.1,0.9-0.2c0-0.5,0-1-0.1-1.5
							c-0.4,0.1-0.8,0.1-1.2,0.2c-1,0.2-1.9,0.6-2.8,0.9c-0.4,0.2-0.8,0.3-1.2,0.4c-0.5,0.2-1,0.4-1.6,0.5c0.1,0.5,0.3,1,0.4,1.5
							c0.5-0.2,1.1-0.4,1.6-0.6C680.4,189.5,680.8,189.4,681.2,189.2z"/>
						<path class="st56" d="M675.6,168c1.7-0.3,3.4-0.3,5.1-0.3c0.4,0,0.9,0,1.3,0l0.8,0c-0.1-0.5-0.2-1-0.3-1.5H682
							c-0.4,0-0.9,0-1.3,0c-1.8,0-3.6,0-5.4,0.3c-0.4,0.1-0.9,0.2-1.3,0.3c0.1,0.5,0.1,1,0.2,1.5C674.6,168.2,675.1,168,675.6,168z"
							/>
						<path class="st56" d="M677.8,171.8c1.7-0.2,3.6-0.4,5.6-0.4c-0.1-0.5-0.1-1-0.2-1.5c-2,0-3.9,0.2-5.5,0.4
							c-1,0.1-2.1,0.2-3.1,0.4c0.1,0.5,0.1,1,0.2,1.5C675.7,172.1,676.7,172,677.8,171.8z"/>
					</g>
				</g>
				<g>
					<path class="st54" d="M684.3,196.3c-2-5.7-2-24.3,2.7-29c4.1,4.1,5.1,18.2,0,29.7C685.5,200.3,684.3,196.3,684.3,196.3z"/>
					<g class="st55">
						<path class="st56" d="M685.5,189.4l0.7-0.1c0.6-0.1,1.2-0.2,1.7-0.2c0.5,0,1.1,0,1.6,0c0.1-0.5,0.2-1,0.3-1.5
							c-0.6,0-1.3,0-1.9,0c-0.7,0-1.3,0.1-2.1,0.2l-0.6,0.1c-0.7,0.1-1.5,0.2-2.2,0.4c0,0,0,0,0,0c0,0.5,0.1,1.1,0.1,1.6
							c0.1-0.1,0.3-0.1,0.4-0.2C684.2,189.5,684.8,189.4,685.5,189.4z"/>
						<path class="st56" d="M684.9,178.2l0.4,0c1.3-0.1,2.5-0.3,3.7-0.2c0.5,0,0.9,0.1,1.4,0.1c0-0.5-0.1-1.1-0.1-1.6
							c-0.4-0.1-0.8-0.1-1.2-0.1c-1.3,0-2.6,0.1-3.9,0.3l-0.4,0c-0.4,0-0.8,0.1-1.2,0.2c-0.1,0.5-0.1,1-0.2,1.6c0.1,0,0.2,0,0.3,0
							C684.1,178.3,684.5,178.3,684.9,178.2z"/>
						<path class="st56" d="M686.3,172.6c-0.5,0-1,0.1-1.6,0.2c-0.1,0-0.3,0-0.4,0.1c-0.1,0.5-0.3,1.1-0.4,1.6c0.1,0,0.1,0,0.2,0
							c0.3,0,0.6-0.1,0.9-0.2c0.5-0.1,0.9-0.2,1.4-0.2c0.3,0,0.7,0,1,0l2.4,0h0.1c-0.1-0.5-0.2-1-0.3-1.5l-2.1,0
							C687.1,172.6,686.7,172.5,686.3,172.6z"/>
						<path class="st56" d="M687.3,196.2c0.2-0.5,0.4-1,0.6-1.6c-0.5,0-1.1,0-1.8,0.1c-0.7,0.1-1.5,0.2-2.3,0.3
							c0.1,0.4,0.2,0.8,0.3,1.2c0,0,0,0.1,0.1,0.3c0.7-0.1,1.4-0.2,2-0.3C686.7,196.2,687,196.2,687.3,196.2z"/>
						<path class="st56" d="M686.5,167.9c-0.4,0.5-0.7,1-1,1.7c1-0.2,2-0.3,3-0.3c-0.3-0.6-0.6-1-1-1.5
							C687.2,167.9,686.8,167.9,686.5,167.9z"/>
						<path class="st56" d="M686.2,183.9c-0.3,0-0.6,0-0.9,0c-0.4,0-0.8,0-1.3,0.1c-0.3,0-0.7,0.1-1,0.1c0,0.5,0,1,0,1.5
							c0.4-0.1,0.7-0.1,1.1-0.1c0.4,0,0.8,0,1.2-0.1c0.3,0,0.6,0,1,0c0.9-0.1,1.8-0.1,2.7,0c0.4,0,0.8,0.1,1.2,0.1
							c0.1-0.5,0.1-1,0.2-1.5c-0.4-0.1-0.8-0.1-1.3-0.1C688.1,183.9,687.2,183.9,686.2,183.9z"/>
						<path class="st56" d="M688.4,193.4c0.2-0.5,0.3-1,0.5-1.5c-1.6-0.1-3.3,0-5.4,0.3c0.1,0.5,0.1,1,0.2,1.5
							C685.4,193.5,687,193.4,688.4,193.4z"/>
						<path class="st56" d="M686,170.7l-0.5,0.1c-0.2,0-0.4,0-0.5,0c-0.2,0.5-0.3,1-0.5,1.6c0.1,0,0.2,0,0.3,0c0.3,0,0.6,0,0.9-0.1
							l0.5-0.1c0.3,0,0.7-0.1,1-0.1c0.9,0,1.6,0,2.3,0c-0.2-0.5-0.3-1.1-0.5-1.6c-0.6,0-1.1,0-1.8,0
							C686.8,170.6,686.4,170.7,686,170.7z"/>
						<path class="st56" d="M690,181.9c0.2,0,0.3,0.1,0.5,0.1c0-0.5,0-1,0-1.5c-0.1,0-0.1,0-0.2,0c-1.2-0.2-2.3-0.3-3.7-0.3
							c-1,0-2.2,0-3.4,0.3c0,0.5-0.1,1.1-0.1,1.6c1.2-0.3,2.5-0.3,3.5-0.3C687.8,181.6,688.9,181.7,690,181.9z"/>
					</g>
				</g>
			</g>
			<path class="st41" d="M707.8,196.1c0,2.3-10.5,4.1-23.5,4.1c-13,0-23.6-1.8-23.6-4.1v-4.9h0.3c0,2.3,10.5,4.1,23.5,4.1
				c11.8,0,21.5-1.5,23.2-3.5v3.9C707.7,195.8,707.8,196,707.8,196.1z"/>
		</g>
		<g>
			<rect x="75.7" y="213.9" class="st65" width="32" height="57.5"/>
			<polygon class="st49" points="118.7,128.2 75.7,213.9 107.7,213.9 147.7,128.2 		"/>
			<polygon class="st2" points="107.7,271.4 107.7,213.9 147.7,128.2 147.7,178.6 		"/>
			<g id="talking_flowerbox02">
				<path class="st79" d="M136.4,133.5c0,0.1,0,0.1-0.1,0.2c-0.7,0.5-4.8,0.9-9.7,0.9c-5.4,0-9.8-0.5-9.8-1.1c0-0.6,4.4-1.1,9.8-1.1
					C132,132.5,136.4,132.9,136.4,133.5z"/>
				<path class="st53" d="M136.3,133.6c0-0.6-4.4-1.1-9.8-1.1c-5.4,0-9.8,0.5-9.8,1.1v1.3h0.1c0-0.6,4.4-1.1,9.8-1.1
					c4.9,0,9,0.4,9.7,0.9v-1C136.3,133.6,136.3,133.6,136.3,133.6z"/>
				<g id="talking_flower02">
					<path class="st35" d="M127.2,134.6c1-9.9,8.4-12.8,14.5-9.8c-7-0.5-11.6,3.5-11.6,9.8H127.2z"/>
					<path class="st35" d="M126.9,134.1c-0.7-5.2-7.9-8.7-13.2-4.6c5.8-0.7,9.7,1.5,10,4.6H126.9z"/>
					<path class="st14" d="M128.1,139.7c-0.7-3.5-1-7.2-0.5-10.8c0.2-1.8,0.6-3.6,1.3-5.3c0.6-1.7,1.6-3.3,2.7-4.7
						c-0.9,1.6-1.6,3.2-2.1,4.9c-0.5,1.7-0.9,3.4-1.1,5.2C127.9,132.6,128,136.1,128.1,139.7z"/>
					<path class="st14" d="M127.7,117.2c-0.4,1.8-0.7,3.5-1,5.3c-0.3,1.8-0.5,3.5-0.6,5.3c-0.2,3.6,0,7.1,0.2,10.7
						c-0.8-3.5-1.2-7.1-1-10.8c0.1-1.8,0.3-3.6,0.8-5.4C126.4,120.6,127,118.9,127.7,117.2z"/>
					<path class="st14" d="M120.1,116.9c1.5,1.3,2.5,3.1,3.2,5c0.8,1.8,1.3,3.8,1.7,5.7c0.4,2,0.6,3.9,0.6,5.9c0,2-0.1,4-0.6,5.9
						c0.1-2,0.1-3.9-0.1-5.9c-0.2-1.9-0.4-3.9-0.8-5.8c-0.4-1.9-0.8-3.8-1.5-5.6c-0.3-0.9-0.7-1.8-1.1-2.7
						C121.2,118.5,120.7,117.7,120.1,116.9z"/>
					<path class="st20" d="M130.8,120.1c0-1.9-0.3-5.1,3.6-4.4C134.8,119,130.8,120.1,130.8,120.1z"/>
					<path class="st20" d="M127.2,119c-0.8-1.8,1.2-5.6-0.7-6.5C130.8,112.2,129.9,117.7,127.2,119z"/>
					<path class="st20" d="M121.2,118.4c1.1-4.2-2.5-2.7-2.8-5.1C116.1,115.8,118.7,118.2,121.2,118.4z"/>
				</g>
				<path class="st80" d="M132,143.1h-10v0.7c0,0.3,1,0.6,5.1,0.6s4.9-0.2,4.9-0.6C132,143.8,132,143.1,132,143.1z"/>
				<ellipse class="st60" cx="126.7" cy="143.4" rx="5" ry="0.6"/>
				<g>
					<path class="st21" d="M117.8,135.2c0,0,0.8,3.7,0.8,5.6c0,2.3,3.4,2.7,8.1,2.7c4.1,0,8-0.3,8-2.7c0-2,0.8-5.6,0.8-5.6H117.8z"/>
				</g>
				<path class="st80" d="M136.3,134.8c0,0.6-4.4,1.1-9.8,1.1c-5.4,0-9.8-0.5-9.8-1.1v-1.3h0.1c0,0.6,4.4,1.1,9.8,1.1
					c4.9,0,9-0.4,9.7-0.9v1C136.3,134.8,136.3,134.8,136.3,134.8z"/>
			</g>
			<g id="talking_flowerbox01_1_">
				<path class="st79" d="M109.6,193c0,0.1,0,0.1-0.1,0.2c-0.8,0.6-5.5,1-11,1c-6.2,0-11.2-0.5-11.2-1.2c0-0.7,5-1.2,11.2-1.2
					C104.6,191.8,109.6,192.3,109.6,193z"/>
				<path class="st53" d="M109.5,193c0-0.7-5-1.2-11.2-1.2c-6.2,0-11.2,0.6-11.2,1.2v1.5h0.1c0-0.7,5-1.2,11.2-1.2
					c5.6,0,10.2,0.5,11,1v-1.2C109.5,193.1,109.5,193.1,109.5,193z"/>
				<g id="talking_flower01">
					<path class="st35" d="M99.1,194.2c1.1-11.3,9.6-14.6,16.6-11.2c-8-0.6-13.2,4-13.2,11.2H99.1z"/>
					<path class="st35" d="M98.8,193.7c-0.8-5.9-9-10-15.1-5.2c6.7-0.8,11,1.7,11.4,5.2H98.8z"/>
					<path class="st14" d="M100.1,200c-0.8-4-1.1-8.2-0.6-12.3c0.3-2.1,0.7-4.1,1.5-6c0.7-1.9,1.8-3.8,3.1-5.3
						c-1,1.8-1.8,3.7-2.4,5.6c-0.6,1.9-1,3.9-1.2,5.9C99.9,191.9,100,196,100.1,200z"/>
					<path class="st14" d="M99.7,174.3c-0.4,2-0.8,4-1.2,6c-0.3,2-0.5,4-0.6,6c-0.2,4.1,0,8.1,0.2,12.2c-0.9-4-1.3-8.1-1.1-12.3
						c0.1-2.1,0.4-4.1,0.9-6.1C98.2,178.2,98.9,176.2,99.7,174.3z"/>
					<path class="st14" d="M91,174c1.7,1.5,2.8,3.6,3.7,5.7c0.9,2.1,1.5,4.3,1.9,6.5c0.4,2.2,0.7,4.5,0.7,6.8c0,2.3-0.2,4.5-0.7,6.7
						c0.2-2.2,0.1-4.5-0.1-6.7c-0.2-2.2-0.5-4.4-0.9-6.6c-0.4-2.2-1-4.3-1.7-6.4c-0.4-1-0.8-2.1-1.2-3.1
						C92.3,175.9,91.7,174.9,91,174z"/>
					<path class="st20" d="M103.3,177.7c0-2.2-0.3-5.9,4.1-5C107.8,176.4,103.3,177.7,103.3,177.7z"/>
					<path class="st20" d="M99.1,176.4c-0.9-2,1.3-6.4-0.8-7.4C103.3,168.6,102.2,174.9,99.1,176.4z"/>
					<path class="st20" d="M92.3,175.7c1.3-4.8-2.8-3-3.2-5.8C86.5,172.7,89.4,175.5,92.3,175.7z"/>
				</g>
				<path class="st80" d="M105,204.1H93v0.6c0,0.4,1.5,0.7,6.1,0.7s5.9-0.3,5.9-0.6C105,204.8,105,204.1,105,204.1z"/>
				<ellipse class="st60" cx="98.6" cy="204.2" rx="5.7" ry="0.7"/>
				<g>
					<path class="st21" d="M88.4,194.9c0,0,0.9,4.2,0.9,6.4c0,2.6,3.9,3.1,9.3,3.1c4.7,0,9.1-0.3,9.1-3.1c0-2.2,0.9-6.4,0.9-6.4H88.4
						z"/>
				</g>
				<path class="st80" d="M109.5,194.5c0,0.7-5,1.2-11.2,1.2c-6.2,0-11.2-0.6-11.2-1.2V193h0.1c0,0.7,5,1.2,11.2,1.2
					c5.6,0,10.2-0.5,11-1v1.2C109.5,194.4,109.5,194.4,109.5,194.5z"/>
			</g>
		</g>
	</g>

	<g id="talking_furniture02">
		<g>
			<line class="st90" x1="212.2" y1="201.4" x2="210.6" y2="168"/>
			<line class="st90" x1="194.4" y1="180" x2="185.2" y2="212.6"/>
			<line class="st90" x1="256.7" y1="178.3" x2="265.9" y2="211"/>
			<path class="st31" d="M231.3,157.2l-24.5,11c0,0,4-40.7-17-38.8c0.2-0.1,0.4-0.2,0.5-0.3l21.6-11.4c0,0,9-6.5,16.7,7.6
				C236.3,139.4,231.3,157.2,231.3,157.2z"/>
			<line class="st90" x1="229.1" y1="194.7" x2="230.7" y2="228.1"/>
			<path class="st28" d="M261.3,177.1c0,8-26,22.5-39.4,18.5c-1.4-0.4-3.1-0.8-4.9-1.5c-8.4-3.8-28.7-13.9-29.4-14.3c0,0,0,0,0,0
				c-2.3-1.9-4.9-5.9-5.1-13.8c0,0,0.5-18.1,0.1-24v0c-0.1-10.1,7.3-12.7,7.3-12.7c21-1.9,17,38.8,17,38.8s0,0,0,0
				c0.2,0.1,1.5,1.2,3.4,2.8c4.7,4.7,10.8,12.2,27.8,8.2c0.2,0,0.3-0.1,0.3-0.1s0,0,0,0c21.2-5.1,19.2-16.2,19.2-16.2
				S261.3,167.7,261.3,177.1z"/>
			<path class="st30" d="M238.3,179.2c-21.6,5.1-25.7-8-31.5-11l24.5-11l26.3,5.8C257.7,163,259.6,174.2,238.3,179.2z"/>
		</g>
		<g>
			<path class="st31" d="M397.6,153.4c0,9.1-7.1,16.4-15.9,16.4h-17.6c-8.8,0-15.9-7.4-15.9-16.4l-4.2-21.5c4.2-9.5,11.3-14,20-14
				h17.6c8.8,0,15.9,7.4,15.9,16.4V153.4z"/>
			<path class="st28" d="M392,157.2c0,8.9-7.1,16.1-15.9,16.1h-17.6c-8.8,0-15.9-7.2-15.9-16.1v-18.7c0-8.9,7.1-16.1,15.9-16.1h17.6
				c8.8,0,15.9,7.2,15.9,16.1V157.2z"/>
		</g>
	</g>

	<g id="talking_man02">
		<path id="Tman02_left_hand" class="st69" d="M262,133.5c-6.6,27-21.8,20.6-26.3-6.4"/>
		<g id="Tman02_foot">
			<path class="st4" d="M262.3,202.3c-0.1,2.4,2,4.4,4.7,4.5l15.1,0.6c2.7,0.1,5-1.7,5.2-4.1l0,0c0.1-2.4-2-4.4-4.7-4.5l-15.1-0.6
				C264.7,198.1,262.4,200,262.3,202.3L262.3,202.3z"/>
			<path class="st4" d="M253.3,204.2c-0.1,2.4,2,4.4,4.7,4.5l15.1,0.7c2.7,0.1,5-1.7,5.2-4.1l0,0c0.1-2.4-2-4.4-4.7-4.5l-15.1-0.6
				C255.8,200,253.5,201.8,253.3,204.2L253.3,204.2z"/>
			<g>
				<path class="st72" d="M278.5,191.5L278.5,191.5c0.1,2.4-0.2,4.6-0.7,6.4c-0.7,2.8-3.9,4.6-7.2,4c-0.2,0-0.3-0.1-0.5-0.1
					c-2.9-0.8-4.7-3.4-4-6.1c0-0.1,0.5-2.1,0.2-5c-0.1-1.7-0.5-3.7-1.4-5.8c-3.1-7.6-10.6-13.1-22.5-16.4c-3.1-0.9-4.9-3.8-3.9-6.6
					c1-2.8,4.4-4.3,7.5-3.4C271.3,165.5,278.2,180.7,278.5,191.5z"/>
				<path class="st89" d="M266.4,194.4L266.4,194.4c-0.8-8.7-6.2-20.1-21.9-27.1c1.8-2,3.1-4.4,3.6-6.8c-13.8,3.2-30.3,3.2-35.3-1.6
					c0.2,3.5,1.9,8.5,5,10.8c2.5,1.9,10.6,3.5,11,3.6c12.1,2.6,18.7,8.6,23.6,15.1c2.4,3.2,1.9,10.6,1.9,10.7
					c-0.5,2.7,1.5,5.2,4.5,5.9c0.2,0,0.3,0.1,0.5,0.1c3.3,0.5,6.4-1.5,6.9-4.3C266.5,199,266.6,196.8,266.4,194.4z M254.5,194.4
					c0.1,0.1,0.3,0.2,0.5,0.2C254.8,194.6,254.6,194.5,254.5,194.4z"/>
			</g>
		</g>
		<path id="Tman02_body" class="st0" d="M244.5,135.2v23.1c0,0.9-0.1,1.7-0.2,2.5c-11.3,3-26.3,7.4-31.6-1.8c0-0.2,0-0.5,0-0.7
			v-23.1c0-8.7,7.1-15.7,15.9-15.7c4.4,0,8.4,1.8,11.2,4.6C242.8,126.9,244.5,130.8,244.5,135.2z"/>
		<g id="Tman02_right_hand">
			<path class="st83" d="M252.6,135.7c-2.1,25.7-42.9,23.3-33.9-5.1"/>
			<path class="st66" d="M213,128.8c-0.2,1.2-1.2,5.9-1.2,11.8c7.3-2.6,11.3,1.3,11.3,1.3c0-4.4,0.5-8.3,0.9-10.5
				c0.6-2.7-1.4-5.5-4.5-6.2C216.5,124.5,213.6,126.1,213,128.8z"/>
		</g>
		<g id="Tman02_head">
			<path class="st1" d="M223.4,97.2c0,0-12.2-1.5-12,10.2s8.7,11.4,3.7,13.4c0,0,7.6,0.6,6.4-3.4S223.4,97.2,223.4,97.2z"/>
			<path class="st29" d="M216.8,113c0.1,1,1,1.6,2,1.5l26.5-3.4c1-0.1,1.6-1,1.5-2l0,0c-0.1-1-1-1.6-2-1.5l-26.5,3.4
				C217.4,111.1,216.7,112,216.8,113L216.8,113z"/>
			<path class="st24" d="M220.2,111c-0.6,6.7,4.4,12.6,11.1,13.2c6.7,0.6,12.6-4.4,13.2-11.1c0.6-6.7-4.4-12.6-11.1-13.2
				C226.7,99.3,220.8,104.3,220.2,111z"/>
			<line class="st48" x1="232.4" y1="110.4" x2="232.4" y2="109.9"/>
			<line class="st48" x1="233.1" y1="110.4" x2="233.2" y2="109.7"/>
			<line class="st48" x1="233.8" y1="110.4" x2="234.1" y2="109.7"/>
			<line class="st48" x1="238.7" y1="109.7" x2="238.7" y2="109.5"/>
			<line class="st48" x1="239.4" y1="109.7" x2="239.5" y2="109.4"/>
			<line class="st48" x1="240" y1="109.7" x2="240.4" y2="109.4"/>
			<path class="st56" d="M231.3,111.9c-0.1,0.9,0.6,1.7,1.5,1.8c0.9,0.1,1.7-0.6,1.8-1.5c0.1-0.9-0.6-1.7-1.5-1.8
				C232.2,110.3,231.4,111,231.3,111.9z"/>
			<path class="st56" d="M237.5,111.3c-0.1,0.9,0.6,1.7,1.5,1.8c0.9,0.1,1.7-0.6,1.8-1.5c0.1-0.9-0.6-1.7-1.5-1.8
				C238.4,109.7,237.6,110.4,237.5,111.3z"/>
			<circle cx="240.1" cy="111.4" r="0.6"/>
			<path d="M233.2,112c0,0.3,0.2,0.6,0.5,0.6c0.3,0,0.6-0.2,0.6-0.5c0-0.3-0.2-0.6-0.5-0.6C233.5,111.4,233.2,111.7,233.2,112z"/>
			<path class="st71" d="M235.8,113.7c0.1,0.4,0.5,0.7,0.9,0.6l0,0c0.4-0.1,0.7-0.5,0.6-0.9l-0.4-2.4c-0.1-0.4-0.5-0.7-0.9-0.6l0,0
				c-0.4,0.1-0.7,0.5-0.6,0.9L235.8,113.7z"/>
			<g>
				<path class="st86" d="M242.3,104.9l-14.9,0.3l-4.6,3.3l-0.3,3.9c0,0-0.5,0.9-1.5,0c0,0-0.5-0.8-0.5-1.4c0-0.2-0.4-0.5-0.4-0.5
					c-1.7,0.1-3.7-16,11.1-16C245.7,94.6,244.1,104.9,242.3,104.9z"/>
			</g>
			<path class="st39" d="M233.8,108.4c0,0-0.9-0.9-2.2,0.1"/>
			<path class="st39" d="M239.8,107.9c-1.1-1.1-2.1,0.1-2.2,0.1"/>
			<path class="st52" d="M239.4,115.4L239.4,115.4c0,1.7-1.4,3.1-3.1,3c-1.7,0-3-1.4-3-3.1l0-0.1L239.4,115.4z"/>
		</g>
	</g>

	<g id="talking_man05">
		<g id="Tman05_foot">
			<path class="st43" d="M451.3,191.3c-0.1,2.7,2,5,4.7,5.2l15.1,0.7c2.7,0.1,5-2,5.2-4.7l0,0c0.1-2.7-2-5-4.7-5.2l-15.1-0.7
				C453.8,186.5,451.5,188.6,451.3,191.3L451.3,191.3z"/>
			<line class="st63" x1="471.8" y1="152.9" x2="470.1" y2="189.5"/>
			<path class="st43" d="M478,201c0.2,2.7,2.5,4.8,5.2,4.6l15.1-0.9c2.7-0.2,4.8-2.5,4.6-5.2l0,0c-0.2-2.7-2.5-4.8-5.2-4.6l-15.1,0.9
				C479.9,196,477.8,198.3,478,201L478,201z"/>
			<line class="st63" x1="488.4" y1="150.9" x2="496.6" y2="197.2"/>
		</g>
		<g id="Tman05_right_hand">
			<path class="st83" d="M462.9,107.7c0,0-11.5,31.9-36.4,4.9"/>
			<path class="st25" d="M458.7,104.2c-0.7,0.9-3.6,4.8-6.2,10.1c7.5,0.5,9.2,5.5,9.2,5.5c1.9-3.9,4-7.2,5.4-9
				c1.7-2.2,1.2-5.5-1.1-7.3C463.7,101.7,460.4,102,458.7,104.2z"/>
		</g>
		<g id="Tman05_body">
			<path class="st89" d="M495.3,133.9c0.4,2.1,8,22.1-12.2,22.6c-9.2,0.3-18.4-4.6-19.8-10.9l-0.4-6.5c0,0,4.7-6,13.9-7.7
				C485.8,129.7,495.3,133.9,495.3,133.9z"/>
			<path class="st50" d="M495.2,131.4c0.9,6.4-5.8,12.7-15,14l0,0c-9.2,1.3-17.4-2.9-18.3-9.3l-3.5-24.7c-0.9-6.4,5.8-12.7,15-14l0,0
				c9.2-1.3,17.4,2.9,18.3,9.3L495.2,131.4z"/>
		</g>
		<g id="Tman05_left_hand">
			<path class="st83" d="M528.7,90.9c0,0-9.6,13-39.3,13.5"/>
			<path class="st25" d="M488.9,109.6c1.2,0.1,6,0.2,11.8-0.7c-3.9-6.4-0.8-10.7-0.8-10.7c-4.3,0.7-8.2,0.9-10.4,0.8
				c-2.8-0.1-5.1,2.2-5.3,5.1C484,107,486.1,109.5,488.9,109.6z"/>
		</g>
		<g id="Tman05_head">
			<path class="st29" d="M487.9,88.1c0,1-0.9,1.7-1.8,1.7l-26.7-1.2c-1,0-1.7-0.9-1.7-1.8l0,0c0-1,0.9-1.7,1.8-1.7l26.7,1.2
				C487.2,86.3,487.9,87.1,487.9,88.1L487.9,88.1z"/>
			<g>
				<circle class="st24" cx="472.4" cy="88.5" r="12.2"/>
				<path class="st56" d="M473.4,88.3c0.2,0.9-0.5,1.8-1.4,2c-0.9,0.2-1.8-0.4-1.9-1.4c-0.2-0.9,0.5-1.8,1.4-1.9
					C472.4,86.8,473.3,87.4,473.4,88.3z"/>
				<path class="st56" d="M467.2,88.2c0.2,0.9-0.5,1.8-1.4,2c-0.9,0.2-1.8-0.4-1.9-1.4c-0.2-0.9,0.5-1.8,1.4-1.9
					C466.1,86.7,467,87.3,467.2,88.2z"/>
				<circle cx="464.6" cy="88.5" r="0.6"/>
				<path d="M471.6,88.5c0.1,0.3-0.2,0.6-0.5,0.7c-0.3,0.1-0.6-0.2-0.7-0.5c-0.1-0.3,0.2-0.6,0.5-0.7C471.2,88,471.5,88.2,471.6,88.5
					z"/>
				<path class="st52" d="M471.8,91.7L471.8,91.7c0,1.7-1.4,3.1-3.1,3c-1.7,0-3-1.4-3-3.1l0-0.1L471.8,91.7z"/>
				<path class="st71" d="M469,90.5c0,0.4-0.4,0.7-0.8,0.7l0,0c-0.4,0-0.7-0.4-0.7-0.8l0.2-2.5c0-0.4,0.4-0.7,0.8-0.7l0,0
					c0.4,0,0.7,0.4,0.7,0.8L469,90.5z"/>
			</g>
			<path class="st75" d="M477.6,81.4c0,0,0.4,4.2,3.5,5.1l0.8,4.9c0,0,0.6,0.9,1.5-0.1c0,0,0.5-0.8,0.4-1.4s0-2.9,0.8-3.8
				s-2.1-5.2-2.1-5.2L477.6,81.4z"/>
			<path class="st87" d="M483.6,76.8c0.1,2.5-1.2,4.7-2.9,4.7l-18.9,0.7c-1.7,0.1-3.2-1.9-3.3-4.5c0,0-0.9-4.6,2.8-6.6
				c0,0.1-0.4,1.6,1.7,1.8c5.2-1.4,4.9-1.7,9.1-2c5.1-0.4,8.1,1.4,8.1,1.4C482.1,73.1,483.5,74.3,483.6,76.8z"/>
			<path id="Tman05_eyebrow" class="st17" d="M470.7,85c0,0,0.8-0.9,2.2-0.1"/>
			<path id="Tman05_eyebrow" class="st17" d="M464.6,85c1-1.2,2.1-0.1,2.2-0.1"/>
		</g>
	</g>

	<g id="talking_desk">
		<g>
			<path class="st13" d="M473.7,253.2c0,0,0.4,1.1-1.5,1.4c-2.5,0.4-2.7-0.6-2.7-0.6l-16.8-53.2l10.7-2.2L473.7,253.2z"/>
			<path class="st13" d="M451,219.5c0,0,0.4,1.1-1.5,1.4c-2.5,0.4-2.7-0.6-2.7-0.6l-16.8-53.2l10.7-2.2L451,219.5z"/>
			<path class="st13" d="M288,253.7c0,0-0.4,1.1,1.5,1.4c2.5,0.4,2.7-0.6,2.7-0.6l16.5-53.2l-10.7-2.2L288,253.7z"/>
			<path class="st13" d="M310.5,219.9c0,0-0.4,1.1,1.5,1.4c2.5,0.4,2.7-0.6,2.7-0.6l16.5-53.2l-10.7-2.2L310.5,219.9z"/>
			<path class="st11" d="M489.9,181l0,7.8c0,0.6-0.1,1.3-0.4,1.9C485,203.1,436.3,212.9,377,213c-59.4,0.2-108-9.4-112.7-21.7
				c-0.2-0.6-0.4-1.3-0.4-1.9l0-7.8L489.9,181z"/>
			
				<ellipse transform="matrix(1 -2.558078e-03 2.558078e-03 1 -0.4625 0.9647)" class="st22" cx="376.9" cy="181.3" rx="113" ry="23.9"/>
		</g>
		<g>
			<polygon class="st15" points="320.7,170.9 300.4,164.3 275.9,176.9 297,186.1 		"/>
			<polygon class="st23" points="320.7,147.6 320.7,170.9 297,186.1 296.5,158 		"/>
			<path class="st84" d="M310.4,165.1c-0.4,1.6-0.2,3.1,0.4,3.4c0.6,0.3,1.5-0.8,1.9-2.4s0.2-3.1-0.4-3.4
				C311.6,162.5,310.8,163.5,310.4,165.1z"/>
			<path class="st76" d="M320.7,147.6c0,0-6.6,30.1-23.7,38.4l23.7-15.2V147.6z"/>
		</g>
		<g>
			<polygon class="st15" points="419.7,172.8 438.3,168 458.7,185.7 440.3,190.1 		"/>
			<polygon class="st23" points="438.1,148.1 438.1,168.4 458.7,185.7 459.2,161.3 		"/>
			<polygon class="st85" points="438.7,149.2 438.7,168.3 458.1,184.6 458.5,161.6 		"/>
			<ellipse class="st19" cx="447.3" cy="161.5" rx="4.4" ry="1.4"/>
			<ellipse class="st26" cx="451.9" cy="169.7" rx="3.3" ry="4"/>
			<ellipse class="st10" cx="444.1" cy="168" rx="3.2" ry="1.1"/>
		</g>
	</g>

	<g id="talking_man04">

		<g id="Tman04_foot">
			<path class="st70" d="M369.5,250.4c0,2.7-2.1,5-4.8,5l-15.1,0.2c-2.7,0-5-2.1-5-4.8l0,0c0-2.7,2.1-5,4.8-5l15.1-0.2
				C367.2,245.5,369.5,247.7,369.5,250.4L369.5,250.4z"/>
			<path class="st9" d="M358.9,260.8c0,2.7-2.1,5-4.8,5l-15.1,0.2c-2.7,0-5-2.1-5-4.8l0,0c0-2.7,2.1-5,4.8-5l15.1-0.2
				C356.6,256,358.8,258.1,358.9,260.8L358.9,260.8z"/>
			<path class="st72" d="M365.5,254c-0.6,0.2-1.2,0.4-1.9,0.4c-3.3,0.2-6.1-2.4-6.3-5.7c-0.5-10.9,2.5-20,9.1-27.1
				c12.4-13.5,32.9-14.5,33.8-14.5c3.3-0.1,6.1,2.5,6.2,5.8c0.1,3.3-2.4,6.1-5.7,6.2c-0.3,0-16.5,0.9-25.4,10.7
				c-4.3,4.7-6.2,10.7-5.9,18.4C369.5,250.8,367.9,253.1,365.5,254z"/>
			<path class="st89" d="M416.1,214.6c-1.4,4.4-5,13.4-8.6,15.6c-3.8,2.4-19.7-0.9-20-0.9c-0.3,0-16.5,0.8-25.5,10.5
				c-4.4,4.7-6.3,10.7-6,18.3c0.1,2.7-1.5,5-3.9,5.9c-0.6,0.2-1.2,0.3-1.9,0.4c-3.3,0.1-6.1-2.4-6.2-5.7c-0.5-10.9,2.6-20,9.2-27.1
				c8.9-9.6,21.8-12.8,28.8-13.8c-0.3-1.6-0.3-3.2-0.1-4.7C389.3,220.1,408.8,218.6,416.1,214.6z"/>
		</g>
		<g id="Tman04_head">
			<g>
				<circle class="st24" cx="406.2" cy="161.6" r="12.9"/>
				<path class="st56" d="M414.4,158.6c0,1,0.8,1.8,1.8,1.8c1,0,1.8-0.8,1.8-1.8c0-1-0.8-1.8-1.7-1.8
					C415.2,156.9,414.4,157.7,414.4,158.6z"/>
				<path d="M416.5,157.9c0,0.4,0.3,0.6,0.6,0.6c0.3,0,0.6-0.3,0.6-0.6s-0.3-0.6-0.6-0.6S416.5,157.6,416.5,157.9z"/>
				<path class="st52" d="M416.9,162.1L416.9,162.1c0,1.8,0.5,3.2,0.9,3.2c0.5,0,0.8-1.5,0.8-3.2l0-0.1L416.9,162.1z"/>
				<path class="st71" d="M419.1,160.4c0.1,0.4,0.5,0.7,0.8,0.6l0,0c0.3-0.1,0.5-0.5,0.4-0.9l-0.6-2.5c-0.1-0.4-0.5-0.7-0.8-0.6l0,0
					c-0.3,0.1-0.5,0.5-0.4,0.9L419.1,160.4z"/>
			</g>
			<path class="st75" d="M408.3,152.9c0,0,1.8,4-0.5,6.5l1.8,4.9c0,0-0.1,1.1-1.5,0.7c0,0-0.9-0.5-1.1-1.1c-0.1-0.3-0.6,1-2.6,2.6
				c-0.7,0.6-0.4,3.8-1.4,4.3c-3.4,1.8-12.9-0.2-11.7-13.2c0.8-8.4,6.3-9.5,16.8-11.7c9-1.8,6.1,5.5,6.1,5.5L408.3,152.9z"/>
			<path class="st17" d="M416.2,155.4c-1.3-1.1-2.3,0.2-2.3,0.2"/>
			<path class="st29" d="M405.3,167.5c0.5,0.8,1.5,1.1,2.3,0.6l0,0c0.8-0.5,1.1-1.5,0.6-2.3l-1.1-2c-0.5-0.8-1.5-1.1-2.3-0.6l0,0
				c-0.8,0.5-1.1,1.5-0.6,2.3L405.3,167.5z"/>
		</g>
		<path id="Tman04_body" class="st38" d="M389.8,185.1l-7.1,25.3c-0.3,0.9-0.5,1.9-0.6,2.8c14.7,11.6,30.9,2.5,32.8,6.1
			c0.1-0.3,0.2-0.5,0.2-0.8l7.2-25.3c2.7-9.5-2.4-19-11.4-21.2c-4.5-1.1-9.1-0.2-12.9,2.2C394.2,176.5,391.1,180.3,389.8,185.1z"/>
		<g id="Tman04_left_hand">
			<path class="st24" d="M392.4,194.6c-7.2,4.7-17.3,9.4-26.8,6.6c-0.6-0.2-1.2-0.4-1.7-0.6c-14.4-5.9-19.8-11.5-20.3-12.1
				c-1.9-2-1.7-5.2,0.3-7.1c2-1.9,5.2-1.7,7.1,0.3c0,0,4.5,4.5,16.8,9.6c5.5,2.3,12.9-1,18.8-4.8C386.5,186.5,386.5,194,392.4,194.6z
				"/>
			<path class="st6" d="M401.7,187.3c-0.8,0.8-4.3,4.1-9.2,7.3c-6-0.6-5.9-8.1-5.9-8.1c3.6-2.3,6.6-4.8,8.2-6.4
				c2-1.9,5.1-1.9,7.1,0.1C403.7,182.2,403.7,185.4,401.7,187.3z"/>
		</g>
	</g>

	<g id="talking_man03">
		
		<g id="Tman03_foot">
			<path class="st58" d="M291.7,249.6c0,2.7,2.1,5,4.8,5l15.1,0.2c2.7,0,5-2.1,5-4.8l0,0c0-2.7-2.1-5-4.8-5l-15.1-0.2
				C293.9,244.7,291.7,246.8,291.7,249.6L291.7,249.6z"/>
			<path class="st58" d="M302.3,261c0,2.7,2.1,5,4.8,5l15.1,0.2c2.7,0,5-2.1,5-4.8l0,0c0-2.7-2.1-5-4.8-5l-15.1-0.2
				C304.6,256.1,302.3,258.3,302.3,261L302.3,261z"/>
			<path class="st72" d="M295.7,254.1c0.6,0.2,1.2,0.3,1.9,0.4c3.3,0.1,6.1-2.4,6.2-5.7c0.5-10.9-2.6-20-9.2-27.1
				c-12.5-13.5-33-14.3-33.8-14.3c-3.3-0.1-6.1,2.5-6.2,5.8c-0.1,3.3,2.5,6.1,5.8,6.2c0.3,0,16.5,0.8,25.5,10.5
				c4.3,4.7,6.3,10.7,6,18.3C291.7,250.9,293.4,253.2,295.7,254.1z"/>
			<path class="st89" d="M245,214.8c1.4,4.4,5,13.4,8.6,15.6c3.8,2.4,19.7-0.9,20-0.9c0.3,0,16.5,0.8,25.5,10.5
				c4.4,4.7,6.3,10.7,6,18.3c-0.1,2.7,1.5,5,3.9,5.9c0.6,0.2,1.2,0.3,1.9,0.4c3.3,0.1,6.1-2.4,6.2-5.7c0.5-10.9-2.6-20-9.2-27.1
				c-8.9-9.6-21.8-12.8-28.8-13.8c0.3-1.6,0.3-3.2,0.1-4.7C271.8,220.3,252.3,218.8,245,214.8z"/>
		</g>
		<path id="Tman03_body" class="st46" d="M271.4,185.2l7.1,25.3c0.3,0.9,0.5,1.9,0.6,2.8c-14.7,11.6-30.9,2.5-32.8,6.1
			c-0.1-0.3-0.2-0.5-0.2-0.8l-7.2-25.3c-2.7-9.5,2.4-19,11.4-21.2c4.5-1.1,9.1-0.2,12.9,2.2C267,176.7,270,180.5,271.4,185.2z"/>
		<g id="Tman03_head">
			<g>
				<circle class="st24" cx="256" cy="161.8" r="12.9"/>
				<path class="st56" d="M264.6,161.8c-0.4,0.9,0.1,2,1,2.3c0.9,0.3,1.9-0.1,2.3-1c0.3-0.9-0.1-1.9-1-2.3
					C266,160.4,265,160.9,264.6,161.8z"/>
				<circle cx="267.5" cy="162" r="0.6"/>
				<path class="st52" d="M265.8,165.8L265.8,165.8c-0.6,1.7-0.7,3.2-0.2,3.4c0.5,0.1,1.3-1.1,1.8-2.8l0-0.1L265.8,165.8z"/>
				<path class="st71" d="M268.5,165.1c0,0.4,0.2,0.8,0.6,0.9l0,0c0.4,0,0.7-0.3,0.7-0.7l0.3-2.6c0-0.4-0.2-0.8-0.6-0.9l0,0
					c-0.4,0-0.7,0.3-0.7,0.7L268.5,165.1z"/>
			</g>
			<path class="st75" d="M260.8,154.3c0,0,0.4,4.4-2.6,6l0.1,5.2c0,0-0.4,1-1.6,0.2c0,0-0.7-0.8-0.7-1.4c0-0.6-10.4,4.1-11.5,3.4
				c-3.6-2.5-1.3-14.6-1.3-14.6L260.8,154.3z"/>
			<path class="st17" d="M267.5,159.3c-0.8-1.5-2.2-0.6-2.2-0.5"/>
			<path class="st87" d="M235.9,162.9c0.9,2.6,17.5,0.1,22.3-1.6c4.8-1.8-4-2.2-4.9-4.7c-0.9-2.6-5.6-3.2-10.4-1.5
				C238.1,156.9,235,160.4,235.9,162.9z"/>
			<path class="st18" d="M267.5,156.1c0,0,1.7-9.1-3.9-11.2c-5.6-2-18.3-2.5-19.3,3.2c-1,5.7-5.7,9,6.8,12.4
				C263.6,163.9,267.5,156.1,267.5,156.1z"/>
			<path class="st36" d="M267.7,152.2c0,0-0.1-5.8-4.2-7.3c-5.6-2.1-18.3-2.5-19.3,3.2c-1,5.7,13.1,2.7,14.7,2.5
				C268,149.5,267.7,152.2,267.7,152.2z"/>
			<path class="st68" d="M267.5,150.4c0,0,1-1.1,3.2,1.2c0,0-1.5-1.2-2.7,0.6C266.8,154,267.5,150.4,267.5,150.4z"/>
			<path class="st68" d="M270.3,152.5c-2.2-2.3-3.2-1.2-3.2-1.2s-0.7,3.6,0.5,1.8C267.6,153.1,269.4,152.5,270.3,152.5z"/>
			<path class="st29" d="M253.1,167.1c0.2,0.9,1,1.5,1.9,1.3l0,0c0.9-0.2,1.5-1,1.3-1.9l-0.4-2.2c-0.2-0.9-1-1.5-1.9-1.3l0,0
				c-0.9,0.2-1.5,1-1.3,1.9L253.1,167.1z"/>
		</g>
		<g id="Tman03_right_hand">
			<path class="st24" d="M260.9,195.9c2.8,8.1,8,18,17.2,21.5c0.6,0.2,1.2,0.4,1.8,0.6c15.1,4.1,22.7,2.9,23.5,2.8
				c2.7-0.5,4.5-3.1,4.1-5.8c-0.5-2.7-3.1-4.5-5.8-4.1c0,0-6.3,0.9-19.1-2.6c-5.7-1.5-9.6-8.7-12-15.3
				C270.6,193.1,266,199.1,260.9,195.9z"/>
			<path class="st74" d="M258.1,184.5c0.2,1.2,0.9,5.9,2.9,11.5c5.1,3.2,9.7-2.9,9.7-2.9c-1.4-4-2.3-7.9-2.6-10.1
				c-0.4-2.7-2.9-4.6-5.7-4.2C259.5,179.2,257.6,181.7,258.1,184.5z"/>
		</g>
	</g>

	<g id="talking_furniture01">
		<g id="talking_lamp1">
			<polygon class="st23" points="693.1,277.7 698.5,264.7 723.9,264.7 727.9,277.7 		"/>
			<g>
				<polygon class="st61" points="697.1,274.6 701.2,263.2 721.7,263.2 723.9,274.6 			"/>
				<rect x="697.1" y="274.6" class="st32" width="26.8" height="1.9"/>
				<polygon points="719.8,264.3 718.5,264.3 718.5,257.1 684.3,111.9 685.6,111.5 719.8,256.9 			"/>
				<rect x="717" y="263.6" width="4.2" height="5"/>
				<rect x="718" y="258.6" class="st32" width="2.3" height="5"/>
				<rect x="693.1" y="277.7" width="34.8" height="3.4"/>
				<polygon points="642.4,119.1 641.7,119.1 641.7,115.2 705.2,115.2 705.2,117.2 642.4,117.2 			"/>
				<path class="st7" d="M658,120.8c0,0.2-0.1,0.4-0.3,0.7c-1.5,1.5-7.9,2.6-15.6,2.6c-8.4,0-15.3-1.4-15.9-3.1c0-0.1,0-0.2,0-0.2
					c0-1.8,7.1-3.3,15.9-3.3C650.9,117.5,658,119,658,120.8z"/>
				<ellipse cx="685.2" cy="115.8" rx="1.9" ry="2.2"/>
				<ellipse cx="642" cy="119.1" rx="1.3" ry="1.6"/>
				<rect x="695.2" y="114.4" class="st32" width="12.6" height="4.1"/>
				<g>
					<path class="st44" d="M659.1,142.9c0,0-3.5,4.2-17.3,4.2c-13.1,0-16.7-4.2-16.7-4.2l1.1-21.8c0,0,0,0,0,0
						c0.6,1.7,7.5,3.1,16,3.1c7.8,0,14.1-1.1,15.8-3.3L659.1,142.9z"/>
				</g>
			</g>
		</g>
		<g id="talking_chair02">
			<line class="st90" x1="435.8" y1="251.3" x2="445" y2="284"/>
			<line class="st90" x1="418.8" y1="236.9" x2="428" y2="269.6"/>
			<line class="st90" x1="392.9" y1="254.6" x2="391.3" y2="288"/>
			<line class="st90" x1="374.7" y1="236.9" x2="365.5" y2="269.6"/>
			<path class="st28" d="M408.5,246.5c-0.1,8.4,0.2,18.1-9.3,15.6l-16.7-7.2c-9.5-2.5-17.1-11.3-17-19.7l0,0
				c0.1-8.4,7.9-13.1,17.4-10.6l8.6,2.3C401,229.3,408.6,238.2,408.5,246.5L408.5,246.5z"/>
			<path class="st31" d="M379.7,238.5c0,11.6,9.4,21,21,21H424c11.6,0,21-9.4,21-21l5.5-27.5c-5.5-12.1-14.9-17.9-26.5-17.9h-23.3
				c-11.6,0-21,9.4-21,21V238.5z"/>
			<path class="st28" d="M387,243.4c0,11.4,9.4,20.6,21,20.6h23.3c11.6,0,21-9.2,21-20.6v-23.9c0-11.4-9.4-20.6-21-20.6H408
				c-11.6,0-21,9.2-21,20.6V243.4z"/>
		</g>
		<g id="talking_chair01">
			<line class="st90" x1="225.3" y1="253.9" x2="216.2" y2="286.6"/>
			<line class="st90" x1="242.3" y1="239.5" x2="233.2" y2="272.2"/>
			<line class="st90" x1="268.3" y1="257.2" x2="269.8" y2="290.6"/>
			<line class="st90" x1="286.5" y1="239.5" x2="295.6" y2="272.2"/>
			<path class="st28" d="M252.7,249.1c0.1,8.4-0.2,18.1,9.3,15.6l16.7-7.2c9.5-2.5,17.1-11.3,17-19.7l0,0
				c-0.1-8.4-7.9-13.1-17.4-10.6l-8.6,2.3C260.1,231.9,252.5,240.8,252.7,249.1L252.7,249.1z"/>
			<path class="st31" d="M281.5,241.1c0,11.6-9.4,21-21,21h-23.3c-11.6,0-21-9.4-21-21l-5.5-27.5c5.5-12.1,14.9-17.9,26.5-17.9h23.3
				c11.6,0,21,9.4,21,21V241.1z"/>
			<path class="st28" d="M274.1,246c0,11.4-9.4,20.6-21,20.6h-23.3c-11.6,0-21-9.2-21-20.6v-23.9c0-11.4,9.4-20.6,21-20.6h23.3
				c11.6,0,21,9.2,21,20.6V246z"/>
		</g>
	</g>

</svg>
