<?xml version="1.0" encoding="utf-8"?>
<!-- Generator: Adobe Illustrator 16.0.0, SVG Export Plug-In . SVG Version: 6.00 Build 0)  -->
<!DOCTYPE svg PUBLIC "-//W3C//DTD SVG 1.1//EN" "http://www.w3.org/Graphics/SVG/1.1/DTD/svg11.dtd">
<svg version="1.1" id="圖層_1" xmlns="http://www.w3.org/2000/svg" xmlns:xlink="http://www.w3.org/1999/xlink" x="0px" y="0px"
	 width="100px" height="121.7px" viewBox="0 0 100 121.7" style="enable-background:new 0 0 100 121.7;" xml:space="preserve">
<style type="text/css">
<![CDATA[
	.st0{fill:#80D8FF;}
	.st1{fill:#888888;}
	.st2{fill:#FBC02D;}
	.st3{fill:#FDD835;}
	.st4{fill:#616161;}
	.st5{fill:#0091EA;}
	.st6{fill:#00B0FF;}
	.st7{fill:#40C4FF;}
]]>
</style>
<path class="st0" d="M73.2,2.3L50.3,42H4.4c0-2.4,0.6-4.8,1.8-7C6.2,34.9,22.3,7,22.3,7c0,0,0,0,0,0C25.1,3,29.8,0.3,35,0.3h30.6
	C68.4,0.3,71,1,73.2,2.3z"/>
<path class="st7" d="M93.9,46c0,2.4-0.9,4.5-2,6.8c0,0-13.6,24.1-13.6,24.1c0,0,0,0,0,0c-1.3,1.9-3,3.5-5,4.7L52.6,46L93.9,46z"/>
<path class="st6" d="M50.3,42c0,0-20.6,35.7-20.7,35.8c-0.7,1.1-1.9,1.7-3.3,1.7c-1.1,0-2.1-0.4-2.8-1.2c0,0,0,0,0,0
	c-0.1-0.1-1.3-1.7-1.6-2.3L6.6,49.6c-1.4-2.4-2-5-2-7.6L50.3,42z"/>
<path class="st2" d="M75.6,51.4c-1.8,3.2-5.9,4.3-9.1,2.4l0,0c-3.2-1.9-4.3-5.9-2.4-9.1l9.8-16.9c1.8-3.2,5.9-4.3,9.1-2.4l0,0
	c3.2,1.8,4.3,5.9,2.4,9.1L75.6,51.4z"/>
<path class="st3" d="M83,16.6c-1.5,2.5-4.7,3.4-7.2,1.9c-2.5-1.5-3.4-4.7-1.9-7.2c1.5-2.5,4.7-3.4,7.2-1.9
	C83.6,10.8,84.5,14,83,16.6z"/>
<g>
	<g>
		<path class="st4" d="M8.9,101c0.4,0,0.7-0.1,1-0.2c0.3-0.1,0.5-0.3,0.6-0.6c0.2-0.2,0.3-0.5,0.4-0.8c0.1-0.3,0.2-0.6,0.2-0.9
			l4.1,0c-0.1,0.9-0.3,1.7-0.6,2.5c-0.3,0.8-0.8,1.4-1.4,2c-0.6,0.6-1.2,1-2,1.3c-0.8,0.3-1.6,0.5-2.6,0.4c-1.2,0-2.2-0.3-2.9-0.8
			c-0.8-0.5-1.4-1.1-1.8-1.9c-0.4-0.8-0.7-1.6-0.8-2.6c-0.1-1-0.1-2,0-3l0.1-1.2c0.1-0.7,0.2-1.4,0.4-2.1c0.2-0.7,0.4-1.4,0.7-2
			c0.3-0.6,0.7-1.2,1.1-1.7c0.4-0.5,0.9-1,1.4-1.3c0.5-0.4,1.1-0.7,1.8-0.8C9.4,87,10.2,87,11,87c1,0,1.8,0.2,2.5,0.6
			c0.7,0.4,1.2,0.9,1.6,1.5s0.7,1.3,0.9,2.1c0.2,0.8,0.2,1.6,0.2,2.5l-4.1,0c0-0.3,0-0.6,0-1c0-0.3-0.1-0.7-0.2-1
			c-0.1-0.3-0.3-0.6-0.5-0.7c-0.2-0.2-0.5-0.3-0.9-0.3c-0.4,0-0.8,0-1.1,0.2c-0.3,0.1-0.5,0.3-0.7,0.6c-0.2,0.2-0.4,0.5-0.5,0.8
			c-0.1,0.3-0.2,0.7-0.3,1c-0.1,0.3-0.1,0.7-0.2,1c0,0.4-0.1,0.7-0.1,1l-0.1,1.2c0,0.2-0.1,0.5-0.1,0.8c0,0.3-0.1,0.6-0.1,1
			c0,0.3,0,0.7,0,1c0,0.3,0.1,0.6,0.2,0.9c0.1,0.3,0.3,0.5,0.5,0.6C8.2,100.9,8.5,101,8.9,101z"/>
		<path class="st4" d="M17.9,95.3c0.1-1.1,0.4-2.1,0.8-3.1c0.4-1,0.9-1.9,1.5-2.7c0.6-0.8,1.4-1.4,2.4-1.9c0.9-0.5,2-0.7,3.2-0.6
			c0.8,0,1.5,0.1,2.1,0.4c0.6,0.2,1.1,0.5,1.6,0.9c0.4,0.4,0.8,0.9,1.1,1.4c0.3,0.5,0.5,1.1,0.7,1.7c0.2,0.6,0.3,1.2,0.3,1.9
			c0,0.7,0,1.3-0.1,2l-0.1,1.1c-0.1,1.1-0.4,2.1-0.8,3.1c-0.4,1-0.9,1.9-1.6,2.7c-0.6,0.8-1.4,1.4-2.3,1.8c-0.9,0.5-2,0.7-3.2,0.6
			c-1.2,0-2.1-0.3-2.9-0.8c-0.8-0.5-1.4-1.1-1.8-1.9c-0.4-0.8-0.7-1.7-0.9-2.6c-0.1-1-0.1-2,0-3L17.9,95.3z M22.2,96.4
			c0,0.2,0,0.5-0.1,0.8c0,0.3,0,0.6,0,1c0,0.3,0,0.7,0.1,1c0,0.3,0.1,0.6,0.3,0.9c0.1,0.3,0.3,0.5,0.5,0.7c0.2,0.2,0.5,0.3,0.8,0.3
			c0.6,0,1.1-0.1,1.5-0.4c0.4-0.3,0.7-0.7,0.9-1.2c0.2-0.5,0.4-1,0.5-1.5c0.1-0.5,0.2-1,0.2-1.5l0.1-1.1c0-0.2,0-0.5,0.1-0.8
			c0-0.3,0-0.6,0-1c0-0.3,0-0.7-0.1-1c-0.1-0.3-0.1-0.6-0.3-0.9c-0.1-0.3-0.3-0.5-0.5-0.7c-0.2-0.2-0.5-0.3-0.9-0.3
			c-0.6,0-1,0.1-1.4,0.4c-0.4,0.3-0.7,0.7-0.9,1.2c-0.2,0.5-0.4,1-0.5,1.5c-0.1,0.5-0.2,1-0.2,1.5L22.2,96.4z"/>
		<path class="st4" d="M39.2,101c0.4,0,0.7-0.1,1-0.2c0.3-0.1,0.5-0.3,0.7-0.6c0.2-0.2,0.3-0.5,0.4-0.8c0.1-0.3,0.2-0.6,0.2-0.9
			l4.1,0c-0.1,0.9-0.3,1.7-0.6,2.5c-0.3,0.8-0.8,1.4-1.4,2c-0.6,0.6-1.2,1-2,1.3c-0.8,0.3-1.6,0.5-2.5,0.4c-1.2,0-2.2-0.3-2.9-0.8
			c-0.8-0.5-1.4-1.1-1.8-1.9c-0.4-0.8-0.7-1.6-0.8-2.6c-0.1-1-0.1-2,0-3l0.1-1.2c0.1-0.7,0.2-1.4,0.4-2.1c0.2-0.7,0.4-1.4,0.7-2
			c0.3-0.6,0.7-1.2,1.1-1.7c0.4-0.5,0.9-1,1.4-1.3c0.5-0.4,1.1-0.7,1.8-0.8c0.7-0.2,1.4-0.3,2.2-0.3c1,0,1.8,0.2,2.5,0.6
			c0.7,0.4,1.2,0.9,1.6,1.5c0.4,0.6,0.7,1.3,0.9,2.1c0.2,0.8,0.2,1.6,0.2,2.5l-4.1,0c0-0.3,0-0.6,0-1c0-0.3-0.1-0.7-0.2-1
			c-0.1-0.3-0.3-0.6-0.5-0.7c-0.2-0.2-0.5-0.3-0.9-0.3c-0.4,0-0.8,0-1.1,0.2c-0.3,0.1-0.5,0.3-0.7,0.6c-0.2,0.2-0.4,0.5-0.5,0.8
			c-0.1,0.3-0.2,0.7-0.3,1c-0.1,0.3-0.1,0.7-0.2,1c0,0.4-0.1,0.7-0.1,1l-0.1,1.2c0,0.2-0.1,0.5-0.1,0.8c0,0.3-0.1,0.6-0.1,1
			c0,0.3,0,0.7,0,1c0,0.3,0.1,0.6,0.2,0.9c0.1,0.3,0.3,0.5,0.5,0.6C38.6,100.9,38.9,101,39.2,101z"/>
		<path class="st4" d="M48.3,95.3c0.1-1.1,0.4-2.1,0.8-3.1c0.4-1,0.9-1.9,1.5-2.7c0.7-0.8,1.4-1.4,2.4-1.9c0.9-0.5,2-0.7,3.2-0.6
			c0.8,0,1.5,0.1,2.1,0.4c0.6,0.2,1.1,0.5,1.5,0.9c0.4,0.4,0.8,0.9,1.1,1.4c0.3,0.5,0.5,1.1,0.7,1.7c0.2,0.6,0.3,1.2,0.3,1.9
			c0,0.7,0,1.3-0.1,2l-0.1,1.1c-0.1,1.1-0.4,2.1-0.8,3.1c-0.4,1-0.9,1.9-1.6,2.7c-0.6,0.8-1.4,1.4-2.3,1.8c-0.9,0.5-2,0.7-3.2,0.6
			c-1.2,0-2.1-0.3-2.9-0.8c-0.8-0.5-1.4-1.1-1.8-1.9c-0.4-0.8-0.7-1.7-0.9-2.6s-0.1-2,0-3L48.3,95.3z M52.5,96.4
			c0,0.2,0,0.5-0.1,0.8c0,0.3,0,0.6,0,1c0,0.3,0,0.7,0.1,1c0,0.3,0.1,0.6,0.3,0.9c0.1,0.3,0.3,0.5,0.5,0.7c0.2,0.2,0.5,0.3,0.8,0.3
			c0.6,0,1.1-0.1,1.5-0.4c0.4-0.3,0.7-0.7,0.9-1.2c0.2-0.5,0.4-1,0.5-1.5c0.1-0.5,0.2-1,0.2-1.5l0.1-1.1c0-0.2,0-0.5,0.1-0.8
			c0-0.3,0-0.6,0-1c0-0.3,0-0.7-0.1-1c-0.1-0.3-0.1-0.6-0.3-0.9c-0.1-0.3-0.3-0.5-0.5-0.7c-0.2-0.2-0.5-0.3-0.9-0.3
			c-0.6,0-1,0.1-1.4,0.4c-0.4,0.3-0.7,0.7-0.9,1.2c-0.2,0.5-0.4,1-0.5,1.5c-0.1,0.5-0.2,1-0.2,1.5L52.5,96.4z"/>
		<path class="st4" d="M76.3,96.9l3.1-9.6h4.3l-6.4,17.1h-3.6l-0.6-9.8l-4,9.8h-3.6l-0.5-17.1H69l-0.2,9.5l3.8-9.5h3.1L76.3,96.9z"
			/>
		<path class="st4" d="M84,95.3c0.1-1.1,0.4-2.1,0.8-3.1c0.4-1,0.9-1.9,1.5-2.7c0.6-0.8,1.4-1.4,2.4-1.9c0.9-0.5,2-0.7,3.2-0.6
			c0.8,0,1.5,0.1,2.1,0.4c0.6,0.2,1.1,0.5,1.5,0.9c0.4,0.4,0.8,0.9,1.1,1.4c0.3,0.5,0.5,1.1,0.7,1.7c0.2,0.6,0.3,1.2,0.3,1.9
			c0,0.7,0,1.3-0.1,2l-0.1,1.1c-0.1,1.1-0.4,2.1-0.8,3.1c-0.4,1-0.9,1.9-1.6,2.7c-0.6,0.8-1.4,1.4-2.3,1.8c-0.9,0.5-2,0.7-3.2,0.6
			c-1.2,0-2.1-0.3-2.9-0.8c-0.8-0.5-1.4-1.1-1.8-1.9c-0.4-0.8-0.7-1.7-0.9-2.6c-0.1-1-0.1-2,0-3L84,95.3z M88.3,96.4
			c0,0.2,0,0.5-0.1,0.8c0,0.3,0,0.6,0,1c0,0.3,0,0.7,0.1,1c0,0.3,0.1,0.6,0.3,0.9c0.1,0.3,0.3,0.5,0.5,0.7c0.2,0.2,0.5,0.3,0.8,0.3
			c0.6,0,1.1-0.1,1.5-0.4c0.4-0.3,0.7-0.7,0.9-1.2c0.2-0.5,0.4-1,0.5-1.5c0.1-0.5,0.2-1,0.2-1.5l0.1-1.1c0-0.2,0-0.5,0.1-0.8
			c0-0.3,0-0.6,0-1c0-0.3,0-0.7-0.1-1c-0.1-0.3-0.1-0.6-0.3-0.9c-0.1-0.3-0.3-0.5-0.5-0.7c-0.2-0.2-0.5-0.3-0.9-0.3
			c-0.6,0-1,0.1-1.4,0.4c-0.4,0.3-0.7,0.7-0.9,1.2c-0.2,0.5-0.4,1-0.5,1.5c-0.1,0.5-0.2,1-0.2,1.5L88.3,96.4z"/>
	</g>
</g>
<g>
	<g>
		<path class="st1" d="M31,109.5h-2v9c0,1.1-0.3,1.6-1.1,1.9c-0.9,0.3-2.2,0.3-4,0.3c-0.1-0.5-0.5-1.4-0.9-1.9c1.3,0.1,2.8,0,3.2,0
			c0.4,0,0.6-0.1,0.6-0.4v-8.9H15v-1.8h16V109.5z M18.7,117v1.1h-2.1v-7h7.5v5.8H18.7z M18.7,112.9v2.4h3.4v-2.4H18.7z"/>
		<path class="st1" d="M57.6,109.5h-2v9c0,1.1-0.3,1.6-1.1,1.9c-0.9,0.3-2.2,0.3-4,0.3c-0.1-0.5-0.5-1.4-0.9-1.9
			c1.3,0.1,2.8,0,3.2,0c0.4,0,0.6-0.1,0.6-0.4v-8.9H41.6v-1.8h16V109.5z M45.3,117v1.1h-2.1v-7h7.5v5.8H45.3z M45.3,112.9v2.4h3.4
			v-2.4H45.3z"/>
		<path class="st1" d="M84.2,107.7v2.2h-2.1v-0.8H79v0.7c0,0.3,0.1,0.5,0.5,0.5h1.9c0.5,0,1.4,0,1.7-0.1c0.1,0.5,0.1,0.8,0.2,1.2
			c-0.3,0.1-1.1,0.1-1.7,0.1h-2.6c-1.7,0-2-0.6-2-1.7v-0.7h-1.3c-0.4,1.6-1.5,2.3-5.6,2.7c-0.1-0.4-0.6-1-0.9-1.3
			c3.3-0.2,4.1-0.5,4.3-1.4h-2.8v1h-2v-2.4h6.5c-0.1-0.3-0.2-0.6-0.3-0.8l2.2-0.4c0.2,0.4,0.4,0.8,0.5,1.2H84.2z M83.4,115.4v3.6
			c0,0.8-0.2,1.2-0.8,1.4c-0.6,0.2-1.4,0.2-2.5,0.2c-0.1-0.4-0.3-0.9-0.5-1.2v0.5h-4.8v0.5h-1.9v-3.2h6.7v2c0.6,0,1.3,0,1.4,0
			c0.2,0,0.3-0.1,0.3-0.2v-2.3H71.2v4h-2.1v-5.3h1.7v-3.6h10.9v3.6H83.4z M72.8,115.4h1.7v-1.7h5.3v-0.6h-6.9V115.4z M77.6,118.2
			h-2.9v0.7h2.9V118.2z M79.7,114.6h-3.3v0.8h3.3V114.6z"/>
	</g>
</g>
<path class="st5" d="M73.2,81.6c-1.9,1.1-4.1,1.8-6.5,2c-0.1,0-31.7,0-31.7,0c-6.5,0-10.4-4-11.5-5.3c0.7,0.7,1.7,1.2,2.8,1.2
	c1.4,0,2.6-0.7,3.3-1.7c0.1-0.1,0.2-0.3,0.3-0.4L50.3,42l2.3,4L73.2,81.6z"/>
</svg>
