<?xml version="1.0" encoding="utf-8"?>
<?xml-stylesheet type="text/css" href="space_svg_motion.css"?>
<!-- Generator: Adobe Illustrator 16.0.0, SVG Export Plug-In . SVG Version: 6.00 Build 0)  -->
<!DOCTYPE svg PUBLIC "-//W3C//DTD SVG 1.1//EN" "http://www.w3.org/Graphics/SVG/1.1/DTD/svg11.dtd">
<svg version="1.1" id="maker_space" xmlns="http://www.w3.org/2000/svg" xmlns:xlink="http://www.w3.org/1999/xlink" x="0px" y="0px" width="750px" height="300px" viewBox="0 0 750 300" style="enable-background:new 0 0 750 300;" xml:space="preserve">
	<style type="text/css">
	<![CDATA[
		.st0{fill:#49ABA3;}
		.st1{fill:#49B1A7;}
		.st2{fill:#7DCACD;}
		.st3{fill:#7E6343;}
		.st4{fill:#ADADAE;}
		.st5{fill:#AEC6E7;}
		.st6{fill:#AF5B21;}
		.st7{opacity:0.4;fill:#737D82;}
		.st8{fill:#AFDDE1;}
		.st9{fill:#E0AC40;}
		.st10{fill:#E1D18A;}
		.st11{fill:#1375B1;}
		.st12{fill:none;stroke:#C84D1B;stroke-width:0.5;stroke-linecap:round;stroke-miterlimit:10;}
		.st13{fill:#E4E6E9;}
		.st14{fill:#182D7D;}
		.st15{fill:#E6C763;}
		.st16{fill:#E71F19;}
		.st17{fill:#4CABA2;}
		.st18{fill:#192C83;}
		.st19{fill:#4EB7B3;}
		.st20{opacity:0.1;fill:#737D82;}
		.st21{fill:#8098AA;}
		.st22{fill:#4FB6AD;}
		.st23{fill:#818181;}
		.st24{fill:#3E3A39;stroke:#484721;stroke-linecap:round;stroke-linejoin:round;stroke-miterlimit:10;}
		.st25{fill:none;stroke:#F5AE25;stroke-linecap:round;stroke-linejoin:round;stroke-miterlimit:10;}
		.st26{fill:#B1BBBF;}
		.st27{fill:none;stroke:#724F43;stroke-linecap:round;stroke-linejoin:round;stroke-miterlimit:10;}
		.st28{fill:#B2ACD5;}
		.st29{fill:#851B30;}
		.st30{fill:#1B284E;}
		.st31{fill:#B67E35;}
		.st32{fill:#EA7E13;}
		.st33{fill:#87CCC8;}
		.st34{fill:#888888;}
		.st35{fill:#EBC138;}
		.st36{fill:#88CDC9;}
		.st37{fill:#EBEA6A;}
		.st38{fill:#EBEB9D;}
		.st39{fill:#B88B38;}
		.st40{fill:#898989;}
		.st41{fill:#1E2B65;}
		.st42{fill:#ECCCB6;}
		.st43{fill:#B98C3A;}
		.st44{fill:#5161AB;}
		.st45{fill:#51B9BB;}
		.st46{fill:#EFB78E;}
		.st47{fill:#EFF0DF;}
		.st48{fill:#5280BD;}
		.st49{fill:none;stroke:#D5E160;stroke-width:3;stroke-linecap:round;stroke-miterlimit:10;}
		.st50{fill:none;stroke:#36414D;stroke-width:12;stroke-linecap:round;stroke-miterlimit:10;}
		.st51{fill:#554555;}
		.st52{fill:#555555;}
		.st53{opacity:0.6;fill:#3E3A39;}
		.st54{fill:#5671B6;}
		.st55{fill:none;stroke:#212121;stroke-width:2;stroke-linecap:round;stroke-linejoin:round;stroke-miterlimit:10;}
		.st56{fill:#585E5D;}
		.st57{fill:#BB8D30;}
		.st58{fill:#BBCCD7;}
		.st59{fill:#595757;}
		.st60{fill:#BCBBBB;}
		.st61{fill:#BECF1D;}
		.st62{fill:#8FB1B0;}
		.st63{fill:#BF913D;}
		.st64{fill:#BF9337;}
		.st65{fill:#F1F1F1;}
		.st66{fill:#23A6DF;}
		.st67{fill:none;stroke:#701419;stroke-width:10;stroke-linecap:round;stroke-miterlimit:10;}
		.st68{opacity:0.6;fill:#DC8CB9;}
		.st69{fill:#F4F8F8;}
		.st70{fill:#5B5C5B;}
		.st71{fill:#F6B34A;}
		.st72{fill:#5C99CA;}
		.st73{fill:#5CBFB9;}
		.st74{fill:#F8CB67;}
		.st75{fill:#5FADCF;}
		.st76{fill:#90BFB1;}
		.st77{fill:#C0942D;}
		.st78{fill:none;stroke:#32588F;stroke-width:12;stroke-linecap:round;stroke-linejoin:round;stroke-miterlimit:10;}
		.st79{fill:#945A24;}
		.st80{fill:#95B2DD;}
		.st81{fill:#95B5CD;}
		.st82{fill:#2A232B;}
		.st83{fill:#95D1C7;}
		.st84{fill:#2A55A5;}
		.st85{fill:#2AB2B4;}
		.st86{fill:#96D4E2;}
		.st87{fill:#979898;}
		.st88{fill:#2C58A7;}
		.st89{fill:#988E99;}
		.st90{fill:#C84D1B;}
		.st91{fill:#999899;}
		.st92{fill:#99A7AC;}
		.st93{fill:#C99633;}
		.st94{fill:none;stroke:#000000;stroke-width:3;stroke-linecap:round;stroke-miterlimit:10;}
		.st95{fill:#6096CF;}
		.st96{fill:#2FAD37;}
		.st97{fill:#FFFFFF;}
		.st98{fill:#634936;}
		.st99{fill:#63C4DC;}
		.st100{fill:#664A36;}
		.st101{fill:#666666;}
		.st102{fill:#66C2BD;}
		.st103{fill:#67C1B2;}
		.st104{fill:#9BA7CB;}
		.st105{fill:#6882C1;}
		.st106{fill:#68C3BE;}
		.st107{fill:#69C2B9;}
		.st108{fill:#CCCCCC;}
		.st109{fill:none;stroke:#593317;stroke-width:0.75;stroke-linecap:round;stroke-linejoin:round;stroke-miterlimit:10;}
		.st110{fill:#9FA0A0;}
		.st111{fill:#32588F;}
		.st112{fill:none;stroke:#725339;stroke-miterlimit:10;}
		.st113{fill:#34B0AD;}
		.st114{fill:none;stroke:#454C4E;stroke-width:12;stroke-linecap:round;stroke-miterlimit:10;}
		.st115{fill:#6BC3BA;}
		.st116{fill:#38602F;}
		.st117{fill:#6C8888;}
		.st118{fill:#38A9A1;}
		.st119{fill:none;stroke:#2E6FB7;stroke-width:3;stroke-linecap:round;stroke-miterlimit:10;}
		.st120{fill:#003B20;}
		.st121{fill:#D19E36;}
		.st122{fill:#D2973C;}
		.st123{fill:#068566;}
		.st124{fill:#D8A439;}
		.st125{fill:#3E3A39;}
		.st126{fill:#D97CAF;}
		.st127{fill:#A17B3B;}
		.st128{fill:#724F43;}
		.st129{fill:#725339;}
		.st130{fill:#737D82;}
		.st131{fill:#73C6C0;}
		.st132{fill:none;stroke:#EB677D;stroke-width:3;stroke-linecap:round;stroke-miterlimit:10;}
		.st133{fill:#7486C2;}
		.st134{fill:none;stroke:#0B1B38;stroke-miterlimit:10;}
		.st135{fill:#767777;}
		.st136{fill:#A6793D;}
		.st137{fill:#DBE0E2;}
		.st138{fill:#DBE7EC;}
		.st139{fill:none;stroke:#C84D1B;stroke-miterlimit:10;}
		.st140{fill:#796A56;}
		.st141{fill:#DCA839;}
		.st142{fill:#DD9613;}
		.st143{fill:#A9BAD2;}
		.st144{fill:none;stroke:#ECCCB6;stroke-width:10;stroke-linecap:round;stroke-miterlimit:10;}
		.st145{fill:#DDA83B;}
		.st146{fill:#DDAA3E;}
		.st147{fill:#DDAB3A;}
		.st148{fill:#DDDDDD;}
		.st149{fill:#409E92;}
		.st150{fill:none;stroke:#ECCCB6;stroke-width:9;stroke-linecap:round;stroke-miterlimit:10;}
		.st151{fill:none;stroke:#4D64AD;stroke-width:0.5;stroke-linecap:round;stroke-linejoin:round;stroke-miterlimit:10;}
		.st152{fill:#DFE4E6;}
		.st153{fill:#422413;}
		.st154{fill:#424241;}
		.st155{fill:#454C4E;}
	]]>
	</style>
	<g id="maker_shadow">
		<polygon class="st108" points="82,215.6 49.7,271.3 97.3,271.3 126.6,215.6 	"/>
		<polygon class="st108" points="620.8,210.8 653.1,266.5 605.5,266.5 576.2,210.8 	"/>
		<ellipse class="st108" cx="362.3" cy="229.1" rx="31.5" ry="6.8"/>
		<ellipse class="st108" cx="450.2" cy="252.5" rx="31.5" ry="6.8"/>
		<ellipse class="st108" cx="561.6" cy="253.7" rx="31.5" ry="9.9"/>
		<ellipse class="st108" cx="168.7" cy="215" rx="31.5" ry="9.3"/>
		<ellipse class="st108" cx="279.6" cy="229.1" rx="31.5" ry="6.8"/>
		<ellipse class="st108" cx="245.4" cy="222.2" rx="31.5" ry="6.8"/>
		<polygon class="st108" points="137.1,171.7 223.5,171.7 232.5,190 126.5,190 	"/>
		<polygon class="st108" points="423.6,174.7 509.9,174.7 519,193 413,193 	"/>
		<polygon class="st108" points="196.3,228 420.8,228 444.3,275.5 168.8,275.5 	"/>
		<ellipse class="st108" cx="219.8" cy="291.2" rx="21.4" ry="4.4"/>
		<ellipse class="st108" cx="382.4" cy="286.3" rx="21.4" ry="4.4"/>
		<ellipse class="st7" cx="530.4" cy="185" rx="11.4" ry="3.3"/>
		<ellipse class="st7" cx="676.6" cy="255.9" rx="19.9" ry="3.3"/>
	</g>
	<g id="maker_man02">
		<g id="Mman02_foot">
			<path class="st104" d="M276.9,226.1c-0.5,2.7-3.1,4.4-5.8,3.9l-14.8-3c-2.7-0.5-4.4-3.1-3.9-5.8l0,0c0.5-2.7,3.1-4.4,5.8-3.9
				l14.8,3C275.8,220.8,277.5,223.4,276.9,226.1L276.9,226.1z"/>
			<path class="st104" d="M304.8,225.2c-0.2,2.7-2.5,4.8-5.2,4.6l-15.1-0.9c-2.7-0.2-4.8-2.5-4.6-5.2l0,0c0.2-2.7,2.5-4.8,5.2-4.6
				l15.1,0.9C302.9,220.2,305,222.5,304.8,225.2L304.8,225.2z"/>
			<path class="st78" d="M284.5,171.7c0,0,6.9,17.1,3.8,46.9"/>
			<path class="st78" d="M268.7,171.2c0,0,2.4,18.3-8.2,46.4"/>
		</g>
		<g id="Mman02_body">
			<g id="Mman02_left_hand">
				<path class="st144" d="M293.7,128.3c0,0,0.2,29.2,32.8,25.4"/>
				<path class="st116" d="M287.6,126.2c0.1,1.2,0.6,5.9,2.3,11.6c6-4.7,10.9-2.2,10.9-2.2c-1.3-4.1-2-8-2.2-10.2
					c-0.3-2.7-2.9-4.8-6-4.6C289.6,121.1,287.4,123.5,287.6,126.2z"/>
			</g>
			<path class="st111" d="M261.8,154.2c-0.4,2.1-8,22.1,12.2,22.6c9.2,0.3,18.4-4.6,19.8-10.9l0.4-6.5c0,0-4.7-6-13.9-7.7
				C271.3,150.1,261.8,154.2,261.8,154.2z"/>
			<path class="st123" d="M261.9,151.7c-0.9,6.4,5.8,12.7,15,14l0,0c9.2,1.3,17.4-2.9,18.3-9.3l3.5-24.7c0.9-6.4-5.8-12.7-15-14l0,0
				c-9.2-1.3-17.4,2.9-18.3,9.3L261.9,151.7z"/>
			<g id="Mman02_head">
				<path class="st46" d="M265.8,110c0.2,0.9,1.1,1.6,2,1.4l26.3-4.7c1-0.2,1.6-1.1,1.4-2l0,0c-0.2-1-1.1-1.6-2-1.4l-26.3,4.7
					C266.3,108.2,265.7,109.1,265.8,110L265.8,110z"/>
				<g>
					<path class="st42" d="M269.1,107.9c-0.3,6.7,5,12.4,11.7,12.7c6.7,0.3,12.4-5,12.6-11.7c0.3-6.7-5-12.4-11.7-12.6
						C275.1,95.9,269.4,101.2,269.1,107.9z"/>
					<path class="st97" d="M280.2,108.3c0,0.9,0.7,1.7,1.6,1.8c0.9,0,1.7-0.7,1.7-1.6c0-0.9-0.7-1.7-1.6-1.7
						C281,106.7,280.3,107.4,280.2,108.3z"/>
					<path class="st97" d="M286.4,107.4c0,0.9,0.7,1.7,1.6,1.8c0.9,0,1.7-0.7,1.7-1.6c0-0.9-0.7-1.7-1.6-1.7
						C287.2,105.7,286.5,106.4,286.4,107.4z"/>
					<circle cx="289" cy="107.3" r="0.6"/>
					<path d="M282.1,108.3c0,0.3,0.2,0.6,0.6,0.6c0.3,0,0.6-0.2,0.6-0.6c0-0.3-0.2-0.6-0.6-0.6C282.4,107.7,282.1,108,282.1,108.3z"
						/>
					<path class="st139" d="M282.3,111.5"/>
					<path class="st12" d="M282.3,111.5c0.2,1.6,1.6,1.6,3.3,1.4c1.7-0.2,2.5-1.1,2.7-2.3l0-0.1"/>
					<path class="st126" d="M284.9,109.9c0.1,0.4,0.5,0.7,0.9,0.6l0,0c0.4-0.1,0.7-0.5,0.6-0.9l-0.5-2.4c-0.1-0.4-0.5-0.7-0.9-0.6
						l0,0c-0.4,0.1-0.7,0.5-0.6,0.9L284.9,109.9z"/>
				</g>
				<path class="st142" d="M275.2,102c0,0,0.1,4.2-2.8,5.5l-0.2,4.9c0,0-0.5,0.9-1.5,0.1c0,0-0.6-0.8-0.6-1.4c0-0.6-0.4-2.9-1.3-3.7
					c-0.9-0.8,1.4-5.4,1.4-5.4L275.2,102z"/>
				<path class="st74" d="M268.6,98.3c0.2,2.5,1.8,4.5,3.5,4.3l18.8-1.8c1.7-0.2,2.9-2.3,2.7-4.9c0,0-0.7-1.1-4.6-2.6
					c0,0.1-1.6-2.9-3.7-2.4c-5.3-0.7-4,0.6-8.2,0.9c-5.1,0.3-5.9,1.7-5.9,1.7C269.6,94.4,268.4,95.8,268.6,98.3z"/>
				<path class="st25" d="M282.5,104.7c0,0-0.9-0.8-2.2,0.2"/>
				<path class="st25" d="M288.6,103.9c-1.2-1.1-2.1,0.2-2.2,0.2"/>
			</g>
			<g id="Mman02_right_hand">
				<path class="st144" d="M270.2,127.9c0,0-3,35.1,31,35.1"/>
				<path class="st116" d="M264.2,126.8c-0.1,1.2-0.2,6,0.7,11.8c6.6-3.9,11.1-0.7,11.1-0.7c-0.7-4.3-0.9-8.2-0.8-10.4
					c0.1-2.8-2.2-5.1-5.3-5.3C266.9,122,264.4,124.1,264.2,126.8z"/>
				<g>
					<polygon class="st92" points="313.3,154.7 316.6,147.6 323.3,153.6 				"/>
					<polygon class="st81" points="321.3,151.8 324.8,149.4 326.6,150.4 326.2,153.3 323.3,153.6 				"/>
					<polygon class="st69" points="315.9,142.3 318.4,142.5 320.3,142.3 320.3,139.9 				"/>
					<polygon class="st152" points="324.8,149.4 320.3,142.3 320.3,139.9 326.6,150.4 				"/>
					<polygon class="st138" points="321.3,151.8 316.6,147.6 315.9,142.3 318.4,142.5 320.3,142.3 324.8,149.4 				"/>
					<polygon class="st26" points="313.3,154.7 311.6,153.1 312.3,149.2 311.6,146.5 314.8,145.3 316.6,147.6 				"/>
					<polygon class="st13" points="313,143.1 315.9,142.3 314.8,145.3 311.6,146.5 				"/>
					<polygon class="st21" points="316.4,154.4 319.9,152 321.3,151.8 323.3,153.6 				"/>
					<polygon class="st137" points="316.6,147.6 315.9,142.3 314.8,145.3 				"/>
				</g>
			</g>
		</g>
	</g>
	<g id="maker_machine">
		<g>
			<g>
				<path class="st8" d="M541.8,157.1l-4.6,26.9c0,1.1-3.9,2-8.8,2c-4.9,0-8.8-0.9-8.8-2l-3.7-26.9H541.8z"/>
				<ellipse class="st154" cx="528.9" cy="157.1" rx="13" ry="2.9"/>
			</g>
			<path class="st20" d="M515.9,157.1L519,184c0,0,0.2,1.8,7.2,2v-26C526.2,159.9,517.2,159.7,515.9,157.1z"/>
			<path class="st20" d="M515.9,157.3l3.4,27.2c0,0,1.8,1.4,3.5,1.3l-2.2-26.4C520.7,159.3,516.7,158.8,515.9,157.3z"/>
		</g>
		<g id="maker_machine_bird">
			<g>
				<polygon class="st10" points="662.9,216.8 658.6,239.7 659.9,241.7 663.1,245.1 668.1,244 670.7,244 			"/>
				<polygon class="st38" points="651.7,246.9 662.1,239.4 662.1,240.8 			"/>
				<polygon class="st10" points="663.3,239 662.1,239.4 660.6,259.1 662.8,256.2 			"/>
				<polygon class="st38" points="660.4,237.7 651.7,246.8 661.9,239.4 663.3,239 			"/>
				<path class="st10" d="M665.6,252.7c0-0.1,1.3-4.4,1.3-4.4l4.2-4.4l1.9,1.4l1.3,7l-3.4,0.6H665.6z"/>
				<polyline class="st38" points="701.3,256.4 677.8,256.9 670.7,255.8 665.6,252.7 670.9,252.7 674.3,252.2 681.6,251.9 
					701.3,256.2 			"/>
				<polygon class="st38" points="673.4,247.7 691.8,231.4 674.1,251.2 			"/>
				<polygon class="st38" points="663.1,245.1 668.1,244 671.1,243.8 665.8,248.3 662.7,256.2 			"/>
				<polygon class="st38" points="659.9,242.1 657.5,256.9 660.8,255.4 661.9,240.9 			"/>
				<polygon class="st10" points="668.1,257.4 665.8,256.9 660.6,259.1 665.6,252.7 670.3,255.6 			"/>
				<polygon class="st10" points="663.5,255.3 666.2,255.8 665.8,256.9 660.6,258.9 			"/>
				<polygon class="st10" points="668.1,257.4 665.8,256.9 666.2,255.8 670.3,255.6 			"/>
				<polygon class="st10" points="671.1,244 665.8,248.3 660.6,258.9 665.6,252.7 666.9,248.3 			"/>
				<line class="st65" x1="665.8" y1="248.3" x2="663" y2="249.3"/>
			</g>
		</g>
		<g id="maker_machine04">
			<path class="st41" d="M648.6,197.9v66h-42.7v-53.3C630.9,191.2,648.6,197.9,648.6,197.9z"/>
			<path class="st88" d="M616.9,148.2h1l27,43.7l3.7,6c0,0-17.7-6.7-42.7,12.7l-25.3-44C580.6,166.7,587.6,149.4,616.9,148.2z"/>
			<path class="st125" d="M614.1,155.1h-0.8c-15.2,2.4-22.9,10.3-26.1,14.7l-1.8-3.2c0,0,5.7-14.1,29.8-15.1h0.8l22.1,35.9l3,4.9
				c0,0-1.6-0.6-4.6-0.8l-0.3-0.5L614.1,155.1z"/>
			<path class="st30" d="M587.2,169.8l2.9,5l16,27.9c7.8-6,14.7-9,20.3-10.3c4.1-1,7.5-1.1,10-0.9c0,0,0.1,0,0.1,0l-0.3-0.5
				l-22.1-35.9h-0.8C598.1,157.5,590.4,165.4,587.2,169.8z"/>
			<path class="st30" d="M587.2,169.8l2.9,5l16,27.9c7.8-6,14.7-9,20.3-10.3c4.1-1,7.5-1.1,10-0.9c0,0,0.1,0,0.1,0l-0.3-0.5
				l-22.1-35.9h-0.8C598.1,157.5,590.4,165.4,587.2,169.8z"/>
			<path class="st59" d="M587.2,169.8l2.9,5l23.2-6.3l0.9-13.4h-0.8C598.1,157.5,590.4,165.4,587.2,169.8z"/>
			<polygon class="st14" points="580.6,166.6 580.6,213 605.9,263.9 605.9,210.5 		"/>
			<path class="st40" d="M613.2,168.5l14.4,23.6c1.9-0.4,2.5-0.5,4-0.6c0.5,0,1-0.1,1.5-0.1c1.2,0,2.3,0,3.3,0l-22.2-36.3l-0.3,4
				l-0.1,1.8L613.2,168.5z"/>
			<path class="st110" d="M590.1,174.8l16,27.9c0.5-0.4,0.9-0.7,1.4-1c0.2-0.2,0.4-0.3,0.7-0.5c6.5-4.6,13.2-7.4,18.1-8.7
				c0.5-0.1,0.9-0.2,1.3-0.3l-14.4-23.6L590.1,174.8z"/>
			<path class="st99" d="M596.9,214.7c0,1.3,0.9,3.3,2,4.4l0,0c1.1,1.1,2,1,2-0.3l0-7c0-1.3-0.9-3.3-2-4.4l0,0c-1.1-1.1-2-1-2,0.3
				L596.9,214.7z"/>
			<path class="st99" d="M591.2,202.6c0,1.3,0.9,3.3,2,4.4l0,0c1.1,1.1,2,1,2-0.3l0-7c0-1.3-0.9-3.3-2-4.4l0,0c-1.1-1.1-2-1-2,0.3
				L591.2,202.6z"/>
			<path class="st99" d="M585.2,191.6c0,1.3,0.9,3.3,2,4.4l0,0c1.1,1.1,2,1,2-0.3l0-7c0-1.3-0.9-3.3-2-4.4l0,0c-1.1-1.1-2-1-2,0.3
				L585.2,191.6z"/>
			
				<ellipse transform="matrix(-0.9935 0.1139 -0.1139 -0.9935 1184.6145 299.3375)" class="st16" cx="583.8" cy="183.5" rx="0.6" ry="1.9"/>
			
				<ellipse transform="matrix(-0.9935 0.1139 -0.1139 -0.9935 1185.1733 309.118)" class="st96" cx="583.8" cy="188.4" rx="0.6" ry="1.9"/>
			<path class="st59" d="M613.7,161l17.9,30.5c0.5,0,1-0.1,1.5-0.1l-19.3-32.3L613.7,161z"/>
			<path class="st147" d="M593.6,176l14.6,25.1c6.5-4.6,13.2-7.4,18.1-8.7l-13.5-21.8L593.6,176z"/>
			<ellipse class="st134" cx="613.8" cy="189.5" rx="8.4" ry="3.4"/>
			<g id="maker_machine04_move">
				<polygon class="st99" points="629.3,186.3 622.9,186.7 621.5,184.3 627.9,183.9 			"/>
				<polygon class="st99" points="624.8,187.7 618.4,188.1 617,185.7 623.4,185.3 			"/>
				<polygon class="st95" points="624.8,188.9 624.8,187.7 618.4,188.1 618.4,189.3 			"/>
				<polygon class="st75" points="617,185.7 617,187 618.4,189.3 618.4,188.1 			"/>
				<polygon class="st95" points="629.3,187.5 629.3,186.3 622.9,186.7 622.9,187.9 			"/>
				<polygon class="st75" points="621.5,184.3 621.5,185.6 622.9,187.9 622.9,186.7 			"/>
			</g>
			<path class="st122" d="M593.6,176v1.2l13.9,24.4c0.2-0.2,0.4-0.3,0.7-0.5L593.6,176z"/>
			<ellipse class="st134" cx="605.4" cy="178.9" rx="6.5" ry="2.8"/>
		</g>
		<g id="maker_machine03">
			<path class="st119" d="M479.2,47.2c-4.2-11.2,28.2-5.6,18.9,13.9"/>
			<path class="st143" d="M450.7,45.8c0,2.2,1.8,4,4,4l0,0c2.2,0,4-1.8,4-4c-0.9-5.3-0.5-8.5,1.6-13.7c0.8-2-1.8-4-4-4l0,0
				c-2.2,0-3.4,1.4-4.6,3.3C449.2,35.4,450.7,45.8,450.7,45.8z"/>
			<path class="st143" d="M492.2,45.8c0,2.2-1.8,4-4,4l0,0c-2.2,0-4-1.8-4-4c0.9-5.3,0.5-8.5-1.6-13.7c-0.8-2,1.8-4,4-4l0,0
				c2.2,0,3.4,1.4,4.6,3.3C493.7,35.4,492.2,45.8,492.2,45.8z"/>
			<path class="st61" d="M435.8,188.5c0,2.1-1.7,3.8-3.8,3.8l0,0c-2.1,0-3.8-1.7-3.8-3.8v-8.7c0-2.1,1.7-3.8,3.8-3.8l0,0
				c2.1,0,3.8,1.7,3.8,3.8V188.5z"/>
			<path class="st61" d="M508.8,188.5c0,2.1-1.7,3.8-3.8,3.8l0,0c-2.1,0-3.8-1.7-3.8-3.8v-8.7c0-2.1,1.7-3.8,3.8-3.8l0,0
				c2.1,0,3.8,1.7,3.8,3.8V188.5z"/>
			<rect x="423.5" y="126.2" class="st147" width="90.3" height="52.7"/>
			<polygon class="st35" points="432.5,112.7 506.1,112.7 513.8,126.2 423.5,126.2 		"/>
			<polygon class="st18" points="445.8,47 493.1,47 498,56 440,56 		"/>
			<path class="st49" d="M452.1,47c-3.7-11.2-25.9-0.6-10.5,14.2"/>
			<rect x="433.8" y="119.4" class="st30" width="69.2" height="4.9"/>
			<path class="st58" d="M474.5,49.3c0,2.2-1.8,4-4,4l0,0c-2.2,0-4-1.8-4-4V34c0-2.2,1.8-4,4-4l0,0c2.2,0,4,1.8,4,4V49.3z"/>
			<polygon class="st18" points="440.6,110.4 497,110.4 502.9,119.4 433.7,119.4 		"/>
			<path class="st58" d="M461.7,45.8c0,2.2-1.8,4-4,4l0,0c-2.2,0-4-1.8-4-4c0.9-5.3,0.5-8.5-1.6-13.7c-0.8-2,1.8-4,4-4l0,0
				c2.2,0,3.4,1.4,4.6,3.3C463.2,35.4,461.7,45.8,461.7,45.8z"/>
			<path class="st94" d="M441.6,66.2c-11.7-1.1-6.5,16.2,0.8,16.2"/>
			<path class="st132" d="M496.7,66.9c6.2-9.9,28.3,3.6-2.4,22"/>
			<path class="st58" d="M481.2,45.8c0,2.2,1.8,4,4,4l0,0c2.2,0,4-1.8,4-4c-0.9-5.3-0.5-8.5,1.6-13.7c0.8-2-1.8-4-4-4l0,0
				c-2.2,0-3.4,1.4-4.6,3.3C479.7,35.4,481.2,45.8,481.2,45.8z"/>
			<path class="st72" d="M446.9,115.6c0,1-1.1,1.7-2.4,1.7l0,0c-1.3,0-2.4-0.8-2.4-1.7V74.4c0-1,1.1-1.7,2.4-1.7l0,0
				c1.3,0,2.4,0.8,2.4,1.7V115.6z"/>
			<path class="st72" d="M495.2,115.6c0,1-1.1,1.7-2.4,1.7l0,0c-1.3,0-2.4-0.8-2.4-1.7V74.4c0-1,1.1-1.7,2.4-1.7l0,0
				c1.3,0,2.4,0.8,2.4,1.7V115.6z"/>
			<path class="st48" d="M488.3,110.9c0,1-1.1,1.7-2.4,1.7l0,0c-1.3,0-2.4-0.8-2.4-1.7V69.7c0-1,1.1-1.7,2.4-1.7l0,0
				c1.3,0,2.4,0.8,2.4,1.7V110.9z"/>
			<path class="st48" d="M453.7,110.9c0,1-1.1,1.7-2.4,1.7l0,0c-1.3,0-2.4-0.8-2.4-1.7V69.7c0-1,1.1-1.7,2.4-1.7l0,0
				c1.3,0,2.4,0.8,2.4,1.7V110.9z"/>
			<g>
				<g>
					<polygon class="st22" points="470.8,99.4 468.3,98.6 470.1,102 				"/>
					<polygon class="st149" points="473.5,103.1 471,99.2 470.8,99.4 470.1,102 473.1,103.1 				"/>
					<polygon class="st149" points="474.4,106.5 474.5,105.2 473.4,103 473.1,103.1 472.2,105.7 472.9,106.4 474,106.3 				"/>
					<polygon class="st22" points="470.1,102 472.2,105.7 473.1,103.1 				"/>
					<polygon class="st22" points="470.3,103.9 470.1,102 472.2,105.7 				"/>
					<polygon class="st115" points="464.7,106.5 470.3,103.9 472.9,106.4 474.2,107.1 472.5,109.7 466.9,108.1 				"/>
					<polygon class="st107" points="474,106.3 474.4,106.5 474.2,107.1 472.9,106.4 				"/>
					<polygon class="st85" points="472.5,109.7 471.4,112.4 472.7,113.2 				"/>
					<polygon class="st73" points="473.3,114.8 472.7,113.2 471.4,112.4 469.8,114.6 471.9,116.6 				"/>
					<polygon class="st131" points="469,116.3 470.4,115.2 471.9,116.6 				"/>
					<polygon class="st22" points="469.8,114.6 468.1,113.6 467.4,111.8 467.4,109 466.9,108.1 472.5,109.7 471.4,112.4 				"/>
					<polygon class="st19" points="464.7,110.8 466.3,111.1 467.4,109 464.7,107.9 464.9,109.2 				"/>
					<polygon class="st17" points="467.4,111.8 466.3,111.1 467.4,109 				"/>
					<polygon class="st103" points="464.7,106.5 464.7,107.9 467.4,109 466.9,108.1 				"/>
					<polygon class="st73" points="464.7,104.3 464.7,106.5 466.8,105.6 				"/>
					<polygon class="st149" points="463.9,103.8 464.7,104.3 464.7,106.5 464.7,107.9 464.9,109.2 464.7,110.8 464.2,112.1 
						463.9,112.1 461.6,112.4 461.4,111.8 				"/>
					<polygon class="st0" points="464.9,110.9 464.9,112.3 463.7,113.9 463.7,113 464.2,112.1 464.7,110.8 				"/>
					<polygon class="st113" points="462.6,116.1 461.3,115.2 460.2,116.1 461.4,116 				"/>
					<polygon class="st106" points="461.6,112.4 461.3,115.2 462.7,116.1 463.7,114.7 463.7,114 463.7,113 464.2,112.1 463.9,112.1 
										"/>
					<polygon class="st149" points="460.9,115.5 459.6,115.7 459.1,116 460.2,116.1 				"/>
					<polygon class="st33" points="463.9,103.8 463.2,103.6 463,106.6 				"/>
					<polygon class="st83" points="462.9,101.5 462.2,102 462.6,103.3 463.2,101.9 				"/>
					<polygon class="st45" points="463.2,103.6 463.2,101.9 462.6,103.3 462.5,103.6 462.6,104.8 462.1,105.2 461.4,106.4 
						460.9,106.7 462.2,109.3 463,106.6 				"/>
					<polygon class="st56" points="460.2,102.8 459.7,104.3 460.7,105.3 460.7,106.3 460.9,106.7 461.4,106.4 462.1,105.2 				"/>
					<polygon class="st1" points="462.2,102 460.6,101.9 460.2,102.8 462.1,105.2 462.6,104.8 462.5,103.6 462.6,103.3 				"/>
					<polygon class="st73" points="460,101.3 460.6,101.9 459.6,103 459.7,101.3 				"/>
					<polygon class="st103" points="460.2,102.8 460.6,101.9 459.6,103 459.2,103.9 459.7,104.3 				"/>
					<polygon class="st106" points="458.9,105.7 459.4,105.4 459.4,106 459.1,106 				"/>
					<polygon class="st19" points="460.3,104.9 459.4,105.4 459.4,106 460.7,106 460.7,105.3 				"/>
					<polygon class="st85" points="459.2,103.9 459.7,104.3 460.3,104.9 459.4,105.4 459.3,104.6 459,104.1 				"/>
					<polygon class="st115" points="458,105.2 459,104.1 459.3,104.6 459.4,105.4 458.9,105.7 458.3,105.3 				"/>
					<polygon class="st0" points="458,105.4 458,105.2 458.3,105.3 458.5,105.4 				"/>
					<polygon class="st118" points="459.6,102.1 459.2,102.8 459.3,103 459.6,102.6 				"/>
					<polygon class="st56" points="459.1,104.1 459.1,103.3 459.6,102.6 459.6,103 459.2,103.9 				"/>
					<polygon class="st149" points="461.4,114.1 460.3,114.3 461.4,114.6 				"/>
					<polygon class="st2" points="473.3,108.5 473.3,109.5 472.5,110.4 472.5,109.7 				"/>
					<polygon class="st36" points="474.2,112.7 472.9,109.9 472.5,110.5 472.9,111.5 				"/>
					<polygon class="st115" points="473.2,114.6 473.8,114.6 474.4,114.1 474.2,112.7 472.9,111.5 472.5,110.5 472.6,112.1 
						473.4,114 473.4,114.5 				"/>
					<polygon class="st102" points="472.7,113.2 472.6,112.1 473.4,114 473.4,114.5 473.2,114.6 				"/>
				</g>
			</g>
			<g id="maker_machine02_tail">
				<polygon id="maker_machine02_tail07" class="st149" points="475.1,88.5 472.8,87.6 471.2,89.7 474.7,89 			"/>
				<g id="maker_machine02_tail06">
					<polygon class="st22" points="469.2,88.1 471.2,89.7 472.8,87.6 				"/>
					<polygon class="st149" points="469.2,90.1 469.2,88.1 471.2,89.7 				"/>
				</g>
				<g id="maker_machine02_tail05">
					<polygon class="st149" points="469,91.3 469,88.1 469.2,88.1 469.2,90.1 469.5,90 469.5,90.8 				"/>
					<polygon class="st149" points="466.5,90.9 469,88.1 469,91.3 				"/>
					<polygon class="st149" points="469,91.3 468,92.7 466.5,90.9 				"/>
				</g>
				<polygon id="maker_machine02_tail04" class="st22" points="468.6,93.4 466.5,90.9 466,94.8 466.3,95.3 467,94.8 			"/>
				<g id="maker_machine02_tail03">
					<polygon class="st149" points="468.5,95.2 468.6,93.4 466.5,95.1 				"/>
					<polygon class="st149" points="468.9,95.2 466.6,95 466.3,95.3 469.2,96.1 				"/>
				</g>
				<path id="maker_machine02_tail02" class="st22" d="M468.3,98.6c0-0.1,0.7-2.6,0.7-2.6l-2.7-0.7L468.3,98.6z"/>
				<polygon id="maker_machine02_tail01" class="st149" points="469.2,96.1 471,99.2 470.8,99.4 468.3,98.6 469,96 			"/>
			</g>
			<g id="maker_machine03_move">
				<polygon class="st52" points="463.7,85.5 469.7,99.7 471,99.4 468,86.1 			"/>
				<polygon class="st55" points="463.3,70.5 463.7,85.5 468,86.1 477.6,70.6 			"/>
			</g>
			<rect x="440" y="56" class="st30" width="58.1" height="18.3"/>
			<line class="st112" x1="423.5" y1="151.2" x2="513.8" y2="151.2"/>
			<path class="st129" d="M476.8,138.1c0,1-0.8,1.9-1.9,1.9h-12.6c-1,0-1.9-0.8-1.9-1.9l0,0c0-1,0.8-1.9,1.9-1.9h12.6
				C476,136.2,476.8,137.1,476.8,138.1L476.8,138.1z"/>
			<path class="st129" d="M476.8,161.6c0,1-0.8,1.9-1.9,1.9h-12.6c-1,0-1.9-0.8-1.9-1.9l0,0c0-1,0.8-1.9,1.9-1.9h12.6
				C476,159.7,476.8,160.6,476.8,161.6L476.8,161.6z"/>
		</g>
		<g id="maker_machine02">
			<path class="st119" d="M188.4,44.2c-4.2-11.2,28.2-5.6,18.9,13.9"/>
			<path class="st143" d="M157.7,43.6c0,2.2,1.8,4,4,4l0,0c2.2,0,4-1.8,4-4c-0.9-5.3-0.5-8.5,1.6-13.7c0.8-2-1.8-4-4-4l0,0
				c-2.2,0-3.4,1.4-4.6,3.3C156.3,33.1,157.7,43.6,157.7,43.6z"/>
			<path class="st143" d="M199.3,43.6c0,2.2-1.8,4-4,4l0,0c-2.2,0-4-1.8-4-4c0.9-5.3,0.5-8.5-1.6-13.7c-0.8-2,1.8-4,4-4l0,0
				c2.2,0,3.4,1.4,4.6,3.3C200.7,33.1,199.3,43.6,199.3,43.6z"/>
			<path class="st61" d="M145,185.4c0,2.1-1.7,3.8-3.8,3.8l0,0c-2.1,0-3.8-1.7-3.8-3.8v-8.7c0-2.1,1.7-3.8,3.8-3.8l0,0
				c2.1,0,3.8,1.7,3.8,3.8V185.4z"/>
			<path class="st61" d="M218,185.4c0,2.1-1.7,3.8-3.8,3.8l0,0c-2.1,0-3.8-1.7-3.8-3.8v-8.7c0-2.1,1.7-3.8,3.8-3.8l0,0
				c2.1,0,3.8,1.7,3.8,3.8V185.4z"/>
			<rect x="132.7" y="123.1" class="st147" width="90.3" height="52.7"/>
			<polygon class="st35" points="141.7,109.6 215.2,109.6 223,123.1 132.7,123.1 		"/>
			<polygon class="st18" points="155,43.9 202.2,43.9 207.2,52.9 149.2,52.9 		"/>
			<rect x="143" y="116.4" class="st30" width="69.2" height="4.9"/>
			<path class="st58" d="M181.5,47.1c0,2.2-1.8,4-4,4l0,0c-2.2,0-4-1.8-4-4V31.7c0-2.2,1.8-4,4-4l0,0c2.2,0,4,1.8,4,4V47.1z"/>
			<polygon class="st18" points="149.7,107.4 206.2,107.4 212.1,116.4 142.8,116.4 		"/>
			<path class="st58" d="M168.8,43.6c0,2.2-1.8,4-4,4l0,0c-2.2,0-4-1.8-4-4c0.9-5.3,0.5-8.5-1.6-13.7c-0.8-2,1.8-4,4-4l0,0
				c2.2,0,3.4,1.4,4.6,3.3C170.2,33.1,168.8,43.6,168.8,43.6z"/>
			<path class="st94" d="M150.8,63.2c-11.7-1.1-6.5,16.2,0.8,16.2"/>
			<path class="st49" d="M158.1,45.8c-3.7-11.2-21.5-2.4-8.9,14.2"/>
			<path class="st132" d="M205.8,63.8c6.2-9.9,28.3,3.6-2.4,22"/>
			<path class="st58" d="M188.2,43.6c0,2.2,1.8,4,4,4l0,0c2.2,0,4-1.8,4-4c-0.9-5.3-0.5-8.5,1.6-13.7c0.8-2-1.8-4-4-4l0,0
				c-2.2,0-3.4,1.4-4.6,3.3C186.8,33.1,188.2,43.6,188.2,43.6z"/>
			<polygon class="st108" points="175.6,88.1 178.5,107.4 164.5,97.7 		"/>
			<polygon class="st34" points="166.2,110.7 164.5,97.7 178.5,107.4 		"/>
			<polygon class="st60" points="175.6,88.1 178.5,107.4 187.2,98.2 		"/>
			<polygon class="st91" points="188,106 187.2,98.2 178.5,107.4 		"/>
			<polygon class="st135" points="182,114.8 188,106 178.5,107.4 		"/>
			<polygon class="st101" points="166.2,110.7 182,114.8 178.5,107.4 		"/>
			<path class="st72" d="M156.1,112.6c0,1-1.1,1.7-2.4,1.7l0,0c-1.3,0-2.4-0.8-2.4-1.7V71.3c0-1,1.1-1.7,2.4-1.7l0,0
				c1.3,0,2.4,0.8,2.4,1.7V112.6z"/>
			<path class="st72" d="M204.4,112.6c0,1-1.1,1.7-2.4,1.7l0,0c-1.3,0-2.4-0.8-2.4-1.7V71.3c0-1,1.1-1.7,2.4-1.7l0,0
				c1.3,0,2.4,0.8,2.4,1.7V112.6z"/>
			<path class="st48" d="M197.5,107.9c0,1-1.1,1.7-2.4,1.7l0,0c-1.3,0-2.4-0.8-2.4-1.7V66.6c0-1,1.1-1.7,2.4-1.7l0,0
				c1.3,0,2.4,0.8,2.4,1.7V107.9z"/>
			<path class="st48" d="M162.8,107.9c0,1-1.1,1.7-2.4,1.7l0,0c-1.3,0-2.4-0.8-2.4-1.7V66.6c0-1,1.1-1.7,2.4-1.7l0,0
				c1.3,0,2.4,0.8,2.4,1.7V107.9z"/>
			<g id="maker_machine02_move">
				<polygon class="st52" points="191.6,87.9 183.3,97.2 184.4,98.2 195.9,88.6 			"/>
				<polygon class="st55" points="177.5,70 191.6,87.9 195.9,88.6 191.8,70			"/>
			</g>
			<rect x="149.1" y="52.9" class="st30" width="58.1" height="18.3"/>
			<line class="st112" x1="132.7" y1="148.2" x2="223" y2="148.2"/>
			<path class="st129" d="M186,135.1c0,1-0.8,1.9-1.9,1.9h-12.6c-1,0-1.9-0.8-1.9-1.9l0,0c0-1,0.8-1.9,1.9-1.9h12.6
				C185.1,133.2,186,134,186,135.1L186,135.1z"/>
			<path class="st129" d="M186,158.6c0,1-0.8,1.9-1.9,1.9h-12.6c-1,0-1.9-0.8-1.9-1.9l0,0c0-1,0.8-1.9,1.9-1.9h12.6
				C185.1,156.7,186,157.5,186,158.6L186,158.6z"/>
		</g>
		<g id="maker_machine01">
			<path class="st41" d="M53.7,202.3v66h42.7v-53.3C71.3,195.6,53.7,202.3,53.7,202.3z"/>
			<path class="st88" d="M85.3,152.6h-1l-27,43.7l-3.7,6c0,0,17.7-6.7,42.7,12.7l25.3-44C121.6,171.1,114.7,153.9,85.3,152.6z"/>
			<path class="st125" d="M88.1,159.5h0.8c15.2,2.4,22.9,10.3,26.1,14.7l1.8-3.2c0,0-5.7-14.1-29.8-15.1h-0.8l-22.1,35.9l-3,4.9
				c0,0,1.6-0.6,4.6-0.8l0.3-0.5L88.1,159.5z"/>
			<path class="st30" d="M115,174.2l-2.9,5l-16,27.9c-7.8-6-14.7-9-20.3-10.3c-4.1-1-7.5-1.1-10-0.9c0,0-0.1,0-0.1,0l0.3-0.5
				l22.1-35.9h0.8C104.2,161.9,111.9,169.8,115,174.2z"/>
			<path class="st30" d="M115,174.2l-2.9,5l-16,27.9c-7.8-6-14.7-9-20.3-10.3c-4.1-1-7.5-1.1-10-0.9c0,0-0.1,0-0.1,0l0.3-0.5
				l22.1-35.9h0.8C104.2,161.9,111.9,169.8,115,174.2z"/>
			<path class="st59" d="M115,174.2l-2.9,5L89,172.9l-0.9-13.4h0.8C104.2,161.9,111.9,169.8,115,174.2z"/>
			<polygon class="st14" points="121.6,171 121.6,217.4 96.3,268.3 96.3,214.9 		"/>
			<path class="st40" d="M89,172.9l-14.4,23.6c-1.9-0.4-2.5-0.5-4-0.6c-0.5,0-1-0.1-1.5-0.1c-1.2,0-2.3,0-3.3,0l22.2-36.3l0.3,4
				l0.1,1.8L89,172.9z"/>
			<path class="st110" d="M112.2,179.2l-16,27.9c-0.5-0.4-0.9-0.7-1.4-1c-0.2-0.2-0.4-0.3-0.7-0.5c-6.5-4.6-13.2-7.4-18.1-8.7
				c-0.5-0.1-0.9-0.2-1.3-0.3L89,172.9L112.2,179.2z"/>
			<path class="st99" d="M105.3,219.1c0,1.3-0.9,3.3-2,4.4l0,0c-1.1,1.1-2,1-2-0.3l0-7c0-1.3,0.9-3.3,2-4.4l0,0c1.1-1.1,2-1,2,0.3
				L105.3,219.1z"/>
			<path class="st99" d="M111,207c0,1.3-0.9,3.3-2,4.4l0,0c-1.1,1.1-2,1-2-0.3l0-7c0-1.3,0.9-3.3,2-4.4l0,0c1.1-1.1,2-1,2,0.3
				L111,207z"/>
			<path class="st99" d="M117,196c0,1.3-0.9,3.3-2,4.4l0,0c-1.1,1.1-2,1-2-0.3l0-7c0-1.3,0.9-3.3,2-4.4l0,0c1.1-1.1,2-1,2,0.3
				L117,196z"/>
			
				<ellipse transform="matrix(0.9935 0.1139 -0.1139 0.9935 22.1798 -12.2727)" class="st16" cx="118.5" cy="187.9" rx="0.6" ry="1.9"/>
			
				<ellipse transform="matrix(0.9935 0.1139 -0.1139 0.9935 22.7388 -12.2408)" class="st96" cx="118.5" cy="192.8" rx="0.6" ry="1.9"/>
			<path class="st59" d="M88.5,165.4l-17.9,30.5c-0.5,0-1-0.1-1.5-0.1l19.3-32.3L88.5,165.4z"/>
			<path class="st147" d="M108.7,180.4l-14.6,25.1c-6.5-4.6-13.2-7.4-18.1-8.7l13.5-21.8L108.7,180.4z"/>
			<path class="st122" d="M108.7,180.4v1.2L94.7,206c-0.2-0.2-0.4-0.3-0.7-0.5L108.7,180.4z"/>
			<ellipse id="maker_machine01_circle01" class="st134" cx="85.2" cy="196.7" rx="4.3" ry="2.5"/>
			<ellipse id="maker_machine01_circle02" class="st134" cx="94.1" cy="190.4" rx="4.3" ry="2.5"/>
			<ellipse id="maker_machine01_circle03" class="st134" cx="92.3" cy="181.8" rx="4.3" ry="2.5"/>
			<g id="maker_machine01_move">
				<polygon class="st99" points="72.9,190.7 79.3,191.1 80.7,188.7 74.3,188.3 			"/>
				<polygon class="st99" points="77.4,192.1 83.8,192.5 85.2,190.1 78.8,189.7 			"/>
				<polygon class="st95" points="77.4,193.3 77.4,192.1 83.8,192.5 83.8,193.7 			"/>
				<polygon class="st75" points="85.2,190.1 85.2,191.4 83.8,193.7 83.8,192.5 			"/>
				<polygon class="st95" points="72.9,191.9 72.9,190.7 79.3,191.1 79.3,192.3 			"/>
				<polygon class="st75" points="80.7,188.7 80.7,190 79.3,192.3 79.3,191.1 			"/>
			</g>
		</g>
	</g>
	<g id="maker_man01">
		<g id="Mman01_foot">
			<path class="st71" d="M149.9,202.3c-3.1,1-5.3,3.3-5,5.1l2,9.9c0.4,1.8,3.1,2.4,6.2,1.4l0,0c3.1-1,5.3-3.3,5-5.1l-2-9.9
				C155.8,201.9,153,201.2,149.9,202.3L149.9,202.3z"/>
			<line class="st114" x1="160.6" y1="164.1" x2="153.7" y2="210.2"/>
			<path class="st71" d="M190.6,216.4c1.5-2.3,0.9-5.3-1.4-6.8l-12.6-8.3c-2.3-1.5-5.3-0.9-6.8,1.4l0,0c-1.5,2.3-0.9,5.3,1.4,6.8
				l12.6,8.3C186.1,219.3,189.1,218.7,190.6,216.4L190.6,216.4z"/>
			<line class="st114" x1="177.2" y1="162.1" x2="185.4" y2="208.5"/>
		</g>
		<g id="Mman01_body">
			<g id="Mman01_left_hand">
				<path class="st144" d="M151.6,118.9c-1.8,9.4-27.8,34.5-17,1.3"/>
				<path class="st11" d="M147.5,115.4c-0.7,0.9-3.6,4.8-6.2,10.1c7.5,0.5,9.2,5.5,9.2,5.5c1.9-3.9,4-7.2,5.4-9
					c1.7-2.2,1.2-5.5-1.1-7.3C152.4,113,149.2,113.3,147.5,115.4z"/>
			</g>
			<g id="Mman01_right_hand">
				<path class="st144" d="M212.9,140.3c-12.8,5.5-16.1,0.3-34.7-22.9"/>
				<path class="st11" d="M173.8,120.1c0.7,1,3.5,4.8,7.8,8.9c2.7-7,8-7.2,8-7.2c-3.2-2.9-5.7-6-7-7.8c-1.6-2.3-4.9-2.7-7.3-1.1
					C172.8,114.7,172.2,117.9,173.8,120.1z"/>
			</g>
			<g id="Mman01_head">
				<path class="st46" d="M176.7,99.4c0,1-0.9,1.7-1.8,1.7l-26.7-1.2c-1,0-1.7-0.9-1.7-1.8l0,0c0-1,0.9-1.7,1.8-1.7l26.7,1.2
					C176,97.6,176.7,98.4,176.7,99.4L176.7,99.4z"/>
				<g>
					<circle class="st42" cx="161.1" cy="99.7" r="12.2"/>
				</g>
				<path class="st153" d="M174.5,88.1c1.7,13.8-0.8,17.5-5.2,19.5c-3.3,1.5-10.9,1.6-14-0.2c-8.2-4.6-7.9-15.9-8-18.4
					c0,0-0.9-4.6,2.8-6.6c0,0.1-0.4,1.6,1.7,1.8c5.2-1.4,4.9-1.7,9.1-2c5.1-0.4,8.1,1.4,8.1,1.4C170.9,84.4,174.1,85.6,174.5,88.1z"
					/>
			</g>
			<path class="st155" d="M184.1,145.1c0.4,2.1,8,22.1-12.2,22.6c-9.2,0.3-18.4-4.6-19.8-10.9l-0.4-6.5c0,0,4.7-6,13.9-7.7
				C174.6,141,184.1,145.1,184.1,145.1z"/>
			<path class="st66" d="M184,142.6c0.9,6.4-5.8,12.7-15,14l0,0c-9.2,1.3-17.4-2.9-18.3-9.3l-3.5-24.7c-0.9-6.4,5.8-12.7,15-14l0,0
				c9.2-1.3,17.4,2.9,18.3,9.3L184,142.6z"/>
		</g>
	</g>
	<g id="maker_man05">
		<g id="Mman05_body">
			<path class="st155" d="M547.3,189.9c-0.4,2.1-8,22.1,12.2,22.6c9.2,0.3,18.4-4.6,19.8-10.9l0.4-6.5c0,0-4.7-6-13.9-7.7
				C556.8,185.8,547.3,189.9,547.3,189.9z"/>
			<path class="st84" d="M547.3,187.4c-0.9,6.4,5.8,12.7,15,14l0,0c9.2,1.3,17.4-2.9,18.3-9.3l3.5-24.7c0.9-6.4-5.8-12.7-15-14l0,0
				c-9.2-1.3-17.4,2.9-18.3,9.3L547.3,187.4z"/>
			<g id="Mman05_head">
				<path class="st46" d="M558.1,143.9c-0.1,1,0.6,1.8,1.5,1.9l26.5,3.3c1,0.1,1.8-0.6,2-1.5l0,0c0.1-1-0.6-1.8-1.5-2l-26.5-3.3
					C559.1,142.2,558.2,142.9,558.1,143.9L558.1,143.9z"/>
				<g>
					<circle class="st42" cx="573.3" cy="146.9" r="12.2"/>
					<path class="st97" d="M572.3,146.5c-0.3,0.9,0.2,1.8,1,2.2c0.9,0.3,1.8-0.1,2.1-1c0.3-0.9-0.1-1.8-1-2.1
						C573.6,145.2,572.6,145.6,572.3,146.5z"/>
					<path class="st97" d="M578.5,147.4c-0.3,0.9,0.1,1.8,1,2.2c0.9,0.3,1.8-0.1,2.1-1c0.3-0.9-0.1-1.8-1-2.1
						C579.8,146.1,578.8,146.6,578.5,147.4z"/>
					<circle cx="581.2" cy="148.8" r="0.6"/>
					<path d="M574.4,147.8c-0.1,0.3,0.1,0.7,0.4,0.8c0.3,0.1,0.7-0.1,0.8-0.4c0.1-0.3-0.1-0.7-0.4-0.8
						C574.9,147.3,574.5,147.5,574.4,147.8z"/>
					<path class="st90" d="M573.3,150.1L573.3,150.1c-0.3,1.7,0.9,3.2,2.5,3.5c1.6,0.3,3.2-0.9,3.5-2.5l0-0.1L573.3,150.1z"/>
					<path class="st126" d="M576.3,149.4c0,0.4,0.3,0.8,0.7,0.8l0,0c0.4,0,0.8-0.3,0.8-0.7l0.2-2.5c0-0.4-0.3-0.8-0.7-0.8l0,0
						c-0.4,0-0.8,0.3-0.8,0.7L576.3,149.4z"/>
				</g>
				<path class="st79" d="M569.4,139c0,0-1.1,4-4.3,4.4l-1.7,4.7c0,0-0.7,0.8-1.5-0.4c0,0-0.3-0.9-0.1-1.5c0.2-0.5,0.5-2.9-0.1-3.9
					c-0.6-1,0.5-4.1,1.2-5.3c2.6-5.3,11.8-4.3,15.1-3.9c12.7,1.6,6.1,8.1,6.1,8.1L569.4,139z"/>
				<path class="st27" d="M575.6,143.7c0,0-0.6-1.1-2.1-0.5"/>
				<path class="st27" d="M581.6,144.7c-0.8-1.4-2.1-0.5-2.1-0.5"/>
			</g>
			<line id="Mman05_left_hand" class="st150" x1="579.2" y1="162.3" x2="584.3" y2="179.9"/>
			<g id="Mman05_right_hand">
				<path class="st144" d="M554.7,161.4c0,0-46.2,15.9-5.3,24.6"/>
				<path class="st11" d="M553.8,156.3c-1.1,0.3-5.7,1.7-11,4.4c5.7,4.8,4.1,9.9,4.1,9.9c3.8-2,7.5-3.4,9.7-4
					c2.7-0.8,4.2-3.7,3.4-6.6C559.2,157.2,556.5,155.5,553.8,156.3z"/>
			</g>
		</g>
		<g id="Mman05_foot">
			<path class="st104" d="M586.6,245.8c0.1,2.7-2,5-4.7,5.2l-15.1,0.7c-2.7,0.1-5-2-5.2-4.7l0,0c-0.1-2.7,2-5,4.7-5.2l15.1-0.7
				C584.2,241,586.5,243.1,586.6,245.8L586.6,245.8z"/>
			<path class="st104" d="M564.6,255.8c0.1,2.7-2,5-4.7,5.2l-15.1,0.7c-2.7,0.1-5-2-5.2-4.7l0,0c-0.1-2.7,2-5,4.7-5.2l15.1-0.7
				C562.2,250.9,564.5,253,564.6,255.8L564.6,255.8z"/>
			<path class="st114" d="M570,208.9c0,0,6,15.9-0.9,34.4"/>
			<path class="st114" d="M554.2,207c0,0,5.9,28.9-8.2,46.4"/>
		</g>
	</g>
	<g id="maker_chair">
		<g>
			<path class="st70" d="M249.1,219l-12.5-12.1c-0.1-0.1-0.3-0.2-0.4-0.3v-25.6c0,0-0.4-1.5-3-1.5c-2.6,0-3,1.5-3,1.5v25.5
				c-0.1,0.1-0.3,0.2-0.4,0.3l-12.5,12.1c-0.9,0.9-0.8,2.2,0.1,3c1,0.8,2.4,0.7,3.3-0.1l10.4-10.1v13c0,1.2,1,2.1,2.3,2.1
				c1.3,0,2.3-0.9,2.3-2.1v-12.4l9.9,9.6c0.9,0.9,2.4,0.9,3.3,0.1C250,221.1,250,219.8,249.1,219z"/>
			<path class="st117" d="M255.4,177.7v4.1c0,3.6-9.8,6.5-21.9,6.5c-12.1,0-21.9-2.9-21.9-6.5v-4.1H255.4z"/>
			<ellipse class="st62" cx="233.5" cy="177.7" rx="21.9" ry="6.5"/>
		</g>
		<g>
			<path class="st70" d="M475.1,249.9l-12.5-12.1c-0.1-0.1-0.3-0.2-0.4-0.3v-25.6c0,0-0.4-1.5-3-1.5c-2.6,0-3,1.5-3,1.5v25.5
				c-0.1,0.1-0.3,0.2-0.4,0.3l-12.5,12.1c-0.9,0.9-0.8,2.2,0.1,3s2.4,0.7,3.3-0.1l10.4-10.1v13c0,1.2,1,2.1,2.3,2.1
				c1.3,0,2.3-0.9,2.3-2.1v-12.4l9.9,9.6c0.9,0.9,2.4,0.9,3.3,0.1S476,250.7,475.1,249.9z"/>
			<path class="st117" d="M481.4,208.6v4.1c0,3.6-9.8,6.5-21.9,6.5c-12.1,0-21.9-2.9-21.9-6.5v-4.1H481.4z"/>
			<ellipse class="st62" cx="459.5" cy="208.6" rx="21.9" ry="6.5"/>
		</g>
		<path class="st76" d="M416.7,230.4c0,2.9-2.4,5.3-5.3,5.3l0,0c-2.9,0-5.3-2.4-5.3-5.3v-51.4c0-2.9,2.4-5.3,5.3-5.3l0,0
			c2.9,0,5.3,2.4,5.3,5.3V230.4z"/>
	</g>
	<g id="maker_man04_bottom">
		<path class="st44" d="M401.3,231.8c-0.5,2.7,1.2,5.3,3.8,5.8l14.8,3c2.7,0.5,5.3-1.2,5.8-3.8l0,0c0.5-2.7-1.2-5.3-3.8-5.8l-14.8-3
			C404.4,227.4,401.8,229.1,401.3,231.8L401.3,231.8z"/>
		<path class="st50" d="M444.5,199.8c0,0-26.8,4.6-25.8,30.3"/>
		<path class="st54" d="M413.6,243.6c-0.5,2.7,1.2,5.3,3.8,5.8l14.8,3c2.7,0.5,5.3-1.2,5.8-3.8l0,0c0.5-2.7-1.2-5.3-3.8-5.8l-14.8-3
			C416.8,239.2,414.2,240.9,413.6,243.6L413.6,243.6z"/>
		<path class="st114" d="M466,204.8c0,0-36,1.3-34,37.5"/>
	</g>
	<g id="maker_man03">
		<g id="Mman03_body">
			<g id="Mman03_right_hand">
				<path class="st144" d="M356.5,79.5c0,0-22.1,44.9,6.7,52.2"/>
				<path class="st6" d="M352.8,134.6c-0.8-0.9-3.8-4.6-6.6-9.9c7.6-0.9,9.2-6.1,9.2-6.1c2,3.8,4.3,7.1,5.7,8.8
					c1.8,2.1,1.3,5.5-1,7.5C357.9,136.8,354.6,136.7,352.8,134.6z"/>
				<g>
					<polygon class="st136" points="359.6,52.3 363.3,52.9 368.4,58.3 367.9,60 362.6,57.4 				"/>
					<path class="st9" d="M367,61.7l0.9-1.7l-5.4-2.6l-3-5.1c0,0,1,8.8,3.8,8.8L367,61.7z"/>
					<polygon class="st31" points="361.9,52.7 360.7,45.4 368.3,56.2 367.4,57.3 363.3,52.9 				"/>
					<polygon class="st9" points="369.2,56.4 375.9,57.4 379.8,61.9 379.8,62.5 378.4,63.6 376.6,63.7 373.5,63.9 370.4,64.6 
						367.4,66 366.4,63 367,61.7 367.9,60 368.4,58.3 				"/>
					<polygon class="st77" points="369.8,55.7 369.2,56.4 375.9,57.4 				"/>
					<polygon class="st43" points="367.4,57.3 368.3,56.2 369.8,55.7 369.2,56.4 				"/>
					<polygon class="st121" points="368.4,58.3 367.4,57.3 369.2,56.4 				"/>
					<polygon class="st141" points="363.6,61.1 367.4,67 367.4,66 366.4,63 367.1,61.5 				"/>
					<path class="st57" d="M368.3,72.9c0.1-0.3,2.1-8.3,2.1-8.3l-3,1.4l0,1L368.3,72.9z"/>
					<polygon class="st127" points="372.8,64.1 378.6,79.9 371.5,77.6 368.3,72.9 370.4,64.6 				"/>
					<polygon class="st98" points="376,82.8 380,82.5 378.6,79.9 371.5,77.6 				"/>
					<polygon class="st3" points="373.5,63.9 378.8,78.9 378.3,79.1 372.8,64.1 				"/>
					<polygon class="st93" points="363.5,61.2 365.4,68.5 368,71.3 367.4,67 				"/>
					<polygon class="st146" points="375.2,81.9 370,82.8 369.3,84.4 368.7,84.9 361,83.3 358.3,74.1 358.7,72.6 363.9,62.8 
						365.4,68.5 368,71.3 368.3,72.9 371.5,77.6 				"/>
					<polygon class="st63" points="352.3,79 359.5,78.2 360.8,82.6 354,80.6 				"/>
					<polygon class="st39" points="352.2,77.7 352.3,79 359.5,78.2 359.2,77.1 				"/>
					<polygon class="st145" points="355.9,76.8 352.2,77.7 359.2,77.1 359,76.6 				"/>
					<polygon class="st100" points="370,82.8 365.8,76.6 369.3,84.4 				"/>
					<polygon class="st64" points="369.2,56.4 376.6,63.7 375.9,57.4 				"/>
					<polygon class="st124" points="376.6,63.7 379.8,61.9 375.9,57.3 				"/>
				</g>
			</g>
			<path class="st111" d="M387.6,159.2c0.2,2.1,5.5,22.8-14.6,21.1c-9.2-0.8-17.8-6.6-18.5-13l0.4-6.5c0,0,5.4-5.4,14.6-6.1
				C378.6,154.1,387.6,159.2,387.6,159.2z"/>
			<path class="st32" d="M387.8,156.7c0.2,6.5-7.2,12-16.5,12.3l0,0c-9.3,0.3-17-4.8-17.2-11.3l-0.7-24.9c-0.2-6.5,7.2-12,16.5-12.3
				l0,0c9.3-0.3,17,4.8,17.2,11.3L387.8,156.7z"/>
			<g id="Mman03_head">
				<path class="st46" d="M385.3,112.9c-0.2,1-1,1.6-2,1.5l-26.4-4.1c-1-0.1-1.6-1-1.5-2l0,0c0.1-1,1-1.6,2-1.5l26.4,4.1
					C384.8,111.1,385.4,112,385.3,112.9L385.3,112.9z"/>
				<g>
					<circle class="st42" cx="369.8" cy="111.6" r="12.2"/>
					<path class="st97" d="M370.9,111.5c0.1,0.9-0.7,1.7-1.6,1.8c-0.9,0.1-1.7-0.6-1.8-1.6c-0.1-0.9,0.6-1.7,1.6-1.8
						C370,109.9,370.8,110.6,370.9,111.5z"/>
					<path class="st97" d="M364.7,110.7c0.1,0.9-0.7,1.7-1.6,1.8c-0.9,0.1-1.7-0.6-1.8-1.6c-0.1-0.9,0.6-1.7,1.6-1.8
						C363.8,109.1,364.6,109.8,364.7,110.7z"/>
					<circle cx="362.1" cy="110.7" r="0.6"/>
					<path d="M369,111.5c0,0.3-0.2,0.6-0.6,0.6c-0.3,0-0.6-0.2-0.6-0.6c0-0.3,0.2-0.6,0.6-0.6C368.7,111,369,111.2,369,111.5z"/>
					<path class="st90" d="M368.9,114.7L368.9,114.7c-0.2,1.7-1.7,2.9-3.4,2.7c-1.7-0.2-2.8-1.7-2.6-3.4l0-0.1L368.9,114.7z"/>
					<path class="st126" d="M366.3,113.2c-0.1,0.4-0.5,0.7-0.9,0.6l0,0c-0.4-0.1-0.7-0.5-0.6-0.9l0.5-2.4c0.1-0.4,0.5-0.7,0.9-0.6
						l0,0c0.4,0.1,0.7,0.5,0.6,0.9L366.3,113.2z"/>
				</g>
				<path class="st128" d="M375.7,105.1c0,0,0,4.2,2.9,5.4l0.3,4.9c0,0,0.5,0.9,1.5,0c0,0,0.6-0.8,0.5-1.4c0-0.6,0.3-2.9,1.2-3.7
					s-1.5-5.4-1.5-5.4L375.7,105.1z"/>
				<path class="st153" d="M382.3,101.3c-0.2,2.5-1.7,4.5-3.4,4.4l-18.8-1.4c-1.7-0.1-2.9-2.3-2.8-4.8c0,0-0.4-4.7,3.5-6.2
					c0,0.1-0.6,1.6,1.5,2c5.3-0.8,5.1-1.1,9.3-1c5.1,0.2,7.9,2.2,7.9,2.2C381.2,97.4,382.4,98.7,382.3,101.3z"/>
				<path class="st27" d="M368.5,107.9c0,0,0.9-0.8,2.2,0.1"/>
				<path class="st27" d="M362.4,107.3c1.2-1.1,2.1,0.1,2.2,0.1"/>
			</g>
			<g id="Mman03_left_hand">
				<path class="st144" d="M387.8,90.3c19.5,2,29.8,29.1-4.1,40.8"/>
				<path class="st6" d="M385.4,136.8c1.1-0.4,5.5-2.3,10.5-5.5c-6.2-4.4-5.1-9.8-5.1-9.8c-3.6,2.4-7.1,4.1-9.2,4.9
					c-2.6,1-3.8,4.1-2.7,7C379.9,136.3,382.8,137.8,385.4,136.8z"/>
			</g>
		</g>
		<g id="Mman03_foot">
			<path class="st120" d="M364.6,228.9c0.2,2.7,2.6,4.7,5.3,4.5l15.1-1.3c2.7-0.2,4.7-2.6,4.5-5.3l0,0c-0.2-2.7-2.6-4.7-5.3-4.5
				l-15.1,1.3C366.3,223.8,364.3,226.2,364.6,228.9L364.6,228.9z"/>
			<path class="st120" d="M337,225c-0.1,2.7,2,5,4.7,5.2l15.1,0.7c2.7,0.1,5-2,5.2-4.7l0,0c0.1-2.7-2-5-4.7-5.2l-15.1-0.7
				C339.4,220.2,337.1,222.3,337,225L337,225z"/>
			<path class="st78" d="M363.1,174c0,0-8.8,16.2-9,46.2"/>
			<path class="st78" d="M378.8,175.4c0,0-4.4,17.9,3,47"/>
		</g>
	</g>
	<g id="maker_desk">
		<g>
			<path class="st76" d="M205.4,231.2c0,2.9-2.4,5.3-5.3,5.3l0,0c-2.9,0-5.3-2.4-5.3-5.3v-51.4c0-2.9,2.4-5.3,5.3-5.3l0,0
				c2.9,0,5.3,2.4,5.3,5.3V231.2z"/>
			<path class="st76" d="M188.1,269.9c0,2.9-2.4,5.3-5.3,5.3l0,0c-2.9,0-5.3-2.4-5.3-5.3v-51.4c0-2.9,2.4-5.3,5.3-5.3l0,0
				c2.9,0,5.3,2.4,5.3,5.3V269.9z"/>
			<path class="st76" d="M434.1,269.9c0,2.9-2.4,5.3-5.3,5.3l0,0c-2.9,0-5.3-2.4-5.3-5.3v-51.4c0-2.9,2.4-5.3,5.3-5.3l0,0
				c2.9,0,5.3,2.4,5.3,5.3V269.9z"/>
			<rect x="170.5" y="207.9" class="st15" width="275.5" height="10.5"/>
			<polygon class="st37" points="198,160.4 422.5,160.4 446,207.9 170.5,207.9 		"/>
		</g>
		<g>
			<polygon class="st24" points="397.2,173.6 419.1,170.7 435.8,190.2 413,195.7 		"/>
			<polygon class="st40" points="393.8,148.9 397.4,173.6 413,195.7 408.7,161.9 		"/>
			<path class="st148" d="M405,170.4c0.4,1.8,0.3,3.4-0.4,3.6c-0.7,0.2-1.6-1.2-2-3c-0.4-1.8-0.3-3.4,0.4-3.6
				C403.6,167.2,404.5,168.6,405,170.4z"/>
			<path class="st135" d="M393.8,148.9c0,0,7,28.9,19.2,46.8l-15.7-22L393.8,148.9z"/>
		</g>
		<g>
			<path class="st70" d="M237.6,288.3l-12.5-12.1c-0.1-0.1-0.3-0.2-0.4-0.3v-25.6c0,0-0.4-1.5-3-1.5c-2.6,0-3,1.5-3,1.5v25.5
				c-0.1,0.1-0.3,0.2-0.4,0.3l-12.5,12.1c-0.9,0.9-0.8,2.2,0.1,3c1,0.8,2.4,0.7,3.3-0.1l10.4-10.1v13c0,1.2,1,2.1,2.3,2.1
				c1.3,0,2.3-0.9,2.3-2.1v-12.4l9.9,9.6c0.9,0.9,2.4,0.9,3.3,0.1C238.4,290.4,238.4,289.1,237.6,288.3z"/>
			<path class="st117" d="M243.8,247v4.1c0,3.6-9.8,6.5-21.9,6.5c-12.1,0-21.9-2.9-21.9-6.5V247H243.8z"/>
			<ellipse class="st62" cx="221.9" cy="247" rx="21.9" ry="6.5"/>
		</g>
		<g>
			<path class="st70" d="M400.1,283.4l-12.5-12.1c-0.1-0.1-0.3-0.2-0.4-0.3v-25.6c0,0-0.4-1.5-3-1.5c-2.6,0-3,1.5-3,1.5v25.5
				c-0.1,0.1-0.3,0.2-0.4,0.3l-12.5,12.1c-0.9,0.9-0.8,2.2,0.1,3c1,0.8,2.4,0.7,3.3-0.1l10.4-10.1v13c0,1.2,1,2.1,2.3,2.1
				c1.3,0,2.3-0.9,2.3-2.1v-12.4l9.9,9.6c0.9,0.9,2.4,0.9,3.3,0.1C401,285.6,401,284.3,400.1,283.4z"/>
			<path class="st117" d="M406.4,242.2v4.1c0,3.6-9.8,6.5-21.9,6.5c-12.1,0-21.9-2.9-21.9-6.5v-4.1H406.4z"/>
			<ellipse class="st62" cx="384.5" cy="242.2" rx="21.9" ry="6.5"/>
		</g>
		<g>
			<path class="st23" d="M270.5,177.3l-1.1,12.4c-0.1,0-0.3-0.1-0.4-0.1c-0.6-0.1-1.1-0.1-1.5,0c-0.2-0.3-0.3-0.7-0.3-1.1l0.9-9.7
				C268.2,177.8,269.3,177.1,270.5,177.3z"/>
			<path class="st4" d="M270.5,177.3l-1.1,12.4c-0.1,0-0.5-0.4-0.4-0.8l0.9-9.7C270,178.2,269.9,177.3,270.5,177.3z"/>
			<path class="st53" d="M269.1,197L269.1,197c-0.3,0-0.6,0-0.9-0.1c-2-0.3-3.5-1.6-3.3-3l0.3-3.2c0.1-1.2,1.3-1.9,3-1.9
				c0.3,0,0.6,0,0.9,0.1c2,0.3,3.5,1.6,3.3,3l-0.3,3.2C272,196.2,270.8,197,269.1,197z M268.3,190.2c-1,0-1.6,0.4-1.7,0.7l-0.3,3.2
				c0,0.5,0.8,1.3,2.2,1.5c0.2,0,0.5,0.1,0.7,0.1c1,0,1.6-0.4,1.7-0.7l0.3-3.2c0-0.5-0.8-1.3-2.2-1.5
				C268.7,190.2,268.5,190.2,268.3,190.2z"/>
			<path class="st87" d="M264.6,187.5c-0.1-0.1-0.1-0.1-0.2-0.2l15.6-5.5c0.8,0.7,0.4,1.7-1,2.1l-12.5,4.4c-0.4,0.1-0.8,0.2-1.2,0.2
				C265.2,188.2,265,187.8,264.6,187.5z"/>
			<path class="st4" d="M264.6,187.5c-0.1-0.1-0.1-0.1-0.2-0.2l15.6-5.5c0.3,0.3-0.3,0.5-1.6,1l-12.5,4.4
				C265.5,187.3,265.1,187.4,264.6,187.5C264.6,187.1,265,187.8,264.6,187.5z"/>
			<path class="st133" d="M267.5,186.2c-0.3,0.3-0.1,0.8,0.5,1.1c0.6,0.3,1.4,0.2,1.7-0.1c0.3-0.3,0.1-0.8-0.5-1.1
				C268.6,185.8,267.9,185.9,267.5,186.2z"/>
			<path class="st105" d="M267.8,186.1c-0.3,0.3-0.1,0.6,0.4,0.8c0.5,0.2,1.1,0.2,1.3-0.1c0.3-0.3,0.1-0.6-0.4-0.8
				C268.7,185.9,268.1,185.9,267.8,186.1z"/>
			<path class="st80" d="M267.9,185.9c-0.2,0.2-0.1,0.6,0.4,0.7c0.4,0.2,0.9,0.2,1.2-0.1c0.2-0.2,0.1-0.6-0.4-0.7
				C268.7,185.7,268.2,185.7,267.9,185.9z"/>
			<path class="st53" d="M258.9,192.4L258.9,192.4c-1.2,0-2.4-0.4-3.3-1.1c-0.7-0.6-1.1-1.3-0.9-2c0.1-0.7,0.6-1.2,1.4-1.6l4-1.6
				c0.5-0.2,1-0.3,1.6-0.3c1.2,0,2.4,0.4,3.3,1.1c0.7,0.6,1.1,1.3,0.9,2c-0.1,0.7-0.6,1.3-1.4,1.6l-4,1.6
				C260,192.3,259.5,192.4,258.9,192.4z M261.7,187.2c-0.4,0-0.8,0.1-1.1,0.2l-4,1.6c-0.3,0.1-0.6,0.3-0.6,0.5c0,0.2,0.1,0.5,0.5,0.8
				c0.6,0.5,1.5,0.8,2.4,0.8c0,0,0,0,0,0c0.4,0,0.8-0.1,1.1-0.2l4-1.6c0.3-0.1,0.6-0.3,0.6-0.5c0-0.2-0.1-0.5-0.5-0.8
				C263.6,187.5,262.6,187.2,261.7,187.2z"/>
		</g>
		<g>
			<rect x="204.6" y="163" class="st140" width="20.5" height="27.5"/>
			<polygon class="st51" points="233.5,185.3 225.1,190.4 225.1,163 233.5,157.8 		"/>
			<polygon class="st89" points="213,157.8 233.5,157.8 225.1,163 204.6,163 		"/>
			<polygon class="st82" points="215.1,158.9 228.5,158.9 223,161.9 209.6,161.9 		"/>
			<g>
				<path class="st28" d="M214,161.9h4.2l-4.7-16.8c-0.3-1.1-1.4-1.7-2.5-1.4c-1.1,0.3-1.7,1.4-1.4,2.5L214,161.9z"/>
				<path class="st47" d="M217.2,132c0-0.9-0.7-1.6-1.6-1.6c-0.9,0-1.6,0.7-1.6,1.6v29.9h3.1V132z"/>
				<path class="st86" d="M224.6,134.9c0.1-0.7-0.4-1.4-1.1-1.5c-0.7-0.1-1.4,0.4-1.5,1.1l-4.2,27.4h2.7L224.6,134.9z"/>
				<path class="st5" d="M224.2,142.9l-2.8,18.9h1.8l3.6-2l2.5-19c0-0.1,0-0.2,0-0.4L224.2,142.9z"/>
				<line class="st151" x1="227.7" y1="142.7" x2="225.4" y2="160.5"/>
				<g>
					<line class="st151" x1="224.5" y1="144.1" x2="226.2" y2="143.5"/>
					<line class="st151" x1="224.3" y1="145.2" x2="226" y2="144.6"/>
					<line class="st151" x1="224.1" y1="146.3" x2="225.9" y2="145.8"/>
					<line class="st151" x1="223.9" y1="147.4" x2="225.7" y2="146.9"/>
					<line class="st151" x1="223.7" y1="148.5" x2="225.5" y2="148"/>
					<line class="st151" x1="223.6" y1="149.6" x2="225.3" y2="149.1"/>
					<line class="st151" x1="223.4" y1="150.8" x2="225.1" y2="150.2"/>
					<line class="st151" x1="223.2" y1="151.9" x2="224.9" y2="151.3"/>
					<line class="st151" x1="223" y1="153" x2="224.7" y2="152.4"/>
					<line class="st151" x1="222.8" y1="154.1" x2="224.6" y2="153.6"/>
					<line class="st151" x1="222.6" y1="155.2" x2="224.4" y2="154.7"/>
					<line class="st151" x1="222.4" y1="156.3" x2="224.2" y2="155.8"/>
					<line class="st151" x1="222.3" y1="157.4" x2="224" y2="156.9"/>
					<line class="st151" x1="222.1" y1="158.6" x2="223.8" y2="158"/>
					<line class="st151" x1="221.9" y1="159.7" x2="223.7" y2="159.1"/>
					<line class="st151" x1="221.8" y1="160.8" x2="223.5" y2="160.2"/>
				</g>
			</g>
		</g>
		<g>
			<path class="st23" d="M319.1,180.2l0.9,10.6c0.1,0,0.2-0.1,0.3-0.1c0.5-0.1,0.9-0.1,1.3,0c0.2-0.3,0.3-0.6,0.3-0.9l-0.7-8.3
				C321.2,180.6,320.2,180,319.1,180.2z"/>
			<path class="st4" d="M319.1,180.2l0.9,10.6c0.1,0,0.4-0.4,0.4-0.7l-0.7-8.3C319.6,180.9,319.7,180.2,319.1,180.2z"/>
			<path class="st68" d="M320.3,197.6c-1.7,0-2.9-0.8-3-2.1l-0.3-2.7c-0.1-1.4,1.2-2.7,3.2-3c0.3,0,0.6-0.1,0.8-0.1
				c1.7,0,2.9,0.8,3,2.1l0.3,2.7c0.1,1.4-1.2,2.7-3.2,3C320.9,197.6,320.6,197.6,320.3,197.6z M321.1,191.7c-0.2,0-0.3,0-0.5,0
				c-1,0.2-1.5,0.7-1.5,0.8l0.3,2.7c0,0,0.4,0.2,1,0.2c0.2,0,0.3,0,0.5,0c1-0.2,1.5-0.7,1.5-0.8l-0.3-2.7
				C322,191.9,321.7,191.7,321.1,191.7z"/>
			<path class="st87" d="M324.2,188.9c0.1,0,0.1-0.1,0.2-0.1L311,184c-0.7,0.6-0.3,1.4,0.8,1.8l10.7,3.8c0.3,0.1,0.7,0.2,1,0.2
				C323.7,189.6,323.9,189.2,324.2,188.9z"/>
			<path class="st4" d="M324.2,188.9c0.1,0,0.1-0.1,0.2-0.1L311,184c-0.2,0.3,0.2,0.4,1.4,0.8l10.7,3.8
				C323.5,188.8,323.8,188.9,324.2,188.9C324.2,188.6,323.9,189.2,324.2,188.9z"/>
			<path class="st133" d="M321.7,187.8c0.3,0.3,0.1,0.7-0.4,0.9c-0.5,0.2-1.2,0.2-1.4-0.1c-0.3-0.3-0.1-0.7,0.4-0.9
				S321.4,187.6,321.7,187.8z"/>
			<path class="st105" d="M321.4,187.8c0.2,0.2,0.1,0.5-0.3,0.7c-0.4,0.2-0.9,0.2-1.1-0.1c-0.2-0.2-0.1-0.5,0.3-0.7
				C320.7,187.5,321.2,187.6,321.4,187.8z"/>
			<path class="st80" d="M321.4,187.6c0.2,0.2,0.1,0.5-0.3,0.6c-0.4,0.2-0.8,0.1-1-0.1c-0.2-0.2-0.1-0.5,0.3-0.6
				C320.7,187.4,321.2,187.4,321.4,187.6z"/>
			<path class="st68" d="M329.1,193.7c-0.6,0-1.1-0.1-1.5-0.3l-3.5-1.4c-0.8-0.3-1.4-1-1.5-1.7c-0.1-0.8,0.2-1.6,1-2.2
				c0.8-0.6,1.9-1,3.1-1c0.6,0,1.1,0.1,1.5,0.3l3.5,1.4c0.8,0.3,1.4,1,1.5,1.7c0.1,0.8-0.2,1.6-1,2.2
				C331.4,193.3,330.2,193.7,329.1,193.7z M324.7,190c0,0,0.1,0.1,0.2,0.1l3.5,1.4c0.2,0.1,0.5,0.1,0.8,0.1c0.7,0,1.4-0.2,1.8-0.6
				c0.1-0.1,0.2-0.2,0.2-0.3c0,0-0.1-0.1-0.2-0.1l-3.5-1.4c-0.2-0.1-0.5-0.1-0.8-0.1c-0.7,0-1.4,0.2-1.8,0.6
				C324.8,189.8,324.7,189.9,324.7,190z"/>
		</g>
		<g>
			<g id="XMLID_2_">
				<g>
					<polygon class="st138" points="308.8,176.3 298.9,178.8 303.9,175.4 				"/>
					<path class="st92" d="M300.4,182.3l8.4-5.9c-0.2,0.3-3.5,5.8-3.7,5.8c-0.2,0-1.7-0.9-1.7-0.9L300.4,182.3z"/>
					<polygon class="st65" points="298.3,173.7 299.7,170.5 298.9,175.3 				"/>
					<polygon class="st65" points="298.3,178.9 298.9,178.8 298.8,178.8 298.1,179.4 				"/>
					<polygon class="st69" points="298.3,178.9 299,175.8 298.9,175.3 299.7,170.5 305.9,172.2 308.8,176.3 303.9,175.4 298.9,178.8 
										"/>
					<polygon class="st65" points="299,175.8 298.3,178.9 298.2,178.9 298.9,175.3 				"/>
					<polygon class="st65" points="298.3,178.9 298.1,179.4 298.2,178.9 				"/>
					<polygon class="st137" points="298.1,179.4 296.2,181.2 294.2,179.9 298.2,178.9 				"/>
					<polygon class="st92" points="299.9,182.5 300.4,182.3 293.7,187 				"/>
					<polygon class="st92" points="300.4,182.3 299.9,182.5 293.7,187 287.4,181.6 290.9,181.6 291.5,180.6 294.2,179.9 296.2,181.2 
						298.1,179.4 298.8,178.8 298.9,178.8 308.8,176.3 308.8,176.4 				"/>
					<polygon class="st138" points="296.7,175.8 298.3,173.7 298.9,175.3 298.2,178.9 294.2,179.9 292.5,178.8 				"/>
					<polygon class="st13" points="296.7,175.8 292.5,178.8 298.3,173.7 				"/>
					<polygon class="st137" points="292.5,178.8 294.2,179.9 291.5,180.6 				"/>
					<path class="st130" d="M305.1,182.1c0.2,0,3.5-5.4,3.7-5.8l0,0l1.4,4.9c0,0-5.1,5.4-5.2,5.8c-0.2,0.4-11.3,0-11.3,0l6.7-4.7
						l2.9-1.1C303.3,181.2,304.9,182.1,305.1,182.1z"/>
					<polygon class="st152" points="287.4,177.1 295.7,173.2 299.7,170.5 298.3,173.7 292.5,178.8 291.5,180.6 287.4,181.6 				"/>
					<polygon class="st137" points="291.5,180.6 290.9,181.6 287.4,181.6 				"/>
				</g>
				<g>
				</g>
			</g>
		</g>
	</g>
	<g id="maker_man04_top">
		<g id="Mman04_body_1_">
			<g id="Mman04_right_hand">
				<path class="st67" d="M457.5,157.1c0,0-9.4,21.3-32.9,16.6"/>
				<g>
					<path class="st42" d="M419.8,177.8c3,0.7,5.9,1.2,8.6,1.5l0,0c5.3-3.6,0.3-10.1,0.3-10.1c-2.2-0.2-4.5-0.7-6.9-1.2
						c-2.6-0.6-5.2,1.1-5.7,3.8C415.5,174.4,417.2,177.2,419.8,177.8z"/>
				</g>
			</g>
			<path class="st155" d="M476.1,190.5c0.1,2.1,4.6,23-15.5,20.5c-9.1-1.1-17.5-7.3-17.9-13.7l0.6-6.5c0,0,5.6-5.2,14.9-5.5
				C467.4,185,476.1,190.5,476.1,190.5z"/>
			<path class="st29" d="M443.5,167v23.1c0,0.9,0.1,1.7,0.2,2.5c12.6,3,29.5,7.4,35.3-1.8c0-0.2,0-0.5,0-0.7V167
				c0-8.7-8-15.7-17.8-15.7c-4.9,0-9.4,1.8-12.6,4.6C445.5,158.8,443.5,162.7,443.5,167z"/>
			<g id="Mman04_left_hand">
				<path class="st67" d="M469.7,162.2c0,0-15.7,28.3-39.4,24.3"/>
				<g>
					<path class="st42" d="M424.6,190.6c3,0.6,5.9,1.1,8.6,1.2l0,0c5.2-3.8,0-10.1,0-10.1c-2.2-0.2-4.5-0.5-7-1
						c-2.7-0.6-5.2,1.2-5.6,3.9C420.1,187.3,421.9,190,424.6,190.6z"/>
				</g>
			</g>
			<g id="Mman04_head">
				<g>
					<path class="st46" d="M474,145.9c-0.2,0.9-1.1,1.5-2.1,1.3l-26.1-5.7c-0.9-0.2-1.5-1.1-1.3-2.1l0,0c0.2-0.9,1.1-1.5,2.1-1.3
						l26.1,5.7C473.6,144.1,474.2,145,474,145.9L474,145.9z"/>
					<g>
						<circle class="st42" cx="458.6" cy="143.7" r="12.2"/>
						<ellipse class="st90" cx="455.5" cy="148.8" rx="0.9" ry="0.9"/>
						<path class="st97" d="M459.7,143.7c0,0.9-0.8,1.7-1.7,1.7c-0.9,0-1.7-0.7-1.7-1.7c0-0.9,0.8-1.7,1.7-1.7
							C459,142,459.7,142.7,459.7,143.7z"/>
						<path class="st97" d="M453.6,142.4c0,0.9-0.8,1.7-1.7,1.7c-0.9,0-1.7-0.7-1.7-1.7c0-0.9,0.8-1.7,1.7-1.7
							C452.8,140.8,453.6,141.5,453.6,142.4z"/>
						<circle cx="450.8" cy="142" r="0.6"/>
						<path d="M457.5,143c0,0.3-0.3,0.6-0.6,0.6c-0.3,0-0.6-0.3-0.6-0.6c0-0.3,0.3-0.6,0.6-0.6C457.3,142.5,457.5,142.7,457.5,143z"
							/>
						<path class="st126" d="M455,145c-0.1,0.4-0.5,0.6-0.9,0.5l0,0c-0.4-0.1-0.6-0.5-0.5-0.9l0.6-2.4c0.1-0.4,0.5-0.6,0.9-0.5l0,0
							c0.4,0.1,0.6,0.5,0.5,0.9L455,145z"/>
					</g>
					<path class="st27" d="M457.5,139.9c0,0,0.9-0.8,2.2,0.3"/>
					<path class="st27" d="M451.6,138.9c1.2-1,2.1,0.2,2.2,0.3"/>
				</g>
				<g>
					<g id="XMLID_6_">
						<g>
							<path class="st128" d="M445.7,133c-0.3,0.8-0.4,1.7-0.4,2.6c0,0,0-0.1,0-0.1c0.1-1.4,1.1-6.2,2.1-7.4c0.9-1.1,1.8-1.9,2.8-2.6
								c-1,0.7-1.9,1.5-2.8,2.6C446.4,129.3,446,132.3,445.7,133z"/>
							<path class="st128" d="M459.5,137.7c-0.2,0.1-1.1,0.7-2.3,1.2c-2.2,0.8-3.9,0.6-3.9,0.6s3.1,0.7,4.1,0.7c1.3,0,4.9,0,7.7-1.9
								c1.1-0.8,1.7-1.6,2.1-2.3c-0.1,0.3-0.1,0.7-0.1,1.2c-0.1,2.7,1.1,5.5,1.1,5.5l0.5-2.7c0,0,0.6,0.5,0.8,1.2
								c1.1,2.6-1.3,5-1.3,5s2.5-1.3,3-3.2c0.3-1.1,0.2-1.7,0.2-2.6c0.4,1.5,1.2,3,1.2,3l0.1-5.3l0-0.2c0,0,0.3-1.9,0.4-4.3
								c0.1-2.3-0.8-4.1-2-5.5c-1.1-1.2-2.5-2.1-3.8-2.7c-0.4-0.2-0.9-0.4-1.2-0.5c-0.1-0.1-0.3-0.1-0.4-0.2
								c-0.4-0.1-0.7-0.2-0.9-0.3c0,0,0,0,0,0c-0.2,0-0.3-0.1-0.4-0.1c-0.1,0-0.2-0.1-0.3-0.1c0,0-0.1,0-0.1,0c0,0,0,0,0,0
								s-0.1,0-0.2-0.1c-1.2-0.4-8.1-2.1-13.4,1.3c0,0,0,0-0.1,0c-1,0.7-1.9,1.5-2.8,2.6c-0.9,1.2-1.9,6-2.1,7.4c0,0,0,0.1,0,0.1
								c0,0.2,0,0.4,0,0.5c4,1.4,6.7,0.1,7.4-0.3c0.1-0.1,0.2-0.1,0.2-0.1c-0.3,0.3-2.4,1.7-4,1.6c0.1,0.1,2.2,1.3,5.3,0.7
								c1.1-0.2,3.1-1.6,3.4-1.8c-0.2,0.2-1.2,1.2-2,1.6c-0.9,0.5-3,0.9-3,0.9s1.9,0.6,4.2,0.1C457.7,138.6,459.2,137.8,459.5,137.7z
								"/>
							<path class="st128" d="M447.9,137C447.9,137,447.9,137,447.9,137c0.1,0,0.2,0,0.2,0c2.5-0.1,3.8-0.6,4.6-1.2
								c-0.7,0.4-3.3,1.7-7.4,0.3c0,0,0,0.1,0,0.1l0,0.3c0.2,2.5,1.3,5.8,1.3,5.8s0-3.2,0.7-4.5c0.1-0.2,0.6-0.7,0.7-0.9
								C448.1,137,448,137,447.9,137z"/>
							<path class="st128" d="M463.7,124.1c-1.3-0.4-7.9-2.4-13.4,1.3C455.6,122,462.4,123.8,463.7,124.1z"/>
							<path class="st128" d="M463.9,124.2C463.9,124.2,464,124.2,463.9,124.2C464,124.2,463.9,124.2,463.9,124.2z"/>
							<path class="st128" d="M464.7,124.4c-0.2-0.1-0.3-0.1-0.4-0.1C464.4,124.3,464.6,124.4,464.7,124.4z"/>
							<path class="st128" d="M465.7,124.7c-0.4-0.1-0.7-0.2-0.9-0.3C465,124.5,465.3,124.6,465.7,124.7z"/>
							<path class="st128" d="M466.1,124.9c0.4,0.2,0.8,0.3,1.2,0.5C466.9,125.2,466.5,125,466.1,124.9z"/>
							<path class="st128" d="M472.7,138l0,0.2L472.7,138c0,0,0.3-1.9,0.4-4.3c0.1-2.3-0.8-4.1-2-5.5c1.2,1.4,2.1,3.2,2,5.5
								C473,136.1,472.7,138,472.7,138z"/>
						</g>
						<g>
							<path class="st109" d="M471.1,128.2c1.3,1.4,2.1,3.2,2,5.5c-0.1,2.4-0.4,4.3-0.4,4.3l0,0.2l-0.7,3.4"/>
							<path class="st109" d="M466.1,124.9c0.4,0.2,0.8,0.3,1.2,0.5"/>
							<path class="st109" d="M464.8,124.4c0.3,0.1,0.6,0.2,0.9,0.3"/>
							<path class="st109" d="M464.3,124.3c0.1,0,0.3,0.1,0.4,0.1"/>
							<path class="st109" d="M463.9,124.2C463.9,124.2,464,124.2,463.9,124.2"/>
							<path class="st109" d="M450.3,125.5c5.5-3.7,12.1-1.8,13.4-1.3"/>
							<path class="st109" d="M445.4,135.8c0-0.1,0-0.2,0-0.3c0.1-1.4,1.1-6.2,2.1-7.4c0.9-1.1,1.8-1.9,2.8-2.6"/>
							<path class="st109" d="M448.1,137C448.2,137,448.2,137,448.1,137"/>
							<path class="st109" d="M448.1,137C448.1,137,448.1,137,448.1,137"/>
							<path class="st109" d="M447.9,137C447.9,137,447.9,137,447.9,137c0,0,0.1,0,0.2,0"/>
							<path class="st109" d="M452.7,135.8c-0.7,0.5-2.1,1.1-4.6,1.2c-0.1,0-0.1,0-0.2,0c0,0,0,0,0,0"/>
							<path class="st109" d="M457.6,136.2C457.6,136.2,457.6,136.2,457.6,136.2L457.6,136.2c-0.3,0.2-2.3,1.6-3.4,1.8
								c-3.1,0.6-5.2-0.5-5.3-0.7c1.6,0.1,3.7-1.3,4-1.6"/>
							<path class="st109" d="M459.5,137.6C459.5,137.6,459.5,137.6,459.5,137.6C459.5,137.6,459.5,137.7,459.5,137.6
								c-0.3,0.2-1.8,0.9-2.7,1.1c-2.3,0.5-4.2-0.1-4.2-0.1s2.1-0.4,3-0.9c0.8-0.4,1.8-1.5,2-1.6"/>
							<path class="st109" d="M448.1,137c-0.1,0.2-0.6,0.7-0.7,0.9c-0.7,1.4-0.7,4.5-0.7,4.5s-1.1-3.4-1.3-5.8l0-0.3c0,0,0-0.1,0-0.1
								c0-0.2,0-0.4,0-0.5c0-0.9,0.1-1.7,0.4-2.6c0.2-0.7,0.7-3.7,1.7-4.9c0.8-1.1,1.8-1.9,2.8-2.6c0,0,0,0,0.1,0
								c5.3-3.5,12.2-1.7,13.4-1.3c0.2,0,0.2,0.1,0.2,0.1s0,0,0,0c0,0,0,0,0.1,0c0.1,0,0.2,0,0.3,0.1c0.1,0,0.3,0.1,0.4,0.1
								c0,0,0,0,0,0c0.3,0.1,0.6,0.2,0.9,0.3c0.1,0.1,0.3,0.1,0.4,0.2c0.4,0.1,0.8,0.3,1.2,0.5c1.3,0.6,2.7,1.5,3.8,2.7
								c1.2,1.4,2.1,3.2,2,5.5c-0.1,2.4-0.4,4.3-0.4,4.3l0,0.2l-0.1,5.3c0,0-0.8-1.6-1.2-3c0,0.8,0.1,1.5-0.2,2.6
								c-0.5,1.9-3,3.2-3,3.2s2.4-2.5,1.3-5c-0.3-0.7-0.8-1.2-0.8-1.2l-0.5,2.7c0,0-1.2-2.8-1.1-5.5c0-0.5,0.1-0.9,0.1-1.2
								c-0.3,0.7-0.9,1.6-2.1,2.3c-2.8,1.9-6.4,1.9-7.7,1.9c-1,0-4.1-0.7-4.1-0.7s1.7,0.3,3.9-0.6c1.2-0.4,2.1-1,2.3-1.2"/>
							<path class="st109" d="M445.1,136.1c0,0,0.1-0.2,0.2-0.5c0,0,0-0.1,0-0.1c0.7-1.4,2.9-5,6.3-6"/>
							<path class="st109" d="M452.9,135.7c0,0-0.1,0-0.2,0.1c-0.7,0.4-3.3,1.7-7.4,0.3c-0.1,0-0.2-0.1-0.2-0.1"/>
							<path class="st109" d="M467.2,135.9c0,0,0.7-1.7,0.8-3.5"/>
							<path class="st109" d="M462.4,134.5c-0.7,1.6-2.2,2.8-2.9,3.2"/>
							<path class="st109" d="M471.4,140.4c0,0-0.2-1.3-0.2-2.4"/>
							<path class="st109" d="M468.6,139.9c0,0,0.1-0.5,0.4-1.7"/>
						</g>
					</g>
				</g>
			</g>
		</g>
	</g>
</svg>
