<?xml version="1.0" encoding="utf-8"?>
<!-- Generator: Adobe Illustrator 16.0.0, SVG Export Plug-In . SVG Version: 6.00 Build 0)  -->
<!DOCTYPE svg PUBLIC "-//W3C//DTD SVG 1.1//EN" "http://www.w3.org/Graphics/SVG/1.1/DTD/svg11.dtd">
<svg version="1.1" id="圖層_1" xmlns="http://www.w3.org/2000/svg" xmlns:xlink="http://www.w3.org/1999/xlink" x="0px" y="0px"
	 width="80px" height="80px" viewBox="0 0 80 80" enable-background="new 0 0 80 80" xml:space="preserve">
<g>
	<g>
		<g>
			<path fill="#DDDDDD" d="M1.254,59.398c-0.321-5.444,3.15-11.542,7.758-13.625l57.376-25.941c4.607-2.082,8.6,0.642,8.922,6.087
				l0,0c0.322,5.441-3.149,11.541-7.757,13.623L10.175,65.484C5.571,67.564,1.575,64.842,1.254,59.398L1.254,59.398z"/>
			<path fill="#DDDDDD" d="M17.38,47.852c-0.458-7.732,4.477-16.398,11.02-19.355l23.858-10.787
				c6.546-2.958,12.22,0.912,12.674,8.644l0,0c0.455,7.733-4.477,16.398-11.021,19.356L30.054,56.495
				C23.513,59.451,17.837,55.582,17.38,47.852L17.38,47.852z"/>
			<path fill="#DDDDDD" d="M42.49,8.884c8.288-3.748,15.476,1.156,16.055,10.95c0.579,9.793-5.671,20.771-13.959,24.516
				c-8.288,3.748-15.477-1.155-16.055-10.949C27.954,23.607,34.203,12.63,42.49,8.884z"/>
		</g>
	</g>
	<g>
		<g>
			<path fill="#FFFFFF" d="M5.25,60.206c-0.321-5.443,3.152-11.541,7.756-13.622l57.377-25.941c4.605-2.083,8.602,0.642,8.922,6.085
				l0,0c0.321,5.442-3.15,11.542-7.757,13.626L14.171,66.293C9.565,68.376,5.572,65.652,5.25,60.206L5.25,60.206z"/>
			<path fill="#FFFFFF" d="M21.374,48.66c-0.454-7.73,4.479-16.396,11.021-19.353l23.858-10.787
				c6.544-2.958,12.218,0.911,12.673,8.644l0,0c0.457,7.731-4.476,16.396-11.019,19.355L34.048,57.308
				C27.507,60.264,21.832,56.394,21.374,48.66L21.374,48.66z"/>
			<path fill="#FFFFFF" d="M46.485,9.692c8.29-3.747,15.475,1.157,16.055,10.95c0.578,9.796-5.67,20.772-13.959,24.52
				c-8.288,3.746-15.476-1.155-16.055-10.951C31.95,24.417,38.198,13.44,46.485,9.692z"/>
		</g>
	</g>
</g>
</svg>
