<?xml version="1.0" encoding="utf-8"?>
<!-- Generator: Adobe Illustrator 16.0.0, SVG Export Plug-In . SVG Version: 6.00 Build 0)  -->
<!DOCTYPE svg PUBLIC "-//W3C//DTD SVG 1.1//EN" "http://www.w3.org/Graphics/SVG/1.1/DTD/svg11.dtd">
<svg version="1.1" id="圖層_1" xmlns="http://www.w3.org/2000/svg" xmlns:xlink="http://www.w3.org/1999/xlink" x="0px" y="0px"
	 width="80px" height="80px" viewBox="0 0 80 80" enable-background="new 0 0 80 80" xml:space="preserve">
<g>
	<g>
		<g>
			<path fill="#DDDDDD" d="M79.721,57.633c-0.075,5.453-3.943,8.352-8.638,6.48L12.595,40.779c-4.695-1.873-8.438-7.81-8.361-13.261
				l0,0c0.076-5.453,3.944-8.354,8.639-6.481l58.486,23.334C76.054,46.244,79.797,52.18,79.721,57.633L79.721,57.633z"/>
			<path fill="#DDDDDD" d="M63.093,46.822c-0.109,7.744-5.604,11.865-12.272,9.205L26.5,46.326
				c-6.669-2.66-11.987-11.096-11.879-18.841l0,0c0.108-7.745,5.602-11.866,12.273-9.205l24.319,9.703
				C57.883,30.643,63.201,39.077,63.093,46.822L63.093,46.822z"/>
			<path fill="#DDDDDD" d="M51.303,32.888c-0.137,9.811-7.098,15.032-15.545,11.661c-8.449-3.369-15.186-14.054-15.048-23.864
				S27.807,5.653,36.255,9.024C44.703,12.394,51.44,23.079,51.303,32.888z"/>
		</g>
	</g>
	<g>
		<g>
			<path fill="#FFFFFF" d="M75.765,58.619c-0.075,5.455-3.942,8.355-8.638,6.482L8.64,41.769c-4.694-1.874-8.438-7.811-8.361-13.262
				l0,0c0.077-5.453,3.943-8.354,8.639-6.481l58.487,23.334C72.098,47.232,75.842,53.168,75.765,58.619L75.765,58.619z"/>
			<path fill="#FFFFFF" d="M59.138,47.811c-0.109,7.746-5.604,11.867-12.272,9.209l-24.32-9.704
				c-6.669-2.661-11.987-11.097-11.879-18.841l0,0c0.109-7.746,5.603-11.867,12.273-9.206l24.319,9.703
				C53.927,31.632,59.245,40.067,59.138,47.811L59.138,47.811z"/>
			<path fill="#FFFFFF" d="M47.348,33.878c-0.138,9.811-7.098,15.031-15.546,11.661c-8.448-3.371-15.185-14.055-15.047-23.866
				c0.138-9.81,7.097-15.032,15.545-11.661C40.748,13.383,47.485,24.067,47.348,33.878z"/>
		</g>
	</g>
</g>
</svg>
