<?xml version="1.0" encoding="utf-8"?>
<!-- Generator: Adobe Illustrator 16.0.0, SVG Export Plug-In . SVG Version: 6.00 Build 0)  -->
<!DOCTYPE svg PUBLIC "-//W3C//DTD SVG 1.1 Tiny//EN" "http://www.w3.org/Graphics/SVG/1.1/DTD/svg11-tiny.dtd">
<svg version="1.1" baseProfile="tiny" id="圖層_1"
	 xmlns="http://www.w3.org/2000/svg" xmlns:xlink="http://www.w3.org/1999/xlink" x="0px" y="0px" width="60px" height="60px"
	 viewBox="0 0 60 60" xml:space="preserve">
<g>
	<path fill="#FBD308" d="M58.512,12.427c-2.453-4.863-5.429-7.176-10.797-9.263C41.143,0.61,33.385-0.142,26.28,0.182
		C20.263,0.457,13.042,1.739,9.636,6.727c-2.542,3.724-3.6,10.255-1.169,14.183c0.453,3.392,6.802,7.516,9.651,9.333
		c5.862,3.738,11.812,5.063,18.904,5.1c6.462,0.035,15.468-1.349,19.869-6.127C61.421,24.297,61.301,17.949,58.512,12.427
		C57.486,10.394,59.501,14.383,58.512,12.427z"/>
	<path fill="#FBD308" d="M18.011,36.506c-0.098-0.414-0.343-0.718-0.668-0.951c-0.112-0.35-0.381-0.67-0.853-0.896
		c-0.696-0.334-1.297-0.754-2.037-1.016c-0.928-0.329-1.937-0.322-2.915-0.467c-1.599-0.236-2.852,0.088-4.28,0.716
		c-2.935,1.291-2.757,5.368-0.221,6.933c1.354,0.833,2.871,0.852,4.455,0.838c1.975-0.018,3.527-0.129,5.087-1.342
		C17.903,39.291,18.376,38.054,18.011,36.506z"/>
	<path fill="#FBD308" d="M5.937,43.755C5.4,43.317,4.825,43.186,4.18,43.148c-0.283-0.163-0.614-0.261-0.969-0.26
		c-1.583,0.005-3.09,0.871-3.2,2.398c-0.054,0.754,0.083,1.403,0.693,1.968c0.388,0.357,0.962,0.532,1.507,0.551
		c0.126,0.005,0.735,0.036,0.247-0.042c0.75,0.12,1.399,0.202,2.121-0.061c0.854-0.313,1.542-0.798,1.846-1.615
		C6.706,45.336,6.635,44.322,5.937,43.755z"/>
</g>
<g>
	<path fill="#FFFFFF" d="M34.166,12.829c0-1.267-0.988-1.928-2.295-1.928c-1.307,0-2.231,0.604-3.22,1.497l-3.124-2.59
		c1.753-1.813,4.176-3.021,7.045-3.021c3.952,0,7.044,1.698,7.044,5.698c0,4-5.45,5.18-5.036,8.979h-4.94
		C28.875,17.03,34.166,15.188,34.166,12.829z M28.715,26.44c0-1.755,1.403-3.166,3.379-3.166c1.944,0,3.379,1.41,3.379,3.166
		c0,1.784-1.435,3.194-3.379,3.194C30.118,29.635,28.715,28.225,28.715,26.44z"/>
</g>
</svg>
