<?xml version="1.0" encoding="utf-8"?>
<!-- Generator: Adobe Illustrator 16.0.0, SVG Export Plug-In . SVG Version: 6.00 Build 0)  -->
<!DOCTYPE svg PUBLIC "-//W3C//DTD SVG 1.1//EN" "http://www.w3.org/Graphics/SVG/1.1/DTD/svg11.dtd">
<svg version="1.1" id="圖層_1" xmlns="http://www.w3.org/2000/svg" xmlns:xlink="http://www.w3.org/1999/xlink" x="0px" y="0px"
	 width="300px" height="200px" viewBox="0 0 300 200" enable-background="new 0 0 300 200" xml:space="preserve">
<path fill="#FFFFFF" d="M274.492,108.365c0.535-2.165,0.848-4.415,0.848-6.746c0-15.536-12.593-28.129-28.13-28.129
	c-1.521,0-3.006,0.153-4.463,0.386c-1.096-19.788-17.485-35.5-37.545-35.5c-12.048,0-22.767,5.672-29.646,14.486
	c-5.549-18.866-22.979-32.644-43.636-32.644c-19.561,0-36.232,12.345-42.657,29.667c-4.404-2.854-9.641-4.528-15.277-4.528
	c-15.536,0-28.131,12.595-28.131,28.133c-25.126,0-45.489,20.365-45.489,45.487c0,24.115,18.77,43.838,42.497,45.38v0.107h228.646
	c15.531,0,28.129-12.593,28.129-28.128C299.636,121.809,288.623,109.859,274.492,108.365z"/>
</svg>
